<?xml version="1.0" standalone="no"?>
<!DOCTYPE svg PUBLIC "-//W3C//DTD SVG 1.1//EN" "http://www.w3.org/Graphics/SVG/1.1/DTD/svg11.dtd" >
<svg xmlns="http://www.w3.org/2000/svg">
<metadata>Generated by IcoMoon</metadata>
<defs>
<font id="lsfontset" horiz-adv-x="1024">
<font-face units-per-em="1024" ascent="960" descent="-64" />
<missing-glyph horiz-adv-x="1024" />
<glyph unicode="&#x20;" horiz-adv-x="512" d="" />
<glyph unicode="&#xe900;" glyph-name="lsi-3d" d="M64 640l359.040-83.2v-479.36l-359.040 84.48v478.080zM0 719.36v-604.8l485.76-114.56v604.16l-485.76 115.2zM960 640v-480l-357.76-82.56v480l357.76 82.56zM1024 717.44l-486.4-113.28v-604.16l486.4 114.56v604.8zM512 849.28l314.24-74.24-314.24-74.24-314.24 74.24 314.24 74.24zM512 896l-512-120.96 512-120.96 512 120.96-512 120.96z" />
<glyph unicode="&#xe901;" glyph-name="lsi-add-account" d="M512-64c-282.77 0-512 229.23-512 512s229.23 512 512 512c282.77 0 512-229.23 512-512v0c0.003-0.632 0.004-1.378 0.004-2.126 0-66.52-12.928-130.020-36.408-188.126l1.204 3.371c-5.901-14.66-20.004-24.819-36.48-24.819-21.66 0-39.219 17.559-39.219 39.219 0 5.184 1.006 10.134 2.833 14.663l-0.094-0.263c18.523 46.894 29.316 101.209 29.44 158.029v0.051c0 239.294-193.986 433.28-433.28 433.28s-433.28-193.986-433.28-433.28c0-239.294 193.986-433.28 433.28-433.28v0c62.208 0.051 121.379 12.994 175.005 36.301l-2.845-1.101c4.669 2.131 10.127 3.373 15.875 3.373 16.077 0 29.884-9.718 35.868-23.6l0.097-0.253c2.004-4.585 3.17-9.927 3.17-15.542 0-16.113-9.604-29.983-23.4-36.197l-0.25-0.101c-59.929-26.296-129.782-41.6-203.209-41.6-0.109 0-0.218 0-0.327 0h0.016zM512 444.16c73.517 0.003 133.114 59.602 133.114 133.12 0 73.52-59.6 133.12-133.12 133.12s-133.12-59.6-133.12-133.12c0-0.45 0.002-0.9 0.007-1.348l-0.001 0.068c0.724-72.968 60.044-131.84 133.114-131.84 0.002 0 0.004 0 0.006 0v0zM512 403.84c-0.454 0.003-0.992 0.005-1.53 0.005-104.347 0-194.112-62.43-233.982-151.976l-0.648-1.629c56.524-68.282 141.3-111.458 236.16-111.458s179.636 43.175 235.749 110.947l0.411 0.511c-40.518 91.175-130.283 153.605-234.63 153.605-0.538 0-1.076-0.002-1.613-0.005h0.083zM870.4 275.84h-71.040v-115.2h-115.2v-64h115.2v-122.24h71.040v123.52h113.92v64h-113.92z" />
<glyph unicode="&#xe902;" glyph-name="lsi-add-drive" d="M124.687 94.419v-15.661l5.421 41.562c-2.846-7.617-4.78-16.434-5.405-25.61l-0.016-0.291zM60.235 94.419v-14.456l6.626 55.416c-4.205-11.75-6.636-25.307-6.636-39.43 0-0.538 0.004-1.075 0.011-1.611l-0.001 0.081zM963.765 105.261v16.866l-96.979 789.685c-5.742 27.763-29.993 48.335-59.048 48.335-1.478 0-2.943-0.053-4.394-0.158l0.194 0.011h-580.668c-1.256 0.093-2.721 0.147-4.199 0.147-29.055 0-53.305-20.572-58.98-47.944l-0.068-0.39-92.762-777.035-6.626-54.814v-7.228c1.348-75.809 63.119-136.746 139.123-136.746 0.643 0 1.284 0.004 1.925 0.013l-0.097-0.001h621.628c0.544-0.008 1.185-0.012 1.828-0.012 76.004 0 137.775 60.938 139.121 136.62l0.002 0.126v21.685c0.143 1.624 0.224 3.513 0.224 5.421s-0.081 3.798-0.241 5.664l0.017-0.243zM223.473 896.151h580.066l80.715-678.852c-17.538 9.014-38.251 14.344-60.199 14.456h-622.869c-0.050 0-0.109 0-0.169 0-21.798 0-42.455-4.885-60.935-13.621l0.869 0.369zM898.108 72.734c-0.672-40.401-33.581-72.895-74.080-72.895-0.427 0-0.853 0.004-1.278 0.011l0.064-0.001h-621.628c-0.361-0.006-0.787-0.010-1.214-0.010-40.498 0-73.407 32.493-74.079 72.832l-0.001 0.063v21.685c0 0.008 0 0.018 0 0.028 0 9.361 1.996 18.256 5.585 26.282l-0.163-0.409c10.74 27.712 37.184 47.004 68.135 47.004 0.611 0 1.22-0.008 1.828-0.022l-0.090 0.002h621.628c0.241 0.003 0.525 0.004 0.809 0.004 36.138 0 66.281-25.664 73.199-59.76l0.081-0.48c0.142-2.251 0.223-4.881 0.223-7.529s-0.081-5.279-0.241-7.887l0.018 0.358zM752.941 121.525c-20.626 0-37.346-16.72-37.346-37.346v0c0-0.001 0-0.003 0-0.005 0-20.293 16.451-36.744 36.744-36.744 0.212 0 0.423 0.002 0.634 0.005h-0.032c20.293 0 36.744 16.451 36.744 36.744v0c0.003 0.179 0.005 0.391 0.005 0.602 0 20.293-16.451 36.744-36.744 36.744-0.002 0-0.003 0-0.005 0v0zM513.205 807.605c-0.907 0.013-1.977 0.020-3.050 0.020-126.27 0-228.908-101.18-231.262-226.887l-0.003-0.22c2.357-125.927 104.996-227.107 231.265-227.107 1.072 0 2.143 0.007 3.212 0.022l-0.162-0.002c1.26-0.025 2.746-0.039 4.236-0.039 126.035 0 228.402 101.331 230.078 226.968l0.002 0.158c-2.018 125.861-104.521 227.116-230.673 227.116-1.281 0-2.559-0.010-3.835-0.031l0.193 0.002zM655.962 557.026h-117.459v-114.447h-49.995v114.447h-116.856v46.984h116.856v115.049h48.791v-114.447h120.471z" />
<glyph unicode="&#xe903;" glyph-name="lsi-add-fill" d="M512-64c-282.77 0-512 229.23-512 512s229.23 512 512 512c282.77 0 512-229.23 512-512v0c0-282.77-229.23-512-512-512v0zM448 384v-256h128v256h256v128h-256v256h-128v-256h-256v-128z" />
<glyph unicode="&#xe904;" glyph-name="lsi-add-folder" d="M800 426.24c-109.927 0-199.040-89.113-199.040-199.040s89.113-199.040 199.040-199.040c109.927 0 199.040 89.113 199.040 199.040v0c0 109.927-89.113 199.040-199.040 199.040v0zM920.96 206.080h-99.84v-99.84h-42.24v99.84h-99.84v41.6h99.84v100.48h42.24v-100.48h99.84zM593.92 133.76h-512c-0.191-0.005-0.415-0.008-0.64-0.008-14.845 0-26.88 12.035-26.88 26.88 0 0.003 0 0.005 0 0.008v0 433.28h826.88v-154.88c21.028-8.166 39.201-18.514 55.559-31.104l-0.519 0.384v295.68c0.006 0.381 0.010 0.832 0.010 1.283 0 45.243-36.677 81.92-81.92 81.92-0.229 0-0.457-0.001-0.685-0.003h-345.565c-9.153 0.010-17.179 4.823-21.697 12.052l-0.063 0.108-38.4 58.24c-13.437 22.097-36.837 36.975-63.804 38.392l-0.196 0.008h-301.44c-0.19 0.002-0.415 0.003-0.64 0.003-45.243 0-81.92-36.677-81.92-81.92 0-0.001 0-0.002 0-0.003v0-653.44c0.361-44.968 36.899-81.283 81.918-81.283 0.226 0 0.452 0.001 0.677 0.003h547.165c-14.443 15.481-26.475 33.456-35.342 53.163l-0.498 1.237zM55.040 814.080c0 15.199 12.321 27.52 27.52 27.52v0h301.44c7.79-0.154 14.686-3.853 19.159-9.546l0.041-0.054 36.48-64c14.777-22.626 39.864-37.449 68.433-37.76h345.647c15.199 0 27.52-12.321 27.52-27.52v-51.2h-826.24z" />
<glyph unicode="&#xe905;" glyph-name="lsi-add" d="M512 896c247.424 0 448-200.576 448-448s-200.576-448-448-448c-247.424 0-448 200.576-448 448v0c0 247.424 200.576 448 448 448v0zM512 960c-282.77 0-512-229.23-512-512s229.23-512 512-512c282.77 0 512 229.23 512 512v0c0 282.77-229.23 512-512 512v0zM563.84 502.4h166.4v-96.64h-166.4v-192h-103.040v192h-167.040v96.64h167.040v177.28h103.040z" />
<glyph unicode="&#xe906;" glyph-name="lsi-alert-notification" d="M512 896c247.424 0 448-200.576 448-448s-200.576-448-448-448c-247.424 0-448 200.576-448 448v0c0 247.424 200.576 448 448 448v0zM512 960c-282.77 0-512-229.23-512-512s229.23-512 512-512c282.77 0 512 229.23 512 512v0c0 282.77-229.23 512-512 512v0zM512 832c-212.077 0-384-171.923-384-384s171.923-384 384-384c212.077 0 384 171.923 384 384v0c0 212.077-171.923 384-384 384v0zM558.72 723.84l-8.96-384h-78.080l-8.96 384zM550.4 186.24c-9.354-8.761-21.968-14.143-35.838-14.143-0.901 0-1.797 0.023-2.687 0.068l0.125-0.005c-0.765-0.040-1.661-0.063-2.562-0.063-13.871 0-26.484 5.381-35.867 14.17l0.029-0.027c-8.328 8.433-13.472 20.027-13.472 32.823 0 0.611 0.012 1.219 0.035 1.824l-0.003-0.087c-0.015 0.441-0.023 0.96-0.023 1.481 0 13.193 5.394 25.126 14.098 33.714l0.005 0.005c10.051 8.762 23.282 14.104 37.76 14.104s27.709-5.342 37.829-14.162l-0.069 0.059c8.709-8.593 14.103-20.526 14.103-33.719 0-0.521-0.008-1.040-0.025-1.557l0.002 0.075c0.021-0.518 0.032-1.126 0.032-1.737 0-12.796-5.144-24.39-13.477-32.828l0.005 0.005z" />
<glyph unicode="&#xe907;" glyph-name="lsi-annotate_1" horiz-adv-x="1019" d="M1017.64 451.18l-302.748 508.82-161.55-268.402c-16.533 3.804-35.596 6.107-55.153 6.358l-0.181 0.002c-134.732-0.482-245.586-102.080-260.656-232.837l-0.114-1.22h-237.237v-527.901h527.265v237.237c132.657 14.555 235.070 125.565 235.965 260.679v0.091c0 6.996 0 13.993 0 20.353zM915.24 514.783h-401.332l200.984 333.277zM58.514-5.486v410.236h178.723c14.389-121.633 109.88-217.125 230.27-231.393l1.243-0.12v-178.723zM703.443 434.007c-1.436-112.36-92.856-202.892-205.42-202.892-113.459 0-205.436 91.977-205.436 205.436 0 113.454 91.968 205.427 205.419 205.436h0.001c3.335 0.311 7.212 0.488 11.13 0.488s7.795-0.177 11.624-0.524l-0.493 0.036-110.032-190.807h289.391c0-6.36 0-13.357 0-20.353z" />
<glyph unicode="&#xe908;" glyph-name="lsi-annotate" d="M1024 263.040c-0.81 67.807-38.756 126.567-94.414 156.967l-0.946 0.473c-26.539 84.461-104.124 144.657-195.77 144.657-0.925 0-1.848-0.006-2.77-0.018l0.14 0.001c-32.892-0.584-63.842-8.312-91.552-21.691l1.312 0.571c-18.796 35.285-50.114 61.816-87.886 73.942l-1.074 0.298-33.28-64c27.34-7.068 48.275-28.643 54.308-55.826l0.092-0.494c-17.735-18.984-31.206-42.185-38.739-67.921l-0.301-1.199c-31.758-7.546-59.114-23.259-80.639-44.799l-0.001-0.001c-7.364-6.148-12.015-15.331-12.015-25.6s4.651-19.452 11.962-25.557l0.053-0.043c7.144-6.546 16.703-10.557 27.2-10.557s20.056 4.011 27.23 10.584l-0.030-0.027c17.927 15.492 41.462 24.929 67.2 24.929s49.273-9.437 67.332-25.040l-0.132 0.111c7.010-6.358 16.358-10.25 26.616-10.25 0.318 0 0.635 0.004 0.951 0.011l-0.047-0.001c0.173-0.003 0.378-0.004 0.583-0.004 10.565 0 20.223 3.878 27.63 10.289l-0.053-0.045c6.805 6.432 11.041 15.522 11.041 25.6s-4.236 19.168-11.024 25.584l-0.017 0.016c-21.827 20.582-49.12 35.6-79.47 42.651l-1.17 0.229c6.335 11.676 14.236 21.618 23.576 29.988l0.104 0.092c23.455 21.434 54.813 34.564 89.238 34.564 0.352 0 0.705-0.001 1.056-0.004h-0.054c0.889 0.022 1.936 0.035 2.986 0.035 60.953 0 111.955-42.604 124.852-99.658l0.163-0.856c2.431-12.71 10.855-23.035 22.156-28.063l0.244-0.097c39.73-16.636 67.252-54.952 67.839-99.766l0.001-0.074c-2.346-59.607-49.894-107.378-109.191-110.071l-0.249-0.009c-11.375-0.977-21.304-6.469-28.106-14.653l-0.054-0.067c-4.856-5.826-7.803-13.391-7.803-21.645 0-2.535 0.278-5.005 0.805-7.381l-0.042 0.225c4.49-19.623 7.064-42.157 7.064-65.292 0-1.346-0.009-2.69-0.026-4.031l0.002 0.204c-16.044 20.596-33.251 38.818-52.030 55.293l-0.45 0.387c18.847 24.778 30.193 56.152 30.193 90.177 0 2.048-0.041 4.086-0.123 6.114l0.009-0.291c0 21.561-17.479 39.040-39.040 39.040s-39.040-17.479-39.040-39.040v0c0.024-0.755 0.038-1.643 0.038-2.534 0-27.334-12.982-51.637-33.117-67.078l-0.201-0.148s0 0-3.2 0c-1.359-1.649-3.075-2.954-5.033-3.806l-0.087-0.034-5.76-3.84c-13.744-8.048-30.264-12.8-47.893-12.8-0.038 0-0.075 0-0.113 0h0.006c-0.38-0.005-0.828-0.009-1.277-0.009-41.316 0-76.453 26.452-89.4 63.345l-0.203 0.664c-4.972 15.442-19.212 26.418-36.016 26.418-1.29 0-2.565-0.065-3.822-0.191l0.158 0.013h-149.76l-37.12-72.96h159.36c30.271-54.57 87.543-90.894 153.298-90.894 0.781 0 1.561 0.005 2.34 0.015l-0.118-0.001c0.26-0.001 0.569-0.002 0.877-0.002 31.062 0 60.297 7.819 85.845 21.596l-0.962-0.474c26.772-24.799 49.879-52.996 68.783-84.034l0.977-1.726c11.69-16.693 30.821-27.483 52.474-27.52h12.806c24.649 4.171 43.83 23.351 47.952 47.657l0.048 0.343c1.943 15.275 3.052 32.948 3.052 50.88s-1.109 35.605-3.262 52.954l0.21-2.074c81.15 20.202 140.675 91.511 142.716 177.056l0.004 0.224zM350.080 664.32l78.080-40.32-259.2-496-64-21.12-17.28 60.16 236.16 448 23.68 45.44zM323.2 768c-0.232 0.009-0.504 0.015-0.777 0.015-8.056 0-15.026-4.651-18.37-11.415l-0.054-0.12-53.12-97.92-250.88-472.96c-0.915-2.277-1.446-4.916-1.446-7.68s0.531-5.403 1.496-7.823l-0.050 0.143 43.52-149.12c2.593-8.938 10.706-15.361 20.32-15.361 0.056 0 0.113 0 0.169 0.001h7.671l147.84 51.2c5.272 1.818 9.524 5.447 12.103 10.128l0.057 0.112 302.080 572.8c1.588 2.894 2.522 6.342 2.522 10.008 0 8.145-4.611 15.213-11.365 18.737l-0.117 0.055-192 99.2c-1.439 0.416-3.091 0.655-4.8 0.655s-3.361-0.239-4.926-0.686l0.126 0.031zM563.84 745.6l-192 98.56c-7.15 3.486-11.988 10.7-11.988 19.044 0 3.566 0.884 6.925 2.444 9.871l-0.055-0.115 40.32 75.52c3.318 8.039 11.095 13.594 20.169 13.594 3.367 0 6.556-0.765 9.401-2.13l-0.131 0.057 192-97.92c7.185-3.473 12.054-10.705 12.054-19.075 0-4.070-1.151-7.871-3.146-11.096l0.052 0.091-39.68-76.8c-3.857-7.083-11.246-11.81-19.739-11.81-3.528 0-6.865 0.816-9.834 2.268l0.132-0.058z" />
<glyph unicode="&#xe909;" glyph-name="lsi-announce-dashboard" d="M960 960h-896c-35.346 0-64-28.654-64-64v0-896c0-35.346 28.654-64 64-64v0h896c35.346 0 64 28.654 64 64v0 896c0 35.346-28.654 64-64 64v0zM960 0h-896v768h896zM704 542.080c-8.798 0.053-16.729 3.72-22.391 9.591l-0.009 0.009c-5.846 5.8-9.466 13.837-9.466 22.72s3.619 16.92 9.463 22.718l52.482 52.482c5.8 5.846 13.837 9.466 22.72 9.466s16.92-3.619 22.718-9.463l0.002-0.002c5.976-5.618 9.697-13.574 9.697-22.4s-3.722-16.782-9.681-22.385l-0.016-0.015-52.48-53.12c-5.892-5.912-14.036-9.577-23.036-9.6h-0.004zM812.8 423.040h-72.96c-17.673 0-32 14.327-32 32v0c0.351 17.53 14.47 31.649 31.967 31.999l0.033 0.001h74.88c17.673 0 32-14.327 32-32v0c0-17.673-14.327-32-32-32v0zM586.24 576c-17.53 0.351-31.649 14.47-31.999 31.967l-0.001 0.033v74.88c0 17.673 14.327 32 32 32v0c17.673 0 32-14.327 32-32v0-74.88c0-17.673-14.327-32-32-32v0zM704 320l-304.64-152.96c-4.153-2.17-9.071-3.443-14.287-3.443-8.669 0-16.516 3.517-22.193 9.203v0l-58.24 58.24c-5.686 5.677-9.203 13.524-9.203 22.193 0 5.216 1.273 10.134 3.526 14.461l-0.082-0.174 149.12 302.080c5.609 10.358 16.395 17.274 28.797 17.274 9.649 0 18.321-4.187 24.296-10.844l0.027-0.030 60.16-60.16c10.269 7.324 23.074 11.711 36.903 11.711 16.023 0 30.67-5.888 41.897-15.618l-0.080 0.068c11.145-11.503 18.015-27.206 18.015-44.513 0-13.771-4.349-26.526-11.749-36.966l0.134 0.199 64-64c4.583-5.497 7.365-12.636 7.365-20.424 0-10.852-5.401-20.441-13.662-26.228l-0.103-0.068zM334.080 80c-0.245-0.007-0.533-0.011-0.822-0.011-8.635 0-16.471 3.42-22.227 8.979l0.009-0.009-90.24 90.88c-5.656 5.767-9.147 13.676-9.147 22.4s3.491 16.633 9.152 22.405l-0.005-0.005c5.8 5.846 13.837 9.466 22.72 9.466s16.92-3.619 22.718-9.463l90.242-90.242c5.846-5.8 9.466-13.837 9.466-22.72s-3.619-16.92-9.463-22.718l-0.002-0.002c-5.459-5.542-13.046-8.976-21.434-8.976-0.34 0-0.678 0.006-1.015 0.017l0.049-0.001z" />
<glyph unicode="&#xe90a;" glyph-name="lsi-applications" d="M512 512c35.346 0 64-28.654 64-64s-28.654-64-64-64c-35.346 0-64 28.654-64 64v0c0 35.346 28.654 64 64 64v0zM512 576c-70.692 0-128-57.308-128-128s57.308-128 128-128c70.692 0 128 57.308 128 128v0c0 70.692-57.308 128-128 128v0zM128 512c35.346 0 64-28.654 64-64s-28.654-64-64-64c-35.346 0-64 28.654-64 64v0c0 35.346 28.654 64 64 64v0zM128 576c-70.692 0-128-57.308-128-128s57.308-128 128-128c70.692 0 128 57.308 128 128v0c0 70.692-57.308 128-128 128v0zM896 512c35.346 0 64-28.654 64-64s-28.654-64-64-64c-35.346 0-64 28.654-64 64v0c0 35.346 28.654 64 64 64v0zM896 576c-70.692 0-128-57.308-128-128s57.308-128 128-128c70.692 0 128 57.308 128 128v0c0 70.692-57.308 128-128 128v0zM512 896c35.346 0 64-28.654 64-64s-28.654-64-64-64c-35.346 0-64 28.654-64 64v0c0 35.346 28.654 64 64 64v0zM512 960c-70.692 0-128-57.308-128-128s57.308-128 128-128c70.692 0 128 57.308 128 128v0c0 70.692-57.308 128-128 128v0zM128 896c35.346 0 64-28.654 64-64s-28.654-64-64-64c-35.346 0-64 28.654-64 64v0c0 35.346 28.654 64 64 64v0zM128 960c-70.692 0-128-57.308-128-128s57.308-128 128-128c70.692 0 128 57.308 128 128v0c0 70.692-57.308 128-128 128v0zM896 896c35.346 0 64-28.654 64-64s-28.654-64-64-64c-35.346 0-64 28.654-64 64v0c0 35.346 28.654 64 64 64v0zM896 960c-70.692 0-128-57.308-128-128s57.308-128 128-128c70.692 0 128 57.308 128 128v0c0 70.692-57.308 128-128 128v0zM512 128c35.346 0 64-28.654 64-64s-28.654-64-64-64c-35.346 0-64 28.654-64 64v0c0 35.346 28.654 64 64 64v0zM512 192c-70.692 0-128-57.308-128-128s57.308-128 128-128c70.692 0 128 57.308 128 128v0c0 70.692-57.308 128-128 128v0zM128 128c35.346 0 64-28.654 64-64s-28.654-64-64-64c-35.346 0-64 28.654-64 64v0c0 35.346 28.654 64 64 64v0zM128 192c-70.692 0-128-57.308-128-128s57.308-128 128-128c70.692 0 128 57.308 128 128v0c0 70.692-57.308 128-128 128v0zM896 128c35.346 0 64-28.654 64-64s-28.654-64-64-64c-35.346 0-64 28.654-64 64v0c0 35.346 28.654 64 64 64v0zM896 192c-70.692 0-128-57.308-128-128s57.308-128 128-128c70.692 0 128 57.308 128 128v0c0 70.692-57.308 128-128 128v0z" />
<glyph unicode="&#xe90b;" glyph-name="lsi-auth" horiz-adv-x="768" d="M384 629.12l296.96-128c-19.84-320-221.44-440.32-294.4-474.24-176.573 87.468-296.498 265.218-299.515 471.279l-0.005 0.401 296.96 130.56zM384 719.36l-384-168.96c0-492.8 384-614.4 384-614.4s384 117.76 384 614.4l-384 168.96zM512 427.52c-2.826 68.455-59.006 122.88-127.898 122.88-0.036 0-0.072 0-0.108 0h0.005c-0.030 0-0.066 0-0.102 0-68.892 0-125.072-54.425-127.889-122.625l-0.008-0.255c0.703-53.86 35.771-99.347 84.248-115.587l0.872-0.253v-128c0-23.329 18.911-42.24 42.24-42.24s42.24 18.911 42.24 42.24v0 128c49.883 16.063 85.506 61.675 86.399 115.736l0.001 0.104zM682.88 673.28c0-12.8 0-25.6 0-38.4l-83.2 36.48c-1.020 114.452-94.037 206.839-208.632 206.839-2.478 0-4.947-0.043-7.404-0.129l0.357 0.010c-1.344 0.031-2.927 0.049-4.514 0.049-113.896 0-206.476-91.263-208.603-204.65l-0.003-0.199-83.2-36.48c0 12.8 0 25.6 0 38.4 4.977 158.343 134.531 284.812 293.624 284.812 0.948 0 1.895-0.004 2.841-0.013l-0.145 0.001c1.548 0.029 3.374 0.046 5.203 0.046 159.78 0 289.766-127.564 293.67-286.404l0.007-0.362z" />
<glyph unicode="&#xe90c;" glyph-name="lsi-back-level" d="M956.16 760.32c-29.857 27.471-69.869 44.312-113.814 44.312-2.513 0-5.014-0.055-7.5-0.164l0.354 0.012h-718.72l115.84 101.12c5.944 5.511 9.653 13.363 9.653 22.080s-3.708 16.569-9.633 22.062l-0.019 0.018c-5.831 5.511-13.72 8.9-22.4 8.9s-16.569-3.388-22.416-8.914l0.016 0.015-176.64-153.6c-6.598-5.816-10.77-14.25-10.88-23.661v-0.019c0.129-9.229 4.308-17.457 10.836-23.004l0.044-0.036 181.12-156.16c5.557-4.775 12.839-7.682 20.799-7.682 0.113 0 0.225 0.001 0.338 0.002h-0.017c0.147-0.002 0.321-0.004 0.495-0.004 9.174 0 17.429 3.94 23.163 10.22l0.022 0.024c5.944 5.511 9.653 13.363 9.653 22.080s-3.708 16.569-9.633 22.062l-0.019 0.018-122.24 102.4h721.28c1.744 0.103 3.783 0.162 5.836 0.162 27.095 0 51.792-10.267 70.414-27.122l-0.090 0.080c29.859-32.73 48.147-76.463 48.147-124.468 0-2.592-0.053-5.172-0.159-7.739l0.012 0.367v-177.28c-0.966-47.22-21.156-89.542-53.036-119.602l-0.084-0.078c-25.398-24.372-59.876-39.451-97.875-39.68h-4.525c-1.539 0.321-3.308 0.504-5.12 0.504s-3.581-0.184-5.289-0.533l0.169 0.029v118.4c-2.134 71.145-60.319 128.007-131.784 128.007-0.47 0-0.939-0.002-1.407-0.007l0.071 0.001h-304.64c-0.397 0.004-0.866 0.007-1.336 0.007-71.465 0-129.65-56.862-131.78-127.811l-0.005-0.196v-301.44c2.134-71.145 60.319-128.007 131.784-128.007 0.47 0 0.939 0.002 1.407 0.007l-0.071-0.001h304.64c0.397-0.004 0.866-0.007 1.336-0.007 71.465 0 129.65 56.862 131.78 127.811l0.005 0.196v122.88c1.343-0.143 2.902-0.225 4.48-0.225s3.136 0.082 4.672 0.241l-0.192-0.016h5.76c0.002 0 0.004 0 0.006 0 55.032 0 105.056 21.437 142.178 56.417l-0.104-0.097c43.577 40.92 71.238 98.35 72.953 162.25l0.007 0.31v178.56c0.066 2.123 0.104 4.62 0.104 7.126 0 65.589-25.896 125.13-68.021 168.955l0.077-0.081zM730.24 64c-2.419-35.845-32.088-64.005-68.334-64.005-0.277 0-0.553 0.002-0.828 0.005h-304.598c-0.234-0.003-0.51-0.005-0.786-0.005-36.246 0-65.915 28.16-68.322 63.795l-0.011 0.21v301.44c0 0.001 0 0.002 0 0.003 0 37.82 30.66 68.48 68.48 68.48 0.225 0 0.45-0.001 0.674-0.003h304.606c0.19 0.002 0.415 0.003 0.64 0.003 37.82 0 68.48-30.66 68.48-68.48 0-0.001 0-0.002 0-0.003v0z" />
<glyph unicode="&#xe90d;" glyph-name="lsi-backwards" d="M8.96 426.88l481.92-481.92c5.161-5.579 12.52-9.060 20.693-9.060 4.338 0 8.447 0.981 12.117 2.733l-0.17-0.073c10.967 4.447 18.56 15.015 18.56 27.356 0 0.058 0 0.115 0 0.173v-0.009 408.96l430.72-430.080c5.161-5.579 12.52-9.060 20.693-9.060 4.338 0 8.447 0.981 12.117 2.733l-0.17-0.073c10.967 4.447 18.56 15.015 18.56 27.356 0 0.058 0 0.115 0 0.173v-0.009 963.84c0.078 0.802 0.122 1.734 0.122 2.676 0 12.387-7.65 22.987-18.484 27.334l-0.198 0.070c-1.73 0.428-3.716 0.674-5.76 0.674s-4.030-0.246-5.931-0.709l0.171 0.035c-8.272-0.085-15.731-3.496-21.117-8.957l-0.003-0.003-430.72-430.080v408.96c0.078 0.802 0.122 1.734 0.122 2.676 0 12.387-7.65 22.987-18.484 27.334l-0.198 0.070c-1.73 0.428-3.716 0.674-5.76 0.674s-4.030-0.246-5.931-0.709l0.171 0.035c-8.272-0.085-15.731-3.496-21.117-8.957l-481.923-481.923c-5.678-5.276-9.22-12.784-9.22-21.12s3.541-15.844 9.202-21.103l0.018-0.017zM963.84 856.96v-817.92l-408.96 408.96zM481.92 856.96v-817.92l-408.96 408.96z" />
<glyph unicode="&#xe90e;" glyph-name="lsi-bar-chart" d="M64 704h128c35.346 0 64-28.654 64-64v0-704h-256v704c0 35.346 28.654 64 64 64v0zM448 960h128c35.346 0 64-28.654 64-64v0-960h-256v960c0 35.346 28.654 64 64 64v0zM832 448h128c35.346 0 64-28.654 64-64v0-448h-256v448c0 35.346 28.654 64 64 64v0z" />
<glyph unicode="&#xe90f;" glyph-name="lsi-bell" d="M967.68 212.48c-78.202 61.109-128.004 155.432-128.004 261.387 0 0.581 0.001 1.162 0.004 1.743v-0.089 88.96c-0.095 83.892-34.887 159.64-90.796 213.679l-0.084 0.081c-21.116 20.666-45.099 38.529-71.268 52.908l-1.692 0.852c0 80.589-65.331 145.92-145.92 145.92s-145.92-65.331-145.92-145.92v0c-98.88-50.338-165.609-151.044-166.399-267.413l-0.001-0.107v-78.72c0-64-64-165.12-174.72-274.56-24.909-18.758-40.846-48.275-40.846-81.515 0-9.712 1.361-19.107 3.902-28.003l-0.175 0.718c22.4-52.48 84.48-53.12 134.4-53.76h161.28c47.898-68.364 126.314-112.508 215.040-112.508s167.142 44.145 214.482 111.669l0.558 0.84h158.080c46.080 0 112 0 128 56.32s-33.28 92.8-52.48 107.52zM281.6 485.76v78.72c1.161 107.705 72.528 198.433 170.446 228.664l1.714 0.456c-3.482 7.109-5.589 15.448-5.759 24.262l-0.001 0.058c3.836 42.022 38.903 74.686 81.6 74.686s77.764-32.664 81.576-74.366l0.024-0.32c-0.029-9.681-1.906-18.915-5.297-27.38l0.177 0.5c36.192-12.685 67.182-32.133 92.866-57.023l-0.066 0.063c44.605-42.82 72.32-102.942 72.32-169.537 0-0.022 0-0.044 0-0.066v0.003-88.96c0.815-82.297 27.052-158.308 71.217-220.737l-0.817 1.217h-673.92c58.914 60.91 99.738 139.653 113.608 227.361l0.312 2.399zM890.88 110.72h-197.12c-32.382-66.644-99.561-111.768-177.28-111.768s-144.898 45.124-176.768 110.602l-0.512 1.166h-198.4c-71.040 0-102.4 7.040-52.48 56.96 8.32 7.68 17.28 17.28 26.24 26.88h777.6c11.162-10.757 23.053-21.025 35.487-30.623l0.993-0.737c55.68-42.24 33.28-51.2-37.76-52.48z" />
<glyph unicode="&#xe910;" glyph-name="lsi-blankdoc" horiz-adv-x="769" d="M768.159 662.155v0l-288.935 294.663-441.039 3.182c-0.002 0-0.004 0-0.007 0-16.296 0-29.548-13.032-29.904-29.242l-0.001-0.033-8.273-959.085c0-0.002 0-0.004 0-0.007 0-16.296 13.032-29.548 29.242-29.904l0.033-0.001 704.517-5.728c0.189-0.004 0.413-0.007 0.636-0.007 16.168 0 29.275 13.107 29.275 29.275 0 0.002 0 0.005 0 0.007v0l5.728 696.244zM484.952 860.082l190.926-190.926h-160.378c-16.315 0.702-29.275 14.098-29.275 30.522 0 0.009 0 0.019 0 0.028v-0.001zM700.062-0.358l-636.42 5.728 7.637 890.988 350.031-3.182v-190.926c-0.022-0.768-0.035-1.672-0.035-2.579 0-51.137 40.751-92.756 91.551-94.154l0.129-0.003h190.926z" />
<glyph unicode="&#xe911;" glyph-name="lsi-box" d="M0 686.72h1024v-614.4c0.026-0.982 0.041-2.138 0.041-3.297 0-71.734-56.739-130.216-127.786-133.015l-0.254-0.008h-768c-71.302 2.807-128.041 61.289-128.041 133.023 0 1.159 0.015 2.315 0.044 3.467l-0.003-0.17v614.4zM64 960h896c0.047 0 0.102 0 0.157 0 35.346 0 64-28.654 64-64 0-1.576-0.057-3.14-0.169-4.688l0.012 0.207v-67.84h-1024v67.84c-0.1 1.34-0.157 2.904-0.157 4.48 0 35.346 28.654 64 64 64 0.055 0 0.11 0 0.165 0h-0.008z" />
<glyph unicode="&#xe912;" glyph-name="lsi-broken-link" d="M365.44 438.4s0 0 0 0h-9.6c-34.304 0.272-65.057 15.25-86.304 38.931l-0.096 0.109-172.8 188.8c-20.34 24.163-32.7 55.63-32.7 89.984 0 1.44 0.022 2.876 0.065 4.305l-0.005-0.21c-0.005 0.431-0.008 0.941-0.008 1.451 0 35.728 13.617 68.276 35.944 92.737l-0.097-0.107c20.035 23.978 49.293 39.67 82.248 41.586l0.312 0.014c34.102-0.293 64.647-15.277 85.657-38.922l0.103-0.118 111.36-123.52c15.448 14.091 33.447 25.727 53.168 34.095l1.232 0.465-122.88 133.76c-31.457 35.447-77.133 57.672-128 57.672s-96.543-22.226-127.846-57.496l-0.154-0.176c-33.418-37.289-53.848-86.819-53.848-141.12s20.431-103.831 54.025-141.32l-0.176 0.2 170.24-188.16c31.595-35.456 77.081-57.948 127.836-58.878l0.164-0.002c0.214-0.001 0.467-0.002 0.72-0.002 21.858 0 42.727 4.231 61.834 11.918l-1.115-0.396zM669.44 456.96c34.304-0.272 65.057-15.25 86.304-38.931l0.096-0.109 171.52-188.16c22.108-24.929 35.611-57.928 35.611-94.080s-13.502-69.151-35.739-94.228l0.129 0.148c-20.99-23.917-51.621-38.933-85.76-38.933s-64.77 15.016-85.649 38.804l-0.111 0.129-172.16 188.16c-22.108 24.929-35.611 57.928-35.611 94.080s13.502 69.151 35.739 94.228l-0.129-0.148c21.203 23.638 51.692 38.576 85.678 39.039l0.082 0.001zM669.44 520.96c-50.953-0.763-96.494-23.3-127.841-58.697l-0.159-0.183c-33.037-37.445-53.203-86.927-53.203-141.12s20.166-103.675 53.404-141.352l-0.201 0.232 172.16-188.16c31.457-35.447 77.133-57.672 128-57.672s96.543 22.226 127.846 57.496l0.154 0.176c33.418 37.289 53.848 86.819 53.848 141.12s-20.431 103.831-54.025 141.32l0.176-0.2-170.88 190.72c-31.595 35.456-77.081 57.948-127.836 58.878l-0.164 0.002zM717.44 685.44c-17.479 0.253-31.551 14.482-31.551 31.997 0 8.726 3.492 16.635 9.155 22.408l127.995 127.995c5.618 5.976 13.574 9.697 22.4 9.697s16.782-3.722 22.385-9.681l0.015-0.016c5.846-5.8 9.466-13.837 9.466-22.72s-3.619-16.92-9.463-22.718l-128.002-128.002c-5.746-5.545-13.578-8.961-22.208-8.961-0.068 0-0.135 0-0.203 0.001h0.010zM561.92 714.88c-17.53 0.351-31.649 14.47-31.999 31.967l-0.001 0.033v181.12c0 17.673 14.327 32 32 32v0c17.673 0 32-14.327 32-32v0-181.12c0-17.673-14.327-32-32-32v0zM992 576h-181.12c-17.53 0.351-31.649 14.47-31.999 31.967l-0.001 0.033c0 17.673 14.327 32 32 32v0h181.12c17.673 0 32-14.327 32-32v0c0-17.673-14.327-32-32-32v0zM108.16 24.96c-0.366-0.016-0.795-0.026-1.226-0.026-8.308 0-15.813 3.442-21.166 8.977l-0.008 0.008c-5.846 5.8-9.466 13.837-9.466 22.72s3.619 16.92 9.463 22.718l128.002 128.002c5.767 5.656 13.676 9.147 22.4 9.147s16.633-3.491 22.405-9.152l-0.005 0.005c5.846-5.8 9.466-13.837 9.466-22.72s-3.619-16.92-9.463-22.718l-128.002-128.002c-5.361-5.544-12.865-8.986-21.174-8.986-0.431 0-0.86 0.009-1.287 0.028l0.061-0.002zM213.12 307.84h-181.12c-17.673 0-32 14.327-32 32v0c0 17.673 14.327 32 32 32v0h181.12c17.673 0 32-14.327 32-32v0c0-17.673-14.327-32-32-32v0zM347.52-64c-17.673 0-32 14.327-32 32v0 181.12c0.351 17.53 14.47 31.649 31.967 31.999l0.033 0.001c17.673 0 32-14.327 32-32v0-181.12c0-17.673-14.327-32-32-32v0z" />
<glyph unicode="&#xe913;" glyph-name="lsi-bug" d="M783.36 370.56h210.56c0.002 0 0.004 0 0.007 0 16.613 0 30.080 13.467 30.080 30.080 0 0.225-0.002 0.449-0.007 0.673l0.001-0.033c0.004 0.192 0.007 0.419 0.007 0.647 0 16.744-13.395 30.358-30.054 30.713l-0.033 0.001h-210.56v128c136.394 17.755 240.649 133.214 240.649 273.022 0 0.766-0.003 1.53-0.009 2.294l0.001-0.117c0 16.613-13.467 30.080-30.080 30.080s-30.080-13.467-30.080-30.080v0c0.006-0.612 0.010-1.335 0.010-2.059 0-106.437-77.56-194.759-179.245-211.532l-1.245-0.17v89.6c0 0.002 0 0.004 0 0.007 0 17.095-13.678 30.995-30.687 31.353l-0.033 0.001v41.6c0.012 0.767 0.019 1.672 0.019 2.579 0 94.541-75.924 171.35-170.125 172.78l-0.135 0.002h-140.8c-94.336-1.431-170.259-78.24-170.259-172.781 0-0.907 0.007-1.812 0.021-2.715l-0.002 0.137v-41.6c-17.042-0.359-30.72-14.259-30.72-31.353 0-0.002 0-0.005 0-0.007v0-89.6c-102.93 16.943-180.49 105.264-180.49 211.701 0 0.724 0.004 1.447 0.011 2.169l-0.001-0.11c0.004 0.192 0.007 0.419 0.007 0.647 0 16.744-13.395 30.358-30.054 30.713l-0.033 0.001c-16.692-0.355-30.087-13.97-30.087-30.713 0-0.227 0.002-0.454 0.007-0.68l-0.001 0.034c-0.009-0.837-0.014-1.826-0.014-2.817 0-139.811 104.258-255.271 239.268-272.875l1.386-0.148v-128h-210.56c-16.689-0.359-30.080-13.972-30.080-30.713 0-0.002 0-0.005 0-0.007v0c-0.004-0.19-0.007-0.415-0.007-0.64 0-16.613 13.467-30.080 30.080-30.080 0.002 0 0.005 0 0.007 0h210.56v-31.36c-0.003-0.503-0.005-1.097-0.005-1.692 0-33.079 5.627-64.843 15.975-94.389l-0.61 2.001c-143.571-10.656-256.019-129.76-256.019-275.127 0-1.151 0.007-2.3 0.021-3.448l-0.002 0.175c0-0.002 0-0.004 0-0.007 0-16.741 13.391-30.355 30.047-30.713l0.033-0.001c16.689 0.359 30.080 13.972 30.080 30.713 0 0.002 0 0.005 0 0.007v0c-0.015 0.959-0.024 2.090-0.024 3.224 0 117.293 94.188 212.588 211.056 214.374l0.168 0.002c4.975 0.078 9.603 1.496 13.559 3.907l-0.119-0.067c47.366-77.269 131.354-128.037 227.2-128.037s179.834 50.768 226.54 126.881l0.66 1.157c3.837-2.344 8.465-3.762 13.418-3.84h0.022c117.036-1.789 211.224-97.083 211.224-214.376 0-1.133-0.009-2.265-0.026-3.394l0.002 0.171c0-16.613 13.467-30.080 30.080-30.080s30.080 13.467 30.080 30.080v0c0.012 0.973 0.019 2.122 0.019 3.273 0 145.367-112.448 264.471-255.106 275.072l-0.914 0.055c10.52 27.926 16.815 60.197 17.278 93.878l0.002 0.202zM301.44 339.2v341.76h180.48v-556.8c-103.027 17.505-180.492 106.101-180.492 212.79 0 0.791 0.004 1.581 0.013 2.37l-0.001-0.12zM542.080 124.16v556.8h180.48v-341.76c0.007-0.669 0.012-1.459 0.012-2.25 0-106.689-77.465-195.285-179.218-212.611l-1.274-0.179z" />
<glyph unicode="&#xe914;" glyph-name="lsi-building" d="M993.92 0h-97.92v771.84c-1.728 35.734-31.12 64.052-67.126 64.052-0.926 0-1.848-0.019-2.765-0.056l0.132 0.004h-104.96v124.16h-69.76v-124.16h-104.32c-0.977 0.051-2.121 0.080-3.272 0.080-36.016 0-65.414-28.333-67.122-63.927l-0.006-0.153v-160.64h-279.040c-0.778 0.032-1.69 0.051-2.607 0.051-36.231 0-65.765-28.673-67.149-64.565l-0.004-0.126v-546.56h-97.92c-17.673 0-32-14.327-32-32s14.327-32 32-32v0h963.84c17.673 0 32 14.327 32 32s-14.327 32-32 32v0zM545.92 773.76h279.040v-773.76h-83.2v133.76h-112v-133.76h-82.56v771.84zM197.76 546.56h279.040v-546.56h-81.28v133.76h-116.48v-133.76h-81.28zM651.52 506.24h-69.76v64h69.76zM791.040 506.24h-69.76v64h69.76zM651.52 634.24h-69.76v64h69.76zM791.040 634.24h-69.76v64h69.76zM651.52 378.24h-69.76v64h69.76zM791.040 378.24h-69.76v64h69.76zM302.72 409.6h-69.76v64h69.76zM442.24 409.6h-69.76v64h69.76zM302.72 281.6h-69.76v64h69.76zM442.24 281.6h-69.76v64h69.76zM651.52 250.24h-69.76v64h69.76zM791.040 250.24h-69.76v64h69.76z" />
<glyph unicode="&#xe915;" glyph-name="lsi-burrito" horiz-adv-x="512" d="M143.36 320c0.701 80.59 24.458 155.49 64.984 218.597l-0.984-1.637c-49.406 63.275-118.794 108.919-198.572 127.531l-2.388 0.469c-3.8-7.252-6.136-15.805-6.398-24.876l-0.002-0.084v-640c0-35.346 28.654-64 64-64v0h335.36c-151.391 64.642-255.638 212.102-256 383.954v0.046zM37.76 474.88c0 17.673 14.327 32 32 32v0c17.673 0 32-14.327 32-32v0c-0.351-17.53-14.47-31.649-31.967-31.999l-0.033-0.001c-17.673 0-32 14.327-32 32v0zM116.48 10.24c-21.208 0-38.4 17.192-38.4 38.4s17.192 38.4 38.4 38.4c21.208 0 38.4-17.192 38.4-38.4v0c0-21.208-17.192-38.4-38.4-38.4v0zM505.6 667.52c-170.489-26.125-299.556-171.75-299.556-347.52s129.066-321.395 297.596-347.272l1.959-0.248c3.983 8.039 6.339 17.497 6.4 27.5v640.020c-0.061 10.023-2.417 19.481-6.567 27.895l0.167-0.375zM313.6 326.4c-12.014 0.005-21.751 9.746-21.751 21.76 0 12.018 9.742 21.76 21.76 21.76s21.76-9.742 21.76-21.76c0-0.225-0.003-0.449-0.010-0.673l0.001 0.033c-0.351-11.743-9.955-21.13-21.751-21.13-0.228 0-0.456 0.004-0.682 0.010l0.033-0.001zM400 149.76c-12.018 0-21.76 9.742-21.76 21.76v0c0 12.018 9.742 21.76 21.76 21.76s21.76-9.742 21.76-21.76v0c0-0.003 0-0.006 0-0.009 0-12.018-9.742-21.76-21.76-21.76-0.225 0-0.449 0.003-0.673 0.010l0.033-0.001zM407.040 401.28c-29.691 0-53.76 24.069-53.76 53.76s24.069 53.76 53.76 53.76c29.691 0 53.76-24.069 53.76-53.76v0c0-0.001 0-0.002 0-0.004 0-29.691-24.069-53.76-53.76-53.76-0.225 0-0.45 0.001-0.674 0.004h0.034zM256 896c0.038 0 0.083 0 0.128 0 25.094 0 46.815-14.443 57.304-35.469l0.168-0.371c10.448-20.44 31.025-34.375 54.932-35.197l0.108-0.003c28.113-0.905 52.158-17.442 63.808-41.167l0.192-0.433c-72.297-19.446-134.991-53.512-187.458-99.051l0.578 0.491c-48.371 41.257-106.122 73.127-169.485 91.955l-3.315 0.845c4.696 8.313 10.685 15.323 17.779 21.011l0.141 0.109c14.916 12.643 24.32 31.393 24.32 52.339 0 0.049 0 0.099 0 0.148v-0.008c0 11.311 9.169 20.48 20.48 20.48v0h8.96c7.667-4.034 16.753-6.402 26.392-6.402 0.172 0 0.343 0.001 0.514 0.002h-0.026c0.162-0.001 0.354-0.002 0.545-0.002 16.264 0 31.112 6.067 42.402 16.061l-0.068-0.059c10.994 9.162 25.267 14.725 40.84 14.725 0.267 0 0.534-0.002 0.8-0.005h-0.041zM256 960c-32.46-0.048-62.079-12.172-84.615-32.117l0.135 0.117c-10.338 4.813-22.443 7.621-35.203 7.621-46.765 0-84.721-37.712-85.117-84.383v-0.038c-17.509-13.875-31.264-31.738-39.992-52.254l-0.328-0.866-4.48-14.72c-3.535-11.178-5.835-24.093-6.39-37.459l-0.010-0.301v-3.84c-0.152-1.82-0.239-3.94-0.239-6.080s0.087-4.259 0.257-6.355l-0.018 0.275c82.643-14.858 154.689-52.621 211.381-106.411l-0.181 0.171c11.463-9.786 21.732-20.257 31.016-31.568l0.344-0.432c13.232 16.3 27.492 30.763 43.025 43.757l0.495 0.403c58.986 51.166 133.48 85.924 215.56 96.427l2.040 0.213c0.152 2.582 0.238 5.601 0.238 8.64s-0.086 6.058-0.257 9.055l0.019-0.415c0 0.028 0 0.061 0 0.094 0 75.254-59.58 136.593-134.143 139.418l-0.257 0.008c-21.23 42.050-63.87 70.502-113.208 71.039l-0.072 0.001z" />
<glyph unicode="&#xe916;" glyph-name="lsi-calendar" d="M960 832h-160v96c0 17.673-14.327 32-32 32s-32-14.327-32-32v0-96h-448v96c0 17.673-14.327 32-32 32s-32-14.327-32-32v0-96h-160c-35.346 0-64-28.654-64-64v0-772.48c-0.002-0.191-0.004-0.417-0.004-0.644 0-32.519 26.361-58.88 58.88-58.88 0.226 0 0.452 0.001 0.678 0.004h904.926c0.191-0.002 0.417-0.004 0.644-0.004 32.519 0 58.88 26.361 58.88 58.88 0 0.226-0.001 0.452-0.004 0.678v-0.034 772.48c0 35.346-28.654 64-64 64v0zM960 0h-896v640h896zM320 384h-128v128h128zM576 384h-128v128h128zM832 384h-128v128h128z" />
<glyph unicode="&#xe917;" glyph-name="lsi-camera" d="M994.56 710.4h-216.96l-49.28 103.68c-5.656 10.707-16.706 17.887-29.435 17.92h-373.125c-0.099 0.001-0.217 0.002-0.335 0.002-13.157 0-24.496-7.785-29.662-18.999l-0.084-0.203-44.8-101.12h-215.68c-0.192 0.004-0.419 0.006-0.646 0.006-18.864 0-34.198-15.114-34.554-33.893v-579.873c0.356-18.812 15.69-33.926 34.554-33.926 0.227 0 0.454 0.002 0.68 0.007l-0.034-0.001h960c0.192-0.004 0.419-0.006 0.646-0.006 18.864 0 34.198 15.114 34.554 33.893v578.593c-0.356 18.812-15.69 33.926-34.554 33.926-0.227 0-0.454-0.002-0.68-0.007l0.034 0.001zM346.88 768h330.88l28.16-58.24h-385.92zM960 128h-888.96v512h888.96zM512 583.040c-107.399-1.454-193.903-88.856-193.903-196.463 0-108.513 87.967-196.48 196.48-196.48 107.607 0 195.010 86.504 196.462 193.766l0.001 0.137c0.011 0.766 0.017 1.671 0.017 2.577 0 108.513-87.967 196.48-196.48 196.48-0.906 0-1.81-0.006-2.714-0.018l0.137 0.001zM512 256c-72.024 1.478-129.845 60.214-129.845 132.454 0 73.167 59.313 132.48 132.48 132.48s132.48-59.313 132.48-132.48c0-1.566-0.027-3.126-0.081-4.679l0.006 0.225c-2.471-71.225-60.805-128.026-132.405-128.026-0.927 0-1.851 0.010-2.773 0.028l0.138-0.002z" />
<glyph unicode="&#xe918;" glyph-name="lsi-cart" d="M277.12 123.52c0.763 0.022 1.66 0.035 2.56 0.035 51.959 0 94.080-42.121 94.080-94.080s-42.121-94.080-94.080-94.080c-51.947 0-94.060 42.101-94.080 94.043v0.002c-0.006 0.383-0.009 0.836-0.009 1.289 0 50.805 40.827 92.075 91.461 92.791l0.067 0.001zM734.080 29.44c1.428-49.431 41.84-88.958 91.484-88.958 50.545 0 91.52 40.975 91.52 91.52s-40.975 91.52-91.52 91.52c-0.212 0-0.425-0.001-0.637-0.002h0.033c-50.423-1.071-90.889-42.2-90.889-92.78 0-0.457 0.003-0.913 0.010-1.369l-0.001 0.069zM234.88 271.36c-2.695-4.59-4.287-10.109-4.287-16s1.592-11.41 4.369-16.151l-0.082 0.151c5.404-9.489 15.382-15.825 26.855-16h649.625c17.673 0 32-14.327 32-32s-14.327-32-32-32v0h-649.6c-0.003 0-0.007 0-0.010 0-34.814 0-65.15 19.171-81.029 47.531l-0.241 0.469c-8.026 13.784-12.763 30.339-12.763 48s4.738 34.216 13.011 48.462l-0.248-0.462 44.8 80.64-106.88 359.040-49.28 152.96h-37.76c-17.396 0.359-31.36 14.546-31.36 31.994 0 0.002 0 0.005 0 0.007v0c-0.004 0.19-0.007 0.415-0.007 0.64 0 17.32 14.040 31.36 31.36 31.36 0.002 0 0.005 0 0.007 0h60.16c0.008 0 0.018 0 0.027 0 14.125 0 26.069-9.338 29.994-22.178l0.058-0.222 21.12-64h817.28c34.849-0.644 62.853-29.047 62.853-63.99 0-10.256-2.412-19.948-6.701-28.541l0.167 0.371-179.2-384c-10.15-21.582-31.422-36.409-56.229-37.118l-0.091-0.002h-499.2zM164.48 807.68l115.2-384h502.4l179.2 384h-796.8z" />
<glyph unicode="&#xe919;" glyph-name="lsi-case" d="M960 656.64h-160v140.8c0.005 0.383 0.009 0.835 0.009 1.288 0 53.279-42.832 96.554-95.941 97.271l-0.068 0.001h-384c-53.177-0.717-96.009-43.992-96.009-97.272 0-0.453 0.003-0.905 0.009-1.357l-0.001 0.068v-140.8h-160c-35.346 0-64-28.654-64-64v0-528.64c0-35.346 28.654-64 64-64v0h896c35.346 0 64 28.654 64 64v0 527.36c0.008 0.381 0.013 0.83 0.013 1.28 0 35.346-28.654 64-64 64-0.005 0-0.009 0-0.014 0h0.001zM288 797.44c-0.065 0.767-0.103 1.659-0.103 2.56 0 17.673 14.327 32 32 32 0.036 0 0.072 0 0.108 0h383.994c0.002 0 0.004 0 0.006 0 17.673 0 32-14.327 32-32 0-0.225-0.002-0.45-0.007-0.673l0.001 0.033v-140.8h-448z" />
<glyph unicode="&#xe91a;" glyph-name="lsi-catalog" d="M412.16 168.96h-177.28c-1.57-0.204-3.386-0.32-5.229-0.32-23.682 0-42.88 19.198-42.88 42.88s19.198 42.88 42.88 42.88c1.843 0 3.659-0.116 5.441-0.342l-0.212 0.022h177.28c21.325-2.695 37.651-20.721 37.651-42.56s-16.326-39.865-37.439-42.538l-0.212-0.022zM581.76 275.2c-35.346 0-64-28.654-64-64s28.654-64 64-64c35.346 0 64 28.654 64 64v0c0 35.346-28.654 64-64 64v0zM785.92 275.2c-35.346 0-64-28.654-64-64s28.654-64 64-64c35.346 0 64 28.654 64 64v0c0 35.346-28.654 64-64 64v0zM1024 448v-394.24c0-0.001 0-0.001 0-0.002 0-65.037-52.723-117.76-117.76-117.76-0.225 0-0.45 0.001-0.675 0.002h-787.805c-65.037 0-117.76 52.723-117.76 117.76v0 394.24s0 0 0 5.12 0 0 0 4.48l119.040 472.32c4.44 17.379 19.936 30.031 38.394 30.080h708.486c18.464-0.049 33.96-12.701 38.34-29.805l0.060-0.275 119.68-472.32v-4.48s0-5.12 0-5.12zM89.6 487.040h664.96v88.96h-485.12v-88.32h-85.76v128c0 23.682 19.198 42.88 42.88 42.88v0h18.56v122.24c-0.003 0.19-0.005 0.415-0.005 0.64 0 23.329 18.911 42.24 42.24 42.24 0.002 0 0.003 0 0.005 0h448c23.682 0 42.88-19.198 42.88-42.88v0-120.96h17.92c23.682 0 42.88-19.198 42.88-42.88v0-128h94.080l-97.92 392.32h-647.040zM330.24 737.92v-78.080h362.88v78.080zM945.28 408.32h-866.56v-354.56c0-21.561 17.479-39.040 39.040-39.040v0h787.84c0.19-0.003 0.415-0.005 0.64-0.005 21.561 0 39.040 17.479 39.040 39.040 0 0.002 0 0.004 0 0.006v0z" />
<glyph unicode="&#xe91b;" d="M320 512c141.385 0 256-114.615 256-256s-114.615-256-256-256c-141.385 0-256 114.615-256 256v0c0 141.385 114.615 256 256 256v0zM320 576c-176.731 0-320-143.269-320-320s143.269-320 320-320c176.731 0 320 143.269 320 320v0c0 176.731-143.269 320-320 320v0z" />
<glyph unicode="&#xe91c;" d="M384 256c0 176.731 143.269 320 320 320s320-143.269 320-320c0-176.731-143.269-320-320-320v0c-176.731 0-320 143.269-320 320v0z" />
<glyph unicode="&#xe91d;" d="M192 640c0 176.731 143.269 320 320 320s320-143.269 320-320c0-176.731-143.269-320-320-320v0c-176.731 0-320 143.269-320 320v0z" />
<glyph unicode="&#xe91e;" glyph-name="lsi-check-fill" d="M512 960c-282.77 0-512-229.23-512-512s229.23-512 512-512c282.77 0 512 229.23 512 512v0c0 282.77-229.23 512-512 512v0zM815.36 607.36l-336-428.16c-11.1-14.014-27.735-23.227-46.549-24.312l-0.171-0.008h-3.84c-0.114-0.001-0.249-0.001-0.384-0.001-17.26 0-32.923 6.832-44.435 17.939l0.019-0.018-170.24 166.4c-11.693 11.6-18.931 27.675-18.931 45.44s7.238 33.84 18.927 45.436l0.004 0.004c11.568 11.501 27.514 18.611 45.12 18.611s33.552-7.109 45.123-18.614l-0.003 0.003 118.4-115.84 291.84 371.84c11.821 15.093 30.045 24.702 50.514 24.702 15.069 0 28.921-5.208 39.856-13.922l-0.13 0.1c14.912-11.825 24.391-29.941 24.391-50.27 0-14.892-5.086-28.595-13.616-39.469l0.105 0.139z" />
<glyph unicode="&#xe91f;" glyph-name="lsi-check-in" d="M809.6 746.24h-808.96c0 47.364 38.396 85.76 85.76 85.76v0h636.8c0.19 0.002 0.415 0.002 0.64 0.002 47.364 0 85.76-38.396 85.76-85.76 0-0.001 0-0.002 0-0.003v0zM760.32 280.32v-108.8c-2.049-35.814-31.591-64.081-67.736-64.081-1.162 0-2.318 0.029-3.466 0.087l0.161-0.006h-570.24c-0.998-0.052-2.166-0.082-3.341-0.082-36.273 0-65.959 28.202-68.328 63.875l-0.011 0.207v468.48h712.96v-128h48v172.8h-808.32v-512c2.393-60.672 52.157-108.951 113.197-108.951 2.055 0 4.098 0.055 6.126 0.163l-0.283-0.012h570.24c1.58-0.078 3.431-0.123 5.293-0.123 60.708 0 110.325 47.487 113.733 107.341l0.014 0.302v108.8zM618.88 596.48l-192-181.12c-5.060-4.478-8.234-10.988-8.234-18.24s3.174-13.762 8.208-18.218l0.026-0.022 192-182.4c5.799-5.032 13.421-8.099 21.76-8.099s15.961 3.067 21.801 8.134l-0.041-0.035c5.884 5.175 9.582 12.714 9.6 21.117v0.003c-0.211 8.169-3.87 15.444-9.568 20.453l-0.032 0.027-138.24 128h466.56c1.301-0.204 2.801-0.32 4.329-0.32 16.259 0 29.44 13.181 29.44 29.44s-13.181 29.44-29.44 29.44c-1.528 0-3.028-0.116-4.493-0.341l0.164 0.021h-464.64l136.96 128c5.648 5.168 9.177 12.572 9.177 20.8s-3.529 15.632-9.156 20.781l-0.021 0.019c-5.943 6.143-14.261 9.956-23.469 9.956-7.879 0-15.107-2.792-20.747-7.441l0.056 0.045z" />
<glyph unicode="&#xe920;" glyph-name="lsi-check-out" d="M745.6 746.24h-744.96c0 47.364 38.396 85.76 85.76 85.76v0h572.8c0.19 0.002 0.415 0.002 0.64 0.002 47.364 0 85.76-38.396 85.76-85.76 0-0.001 0-0.002 0-0.003v0zM704 280.32v-108.8c0-35.346-28.654-64-64-64v0h-530.56c-35.346 0-64 28.654-64 64v0 468.48h658.56v-128h43.52v172.8h-747.52v-512c0-0.001 0-0.001 0-0.002 0-60.089 48.711-108.8 108.8-108.8 0.225 0 0.45 0.001 0.675 0.002h525.405c0.192-0.001 0.42-0.002 0.648-0.002 59.639 0 108.071 47.986 108.792 107.454l0.001 0.068v108.8zM839.040 196.48l177.28 181.12c4.716 4.646 7.637 11.102 7.637 18.24s-2.922 13.594-7.634 18.237l-0.003 0.003-178.56 182.4c-5.040 5.412-12.206 8.787-20.16 8.787s-15.12-3.375-20.145-8.77l-0.015-0.017c-5.32-5.241-8.697-12.442-8.959-20.432l-0.001-0.048c0.085-8.272 3.496-15.731 8.957-21.117l128.003-128.003h-430.72c-16.259 0-29.44-13.181-29.44-29.44s13.181-29.44 29.44-29.44h430.080l-128-128c-5.317-5.326-8.606-12.679-8.606-20.8s3.288-15.474 8.606-20.8v0c5.317-6.27 13.201-10.223 22.008-10.223 7.887 0 15.034 3.17 20.235 8.306l-0.003-0.003z" />
<glyph unicode="&#xe921;" glyph-name="lsi-check" d="M428.8 154.24c-17.483 0.076-33.299 7.15-44.804 18.564l0.004-0.004-169.6 166.4c-11.501 11.568-18.611 27.514-18.611 45.12s7.109 33.552 18.614 45.123l-0.003-0.003c11.6 11.693 27.675 18.931 45.44 18.931s33.84-7.238 45.436-18.927l0.004-0.004 119.040-116.48 291.84 371.84c11.829 14.882 29.93 24.34 50.24 24.34 35.357 0 64.020-28.663 64.020-64.020 0-15.047-5.191-28.882-13.881-39.811l0.101 0.131-337.28-426.88c-10.964-13.866-27.337-23.037-45.882-24.309l-0.198-0.011h-4.48zM512 896c247.424 0 448-200.576 448-448s-200.576-448-448-448c-247.424 0-448 200.576-448 448v0c0 247.424 200.576 448 448 448v0zM512 960c-282.77 0-512-229.23-512-512s229.23-512 512-512c282.77 0 512 229.23 512 512v0c0 282.77-229.23 512-512 512v0z" />
<glyph unicode="&#xe922;" glyph-name="lsi-close" d="M554.88 448l460.16 460.8c5.678 5.276 9.22 12.784 9.22 21.12s-3.541 15.844-9.202 21.103l-0.018 0.017c-5.276 5.678-12.784 9.22-21.12 9.22s-15.844-3.541-21.103-9.202l-0.017-0.018-460.8-460.16-460.8 460.16c-5.276 5.678-12.784 9.22-21.12 9.22s-15.844-3.541-21.103-9.202l-0.017-0.018c-5.678-5.276-9.22-12.784-9.22-21.12s3.541-15.844 9.202-21.103l0.018-0.017 460.16-460.8-460.16-460.8c-5.678-5.276-9.22-12.784-9.22-21.12s3.541-15.844 9.202-21.103l0.018-0.017c5.389-5.464 12.848-8.875 21.104-8.96h0.016c8.272 0.085 15.731 3.496 21.117 8.957l0.003 0.003 460.8 460.16 460.8-460.16c5.356-5.511 12.839-8.93 21.12-8.93s15.764 3.419 21.113 8.923l0.007 0.007c5.678 5.276 9.22 12.784 9.22 21.12s-3.541 15.844-9.202 21.103l-0.018 0.017z" />
<glyph unicode="&#xe923;" glyph-name="lsi-code" d="M288 160c-0.109-0.001-0.238-0.002-0.367-0.002-8.693 0-16.525 3.688-22.017 9.584l-0.017 0.018-256 256c-5.976 5.618-9.697 13.574-9.697 22.4s3.722 16.782 9.681 22.385l0.016 0.015 256 256c5.733 5.733 13.652 9.278 22.4 9.278 17.495 0 31.678-14.183 31.678-31.678 0-8.748-3.546-16.667-9.278-22.4v0l-232.96-233.6 232.96-233.6c5.976-5.618 9.697-13.574 9.697-22.4s-3.722-16.782-9.681-22.385l-0.016-0.015c-5.508-5.915-13.34-9.602-22.033-9.602-0.129 0-0.258 0.001-0.386 0.002h0.020zM736 160c-0.109-0.001-0.238-0.002-0.367-0.002-8.693 0-16.525 3.688-22.017 9.584l-0.017 0.018c-5.976 5.618-9.697 13.574-9.697 22.4s3.722 16.782 9.681 22.385l0.016 0.015 232.96 233.6-232.96 233.6c-5.733 5.733-9.278 13.652-9.278 22.4 0 17.495 14.183 31.678 31.678 31.678 8.748 0 16.667-3.546 22.4-9.278l256-256c5.976-5.618 9.697-13.574 9.697-22.4s-3.722-16.782-9.681-22.385l-0.016-0.015-256-256c-5.508-5.915-13.34-9.602-22.033-9.602-0.129 0-0.258 0.001-0.386 0.002h0.020zM395.52 64h-8.32c-11.957 3.925-20.439 14.987-20.439 28.030 0 3.013 0.453 5.921 1.294 8.658l-0.055-0.209 229.12 711.68c3.741 12.26 14.953 21.025 28.212 21.025 2.947 0 5.792-0.433 8.477-1.239l-0.208 0.054c11.71-3.832 20.019-14.66 20.019-27.429 0-3.237-0.534-6.35-1.519-9.254l0.060 0.203-228.48-711.68c-4.102-11.645-15.010-19.842-27.831-19.842-0.116 0-0.231 0.001-0.346 0.002h0.018z" />
<glyph unicode="&#xe924;" glyph-name="lsi-collapse" d="M960 960h-896c-35.346 0-64-28.654-64-64v0-896c0-35.346 28.654-64 64-64v0h896c35.346 0 64 28.654 64 64v0 896c0 35.346-28.654 64-64 64v0zM960 0h-896v896h896zM273.92 300.8l-64 64h219.52v-220.16l-64 64-146.56-144.64-90.88 90.88zM593.92 530.56v220.16l64-64 147.2 145.28 90.88-90.88-145.92-145.92 64-64z" />
<glyph unicode="&#xe925;" glyph-name="lsi-column-view" d="M64 896h256v-896h-256zM384 896h256v-896h-256zM704 896h256v-896h-256zM0 960v-1024h1024v1024z" />
<glyph unicode="&#xe926;" glyph-name="lsi-coma" horiz-adv-x="768" d="M707.2 960h-643.2c-1.148 0.078-2.489 0.123-3.84 0.123-33.225 0-60.16-26.935-60.16-60.16 0-0.043 0-0.086 0-0.129v0.007-902.4c-0.010-0.418-0.016-0.91-0.016-1.404 0-33.225 26.935-60.16 60.16-60.16 1.357 0 2.703 0.045 4.038 0.133l-0.181-0.010h646.4c32.891 1.657 59.143 27.909 60.794 60.648l0.006 0.152v899.2c0.084 1.188 0.131 2.574 0.131 3.971 0 33.225-26.935 60.16-60.16 60.16-1.397 0-2.783-0.048-4.157-0.141l0.186 0.010zM704 0h-640v192h640zM704 256h-640v640h640zM624 98.56c0-17.673-14.327-32-32-32v0h-416c-17.673 0-32 14.327-32 32v0c0 17.673 14.327 32 32 32v0h416c17.673 0 32-14.327 32-32v0zM624 586.88c0-0.006 0-0.012 0-0.019 0-5.784-4.513-10.513-10.21-10.86l-0.030-0.001h-87.68l38.4-38.4c1.498-1.925 2.401-4.377 2.401-7.040s-0.904-5.115-2.421-7.066l0.019 0.026c-2.029-1.82-4.724-2.933-7.68-2.933s-5.651 1.113-7.691 2.943l0.011-0.009-53.12 52.48h-83.2l92.16-91.52h51.84c6.009 0 10.88-4.871 10.88-10.88s-4.871-10.88-10.88-10.88h-44.8v-46.080c0-5.655-4.585-10.24-10.24-10.24v0c-0.006 0-0.012 0-0.019 0-5.784 0-10.513 4.513-10.86 10.21l-0.001 0.030v52.48l-93.44 92.16v-83.2l53.76-53.76c2.641-2.007 4.329-5.15 4.329-8.687 0-6.009-4.871-10.88-10.88-10.88-4.025 0-7.539 2.186-9.421 5.435l-0.028 0.052-37.76 37.76v-87.68c0-5.655-4.585-10.24-10.24-10.24v0c-0.191-0.013-0.415-0.020-0.64-0.020-5.655 0-10.24 4.585-10.24 10.24 0 0.007 0 0.014 0 0.021v-0.001 87.68l-38.4-38.4c-2.143-2.594-5.36-4.235-8.96-4.235-6.404 0-11.595 5.191-11.595 11.595 0 2.804 0.995 5.375 2.651 7.38l-0.016-0.020 53.76 53.76v83.2l-89.6-92.16v-52.48c0-5.655-4.585-10.24-10.24-10.24v0c-0.006 0-0.012 0-0.019 0-5.784 0-10.513 4.513-10.86 10.21l-0.001 0.030v46.080h-46.080c-5.727 0.348-10.24 5.077-10.24 10.861 0 0.007 0 0.013 0 0.020v-0.001c0 5.655 4.585 10.24 10.24 10.24v0h52.48l92.16 92.16h-83.2l-53.76-53.12c-1.831-1.736-4.311-2.804-7.040-2.804s-5.209 1.068-7.045 2.808l0.005-0.004c-1.925 1.864-3.12 4.473-3.12 7.36s1.195 5.496 3.118 7.357l38.403 38.403h-88.32c-6.009 0-10.88 4.871-10.88 10.88s4.871 10.88 10.88 10.88h87.68l-38.4 38.4c-1.736 1.831-2.804 4.311-2.804 7.040s1.068 5.209 2.808 7.045l-0.004-0.005c1.864 1.925 4.473 3.12 7.36 3.12s5.496-1.195 7.357-3.118l53.763-53.763h82.56l-92.16 92.8h-51.84c-5.872 0.328-10.552 5.008-10.879 10.85l-0.001 0.030c0.348 5.727 5.077 10.24 10.861 10.24 0.007 0 0.013 0 0.020 0h46.079v46.080c-0.051 0.384-0.080 0.829-0.080 1.28 0 5.655 4.585 10.24 10.24 10.24 0.028 0 0.056 0 0.085 0h-0.004c6.009 0 10.88-4.871 10.88-10.88v0-53.12l92.16-91.52v83.2l-56.32 53.12c-1.498 1.925-2.401 4.377-2.401 7.040s0.904 5.115 2.421 7.066l-0.019-0.026c1.968 1.961 4.682 3.173 7.68 3.173s5.712-1.212 7.68-3.174v0l38.4-38.4v88.96c0 5.655 4.585 10.24 10.24 10.24v0c0.191 0.013 0.415 0.020 0.64 0.020 5.655 0 10.24-4.585 10.24-10.24 0-0.007 0-0.014 0-0.021v0.001-87.68l38.4 38.4c1.925 1.498 4.377 2.401 7.040 2.401s5.115-0.904 7.066-2.421l-0.026 0.019c1.961-1.968 3.173-4.682 3.173-7.68s-1.212-5.712-3.174-7.68v0l-53.76-53.12v-83.2l96 91.52v53.12c-0.014 0.198-0.021 0.429-0.021 0.661 0 5.655 4.585 10.24 10.24 10.24 0.233 0 0.464-0.008 0.692-0.023l-0.031 0.002c0.392 0.053 0.845 0.084 1.306 0.084 5.655 0 10.24-4.585 10.24-10.24 0-0.255-0.009-0.507-0.028-0.757l0.002 0.033v-46.080h44.8c6.009 0 10.88-4.871 10.88-10.88s-4.871-10.88-10.88-10.88h-51.84l-92.16-91.52h83.2l53.12 53.12c1.831 1.736 4.311 2.804 7.040 2.804s5.209-1.068 7.045-2.808l-0.005 0.004c1.925-1.864 3.12-4.473 3.12-7.36s-1.195-5.496-3.118-7.357l-38.403-38.403h88.96c5.727-0.348 10.24-5.077 10.24-10.861 0-0.007 0-0.013 0-0.020v0.001z" />
<glyph unicode="&#xe927;" glyph-name="lsi-comment-fill" d="M960 896h-896c-35.346 0-64-28.654-64-64v0-562.56c0-35.346 28.654-64 64-64v0h576l201.6-197.76c5.768-5.658 13.678-9.151 22.403-9.151 17.515 0 31.744 14.072 31.997 31.527v176.664h64c35.346 0 64 28.654 64 64v0 561.28c0 35.346-28.654 64-64 64v0z" />
<glyph unicode="&#xe928;" glyph-name="lsi-compare" d="M576 512v-512h-512v512h512zM576 576h-512c-35.346 0-64-28.654-64-64v0-512c0-35.346 28.654-64 64-64v0h512c35.346 0 64 28.654 64 64v0 512c0 35.346-28.654 64-64 64v0zM256 448l256-256v256zM960 960h-512c-35.346 0-64-28.654-64-64v0-297.6h214.4c35.346 0 64-28.654 64-64v0-214.4h297.6c35.346 0 64 28.654 64 64v0 512c0 35.346-28.654 64-64 64v0zM694.4 630.4v256l256-256z" />
<glyph unicode="&#xe929;" glyph-name="lsi-curves" d="M960 960h-896c-35.346 0-64-28.654-64-64v0-896c0.319-25.535 15.544-47.438 37.361-57.436l0.399-0.164h4.48c6.313-3.339 13.693-5.617 21.516-6.381l0.244-0.019h896c35.346 0 64 28.654 64 64v0 896c0 35.346-28.654 64-64 64v0zM849.28 896c-62.051-32.416-115.544-68.335-164.647-109.335l1.447 1.175v108.16zM657.28 896v-136.96l-6.4-5.76c-34.399-37.078-64.216-79.151-88.088-124.823l-1.512-3.177h-192v270.72zM366.72 304.64v286.72h174.72c-23.040-46.080-45.44-96.64-67.2-143.36s-42.88-96.64-64-140.8zM392.96 272.64c-8.32-16-17.28-31.36-26.24-45.44v45.44zM533.12 419.84c25.6 59.52 52.48 119.040 80 171.52h40.96v-286.72h-173.44c17.92 37.12 35.2 76.16 52.48 115.2zM631.040 623.36q11.52 19.2 23.040 36.48v-36.48zM64 896h270.72v-272.64h-270.72zM64 591.36h270.72v-286.72h-270.72zM334.72 271.36v-91.52c-6.653-8.712-13.361-16.434-20.515-23.716l0.035 0.036c-68.883-64.464-152.761-113.803-245.779-142.189l-4.461-1.171v259.84zM202.24 0c50.444 25.917 93.939 55.721 133.204 90.223l-0.724-0.623v-89.6zM366.72 0v120.96c38.315 43.694 71.070 93.654 96.307 147.823l1.613 3.857h192v-272.64zM960 0h-273.92v272.64h273.92zM960 304.64h-273.92v286.72h273.92zM686.080 624.64v75.52l7.040 7.68c75.279 69.997 163.756 127.047 261.106 166.87l5.774 2.090v-256z" />
<glyph unicode="&#xe92a;" glyph-name="lsi-data" horiz-adv-x="768" d="M743.040 302.080l-7.68 7.040c19.162 16.659 31.528 40.703 32.634 67.652l0.006 0.188v140.8c-1.202 22.68-10.485 42.985-24.998 58.28l0.038-0.040-8.96 8.96c19.971 16.978 32.861 41.765 33.915 69.583l0.005 0.177v138.24c-0.398 23.212-9.316 44.266-23.751 60.24l0.071-0.080c-54.4 64-199.040 106.88-360.32 106.88-215.040 0-384-72.96-384-166.4v-138.88c1.329-27.737 14.158-52.235 33.787-69.009l0.133-0.111-8.96-9.6c-15.463-16.444-24.965-38.649-24.965-63.073 0-0.326 0.002-0.651 0.005-0.976v0.049-135.040c1.112-27.137 13.478-51.181 32.525-67.742l0.115-0.098-7.68-7.040c-15.463-16.444-24.965-38.649-24.965-63.073 0-0.326 0.002-0.651 0.005-0.976v0.049-135.68c0-93.44 168.96-166.4 384-166.4s384 72.96 384 166.4v140.8c-1.040 22.914-10.353 43.47-24.999 58.921l0.039-0.041zM384 436.48c7.076-0.269 15.387-0.422 23.734-0.422 112.989 0 219.414 28.099 312.67 77.691l-3.604-1.749v-135.040c0-30.72-116.48-106.24-332.8-106.24s-332.8 75.52-332.8 106.24v135.040c89.652-47.843 196.077-75.942 309.066-75.942 8.347 0 16.658 0.153 24.93 0.457l-1.196-0.035zM51.2 793.6c0 30.72 116.48 106.24 332.8 106.24 163.2 0 286.080-44.8 323.84-89.6 4.48-4.284 7.512-10.049 8.307-16.507l0.013-0.133v-138.88c0-12.16-28.16-47.36-119.68-76.8l-35.2-9.6-38.4-8.32-39.040-5.76h-55.040c-29.44 0-64 0-90.24 0h-57.6c-12.8 0-24.96 0-37.12 5.76-16.435 2.42-30.71 5.546-44.616 9.545l2.376-0.585c-9.6 3.2-21.12 7.040-34.56 7.040-86.4 31.36-115.84 64-115.84 78.72zM716.8 102.4c0-30.72-116.48-106.24-332.8-106.24s-332.8 75.52-332.8 106.24v135.040c89.652-47.843 196.077-75.942 309.066-75.942 8.347 0 16.658 0.153 24.93 0.457l-1.196-0.035c7.076-0.269 15.387-0.422 23.734-0.422 112.989 0 219.414 28.099 312.67 77.691l-3.604-1.749z" />
<glyph unicode="&#xe92b;" glyph-name="lsi-deep-zoom" d="M576 960c-247.424 0-448-200.576-448-448v0c-0.003-0.627-0.005-1.369-0.005-2.112 0-111.815 41.739-213.881 110.485-291.468l-0.4 0.46-228.48-228.48c-5.976-5.618-9.697-13.574-9.697-22.4s3.722-16.782 9.681-22.385l0.016-0.015c5.671-5.88 13.602-9.547 22.39-9.6h0.010c0.109-0.001 0.238-0.002 0.367-0.002 8.693 0 16.525 3.688 22.017 9.584l0.017 0.018 228.48 228.48c77.127-68.347 179.193-110.085 291.008-110.085 0.743 0 1.485 0.002 2.226 0.006h-0.114c247.424 0 448 200.576 448 448s-200.576 448-448 448v0zM576 128c-212.077 0-384 171.923-384 384s171.923 384 384 384c212.077 0 384-171.923 384-384v0c0-212.077-171.923-384-384-384v0zM318.080 768h128v-128h-128v128zM510.080 768h128v-128h-128v128zM702.080 768h128v-128h-128v128zM318.080 574.080h128v-128h-128v128zM510.080 574.080h128v-128h-128v128zM702.080 574.080h128v-128h-128v128zM318.080 380.16h128v-128h-128v128zM510.080 380.16h128v-128h-128v128zM702.080 380.16h128v-128h-128v128z" />
<glyph unicode="&#xe92c;" glyph-name="lsi-deliver" d="M933.76 832h-723.2c-0.193 0.001-0.421 0.002-0.649 0.002-49.035 0-88.871-39.39-89.59-88.255l-0.001-0.068c0-16.613 13.467-30.080 30.080-30.080s30.080 13.467 30.080 30.080v0c0.359 16.335 13.685 29.44 30.073 29.44 0.002 0 0.005 0 0.007 0h301.44v-144c0-35.346 28.654-64 64-64v0h233.6c35.346 0 64 28.654 64 64v0 144h60.16c0.002 0 0.004 0 0.007 0 16.388 0 29.715-13.105 30.073-29.407l0.001-0.033v-591.36c-0.35-16.116-13.323-29.090-29.407-29.439l-0.033-0.001h-723.84c-0.008 0-0.018 0-0.027 0-16.163 0-29.348 12.747-30.051 28.737l-0.002 0.063c0 16.613-13.467 30.080-30.080 30.080s-30.080-13.467-30.080-30.080v0c1.074-48.653 40.769-87.682 89.579-87.682 0.232 0 0.464 0.001 0.696 0.003h723.164c0.193-0.001 0.421-0.002 0.649-0.002 49.035 0 88.871 39.39 89.59 88.255l0.001 0.068v591.36c-0.72 48.932-40.555 88.322-89.591 88.322-0.228 0-0.456-0.001-0.684-0.003h0.035zM315.52 448c0 0.002 0 0.005 0 0.007 0 16.259-13.181 29.44-29.44 29.44-0.225 0-0.45-0.003-0.673-0.008l0.033 0.001h-201.6c-16.259 0-29.44-13.181-29.44-29.44s13.181-29.44 29.44-29.44h201.6c0.19-0.004 0.415-0.007 0.64-0.007 16.259 0 29.44 13.181 29.44 29.44 0 0.002 0 0.005 0 0.007v0zM315.52 600.32c0 0.002 0 0.005 0 0.007 0 16.259-13.181 29.44-29.44 29.44-0.225 0-0.45-0.003-0.673-0.008l0.033 0.001h-256c-16.259 0-29.44-13.181-29.44-29.44v0c0.359-16.335 13.685-29.44 30.073-29.44 0.002 0 0.005 0 0.007 0h256c16.116 0.35 29.090 13.323 29.439 29.407l0.001 0.033zM285.44 325.12h-128c-16.116-0.35-29.090-13.323-29.439-29.407l-0.001-0.033c0-0.008 0-0.018 0-0.028 0-16.259 13.181-29.44 29.44-29.44 0.45 0 0.898 0.010 1.343 0.030l-0.063-0.002h128c0.19-0.004 0.415-0.007 0.64-0.007 16.259 0 29.44 13.181 29.44 29.44 0 0.002 0 0.005 0 0.007v0c-0.343 16.347-13.676 29.468-30.074 29.468-0.452 0-0.902-0.010-1.35-0.030l0.064 0.002z" />
<glyph unicode="&#xe92d;" glyph-name="lsi-desktop" d="M953.6 960h-883.2c-38.881 0-70.4-31.519-70.4-70.4v0-627.2c0-38.881 31.519-70.4 70.4-70.4v0h377.6v-128h-192c-70.692 0-128-57.308-128-128v0h768c0 70.692-57.308 128-128 128v0h-192v128h377.6c38.881 0 70.4 31.519 70.4 70.4v0 627.2c0 38.881-31.519 70.4-70.4 70.4v0zM960 262.4c0.026-0.204 0.040-0.441 0.040-0.68 0-3.181-2.579-5.76-5.76-5.76-0.24 0-0.476 0.015-0.708 0.043l0.028-0.003h-883.2c-0.204-0.026-0.441-0.040-0.68-0.040-3.181 0-5.76 2.579-5.76 5.76 0 0.24 0.015 0.476 0.043 0.708l-0.003-0.028v627.2c-0.026 0.204-0.040 0.441-0.040 0.68 0 3.181 2.579 5.76 5.76 5.76 0.24 0 0.476-0.015 0.708-0.043l-0.028 0.003h883.2c0.204 0.026 0.441 0.040 0.68 0.040 3.181 0 5.76-2.579 5.76-5.76 0-0.24-0.015-0.476-0.043-0.708l0.003 0.028z" />
<glyph unicode="&#xe92e;" glyph-name="lsi-detail-view" horiz-adv-x="768" d="M679.68 896v-640h-591.36v640h591.36zM679.68 960h-591.36c-33.074-2.734-58.88-30.251-58.88-63.795 0-0.072 0-0.144 0-0.216v0.011-640c0-0.061 0-0.133 0-0.205 0-33.544 25.807-61.061 58.649-63.779l0.231-0.015h591.36c33.074 2.734 58.88 30.251 58.88 63.795 0 0.072 0 0.144 0 0.216v-0.011 640c0 0.061 0 0.133 0 0.205 0 33.544-25.807 61.061-58.649 63.779l-0.231 0.015zM738.56 64h-709.12c-17.673 0-32 14.327-32 32s14.327 32 32 32v0h709.12c17.673 0 32-14.327 32-32s-14.327-32-32-32v0zM620.16-64h-472.32c-17.673 0-32 14.327-32 32s14.327 32 32 32v0h472.32c17.673 0 32-14.327 32-32s-14.327-32-32-32v0z" />
<glyph unicode="&#xe92f;" glyph-name="lsi-double-pannel" d="M320 0h-256v896h256zM320 960h-256c-35.346 0-64-28.654-64-64v0-896c0-35.346 28.654-64 64-64v0h256c35.346 0 64 28.654 64 64v0 896c0 35.346-28.654 64-64 64v0zM960 0h-256v896h256zM960 960h-256c-35.346 0-64-28.654-64-64v0-896c0-35.346 28.654-64 64-64v0h256c35.346 0 64 28.654 64 64v0 896c0 35.346-28.654 64-64 64v0zM512-64c-0.384-0.017-0.834-0.027-1.286-0.027-16.751 0-30.37 13.407-30.713 30.075l-0.001 0.032v963.84c0 17.673 14.327 32 32 32s32-14.327 32-32v0-963.84c-0.344-16.7-13.963-30.107-30.714-30.107-0.452 0-0.902 0.010-1.35 0.029l0.064-0.002z" />
<glyph unicode="&#xe930;" glyph-name="lsi-down-arrow" d="M0 755.2h1024l-512-614.4z" />
<glyph unicode="&#xe931;" glyph-name="lsi-download-file" horiz-adv-x="768" d="M767.52 666.423v0l-294.216 293.577h-443.243c-16.602 0-30.061-13.459-30.061-30.061v0-963.878c0.358-16.325 13.677-29.422 30.054-29.422 0.002 0 0.005 0 0.007 0h707.398c16.602 0 30.061 13.459 30.061 30.061v0 699.083zM479.7 862.781l191.88-191.88h-159.9c-0.628-0.047-1.359-0.073-2.097-0.073-16.602 0-30.061 13.459-30.061 30.061 0 1.152 0.065 2.29 0.191 3.408l-0.013-0.137zM703.56 0.6h-639.6v895.44h351.78v-191.88c-0.023-0.768-0.035-1.672-0.035-2.579 0-51.926 42.095-94.021 94.021-94.021 0.687 0 1.373 0.007 2.056 0.022l-0.102-0.002h191.88zM219.383 256.44l140.712-140.072c2.664-3.177 6.123-5.605 10.072-6.986l0.161-0.049c3.593-1.517 7.77-2.399 12.152-2.399s8.56 0.882 12.363 2.477l-0.211-0.078c4.324 1.42 7.99 3.848 10.854 7.014l0.019 0.021 142.631 140.072c5.653 5.764 9.142 13.667 9.142 22.386s-3.489 16.622-9.147 22.391l0.005-0.005c-5.889 5.908-14.027 9.571-23.021 9.594h-0.004c-8.778-0.129-16.681-3.775-22.381-9.589l-0.005-0.005-88.265-85.706v247.525c0 17.662-14.318 31.98-31.98 31.98v0c-17.519-0.351-31.629-14.461-31.979-31.947l-0.001-0.033v-247.525l-85.706 86.346c-5.811 5.811-13.839 9.405-22.706 9.405-17.734 0-32.111-14.377-32.111-32.111 0-8.867 3.594-16.895 9.405-22.706v0z" />
<glyph unicode="&#xe932;" glyph-name="lsi-download" d="M224 530.56c7.801 7.47 18.403 12.069 30.080 12.069s22.279-4.599 30.096-12.084l-0.016 0.015 184.96-177.92v566.4c0 23.329 18.911 42.24 42.24 42.24s42.24-18.911 42.24-42.24v0-565.76l186.88 178.56c6.816 7.483 16.599 12.16 27.475 12.16 0.016 0 0.031 0 0.047 0h-0.002c0.412 0.016 0.895 0.025 1.381 0.025 11.062 0 21.032-4.678 28.039-12.163l0.020-0.021c7.964-6.96 12.967-17.136 12.967-28.48s-5.003-21.52-12.922-28.442l-0.044-0.038-259.84-251.52c-6.819-6.75-16.202-10.92-26.56-10.92s-19.741 4.17-26.563 10.923l0.003-0.003-260.48 250.24c-7.436 7.22-12.050 17.311-12.050 28.48s4.614 21.26 12.041 28.471l0.010 0.009zM984.96-64h-945.92c-21.801 1.029-39.087 18.954-39.087 40.917 0 0.69 0.017 1.377 0.051 2.059l-0.004-0.096v300.16c0 0.013 0 0.029 0 0.045 0 21.946 17.26 39.861 38.946 40.911l0.094 0.004c22.143-1.043 39.701-19.249 39.701-41.557 0-0.465-0.008-0.929-0.023-1.391l0.002 0.067v-256h866.56v256c-0.013 0.394-0.021 0.858-0.021 1.323 0 22.307 17.558 40.513 39.608 41.553l0.093 0.004c21.801-1.029 39.087-18.954 39.087-40.917 0-0.69-0.017-1.377-0.051-2.059l0.004 0.096v-300.16c0.030-0.586 0.047-1.272 0.047-1.963 0-21.963-17.286-39.888-38.995-40.914l-0.092-0.003z" />
<glyph unicode="&#xe933;" glyph-name="lsi-driver" horiz-adv-x="890" d="M64 94.72v-16l5.12 41.6c-3.206-7.564-5.084-16.358-5.12-25.586v-0.014zM0 94.72v-14.72l6.4 55.040c-4.062-11.586-6.409-24.944-6.409-38.851 0-0.517 0.003-1.032 0.010-1.548l-0.001 0.078zM888.96 105.6c0.167 2.488 0.263 5.393 0.263 8.32s-0.095 5.832-0.283 8.712l0.020-0.392-94.72 789.76c-7.348 27.84-32.304 48.032-61.976 48.032-0.712 0-1.421-0.012-2.127-0.035l0.103 0.003h-570.24c-0.603 0.020-1.312 0.032-2.024 0.032-29.672 0-54.628-20.192-61.876-47.586l-0.1-0.446-89.6-776.96-6.4-55.040v-7.040c0.723-75.796 62.336-136.962 138.234-136.962 0.227 0 0.454 0.001 0.681 0.002h611.805c0.192-0.001 0.419-0.002 0.646-0.002 75.898 0 137.511 61.165 138.234 136.893l0.001 0.069v21.76c0.148 1.63 0.232 3.525 0.232 5.44s-0.084 3.81-0.249 5.683l0.017-0.243zM160.64 896h570.88l80-678.4c-17.647 8.88-38.46 14.080-60.487 14.080-0.11 0-0.22 0-0.33 0h-611.823c-0.19 0.001-0.415 0.002-0.64 0.002-20.694 0-40.286-4.722-57.756-13.148l0.796 0.346zM824.96 72.96c-0.361-40.373-33.173-72.963-73.597-72.963-0.226 0-0.452 0.001-0.677 0.003h-611.806c-0.382-0.007-0.832-0.011-1.283-0.011-40.427 0-73.241 32.594-73.597 72.937v21.794c0.036 9.242 1.914 18.036 5.287 26.046l-0.167-0.446c10.872 27.928 37.549 47.361 68.764 47.361 0.125 0 0.25 0 0.375-0.001h611.821c0.138 0.001 0.301 0.001 0.464 0.001 35.332 0 64.9-24.682 72.401-57.744l0.095-0.497c0.165-2.202 0.258-4.77 0.258-7.36s-0.094-5.158-0.278-7.701l0.020 0.341zM681.6 121.6c-20.854 0-37.76-16.906-37.76-37.76v0c2.511-18.637 18.315-32.854 37.44-32.854s34.929 14.218 37.419 32.66l0.021 0.195c0 0.002 0 0.004 0 0.005 0 20.629-16.543 37.395-37.086 37.754h-0.034z" />
<glyph unicode="&#xe934;" glyph-name="lsi-edit-pencil" horiz-adv-x="896" d="M380.16 97.92l-241.28 192c-7.341 5.914-11.998 14.902-11.998 24.978 0 7.516 2.591 14.426 6.929 19.887l-0.050-0.066 462.080 566.4c4.718 5.884 11.38 10.037 19 11.488l0.2 0.032 238.080 47.36c2.873 0.898 6.176 1.415 9.6 1.415 18.38 0 33.28-14.9 33.28-33.28 0-0.047 0-0.095 0-0.142v0.007-240.64c-0.099-7.744-2.73-14.855-7.101-20.563l0.061 0.083-462.080-563.84c-6.265-7.458-15.595-12.165-26.025-12.165-7.826 0-15.033 2.65-20.773 7.103l0.077-0.058zM213.76 315.52l175.36-140.8 427.52 522.88c4.39 5.585 7.040 12.718 7.040 20.47 0 0.004 0 0.007 0 0.011v-0.001 162.56l-161.28-31.36c-7.839-1.424-14.519-5.592-19.15-11.454l-0.050-0.066zM86.4 202.24l216.96-174.080-30.080-37.12-217.6 174.080 30.72 37.12zM86.4 257.92c-9.43-0.11-17.864-4.282-23.65-10.845l-0.030-0.035-53.76-64c-4.113-5.023-6.605-11.512-6.605-18.582 0-9.291 4.304-17.578 11.028-22.973l0.058-0.045 242.56-199.040c4.902-3.988 11.222-6.404 18.106-6.404 0.16 0 0.319 0.001 0.478 0.004h-0.024c9.229 0.129 17.457 4.308 23.004 10.836l0.036 0.044 53.76 64c4.080 4.933 6.555 11.323 6.555 18.292 0 9.175-4.29 17.348-10.974 22.622l-0.061 0.046-244.48 199.040c-4.788 3.231-10.688 5.158-17.038 5.158-0.535 0-1.068-0.014-1.596-0.041l0.074 0.003z" />
<glyph unicode="&#xe935;" glyph-name="lsi-edit" horiz-adv-x="768" d="M442.24 817.92l206.72-168.96c6.524-5.203 10.667-13.152 10.667-22.068 0-6.69-2.333-12.835-6.229-17.666l0.042 0.054-397.44-494.080c-4.223-4.843-9.952-8.276-16.453-9.569l-0.187-0.031-202.88-41.6c-2.303-0.663-4.948-1.044-7.683-1.044-15.906 0-28.8 12.894-28.8 28.8 0 0.142 0.001 0.284 0.003 0.425v-0.021 209.92c-0.001 0.082-0.001 0.178-0.001 0.275 0 6.735 2.419 12.904 6.436 17.688l-0.035-0.042 395.52 494.080c5.319 6.336 13.243 10.335 22.101 10.335 6.935 0 13.298-2.451 18.269-6.535l-0.050 0.040zM584.96 625.92l-150.4 124.8-366.72-456.96c-3.613-4.459-5.801-10.202-5.801-16.455 0-0.515 0.015-1.027 0.044-1.535l-0.003 0.070v-142.72l138.24 28.16c6.529 1.197 12.093 4.668 15.958 9.546l0.042 0.054zM695.68 704l-210.56 171.52 45.44 60.16 212.48-172.16-45.44-59.52zM535.040 902.4l176-144-17.92-22.4-176 144 17.92 22.4zM535.040 960c-0.877 0.107-1.893 0.167-2.923 0.167-8.137 0-15.387-3.796-20.076-9.714l-0.041-0.053-46.080-57.6c-3.651-4.312-5.87-9.937-5.87-16.080 0-8.017 3.779-15.151 9.654-19.718l0.056-0.042 210.56-172.8c4.209-3.583 9.709-5.762 15.718-5.762 0.099 0 0.198 0.001 0.297 0.002h-0.015c8.008 0.047 15.139 3.763 19.802 9.551l0.038 0.049 46.080 57.6c3.526 4.428 5.657 10.103 5.657 16.276 0 8.108-3.677 15.357-9.455 20.17l-0.042 0.034-210.56 172.16c-4.209 3.583-9.709 5.762-15.718 5.762-0.099 0-0.198-0.001-0.297-0.002h0.015zM728.32-64h-688.64c-21.915 0-39.68 17.765-39.68 39.68s17.765 39.68 39.68 39.68h688.64c21.915 0 39.68-17.765 39.68-39.68s-17.765-39.68-39.68-39.68v0z" />
<glyph unicode="&#xe936;" glyph-name="lsi-eject-drive" horiz-adv-x="890" d="M64 94.72v-16l5.12 41.6c-3.206-7.564-5.084-16.358-5.12-25.586v-0.014zM0 94.72v-14.72l6.4 55.040c-4.062-11.586-6.409-24.944-6.409-38.851 0-0.517 0.003-1.032 0.010-1.548l-0.001 0.078zM888.96 105.6c0.167 2.488 0.263 5.393 0.263 8.32s-0.095 5.832-0.283 8.712l0.020-0.392-94.72 789.76c-7.348 27.84-32.304 48.032-61.976 48.032-0.712 0-1.421-0.012-2.127-0.035l0.103 0.003h-570.24c-0.603 0.020-1.312 0.032-2.024 0.032-29.672 0-54.628-20.192-61.876-47.586l-0.1-0.446-89.6-776.96-6.4-55.040v-7.040c0.723-75.796 62.336-136.962 138.234-136.962 0.227 0 0.454 0.001 0.681 0.002h611.805c0.192-0.001 0.419-0.002 0.646-0.002 75.898 0 137.511 61.165 138.234 136.893l0.001 0.069v21.76c0.148 1.63 0.232 3.525 0.232 5.44s-0.084 3.81-0.249 5.683l0.017-0.243zM160.64 896h570.88l80-678.4c-17.647 8.88-38.46 14.080-60.487 14.080-0.11 0-0.22 0-0.33 0h-611.823c-0.19 0.001-0.415 0.002-0.64 0.002-20.694 0-40.286-4.722-57.756-13.148l0.796 0.346zM824.96 72.96c-0.361-40.373-33.173-72.963-73.597-72.963-0.226 0-0.452 0.001-0.677 0.003h-611.806c-0.382-0.007-0.832-0.011-1.283-0.011-40.427 0-73.241 32.594-73.597 72.937v21.794c0.036 9.242 1.914 18.036 5.287 26.046l-0.167-0.446c10.872 27.928 37.549 47.361 68.764 47.361 0.125 0 0.25 0 0.375-0.001h611.821c0.138 0.001 0.301 0.001 0.464 0.001 35.332 0 64.9-24.682 72.401-57.744l0.095-0.497c0.165-2.202 0.258-4.77 0.258-7.36s-0.094-5.158-0.278-7.701l0.020 0.341zM681.6 121.6c-20.854 0-37.76-16.906-37.76-37.76v0c2.511-18.637 18.315-32.854 37.44-32.854s34.929 14.218 37.419 32.66l0.021 0.195c0 0.002 0 0.004 0 0.005 0 20.629-16.543 37.395-37.086 37.754h-0.034zM424.32 744.32l-157.44-157.44c-5.438-5.632-8.788-13.31-8.788-21.771 0-17.034 13.581-30.896 30.506-31.349l0.042-0.001h315.52c16.967 0.453 30.548 14.315 30.548 31.349 0 8.461-3.35 16.139-8.797 21.78l-157.431 157.431c-5.665 5.619-13.467 9.091-22.080 9.091s-16.415-3.472-22.082-9.093l0.002 0.002zM604.8 437.12h-316.8c-16.613 0-30.080 13.467-30.080 30.080s13.467 30.080 30.080 30.080h316.8c16.613 0 30.080-13.467 30.080-30.080s-13.467-30.080-30.080-30.080v0z" />
<glyph unicode="&#xe937;" glyph-name="lsi-ellipsis" d="M128 576c70.692 0 128-57.308 128-128s-57.308-128-128-128c-70.692 0-128 57.308-128 128v0c0 70.692 57.308 128 128 128v0zM512 576c70.692 0 128-57.308 128-128s-57.308-128-128-128c-70.692 0-128 57.308-128 128v0c0 70.692 57.308 128 128 128v0zM896 576c70.692 0 128-57.308 128-128s-57.308-128-128-128c-70.692 0-128 57.308-128 128v0c0 70.692 57.308 128 128 128v0z" />
<glyph unicode="&#xe938;" glyph-name="lsi-excel" horiz-adv-x="768" d="M768 666.24v0l-294.4 293.76h-443.52c-16.613 0-30.080-13.467-30.080-30.080v0-963.84c0-16.613 13.467-30.080 30.080-30.080v0h707.84c16.613 0 30.080 13.467 30.080 30.080v0 699.52zM480 862.72l192-192h-160c-0.628-0.047-1.36-0.073-2.099-0.073-16.613 0-30.080 13.467-30.080 30.080 0 1.153 0.065 2.291 0.191 3.411l-0.013-0.137zM704 0h-640v896h352v-192c-0.023-0.769-0.035-1.673-0.035-2.58 0-51.959 42.121-94.080 94.080-94.080 0.688 0 1.373 0.007 2.058 0.022l-0.102-0.002h192zM320 192h-77.44l102.4 160-97.92 156.8h80l56.96-103.68 58.24 103.68h77.44l-97.92-153.6 103.68-163.2h-77.44l-64 108.8z" />
<glyph unicode="&#xe939;" glyph-name="lsi-expand" d="M960 960h-896c-35.346 0-64-28.654-64-64v0-896c0-35.346 28.654-64 64-64v0h896c35.346 0 64 28.654 64 64v0 896c0 35.346-28.654 64-64 64v0zM960 0h-896v896h896zM283.52 128l64-64h-219.52v220.16l64-64 146.56 145.28 90.88-90.88zM896 832v-220.16l-64 64-146.56-145.28-90.88 90.88 145.92 146.56-64 64z" />
<glyph unicode="&#xe93a;" glyph-name="lsi-experiment" horiz-adv-x="640" d="M320 0c85.465 2.797 153.685 72.752 153.685 158.64 0 1.829-0.031 3.65-0.092 5.464l0.007-0.264v689.28h86.4c11.105 0.689 19.851 9.864 19.851 21.082 0 0.238-0.004 0.476-0.012 0.713l0.001-0.034c0.007 0.194 0.010 0.421 0.010 0.65 0 11.089-8.814 20.12-19.818 20.47l-0.032 0.001h-480c-11.037-0.35-19.85-9.381-19.85-20.47 0-0.228 0.004-0.456 0.011-0.683l-0.001 0.033c-0.007-0.202-0.011-0.44-0.011-0.678 0-11.218 8.746-20.393 19.791-21.079l0.060-0.003h86.4v-689.28c-0.054-1.55-0.085-3.371-0.085-5.2 0-85.888 68.22-155.843 153.429-158.633l0.256-0.007zM320-64c-118.646 4.194-213.236 101.386-213.236 220.67 0 2.521 0.042 5.033 0.126 7.534l-0.010-0.364v625.28h-26.88c-44.571 1.746-80.041 38.301-80.041 83.14 0 0.921 0.015 1.839 0.045 2.753l-0.003-0.133c-0.026 0.774-0.041 1.685-0.041 2.598 0 44.711 35.541 81.121 79.912 82.518l0.128 0.003h480c44.5-1.401 80.041-37.811 80.041-82.522 0-0.914-0.015-1.824-0.044-2.731l0.003 0.132c0.026-0.781 0.041-1.699 0.041-2.62 0-44.839-35.471-81.394-79.883-83.135l-0.158-0.005h-26.88v-625.28c0.074-2.137 0.116-4.648 0.116-7.17 0-119.285-94.59-216.476-212.854-220.66l-0.382-0.011zM215.68 343.68l213.12 57.6v-233.6c0.030-0.955 0.047-2.079 0.047-3.207 0-60.362-48.584-109.376-108.781-110.072l-0.066-0.001c-59.080 1.744-106.309 50.054-106.309 109.395 0 1.366 0.025 2.726 0.075 4.080l-0.006-0.196zM263.040 487.040c0.574 0.041 1.244 0.064 1.92 0.064 15.906 0 28.8-12.894 28.8-28.8s-12.894-28.8-28.8-28.8c-15.883 0-28.763 12.858-28.8 28.732v0.003c-0.005 0.199-0.008 0.434-0.008 0.669 0 15.105 11.893 27.432 26.825 28.129l0.063 0.002zM289.92 832c29.576-1.045 53.155-25.273 53.155-55.008 0-0.687-0.013-1.37-0.037-2.051l0.003 0.098c0.022-0.582 0.035-1.266 0.035-1.952 0-29.735-23.579-53.962-53.059-55.005l-0.095-0.003c-29.921 1.056-53.775 25.566-53.775 55.647 0 0.462 0.006 0.922 0.017 1.381l-0.001-0.068c-0.010 0.391-0.015 0.851-0.015 1.313 0 30.081 23.855 54.591 53.679 55.645l0.096 0.003zM327.68 657.28c44.5-1.401 80.041-37.811 80.041-82.522 0-0.914-0.015-1.824-0.044-2.731l0.003 0.132c0.026-0.781 0.041-1.699 0.041-2.62 0-44.839-35.471-81.394-79.883-83.135l-0.158-0.005c-44.571 1.746-80.041 38.301-80.041 83.14 0 0.921 0.015 1.839 0.045 2.753l-0.003-0.133c-0.026 0.774-0.041 1.685-0.041 2.598 0 44.711 35.541 81.121 79.912 82.518l0.128 0.003z" />
<glyph unicode="&#xe93b;" glyph-name="lsi-explore" d="M512-64c-0.034 0-0.075 0-0.116 0-282.77 0-512 229.23-512 512 0 110.554 35.039 212.925 94.618 296.611l-1.062-1.571c7.131 10.307 18.89 16.974 32.206 16.974 8.575 0 16.505-2.765 22.946-7.452l-0.112 0.078c10.17-7.28 16.719-19.056 16.719-32.362 0-8.487-2.665-16.352-7.203-22.804l0.084 0.126c-49.626-69.060-79.361-155.317-79.361-248.52 0-0.38 0-0.76 0.001-1.14v0.059c0-239.294 193.986-433.28 433.28-433.28s433.28 193.986 433.28 433.28c0 239.294-193.986 433.28-433.28 433.28v0c-0.394 0.001-0.861 0.002-1.327 0.002-98.949 0-190.082-33.465-262.697-89.695l0.985 0.733c-6.531-4.877-14.763-7.809-23.68-7.809-21.986 0-39.809 17.823-39.809 39.809 0 13.069 6.298 24.667 16.024 31.925l0.105 0.075c84.306 64.704 191.302 103.689 307.404 103.689 1.054 0 2.106-0.003 3.159-0.010l-0.162 0.001c282.77 0 512-229.23 512-512s-229.23-512-512-512v0zM716.8 704l-324.48-112c-11.361-3.894-20.082-12.826-23.609-24.057l-0.071-0.263-112.64-323.84c-1.256-3.697-1.981-7.955-1.981-12.382 0-21.915 17.765-39.68 39.68-39.68 4.605 0 9.027 0.785 13.14 2.227l-0.278-0.085 323.2 110.080c11.643 4.298 20.662 13.317 24.867 24.672l0.093 0.288 113.28 323.84c1.966 4.505 3.11 9.754 3.11 15.27 0 21.561-17.479 39.040-39.040 39.040-5.516 0-10.765-1.144-15.523-3.208l0.252 0.098zM512 768c0.19-0.003 0.415-0.005 0.64-0.005 21.561 0 39.040 17.479 39.040 39.040 0 0.002 0 0.004 0 0.006v0c0 21.915-17.765 39.68-39.68 39.68s-39.68-17.765-39.68-39.68v0c0-0.002 0-0.003 0-0.005 0-21.561 17.479-39.040 39.040-39.040 0.225 0 0.45 0.002 0.674 0.006h-0.034zM868.48 409.6c21.915 0 39.68 17.765 39.68 39.68s-17.765 39.68-39.68 39.68v0c-21.915 0-39.68-17.765-39.68-39.68s17.765-39.68 39.68-39.68v0zM512 55.040c21.915 0 39.68 17.765 39.68 39.68v0c0 21.915-17.765 39.68-39.68 39.68s-39.68-17.765-39.68-39.68v0c0-21.915 17.765-39.68 39.68-39.68v0zM158.72 408.32c21.915 0 39.68 17.765 39.68 39.68s-17.765 39.68-39.68 39.68v0c-21.915 0-39.68-17.765-39.68-39.68s17.765-39.68 39.68-39.68v0z" />
<glyph unicode="&#xe93c;" glyph-name="lsi-export" horiz-adv-x="1022" d="M1019.423 939.729c-2.871 9.034-9.23 16.245-17.454 20.184l-0.201 0.087c-1.867 0.442-4.010 0.695-6.212 0.695s-4.345-0.253-6.402-0.732l0.19 0.037h-330.871c-18.057 0-32.695-14.638-32.695-32.695v0c0-18.057 14.638-32.695 32.695-32.695v0h251.75l-476.036-476.036c-5.779-5.893-9.346-13.973-9.346-22.886s3.567-16.994 9.351-22.892l-0.005 0.005c6.020-6.040 14.341-9.785 23.536-9.808h0.004c0.263-0.008 0.572-0.012 0.883-0.012 8.487 0 16.218 3.233 22.030 8.536l-0.026-0.023 476.036 475.382v-261.558c0-18.057 14.638-32.695 32.695-32.695v0c17.911 0.359 32.336 14.784 32.694 32.661l0.001 0.034v341.987c0.326 1.868 0.512 4.018 0.512 6.212s-0.186 4.345-0.544 6.437l0.032-0.225zM777.481-64h-677.436c-55.105 0.368-99.678 44.941-100.046 100.011v688.587c0 54.17 43.914 98.084 98.084 98.084v0h402.146c18.057 0 32.695-14.638 32.695-32.695s-14.638-32.695-32.695-32.695v0h-402.146c-18.057 0-32.695-14.638-32.695-32.695v0-688.552c0-19.14 15.516-34.656 34.656-34.656v0h677.436c19.14 0 34.656 15.516 34.656 34.656v0 466.227c0 18.057 14.638 32.695 32.695 32.695v0c18.057 0 32.695-14.638 32.695-32.695v0-463.612c-0.368-55.105-44.941-99.678-100.011-100.046h-0.035z" />
<glyph unicode="&#xe93d;" glyph-name="lsi-fcurve" d="M1000.96 174.72h-128c-59.52 0-115.84 69.76-144.64 177.28l-31.36 119.040c-13.534 51.554-35.556 96.65-64.758 136.112l0.758-1.072v15.36h216.32c11.749-29.037 39.67-49.17 72.306-49.28h0.014c0.003 0 0.007 0 0.010 0 43.829 0 79.36 35.531 79.36 79.36 0 0.45-0.004 0.899-0.011 1.347l0.001-0.067c0.007 0.381 0.010 0.832 0.010 1.282 0 43.608-35.173 79.001-78.696 79.357h-0.034c-32.65-0.11-60.571-20.243-72.132-48.757l-0.188-0.523h-216.32v83.84h-243.2v-83.84h-216.32c-11.749 29.037-39.67 49.17-72.306 49.28h-0.014c-43.558-0.357-78.73-35.75-78.73-79.358 0-0.451 0.004-0.901 0.011-1.35l-0.001 0.068c-0.007-0.381-0.010-0.832-0.010-1.282 0-43.608 35.173-79.001 78.696-79.357h0.034c32.65 0.11 60.571 20.243 72.132 48.757l0.188 0.523h216.32v-15.36c-28.444-38.39-50.466-83.486-63.38-132.286l-0.62-2.754-29.44-119.040c-28.8-107.52-85.12-177.28-144.64-177.28h-128c-11.304-1.929-19.8-11.652-19.8-23.36s8.497-21.431 19.66-23.34l0.14-0.020h128c81.92 0 154.24 81.28 192 211.84l31.36 119.040c7.211 24.663 14.399 44.638 22.588 64.088l-1.468-3.928h236.8c6.721-15.522 13.909-35.497 20.032-55.933l1.088-4.227 31.36-119.040c34.56-128 106.88-211.84 188.8-211.84h128c11.304 1.929 19.8 11.652 19.8 23.36s-8.497 21.431-19.66 23.34l-0.14 0.020zM572.16 581.12h-120.32v122.88h120.32z" />
<glyph unicode="&#xe93e;" glyph-name="lsi-filter-fill" d="M992.64 960h-960.64c-8.301-0.542-15.677-4.109-21.118-9.598l-0.002-0.002c-6.341-6.17-10.275-14.786-10.275-24.32s3.934-18.15 10.267-24.313l0.008-0.007 353.28-389.76c9.142-10.066 14.738-23.496 14.738-38.233 0-0.509-0.007-1.016-0.020-1.521l0.002 0.075v-291.84c-0.008-0.267-0.013-0.58-0.013-0.894 0-7.467 2.664-14.312 7.093-19.635l-0.040 0.050s0 0 0-3.84l140.8-136.96 76.16-74.88c5.91-7.031 14.709-11.469 24.545-11.469 17.673 0 32 14.327 32 32 0 1.335-0.082 2.651-0.241 3.943l0.016-0.155v523.52c-0.014 0.474-0.022 1.033-0.022 1.593 0 14.896 5.592 28.485 14.792 38.784l-0.050-0.057 341.12 369.28c4.956 5.461 8.229 12.532 8.95 20.342l0.010 0.138c0.103 1 0.161 2.16 0.161 3.334 0 18.017-13.787 32.814-31.387 34.416l-0.135 0.010z" />
<glyph unicode="&#xe93f;" glyph-name="lsi-filter-panel" d="M960 448v-128h-378.24v128h378.24zM963.84 512h-387.84c-32.949-0.362-59.52-27.156-59.52-60.157 0-0.001 0-0.002 0-0.004v0-135.68c0-0.001 0-0.002 0-0.003 0-33 26.571-59.795 59.486-60.156h384.034c32.949 0.362 59.52 27.156 59.52 60.157 0 0.001 0 0.002 0 0.004v0 135.68c0 0.065 0 0.142 0 0.218 0 31.423-24.092 57.22-54.812 59.926l-0.228 0.016zM960 128v-128h-378.24v128h378.24zM963.84 192h-387.84c-32.949-0.362-59.52-27.156-59.52-60.157 0-0.001 0-0.002 0-0.004v0-135.68c0-0.001 0-0.002 0-0.003 0-33 26.571-59.795 59.486-60.156h384.034c32.949 0.362 59.52 27.156 59.52 60.157 0 0.001 0 0.002 0 0.004v0 135.68c0 0.001 0 0.002 0 0.003 0 33-26.571 59.795-59.486 60.156h-0.034zM947.84 768v-128h-192v128h192zM963.84 832h-222.080c-25.881-0.358-46.724-21.423-46.724-47.356 0-0.227 0.002-0.453 0.005-0.679v0.034-160c-0.003-0.192-0.004-0.418-0.004-0.644 0-25.933 20.843-46.997 46.691-47.355h222.114c0.005 0 0.011 0 0.018 0 25.803 0 46.72 20.917 46.72 46.72 0 0.45-0.006 0.899-0.019 1.346l0.001-0.066v160c0.011 0.381 0.018 0.83 0.018 1.28 0 25.803-20.917 46.72-46.72 46.72-0.006 0-0.012 0-0.019 0h0.001zM640 960h-576c-2.588 0.421-5.571 0.662-8.61 0.662-31.105 0-56.32-25.215-56.32-56.32 0-18.988 9.397-35.782 23.794-45.984l0.175-0.118 232.96-290.56v-507.52c0.182-11.825 5.593-22.35 14.018-29.39l0.062-0.050 94.72-82.56c8.577-8.111 20.182-13.098 32.952-13.098 24.585 0 44.853 18.483 47.666 42.312l0.022 0.226v590.080l226.56 290.56c14.051 10.365 23.065 26.857 23.065 45.454 0 30.663-24.505 55.603-55 56.305l-0.065 0.001z" />
<glyph unicode="&#xe940;" glyph-name="lsi-filter" horiz-adv-x="1025" d="M629.12-64v0c-18.186 0.694-32.665 15.605-32.665 33.897 0 0.458 0.009 0.915 0.027 1.368l-0.002-0.065v544.64c-0.004 0.267-0.006 0.583-0.006 0.9 0 18.634 7.047 35.622 18.622 48.444l-0.056-0.064 296.96 324.48h-800l312.96-341.76c11.517-12.494 18.579-29.248 18.579-47.652 0-0.572-0.007-1.143-0.020-1.712l0.002 0.084v-300.8l88.32-96c5.982-6.566 9.645-15.335 9.645-24.96s-3.663-18.394-9.671-24.99l0.027 0.030c-5.554-6.563-13.797-10.701-23.006-10.701-7.633 0-14.603 2.843-19.907 7.529l0.032-0.028v3.2l-100.48 106.88c-5.59 5.66-9.044 13.443-9.044 22.032 0 0.805 0.030 1.603 0.090 2.393l-0.006-0.105v291.2c-0.932 14.542-6.586 27.607-15.429 37.842l0.069-0.082-354.56 389.76c-6.341 6.17-10.275 14.786-10.275 24.32s3.934 18.15 10.267 24.313l0.008 0.007c5.744 5.767 13.629 9.398 22.362 9.599l0.038 0.001h960c18.062-1.643 32.103-16.713 32.103-35.064 0-0.949-0.038-1.889-0.111-2.819l0.008 0.123c-1.146-7.968-4.59-14.978-9.628-20.511l0.028 0.031-337.92-369.28c-9.15-10.242-14.742-23.832-14.742-38.727 0-0.56 0.008-1.118 0.024-1.675l-0.002 0.082v-520.96c0.016-0.389 0.025-0.845 0.025-1.303 0-18.292-14.479-33.202-32.602-33.895l-0.063-0.002z" />
<glyph unicode="&#xe941;" glyph-name="lsi-flask" d="M931.2 24.96v0l-320 527.36c-7.494 12.658-11.988 27.866-12.16 44.111v274.609h-177.28v-274.56c-0.172-16.294-4.666-31.502-12.388-44.577l0.228 0.417-316.8-527.36h838.4zM931.2-64h-838.4c-0.805-0.026-1.751-0.041-2.701-0.041-49.485 0-89.6 40.115-89.6 89.6 0 16.252 4.327 31.494 11.892 44.635l-0.231-0.435 316.8 526.72v274.56c1.065 49.368 41.336 88.981 90.86 88.981 0.682 0 1.362-0.008 2.041-0.022l-0.101 0.002h180.48c0.577 0.013 1.258 0.021 1.94 0.021 49.524 0 89.796-39.613 90.858-88.882l0.002-0.099v-274.56l316.16-526.72c7.629-12.849 12.137-28.326 12.137-44.857 0-49.131-39.829-88.96-88.96-88.96-1.117 0-2.23 0.021-3.337 0.061l0.16-0.005zM330.24 256l-99.2-157.44h536.96l-106.24 157.44s-35.84-60.8-91.52-46.72-68.48 144-132.48 144-107.52-97.28-107.52-97.28z" />
<glyph unicode="&#xe942;" glyph-name="lsi-folder-upload" d="M910.677 775.68h-368.64c-9.695 0.275-18.155 5.321-23.144 12.864l-0.066 0.107-40.96 62.123c-14.332 23.57-39.293 39.44-68.058 40.951l-0.209 0.009h-321.536c-0.203 0.002-0.443 0.003-0.683 0.003-48.259 0-87.381-39.122-87.381-87.381 0-0.001 0-0.002 0-0.003v0-697.003c0.385-47.966 39.358-86.701 87.379-86.701 0.241 0 0.482 0.001 0.722 0.003h822.576c0.204-0.002 0.444-0.003 0.685-0.003 48.020 0 86.993 38.735 87.378 86.665v579.621c0.007 0.407 0.011 0.887 0.011 1.368 0 48.259-39.122 87.381-87.381 87.381-0.244 0-0.487-0.001-0.731-0.003h0.037zM88.064 833.707h321.536c8.31-0.164 15.665-4.11 20.437-10.183l0.043-0.057 38.912-68.267c15.762-24.135 42.522-39.945 72.996-40.277h368.69c16.212 0 29.355-13.143 29.355-29.355v-54.613h-881.323v173.397c0 16.212 13.143 29.355 29.355 29.355v0zM910.677 78.677h-819.2c-0.203-0.005-0.443-0.008-0.683-0.008-15.835 0-28.672 12.837-28.672 28.672 0 0.003 0 0.006 0 0.009v0 462.165h877.909v-462.165c0-0.002 0-0.005 0-0.008 0-15.835-12.837-28.672-28.672-28.672-0.24 0-0.479 0.003-0.718 0.009l0.035-0.001zM674.475 370.859l-149.504 150.187c-6.374 6.151-15.063 9.94-24.636 9.94-4.646 0-9.083-0.892-13.15-2.515l0.239 0.084c-3.677-2.076-6.827-4.573-9.535-7.485l-0.022-0.024-153.6-152.235c-6.236-6.187-10.097-14.76-10.097-24.235s3.86-18.048 10.094-24.232l0.002-0.002c5.993-6.374 14.479-10.344 23.893-10.344s17.901 3.97 23.877 10.327l0.016 0.017 94.208 93.525v-263.509c0-18.851 15.282-34.133 34.133-34.133v0c18.851 0 34.133 15.282 34.133 34.133v0 263.509l92.16-90.795c6.115-6.115 14.562-9.897 23.893-9.897 18.662 0 33.79 15.128 33.79 33.79 0 9.331-3.782 17.778-9.897 23.893v0z" />
<glyph unicode="&#xe943;" glyph-name="lsi-folder" d="M933.647 779.294h-377.675c-9.868 0.174-18.486 5.371-23.423 13.137l-0.068 0.115-39.755 65.054c-15.71 25.455-43.448 42.165-75.089 42.165-0.072 0-0.144 0-0.216 0h-327.067c-49.901 0-90.353-40.452-90.353-90.353v0-722.824c0-49.901 40.452-90.353 90.353-90.353v0h843.294c49.901 0 90.353 40.452 90.353 90.353v0 602.353c0 49.901-40.452 90.353-90.353 90.353v0zM90.353 839.529h327.078c0.159 0.003 0.347 0.005 0.536 0.005 9.761 0 18.289-5.276 22.888-13.132l0.068-0.125 40.96-65.054c15.693-25.019 42.895-41.557 74.001-42.163l0.088-0.001h377.675c16.634 0 30.118-13.484 30.118-30.118v0-56.621h-903.529v177.092c0 16.634 13.484 30.118 30.118 30.118v0zM933.647 56.471h-843.294c-16.634 0-30.118 13.484-30.118 30.118v0 478.871h903.529v-481.882c0-16.634-13.484-30.118-30.118-30.118v0z" />
<glyph unicode="&#xe944;" glyph-name="lsi-form" horiz-adv-x="768" d="M767.52 666.423v0l-294.216 293.577h-443.243c-0.193 0.005-0.419 0.007-0.647 0.007-16.249 0-29.422-13.173-29.422-29.422 0-0.227 0.003-0.454 0.008-0.68l-0.001 0.034v-963.878c0.358-16.325 13.677-29.422 30.054-29.422 0.002 0 0.005 0 0.007 0h707.398c16.602 0 30.061 13.459 30.061 30.061v0 699.083zM479.7 862.781l191.88-191.88h-159.9c-0.628-0.047-1.359-0.073-2.097-0.073-16.602 0-30.061 13.459-30.061 30.061 0 1.152 0.065 2.29 0.191 3.408l-0.013-0.137zM703.56 0.6h-639.6v895.44h351.78v-191.88c-0.023-0.768-0.035-1.672-0.035-2.579 0-51.926 42.095-94.021 94.021-94.021 0.687 0 1.373 0.007 2.056 0.022l-0.102-0.002h191.88zM575.64 118.286h-383.76c-17.662 0-31.98 14.318-31.98 31.98v0c0.351 17.519 14.461 31.629 31.947 31.979l0.033 0.001h383.76c17.519-0.351 31.629-14.461 31.979-31.947l0.001-0.033c0-17.662-14.318-31.98-31.98-31.98v0zM575.64 267.313h-383.76c-17.662 0-31.98 14.318-31.98 31.98v0c0.351 17.519 14.461 31.629 31.947 31.979l0.033 0.001h383.76c17.519-0.351 31.629-14.461 31.979-31.947l0.001-0.033c0-17.662-14.318-31.98-31.98-31.98v0zM575.64 416.34h-383.76c-17.662 0-31.98 14.318-31.98 31.98v0c0.351 17.519 14.461 31.629 31.947 31.979l0.033 0.001h383.76c17.519-0.351 31.629-14.461 31.979-31.947l0.001-0.033c0-17.662-14.318-31.98-31.98-31.98v0z" />
<glyph unicode="&#xe945;" glyph-name="lsi-form3" horiz-adv-x="768" d="M704 0h-640v896h640zM704 960h-640c-35.346 0-64-28.654-64-64v0-896c0-35.346 28.654-64 64-64v0h640c35.346 0 64 28.654 64 64v0 896c0 35.346-28.654 64-64 64v0zM192 728.96c17.53-0.351 31.649-14.47 31.999-31.967l0.001-0.033c0-17.673-14.327-32-32-32v0c-17.673 0-32 14.327-32 32v0c0 17.673 14.327 32 32 32v0zM192 760.96c-35.346 0-64-28.654-64-64s28.654-64 64-64c35.346 0 64 28.654 64 64v0c0 35.346-28.654 64-64 64v0zM615.68 725.12h-316.16c-8.837 0-16 7.163-16 16s7.163 16 16 16v0h316.16c8.837 0 16-7.163 16-16s-7.163-16-16-16v0zM497.92 644.48h-198.4c-8.837 0-16 7.163-16 16s7.163 16 16 16v0h198.4c8.837 0 16-7.163 16-16s-7.163-16-16-16v0zM192 480c17.673 0 32-14.327 32-32s-14.327-32-32-32v0c-17.673 0-32 14.327-32 32s14.327 32 32 32v0zM192 512c-35.346 0-64-28.654-64-64s28.654-64 64-64c35.346 0 64 28.654 64 64v0c0 35.346-28.654 64-64 64v0zM615.68 476.16h-316.16c-8.837 0-16 7.163-16 16s7.163 16 16 16v0h316.16c8.837 0 16-7.163 16-16s-7.163-16-16-16v0zM497.92 395.52h-198.4c-8.837 0-16 7.163-16 16v0c0 8.837 7.163 16 16 16v0h198.4c7.972-0.991 14.080-7.724 14.080-15.884 0-0.041 0-0.081 0-0.122v0.006c0-8.837-7.163-16-16-16v0zM608.64 103.68h-448v128h448zM608.64 264.96h-448c-17.673 0-32-14.327-32-32v0-128c0-17.673 14.327-32 32-32v0h448c17.673 0 32 14.327 32 32v0 128c-0.351 17.53-14.47 31.649-31.967 31.999l-0.033 0.001z" />
<glyph unicode="&#xe946;" glyph-name="lsi-form4" horiz-adv-x="768" d="M568.96 617.6h-384c-17.673 0-32 14.327-32 32s14.327 32 32 32v0h384c17.673 0 32-14.327 32-32s-14.327-32-32-32v0zM568.96 473.6h-384c-17.673 0-32 14.327-32 32v0c0 17.673 14.327 32 32 32v0h384c17.673 0 32-14.327 32-32v0c0-17.673-14.327-32-32-32v0zM332.8 90.88c-8.677 0.086-16.545 3.479-22.419 8.977l0.019-0.017-100.48 96c-5.846 5.8-9.466 13.837-9.466 22.72s3.619 16.92 9.463 22.718l0.002 0.002c5.8 5.846 13.837 9.466 22.72 9.466s16.92-3.619 22.718-9.463l0.002-0.002 77.44-73.6 157.44 169.6c5.873 6.203 14.166 10.064 23.36 10.064 17.752 0 32.144-14.391 32.144-32.144 0-8.558-3.344-16.335-8.798-22.095l0.014 0.015-181.12-192c-5.744-5.767-13.629-9.398-22.362-9.599l-0.038-0.001zM704 876.8h-58.88v19.2c0 35.346-28.654 64-64 64v0h-408.32c-35.346 0-64-28.654-64-64v0-19.2h-44.8c-35.346 0-64-28.654-64-64v0-812.8c0-35.346 28.654-64 64-64v0h640c35.346 0 64 28.654 64 64v0 812.8c0 35.346-28.654 64-64 64v0zM704 0h-640v812.8h44.8v-53.12h535.68v53.12h59.52z" />
<glyph unicode="&#xe947;" glyph-name="lsi-form5" horiz-adv-x="768" d="M288.64 728.96c-0.005 0.381-0.009 0.83-0.009 1.28 0 52.666 42.694 95.36 95.36 95.36s95.36-42.694 95.36-95.36c0-52.663-42.689-95.355-95.351-95.36h-0.001c-0.003 0-0.006 0-0.009 0-52.216 0-94.63 41.968-95.351 94.012l-0.001 0.068zM384 606.080c-0.036 0-0.078 0-0.12 0-74.799 0-139.227-44.4-168.367-108.283l-0.473-1.157c40.771-48.234 101.313-78.655 168.96-78.655s128.189 30.421 168.692 78.329l0.268 0.326c-29.613 65.040-94.041 109.44-168.84 109.44-0.042 0-0.084 0-0.127 0h0.007zM608 147.84c0 17.28-8.96 31.36-20.48 31.36h-243.84c-11.52 0-20.48-14.080-20.48-31.36s8.96-32 20.48-32h243.84c11.52 0 20.48 12.16 20.48 32zM608 320c0 17.92-8.96 32-20.48 32h-243.84c-11.52 0-20.48-14.080-20.48-32s8.96-31.36 20.48-31.36h243.84c11.52 3.2 20.48 17.28 20.48 31.36zM704 896h-640v-896h640v896zM704 960c35.346 0 64-28.654 64-64v0-896c0-35.346-28.654-64-64-64v0h-640c-35.346 0-64 28.654-64 64v0 896c0 35.346 28.654 64 64 64v0zM192 259.84c3.888 0.374 7.27 2.278 9.58 5.095l0.020 0.025 74.24 95.36c2.72 3.040 4.382 7.076 4.382 11.5 0 4.752-1.919 9.057-5.023 12.181l0.001-0.001c-2.094 3.124-5.61 5.152-9.6 5.152s-7.506-2.029-9.574-5.111l-0.026-0.041-64-85.76-32 36.48c-2.121 2.86-5.486 4.694-9.28 4.694s-7.159-1.834-9.258-4.663l-0.022-0.031c-2.401-2.944-3.855-6.742-3.855-10.88s1.454-7.936 3.88-10.911l-0.025 0.031 42.24-48c2.149-2.629 5.342-4.334 8.936-4.479l0.024-0.001zM192 89.6c3.957 0.107 7.429 2.087 9.575 5.083l0.025 0.037 74.24 97.28c2.562 2.996 4.121 6.916 4.121 11.2s-1.559 8.204-4.141 11.224l0.020-0.024c-2.121 2.86-5.486 4.694-9.28 4.694s-7.159-1.834-9.258-4.663l-0.022-0.031-65.28-86.4-32 36.48c-2.121 2.86-5.486 4.694-9.28 4.694s-7.159-1.834-9.258-4.663l-0.022-0.031c-2.347-3.075-3.76-6.973-3.76-11.2s1.413-8.125 3.793-11.245l-0.033 0.045 42.24-47.36c1.709-2.933 4.762-4.92 8.293-5.119l0.027-0.001z" />
<glyph unicode="&#xe948;" glyph-name="lsi-form6" horiz-adv-x="768" d="M576 588.8h-384c-17.673 0-32 14.327-32 32s14.327 32 32 32v0h384c17.673 0 32-14.327 32-32s-14.327-32-32-32v0zM576 736.64h-384c-0.002 0-0.004 0-0.006 0-17.448 0-31.635 13.964-31.993 31.327l-0.001 0.033c0.351 17.53 14.47 31.649 31.967 31.999l0.033 0.001h384c17.53-0.351 31.649-14.47 31.999-31.967l0.001-0.033c0-17.673-14.327-32-32-32v0zM704 896v0-896h-640v896h640zM704 960h-640c-35.346 0-64-28.654-64-64v0-896c0-35.346 28.654-64 64-64v0h640c35.346 0 64 28.654 64 64v0 896c0 35.346-28.654 64-64 64v0zM537.6 346.24l-140.8 139.52c-3.596 3.072-7.864 5.479-12.542 6.969l-0.258 0.071c-3.697 1.506-7.987 2.379-12.48 2.379s-8.783-0.874-12.708-2.461l0.228 0.081c-3.952-1.842-7.337-4.203-10.247-7.047l0.007 0.007-140.16-142.080c-5.976-5.618-9.697-13.574-9.697-22.4s3.722-16.782 9.681-22.385l0.016-0.015c5.855-5.481 13.723-8.874 22.383-8.96h0.017c0.791-0.069 1.711-0.109 2.64-0.109 8.685 0 16.561 3.46 22.327 9.076l-0.007-0.007 85.76 85.12v-245.12c0-17.673 14.327-32 32-32v0c17.673 0 32 14.327 32 32v0 245.12l86.4-85.12c5.8-5.846 13.837-9.466 22.72-9.466s16.92 3.619 22.718 9.463l0.002 0.002c5.656 5.767 9.147 13.676 9.147 22.4s-3.491 16.633-9.152 22.405l0.005-0.005z" />
<glyph unicode="&#xe949;" glyph-name="lsi-forward" d="M1015.040 469.12l-481.92 481.92c-5.2 6.68-13.242 10.936-22.278 10.936-3.731 0-7.292-0.726-10.551-2.043l0.189 0.068c-10.967-4.447-18.56-15.015-18.56-27.356 0-0.058 0-0.115 0-0.173v0.009-411.52l-430.72 430.080c-5.2 6.68-13.242 10.936-22.278 10.936-3.731 0-7.292-0.726-10.551-2.043l0.189 0.068c-11.032-4.417-18.682-15.017-18.682-27.404 0-0.942 0.044-1.874 0.131-2.794l-0.009 0.118v-963.84c-0.078-0.802-0.122-1.734-0.122-2.676 0-12.387 7.65-22.987 18.484-27.334l0.198-0.070c1.73-0.428 3.716-0.674 5.76-0.674s4.030 0.246 5.931 0.709l-0.171-0.035c8.272 0.085 15.731 3.496 21.117 8.957l0.003 0.003 430.72 430.080v-408.96c0-0.049 0-0.106 0-0.164 0-12.341 7.594-22.909 18.363-27.285l0.197-0.071c3.216-1.618 7.008-2.565 11.021-2.565 0.175 0 0.35 0.002 0.525 0.005h-0.026c8.272 0.085 15.731 3.496 21.117 8.957l481.923 481.923c5.678 5.276 9.22 12.784 9.22 21.12s-3.541 15.844-9.202 21.103l-0.018 0.017zM60.16 39.040v817.92l408.96-408.96zM542.080 39.040v817.92l408.96-408.96z" />
<glyph unicode="&#xe94a;" d="M835.84 599.040v-302.080c-2.412-33.365-30.073-59.52-63.843-59.52-0.055 0-0.11 0-0.165 0h-519.671c-0.047 0-0.102 0-0.157 0-33.77 0-61.431 26.155-63.831 59.313l-0.012 0.207v302.080c2.412 33.365 30.073 59.52 63.843 59.52 0.055 0 0.11 0 0.165 0h519.671c0.047 0 0.102 0 0.157 0 33.77 0 61.431-26.155 63.831-59.313l0.012-0.207z" />
<glyph unicode="&#xe94b;" d="M933.76 64h-843.52c-0.191-0.001-0.416-0.002-0.642-0.002-49.26 0-89.236 39.753-89.598 88.928v590.754c0.72 48.932 40.555 88.322 89.591 88.322 0.228 0 0.456-0.001 0.684-0.003h843.485c0.193 0.001 0.421 0.002 0.649 0.002 49.035 0 88.871-39.39 89.59-88.255l0.001-0.068v-590.72c-0.361-49.21-40.337-88.962-89.598-88.962-0.226 0-0.451 0.001-0.677 0.003h0.035zM90.24 773.12c-0.002 0-0.004 0-0.007 0-16.388 0-29.715-13.105-30.073-29.407l-0.001-0.033v-590.72c0-16.613 13.467-30.080 30.080-30.080v0h843.52c16.613 0 30.080 13.467 30.080 30.080v590.72c-0.359 16.335-13.685 29.44-30.073 29.44-0.002 0-0.005 0-0.007 0v0z" />
<glyph unicode="&#xe94c;" glyph-name="lsi-frames" d="M976.64 896h-417.28c-26.156 0-47.36-21.204-47.36-47.36v0-208.64h-208.64c-26.156 0-47.36-21.204-47.36-47.36v0-208.64h-208.64c-26.156 0-47.36-21.204-47.36-47.36v0-289.28c0-26.156 21.204-47.36 47.36-47.36v0h417.28c26.156 0 47.36 21.204 47.36 47.36v0 208.64h208.64c26.156 0 47.36 21.204 47.36 47.36v0 208.64h208.64c26.156 0 47.36 21.204 47.36 47.36v0 289.28c0 26.156-21.204 47.36-47.36 47.36v0zM448 64h-384v256h384zM704 320h-192v16.64c0 26.156-21.204 47.36-47.36 47.36v0h-144.64v192h384zM960 576h-192v16.64c0 26.156-21.204 47.36-47.36 47.36v0h-144.64v192h384z" />
<glyph unicode="&#xe94d;" glyph-name="lsi-gear-fix" d="M472.32 960h79.36v-64h-79.36l-11.52-89.6-5.12-38.4-39.68-12.16c-20.334-6.443-37.702-13.82-54.209-22.599l1.729 0.839-36.48-19.2-32.64 25.6-70.4 52.48-56.96-56.32 55.040-71.040 25.6-32.64-19.2-36.48c-8.442-15.176-15.849-32.794-21.289-51.255l-0.471-1.865-14.72-39.040-41.6-5.12-86.4-10.88v-80l128-16.64 12.16-39.68c6.060-20.135 13.455-37.525 22.474-53.894l-0.714 1.414 19.2-36.48-25.6-32.64-55.040-70.4 56.32-56.96 71.040 55.040 32.64 25.6 36.48-19.2c14.778-7.94 32.146-15.317 50.215-21.13l2.265-0.63 39.68-12.16 5.12-40.96 13.44-89.6h80l11.52 89.6 4.48 38.4h4.48l53.76-53.76-10.24-85.12c-3.665-32.187-30.745-56.961-63.612-56.961-0.137 0-0.273 0-0.409 0.001h-79.339c-0.115-0.001-0.252-0.001-0.388-0.001-32.866 0-59.946 24.774-63.584 56.667l-0.027 0.294-10.24 88.96c-24.815 7.548-46.018 16.241-66.204 26.631l2.204-1.031-69.76-55.040c-10.862-8.772-24.837-14.082-40.053-14.082-17.899 0-34.082 7.348-45.697 19.192l-56.33 56.33c-11.854 11.625-19.202 27.808-19.202 45.707 0 15.216 5.31 29.191 14.177 40.174l54.945 70.278c-9.595 18.018-18.495 39.206-25.486 61.244l-0.754 2.756-88.96 13.44c-32.187 3.665-56.961 30.745-56.961 63.612 0 0.137 0 0.273 0.001 0.409v-0.021 80c-0.001 0.115-0.001 0.252-0.001 0.388 0 32.866 24.774 59.946 56.667 63.584l0.294 0.027 88.32 10.88c7.745 24.794 16.645 45.982 27.261 66.125l-1.021-2.125-55.040 70.4c-8.599 10.799-13.797 24.64-13.797 39.694 0 17.758 7.233 33.827 18.913 45.422l56.324 56.324c11.625 11.854 27.808 19.202 45.707 19.202 15.216 0 29.191-5.31 40.174-14.177l-0.122 0.095 69.76-55.040c17.982 9.359 39.185 18.052 61.216 24.859l2.784 0.741 10.24 88.96c3.662 32.19 30.744 56.968 63.613 56.968 0.361 0 0.722-0.003 1.082-0.009l-0.054 0.001zM1024 487.68v-79.36c0.001-0.115 0.001-0.252 0.001-0.388 0-32.866-24.774-59.946-56.667-63.584l-0.294-0.027-85.12-9.6-53.76 53.76v3.84l40.96 5.12 90.88 10.24v80l-89.6 11.52-38.4 5.12-12.16 39.040c-6.725 20.797-14.095 38.369-22.724 55.188l0.964-2.068-19.2 36.48 25.6 32.64 55.040 70.4-56.32 56.96-71.040-55.040-32.64-25.6-36.48 19.2c-14.926 7.91-32.51 15.29-50.786 21.118l-2.334 0.642-42.24 14.72-4.48 38.4-10.88 89.6v64c0.115 0.001 0.252 0.001 0.388 0.001 32.866 0 59.946-24.774 63.584-56.667l0.027-0.294 10.88-88.96c24.772-7.482 45.979-16.178 66.143-26.608l-2.143 1.008 70.4 55.040c10.799 8.599 24.64 13.797 39.694 13.797 17.758 0 33.827-7.233 45.422-18.913l56.324-56.324c12.069-11.656 19.563-27.982 19.563-46.058 0-15.058-5.2-28.901-13.903-39.832l0.1 0.13-55.68-70.4c9.595-18.018 18.495-39.206 25.486-61.244l0.754-2.756 88.96-10.88c31.552-4.255 55.629-30.988 55.68-63.355v-0.005zM512 640c3.45 0.302 7.465 0.474 11.52 0.474s8.070-0.172 12.037-0.51l-0.517 0.035c36.101-6.255 67.347-23.695 90.806-48.56l0.074-0.080c88.96-86.4 83.84-141.44 70.4-192-1.679-5.452-2.646-11.718-2.646-18.211 0-17.94 7.382-34.156 19.273-45.777l0.012-0.012 220.8-220.16-90.88-90.88-220.16 222.72c-11.565 11.484-27.499 18.581-45.090 18.581-0.573 0-1.145-0.008-1.714-0.023l0.084 0.002c-2.405 0.439-5.173 0.69-8 0.69s-5.595-0.251-8.283-0.732l0.283 0.042c-14.004-4.672-30.318-8.072-47.184-9.543l-0.816-0.057c-58.24 4.726-108.789 34.116-141.723 77.588l-0.357 0.492c-24.864 23.786-42.583 54.853-49.73 89.77l-0.19 1.11c0 7.68 0 15.36 0 23.040l92.8-95.36c11.564-11.791 27.638-19.124 45.426-19.2h0.014c17.483 0.076 33.299 7.15 44.804 18.564l-0.004-0.004 102.4 101.12c11.501 11.568 18.611 27.514 18.611 45.12s-7.109 33.552-18.614 45.123l0.003-0.003-93.44 96.64zM512 704c-23.012-0.598-44.965-4.064-65.852-10.054l1.852 0.454v-78.080l115.2-117.76-104.32-101.12-115.2 114.56h-78.080c-6.867-21.429-10.825-46.079-10.825-71.654 0-8.575 0.445-17.045 1.313-25.39l-0.088 1.044c8.003-50.265 30.937-94.145 64.045-128.046l-0.045 0.046c45.685-56.79 114.316-93.515 191.596-95.99l0.404-0.010c22.936 0.373 44.913 3.855 65.725 10.040l-1.725-0.44 220.16-220.16c11.564-11.791 27.638-19.124 45.426-19.2h0.014c17.802 0.076 33.876 7.409 45.43 19.19l90.25 90.25c11.693 11.6 18.931 27.675 18.931 45.44s-7.238 33.84-18.927 45.436l-0.004 0.004-218.88 221.44c19.2 71.040 19.2 149.12-87.68 252.8-33.79 33.169-77.703 56.13-126.684 63.83l-1.316 0.17-30.72 3.2z" />
<glyph unicode="&#xe94e;" glyph-name="lsi-grid-guide" d="M993.92 417.92c16.613 0 30.080 13.467 30.080 30.080s-13.467 30.080-30.080 30.080h-210.56v180.48h210.56c16.613 0 30.080 13.467 30.080 30.080v0c0 0.002 0 0.004 0 0.007 0 16.741-13.391 30.355-30.047 30.713l-0.033 0.001h-210.56v210.56c-0.359 16.689-13.972 30.080-30.713 30.080-0.002 0-0.005 0-0.007 0v0c-16.613 0-30.080-13.467-30.080-30.080v0-210.56h-180.48v210.56c0 16.613-13.467 30.080-30.080 30.080s-30.080-13.467-30.080-30.080v0-210.56h-180.48v210.56c0 16.613-13.467 30.080-30.080 30.080v0c-0.002 0-0.004 0-0.007 0-16.741 0-30.355-13.391-30.713-30.047l-0.001-0.033v-210.56h-210.56c-16.689-0.359-30.080-13.972-30.080-30.713 0-0.002 0-0.005 0-0.007v0c0-16.613 13.467-30.080 30.080-30.080v0h210.56v-180.48h-210.56c-16.613 0-30.080-13.467-30.080-30.080s13.467-30.080 30.080-30.080v0h210.56v-180.48h-210.56c-16.613 0-30.080-13.467-30.080-30.080v0c0-0.002 0-0.004 0-0.007 0-16.741 13.391-30.355 30.047-30.713l0.033-0.001h210.56v-210.56c0.359-16.689 13.972-30.080 30.713-30.080 0.002 0 0.005 0 0.007 0v0c16.613 0 30.080 13.467 30.080 30.080v0 210.56h180.48v-210.56c0-16.613 13.467-30.080 30.080-30.080s30.080 13.467 30.080 30.080v0 210.56h180.48v-210.56c0-16.613 13.467-30.080 30.080-30.080v0c0.002 0 0.004 0 0.007 0 16.741 0 30.355 13.391 30.713 30.047l0.001 0.033v210.56h210.56c16.689 0.359 30.080 13.972 30.080 30.713 0 0.002 0 0.005 0 0.007v0c0 16.613-13.467 30.080-30.080 30.080v0h-210.56v180.48zM722.56 658.56v-180.48h-180.48v180.48zM301.44 658.56h180.48v-180.48h-180.48zM301.44 237.44v180.48h180.48v-180.48zM722.56 237.44h-180.48v180.48h180.48z" />
<glyph unicode="&#xe94f;" glyph-name="lsi-grid" d="M960 960h-896c-35.346 0-64-28.654-64-64v0-896c0-35.346 28.654-64 64-64v0h896c35.346 0 64 28.654 64 64v0 896c0 35.346-28.654 64-64 64v0zM960 625.92h-270.080v270.080h270.080zM689.92 593.92h270.080v-289.28h-270.080zM657.92 304.64h-289.28v289.28h289.28zM657.92 896v-270.080h-289.28v270.080zM64 896h272.64v-270.080h-272.64zM336.64 593.92v-289.28h-272.64v289.28zM64 0v272.64h272.64v-272.64zM367.36 272.64h289.28v-272.64h-288zM687.36 0v272.64h272.64v-272.64z" />
<glyph unicode="&#xe950;" glyph-name="lsi-group-level" d="M647.68 561.92h-271.36c-17.673 0-32 14.327-32 32v0 174.080c0 17.673 14.327 32 32 32v0h271.36c17.673 0 32-14.327 32-32v0-174.080c0-17.673-14.327-32-32-32v0zM408.32 625.92h207.36v110.080h-207.36zM992 96h-206.72c-17.673 0-32 14.327-32 32v0 122.24c0 17.673 14.327 32 32 32v0h206.72c17.673 0 32-14.327 32-32v0-122.24c0-17.673-14.327-32-32-32v0zM817.28 160h142.72v58.24h-142.72zM615.040 96h-206.080c-17.673 0-32 14.327-32 32v0 122.24c0 17.673 14.327 32 32 32v0h206.080c17.673 0 32-14.327 32-32v0-122.24c0-17.673-14.327-32-32-32v0zM440.96 160h142.080v58.24h-142.080zM238.72 96h-206.72c-17.673 0-32 14.327-32 32v0 122.24c0 17.673 14.327 32 32 32v0h206.72c17.673 0 32-14.327 32-32v0-122.24c0-17.673-14.327-32-32-32v0zM64 160h142.72v58.24h-142.72zM899.2 465.28h-355.2v96.64h-64v-96.64h-358.4c-17.673 0-32-14.327-32-32v0-164.48h64v132.48h326.4v-122.88h64v122.88h323.2v-132.48h64v164.48c-0.351 17.53-14.47 31.649-31.967 31.999l-0.033 0.001z" />
<glyph unicode="&#xe951;" glyph-name="lsi-groups" d="M158.080 670.080c0.364 89.15 72.718 161.28 161.919 161.28 89.426 0 161.92-72.494 161.92-161.92s-72.493-161.919-161.919-161.92v0c0 0-0.001 0-0.001 0-89.426 0-161.92 72.494-161.92 161.92 0 0.225 0 0.45 0.001 0.675v-0.035zM640 101.12c0-17.673-14.327-32-32-32v0h-576c-17.673 0-32 14.327-32 32v0 43.52c0 151.989 123.211 275.2 275.2 275.2v0h89.6c151.989 0 275.2-123.211 275.2-275.2v0zM704 768c54.432-0.001 98.558-44.128 98.558-98.56s-44.127-98.56-98.56-98.56c-54.433 0-98.56 44.127-98.56 98.56 0 0.225 0.001 0.45 0.002 0.674v-0.034c0 0.001 0 0.001 0 0.002 0 54.080 43.84 97.92 97.92 97.92 0.225 0 0.45-0.001 0.675-0.002h-0.035zM704 832c-0.19 0.001-0.414 0.001-0.639 0.001-89.779 0-162.56-72.781-162.56-162.56s72.781-162.56 162.56-162.56c89.779 0 162.56 72.781 162.56 162.56 0 0.225 0 0.449-0.001 0.674v-0.035c0 89.426-72.494 161.92-161.92 161.92v0zM752.64 419.84h-98.56c-33.702-0.417-65.757-6.956-95.269-18.553l1.829 0.633c22.134-14.49 41.263-30.975 58-49.647l0.24-0.273c10.417 2.132 22.539 3.515 34.926 3.834l0.274 0.006h98.56c0.19 0.001 0.415 0.001 0.64 0.001 114.168 0 206.72-92.552 206.72-206.72 0 0 0-0.001 0-0.001v0-16h-261.12v-64h292.48c17.673 0 32 14.327 32 32v0 48c0 149.515-121.205 270.72-270.72 270.72v0z" />
</font>
</defs>
</svg>
