<svg xmlns="http://www.w3.org/2000/svg" xmlns:xlink="http://www.w3.org/1999/xlink" viewBox="0 0 14.3 16"><defs><style>.cls-1{fill:none;}.cls-2{clip-path:url(#clip-path);}</style><clipPath id="clip-path" transform="translate(0 0)"><rect class="cls-1" width="14.3" height="16"/></clipPath></defs><g id="Layer_2" data-name="Layer 2"><g id="Layer_1-2" data-name="Layer 1"><g id="lsi-research-teams"><g class="cls-2"><g class="cls-2"><path d="M0,4.86A1.89,1.89,0,1,1,1.89,6.75,1.89,1.89,0,0,1,0,4.86" transform="translate(0 0)"/><path d="M10.52,10.92a1.89,1.89,0,1,1,1.89,1.9,1.89,1.89,0,0,1-1.89-1.9" transform="translate(0 0)"/><path d="M7.17,12.22a1.86,1.86,0,0,0-1.09.35l-2.32-1.4a1.94,1.94,0,0,0,0-.24A1.9,1.9,0,1,0,3,12.46l2.32,1.4a1,1,0,0,0,0,.25,1.89,1.89,0,1,0,1.89-1.89" transform="translate(0 0)"/><path d="M12.87,3a1.86,1.86,0,0,0-1.6.33L9,2.09a1.36,1.36,0,0,0,0-.2,1.89,1.89,0,1,0-3.75.37A1.94,1.94,0,0,0,6.7,3.73,1.9,1.9,0,0,0,8.31,3.4l2.23,1.26a1.36,1.36,0,0,0,0,.2,2.29,2.29,0,0,0,0,.25L8.27,6.47a1.83,1.83,0,0,0-1.1-.36A1.89,1.89,0,1,0,9.06,8a1.94,1.94,0,0,0,0-.24l2.27-1.37a1.83,1.83,0,0,0,1.1.36A1.89,1.89,0,0,0,12.87,3" transform="translate(0 0)"/></g></g></g></g></g></svg>