<svg xmlns="http://www.w3.org/2000/svg" xmlns:xlink="http://www.w3.org/1999/xlink" viewBox="0 0 12 16"><defs><style>.cls-1{fill:none;}.cls-2{clip-path:url(#clip-path);}</style><clipPath id="clip-path"><rect class="cls-1" width="12" height="16"/></clipPath></defs><g id="Layer_2" data-name="Layer 2"><g id="Layer_1-2" data-name="Layer 1"><g id="lsi-plate"><g class="cls-2"><g class="cls-2"><path d="M8.5,11A1.5,1.5,0,1,1,7,12.45,1.5,1.5,0,0,1,8.5,11"/><path d="M3.5,11A1.5,1.5,0,1,1,2,12.45,1.5,1.5,0,0,1,3.5,11"/><path d="M8.5,6.5A1.5,1.5,0,1,1,7,8,1.5,1.5,0,0,1,8.5,6.5"/><path d="M3.5,6.5A1.5,1.5,0,1,1,2,8,1.5,1.5,0,0,1,3.5,6.5"/><path d="M8.5,2.05A1.5,1.5,0,1,1,7,3.55a1.5,1.5,0,0,1,1.5-1.5"/><path d="M3.5,2.05A1.5,1.5,0,1,1,2,3.55a1.5,1.5,0,0,1,1.5-1.5"/><path d="M11,15H1V1H11Zm.5-15H.5A.5.5,0,0,0,0,.5v15a.5.5,0,0,0,.5.5h11a.5.5,0,0,0,.5-.5V.5a.5.5,0,0,0-.5-.5"/></g></g></g></g></g></svg>