<svg xmlns="http://www.w3.org/2000/svg" xmlns:xlink="http://www.w3.org/1999/xlink" viewBox="0 0 12.8 16"><defs><style>.cls-1{fill:none;}.cls-2{clip-path:url(#clip-path);}</style><clipPath id="clip-path" transform="translate(0 0)"><rect class="cls-1" width="12.8" height="16"/></clipPath></defs><g id="Layer_2" data-name="Layer 2"><g id="Layer_1-2" data-name="Layer 1"><g id="lsi-polus"><g class="cls-2"><g class="cls-2"><path d="M8.92,10.45h0a.78.78,0,1,1,0-1.1.77.77,0,0,1,0,1.1" transform="translate(0 0)"/><path d="M10,15.84a.75.75,0,0,1-1-.07l-4.6-4.6a2.82,2.82,0,0,1,0-4L8,3.55a.75.75,0,0,1,1-.07.73.73,0,0,1,.09,1l0,0L5.49,8.17a1.41,1.41,0,0,0,0,2l4.58,4.58a.74.74,0,0,1,0,1l-.05.05" transform="translate(0 0)"/><path d="M11.41,8.05l-1,1a.74.74,0,0,1-1-1h0l1-1a3.25,3.25,0,0,0,0-4.59v0a3.3,3.3,0,0,0-4.64,0L1.26,6.86a.73.73,0,0,1-1,0,.73.73,0,0,1,0-1h0L4.7,1.38a4.77,4.77,0,0,1,6.71,0,4.69,4.69,0,0,1,0,6.64l0,0" transform="translate(0 0)"/></g></g></g></g></g></svg>