<svg xmlns="http://www.w3.org/2000/svg" xmlns:xlink="http://www.w3.org/1999/xlink" viewBox="0 0 16 14"><defs><style>.cls-1{fill:none;}.cls-2{clip-path:url(#clip-path);}</style><clipPath id="clip-path" transform="translate(0 0)"><rect class="cls-1" width="16" height="14"/></clipPath></defs><g id="Layer_2" data-name="Layer 2"><g id="Layer_1-2" data-name="Layer 1"><g id="lsi-link"><g class="cls-2"><g class="cls-2"><path d="M9.15,5.22a1.59,1.59,0,0,0-.63.42A2.8,2.8,0,0,0,8.27,6a2.49,2.49,0,0,1,.22,1A2.63,2.63,0,0,1,8.32,8a2.56,2.56,0,0,0,.2.26l.61.66a4,4,0,0,0,0-3.65" transform="translate(0 0)"/><path d="M6.61,9.44l0,0-.17,0a2.09,2.09,0,0,1-1.56-.7L1.74,5.32a2.58,2.58,0,0,1,0-3.41,2.07,2.07,0,0,1,2.93-.19,1.7,1.7,0,0,1,.19.19l2,2.2a3,3,0,0,1,1-.62L5.64,1.06A3.12,3.12,0,0,0,1.25.77,3.83,3.83,0,0,0,1,1.06,3.86,3.86,0,0,0,1,6.17L4.08,9.58a3.15,3.15,0,0,0,2.34,1.06,3.16,3.16,0,0,0,1.09-.22Z" transform="translate(0 0)"/><path d="M9.58,4.57a2.11,2.11,0,0,1,1.56.7l3.11,3.41a2.58,2.58,0,0,1,0,3.41,2.06,2.06,0,0,1-2.92.19,1.7,1.7,0,0,1-.19-.19L8,8.68A2.58,2.58,0,0,1,8,5.27a2.09,2.09,0,0,1,1.55-.7m0-1.2A3.11,3.11,0,0,0,7.25,4.43a3.86,3.86,0,0,0,0,5.11l3.11,3.4a3.12,3.12,0,0,0,4.39.29A3.89,3.89,0,0,0,15,7.83L11.92,4.42A3.15,3.15,0,0,0,9.58,3.36Z" transform="translate(0 0)"/></g></g></g></g></g></svg>