<svg xmlns="http://www.w3.org/2000/svg" xmlns:xlink="http://www.w3.org/1999/xlink" viewBox="0 0 16 11"><defs><style>.cls-1{fill:none;}.cls-2{clip-path:url(#clip-path);}</style><clipPath id="clip-path"><rect class="cls-1" width="16" height="11"/></clipPath></defs><g id="Layer_2" data-name="Layer 2"><g id="Layer_1-2" data-name="Layer 1"><g id="lsi-group-level"><g class="cls-2"><g class="cls-2"><path d="M10.12,3.72H5.88a.5.5,0,0,1-.5-.5V.5a.5.5,0,0,1,.5-.5h4.24a.5.5,0,0,1,.5.5V3.22a.5.5,0,0,1-.5.5m-3.74-1H9.62V1H6.38Z"/><path d="M15.5,11H12.27a.5.5,0,0,1-.5-.5V8.59a.5.5,0,0,1,.5-.5H15.5a.5.5,0,0,1,.5.5V10.5a.5.5,0,0,1-.5.5m-2.73-1H15V9.09H12.77Z"/><path d="M9.61,11H6.39a.5.5,0,0,1-.5-.5V8.59a.5.5,0,0,1,.5-.5H9.61a.5.5,0,0,1,.5.5V10.5a.5.5,0,0,1-.5.5M6.89,10H9.11V9.09H6.89Z"/><path d="M3.73,11H.5a.5.5,0,0,1-.5-.5V8.59a.5.5,0,0,1,.5-.5H3.73a.5.5,0,0,1,.5.5V10.5a.5.5,0,0,1-.5.5M1,10H3.23V9.09H1Z"/><path d="M14.05,5.23H8.5V3.72h-1V5.23H1.9a.5.5,0,0,0-.5.5V8.3h1V6.23H7.5V8.15h1V6.23h5.05V8.3h1V5.73a.51.51,0,0,0-.5-.5"/></g></g></g></g></g></svg>