<svg xmlns="http://www.w3.org/2000/svg" viewBox="0 0 16 14"><defs><style>.cls-1{fill:#010101;}</style></defs><g id="Layer_2" data-name="Layer 2"><g id="Layer_1-2" data-name="Layer 1"><g id="lsi-reserve"><path class="cls-1" d="M4,4.41V6.22a.1.1,0,0,1-.09.1H2.09A.1.1,0,0,1,2,6.22V4.41a.09.09,0,0,1,.09-.09H3.91A.09.09,0,0,1,4,4.41Z"/><path class="cls-1" d="M4,7.41V9.22a.1.1,0,0,1-.09.1H2.09A.1.1,0,0,1,2,9.22V7.41a.09.09,0,0,1,.09-.09H3.91A.09.09,0,0,1,4,7.41Z"/><path class="cls-1" d="M4,10.41v1.81a.1.1,0,0,1-.09.1H2.09a.1.1,0,0,1-.09-.1V10.41a.09.09,0,0,1,.09-.09H3.91A.09.09,0,0,1,4,10.41Z"/><path class="cls-1" d="M14,5.32a.5.5,0,0,1-.5.5H5.21a.5.5,0,0,1-.5-.5.5.5,0,0,1,.5-.5h8.27A.5.5,0,0,1,14,5.32Z"/><path class="cls-1" d="M14,8.32a.5.5,0,0,1-.5.5H5.21a.5.5,0,0,1-.5-.5.5.5,0,0,1,.5-.5h8.27A.5.5,0,0,1,14,8.32Z"/><path class="cls-1" d="M14,11.32a.5.5,0,0,1-.5.5H5.21a.5.5,0,0,1-.5-.5.5.5,0,0,1,.5-.5h8.27A.5.5,0,0,1,14,11.32Z"/><path class="cls-1" d="M15,0H1.05A1,1,0,0,0,0,1.05v11.8A1.16,1.16,0,0,0,1.15,14h13.7A1.16,1.16,0,0,0,16,12.85V1.05A1,1,0,0,0,15,0ZM4,1.4H14.31v1H4ZM2.1,1.05a.86.86,0,1,1-.85.85A.85.85,0,0,1,2.1,1.05ZM15,12.85a.15.15,0,0,1-.15.15H1.15A.15.15,0,0,1,1,12.85V3.63H15Z"/></g></g></g></svg>