<svg xmlns="http://www.w3.org/2000/svg" viewBox="0 0 16 16"><defs><style>.cls-1{fill:#010101;}</style></defs><g id="Layer_2" data-name="Layer 2"><g id="Layer_1-2" data-name="Layer 1"><path id="lsi-rearrange" class="cls-1" d="M16,6.79V9.21a.79.79,0,0,1-.79.79H8.8A.79.79,0,0,1,8,9.21V6.79A.79.79,0,0,1,8.8,6h6.41A.79.79,0,0,1,16,6.79ZM15,1H9V3h6V1m.21-1A.79.79,0,0,1,16,.79V3.21a.79.79,0,0,1-.79.79H8.8A.79.79,0,0,1,8,3.21V.79A.79.79,0,0,1,8.8,0ZM15,13H9v2h6V13m.21-1a.79.79,0,0,1,.79.79v2.42a.79.79,0,0,1-.79.79H8.8A.79.79,0,0,1,8,15.21V12.79A.79.79,0,0,1,8.8,12ZM.18,3.42a.58.58,0,0,0,.84,0L2.4,2.05V6.6a.6.6,0,0,0,1.2,0V2.05L5,3.42a.59.59,0,0,0,.84-.84L3.42.18a.58.58,0,0,0-.84,0L.18,2.58A.58.58,0,0,0,.18,3.42Zm5.64,9.16a.58.58,0,0,0-.84,0L3.6,14V9.4a.6.6,0,0,0-1.2,0V14L1,12.58a.58.58,0,0,0-.84,0,.58.58,0,0,0,0,.84l2.4,2.4a.58.58,0,0,0,.84,0l2.4-2.4A.58.58,0,0,0,5.82,12.58Z"/></g></g></svg>