<svg xmlns="http://www.w3.org/2000/svg" viewBox="0 0 16 16"><defs><style>.cls-1{fill:#010101;}</style></defs><g id="Layer_2" data-name="Layer 2"><g id="Layer_1-2" data-name="Layer 1"><g id="lsi-user-dashboard"><path class="cls-1" d="M3,7.08a2,2,0,1,1,2,2A2,2,0,0,1,3,7.08Zm5,5a3,3,0,0,0-3-3H5a3,3,0,0,0-3,3v1H8Zm6-6a.5.5,0,0,0-.5-.5H10a.5.5,0,0,0,0,1H13.5A.5.5,0,0,0,14,6.08Zm0,3a.5.5,0,0,0-.5-.5H10a.5.5,0,0,0,0,1H13.5A.5.5,0,0,0,14,9.08Zm0,3a.5.5,0,0,0-.5-.5H10a.5.5,0,0,0,0,1H13.5A.5.5,0,0,0,14,12.08ZM16,1V15a1,1,0,0,1-1,1H1a1,1,0,0,1-1-1V1A1,1,0,0,1,1,0H15A1,1,0,0,1,16,1ZM15,3H1V15H15Z"/></g></g></g></svg>