<svg xmlns="http://www.w3.org/2000/svg" xmlns:xlink="http://www.w3.org/1999/xlink" viewBox="0 0 16 12"><defs><style>.cls-1{fill:none;}.cls-2{clip-path:url(#clip-path);}</style><clipPath id="clip-path" transform="translate(0 0)"><rect class="cls-1" width="16" height="12"/></clipPath></defs><g id="Layer_2" data-name="Layer 2"><g id="Layer_1-2" data-name="Layer 1"><g id="lsi-readmore"><g class="cls-2"><g class="cls-2"><path d="M11.42,1.16H.58A.58.58,0,0,1,.58,0H11.42a.58.58,0,1,1,0,1.16" transform="translate(0 0)"/><path d="M7.42,4.77H.58a.58.58,0,0,1,0-1.16H7.42a.58.58,0,0,1,0,1.16" transform="translate(0 0)"/><path d="M8,8.39H.58A.58.58,0,0,1,0,7.81a.59.59,0,0,1,.58-.59H8a.59.59,0,0,1,.58.59A.58.58,0,0,1,8,8.39" transform="translate(0 0)"/><path d="M5.42,12H.58a.58.58,0,0,1,0-1.16H5.42a.58.58,0,0,1,0,1.16" transform="translate(0 0)"/><path d="M15.37,10.33a.65.65,0,0,1-.66-.62l-.08-3.78-6.26,5.9a.68.68,0,0,1-.91,0,.58.58,0,0,1,0-.87l6.25-5.89L9.65,5a.63.63,0,0,1-.46-.18A.54.54,0,0,1,9,4.36a.57.57,0,0,1,.63-.59l5.67.1a.59.59,0,0,1,.59.56L16,9.74a.6.6,0,0,1-.63.59" transform="translate(0 0)"/></g></g></g></g></g></svg>