<svg xmlns="http://www.w3.org/2000/svg" xmlns:xlink="http://www.w3.org/1999/xlink" viewBox="0 0 16 16"><defs><style>.cls-1{fill:none;}.cls-2{clip-path:url(#clip-path);}.cls-3{fill:#231f20;}</style><clipPath id="clip-path" transform="translate(0 0)"><rect class="cls-1" width="16" height="16"/></clipPath></defs><g id="Layer_2" data-name="Layer 2"><g id="Layer_1-2" data-name="Layer 1"><g id="lsi-back-level"><g class="cls-2"><g class="cls-2"><path class="cls-3" d="M14.94,3.12a2.63,2.63,0,0,0-1.89-.69H1.82L3.63.85a.47.47,0,0,0,0-.69.51.51,0,0,0-.7,0L.17,2.56A.5.5,0,0,0,0,2.93a.48.48,0,0,0,.17.36L3,5.73a.5.5,0,0,0,.33.12.49.49,0,0,0,.37-.16.47.47,0,0,0,0-.69L1.79,3.4H13.06a1.64,1.64,0,0,1,1.19.42A2.89,2.89,0,0,1,15,5.88V8.65a2.64,2.64,0,0,1-.83,1.87,2.23,2.23,0,0,1-1.53.62h-.07a.41.41,0,0,0-.16,0V9.29a2.06,2.06,0,0,0-2.08-2H5.57a2.06,2.06,0,0,0-2.08,2V14a2.06,2.06,0,0,0,2.08,2h4.76a2.06,2.06,0,0,0,2.08-2V12.08a.7.7,0,0,0,.14,0h.09a3.24,3.24,0,0,0,2.22-.88A3.61,3.61,0,0,0,16,8.66V5.87a3.81,3.81,0,0,0-1.06-2.75M11.41,14A1.07,1.07,0,0,1,10.33,15H5.57A1.07,1.07,0,0,1,4.49,14V9.29A1.07,1.07,0,0,1,5.57,8.22h4.76a1.07,1.07,0,0,1,1.08,1.07Z" transform="translate(0 0)"/></g></g></g></g></g></svg>