<svg xmlns="http://www.w3.org/2000/svg" viewBox="0 0 16 10"><defs><style>.cls-1{fill:#010101;}</style></defs><g id="Layer_2" data-name="Layer 2"><g id="Layer_1-2" data-name="Layer 1"><path id="lsi-fcurve" class="cls-1" d="M15.64,9.27h-2c-.93,0-1.81-1.09-2.26-2.77l-.49-1.86a6.17,6.17,0,0,0-1-2.11V2.29h3.38a1.22,1.22,0,0,0,1.13.77A1.24,1.24,0,0,0,15.64,1.8,1.24,1.24,0,0,0,14.41.54a1.22,1.22,0,0,0-1.13.77H9.9V0H6.1V1.31H2.72A1.22,1.22,0,0,0,1.59.54,1.24,1.24,0,0,0,.36,1.8,1.24,1.24,0,0,0,1.59,3.06a1.22,1.22,0,0,0,1.13-.77H6.1v.24a6.17,6.17,0,0,0-1,2.11L4.64,6.5C4.19,8.18,3.31,9.27,2.38,9.27h-2a.37.37,0,0,0,0,.73h2c1.28,0,2.41-1.27,3-3.31l.49-1.86a9.33,9.33,0,0,1,.33-.94h3.7a9.33,9.33,0,0,1,.33.94l.49,1.86c.54,2,1.67,3.31,2.95,3.31h2a.37.37,0,0,0,0-.73ZM8.94,2.92H7.06V1H8.94Z"/></g></g></svg>