<svg xmlns="http://www.w3.org/2000/svg" xmlns:xlink="http://www.w3.org/1999/xlink" viewBox="0 0 16 16"><defs><style>.cls-1{fill:none;}.cls-2{clip-path:url(#clip-path);}.cls-3{fill:#323232;}</style><clipPath id="clip-path"><rect class="cls-1" width="16" height="16"/></clipPath></defs><g id="Layer_2" data-name="Layer 2"><g id="Layer_1-2" data-name="Layer 1"><g id="lsi-sample"><g class="cls-2"><g class="cls-2"><path class="cls-3" d="M13.92,2.62c-.18-.19-.35-.36-.54-.54a8,8,0,0,0-10.76,0c-.19.18-.36.35-.54.54a8,8,0,0,0,0,10.76l.54.54a8,8,0,0,0,10.76,0l.54-.54a8,8,0,0,0,0-10.76M8,15a7,7,0,1,1,7-7,7,7,0,0,1-7,7"/><path class="cls-3" d="M8.62,11.69A1.85,1.85,0,1,1,6.77,9.85a1.85,1.85,0,0,1,1.85,1.84"/><path class="cls-3" d="M12.43,10.26A1.26,1.26,0,1,1,11.17,9a1.25,1.25,0,0,1,1.26,1.25"/><path class="cls-3" d="M13.62,5.85A1.85,1.85,0,1,1,11.77,4a1.85,1.85,0,0,1,1.85,1.84"/><path class="cls-3" d="M9.09,4.43A2.09,2.09,0,1,1,7,2.34,2.08,2.08,0,0,1,9.09,4.43"/><path class="cls-3" d="M4.88,8.91a.84.84,0,0,1-.83.84.85.85,0,0,1-.84-.84.84.84,0,0,1,.84-.83.83.83,0,0,1,.83.83"/></g></g></g></g></g></svg>