<svg xmlns="http://www.w3.org/2000/svg" viewBox="0 0 16 16"><defs><style>.cls-1{fill:#010101;}</style></defs><g id="Layer_2" data-name="Layer 2"><g id="Layer_1-2" data-name="Layer 1"><path id="lsi-forward" class="cls-1" d="M15.86,7.67,8.33.14A.44.44,0,0,0,7.82,0a.46.46,0,0,0-.29.43V6.86L.8.14A.44.44,0,0,0,.29,0,.46.46,0,0,0,0,.47V15.53A.46.46,0,0,0,.29,16a.39.39,0,0,0,.18,0,.47.47,0,0,0,.33-.14L7.53,9.14v6.39a.46.46,0,0,0,.29.43A.39.39,0,0,0,8,16a.47.47,0,0,0,.33-.14l7.53-7.53A.45.45,0,0,0,15.86,7.67ZM.94,14.39V1.61L7.33,8Zm7.53,0V1.61L14.86,8Z"/></g></g></svg>