<svg xmlns="http://www.w3.org/2000/svg" xmlns:xlink="http://www.w3.org/1999/xlink" viewBox="0 0 16 16"><defs><style>.cls-1{fill:none;}.cls-2{clip-path:url(#clip-path);}</style><clipPath id="clip-path"><rect class="cls-1" width="16" height="16"/></clipPath></defs><g id="Layer_2" data-name="Layer 2"><g id="Layer_1-2" data-name="Layer 1"><g id="lsi-lists"><g class="cls-2"><g class="cls-2"><path d="M2,1A1,1,0,1,1,1,2,1,1,0,0,1,2,1M2,0A2,2,0,1,0,4,2,2,2,0,0,0,2,0"/><path d="M2,7A1,1,0,1,1,1,8,1,1,0,0,1,2,7M2,6A2,2,0,1,0,4,8,2,2,0,0,0,2,6"/><path d="M2,13a1,1,0,1,1-1,1,1,1,0,0,1,1-1m0-1a2,2,0,1,0,2,2,2,2,0,0,0-2-2"/><path d="M15.59,2.5H5.87A.46.46,0,0,1,5.46,2a.46.46,0,0,1,.41-.5h9.72A.46.46,0,0,1,16,2a.46.46,0,0,1-.41.5"/><path d="M15.59,8.5H5.87A.46.46,0,0,1,5.46,8a.46.46,0,0,1,.41-.5h9.72A.46.46,0,0,1,16,8a.46.46,0,0,1-.41.5"/><path d="M15.59,14.5H5.87a.51.51,0,0,1,0-1h9.72a.51.51,0,0,1,0,1"/></g></g></g></g></g></svg>