<svg xmlns="http://www.w3.org/2000/svg" xmlns:xlink="http://www.w3.org/1999/xlink" viewBox="0 0 16 16"><defs><style>.cls-1{fill:none;}.cls-2{clip-path:url(#clip-path);}</style><clipPath id="clip-path" transform="translate(0 0)"><rect class="cls-1" width="16" height="16"/></clipPath></defs><g id="Layer_2" data-name="Layer 2"><g id="Layer_1-2" data-name="Layer 1"><g id="lsi-selecter3"><g class="cls-2"><g class="cls-2"><path d="M8,16H8a8.13,8.13,0,0,1-2-.26l.25-1A7.12,7.12,0,0,0,8,15Zm2.06-.28-.26-1a6.73,6.73,0,0,0,1.68-.71l.51.86a7.6,7.6,0,0,1-1.93.81M4,15a7.58,7.58,0,0,1-1.66-1.26l.7-.71a6.76,6.76,0,0,0,1.45,1.1Zm9.64-1.31L13,12.93a7.15,7.15,0,0,0,1.11-1.45l.86.5a8.45,8.45,0,0,1-1.26,1.66M1.1,12.05a8.18,8.18,0,0,1-.82-1.93l1-.26A6.9,6.9,0,0,0,2,11.54Zm14.64-2-1-.26A7.14,7.14,0,0,0,15,8l1,0V8a8.29,8.29,0,0,1-.26,2.05M0,8.05V8A8.45,8.45,0,0,1,.25,6l1,.25A7.38,7.38,0,0,0,1,8ZM14.76,6.17a7,7,0,0,0-.7-1.68l.86-.5a7.88,7.88,0,0,1,.8,1.92ZM1.91,4.55,1,4.05A8.08,8.08,0,0,1,2.3,2.39l.71.7a7.08,7.08,0,0,0-1.1,1.46M12.94,3A7.37,7.37,0,0,0,11.5,1.93l.5-.86a8.07,8.07,0,0,1,1.65,1.27ZM4.45,2l-.51-.86A7.94,7.94,0,0,1,5.86.29l.27,1A7.16,7.16,0,0,0,4.45,2m5.36-.73A6.92,6.92,0,0,0,8,1L8,.31,8,0H8a8,8,0,0,1,2.08.27Z" transform="translate(0 0)"/><path d="M8,12a4,4,0,1,1,4-4,4,4,0,0,1-4,4M8,5a3,3,0,1,0,3,3A3,3,0,0,0,8,5" transform="translate(0 0)"/><path d="M8,7.22a.5.5,0,0,1-.5-.5V2.58a.5.5,0,0,1,1,0V6.72a.5.5,0,0,1-.5.5" transform="translate(0 0)"/><path d="M8,13.94a.5.5,0,0,1-.5-.5v-4a.5.5,0,1,1,1,0v4a.5.5,0,0,1-.5.5" transform="translate(0 0)"/><path d="M13.09,8.5H9.78a.5.5,0,0,1,0-1h3.31a.5.5,0,0,1,0,1" transform="translate(0 0)"/><path d="M6.09,8.5H2.78a.5.5,0,1,1,0-1H6.09a.5.5,0,0,1,0,1" transform="translate(0 0)"/></g></g></g></g></g></svg>