<svg xmlns="http://www.w3.org/2000/svg" xmlns:xlink="http://www.w3.org/1999/xlink" viewBox="0 0 16 16"><defs><style>.cls-1{fill:none;}.cls-2{clip-path:url(#clip-path);}</style><clipPath id="clip-path" transform="translate(0 0)"><rect class="cls-1" width="16" height="16"/></clipPath></defs><g id="Layer_2" data-name="Layer 2"><g id="Layer_1-2" data-name="Layer 1"><g id="lsi-download"><g class="cls-2"><g class="cls-2"><path d="M3.5,6.71a.68.68,0,0,1,.94,0L7.33,9.49V.64a.66.66,0,0,1,1.32,0V9.48l2.92-2.79A.58.58,0,0,1,12,6.5a.6.6,0,0,1,.46.19.59.59,0,0,1,0,.89L8.4,11.51a.59.59,0,0,1-.83,0L3.5,7.6a.62.62,0,0,1,0-.89" transform="translate(0 0)"/><path d="M15.39,16H.61A.64.64,0,0,1,0,15.33V10.64A.64.64,0,0,1,.61,10a.65.65,0,0,1,.62.67v4H14.77v-4a.65.65,0,0,1,.62-.67.64.64,0,0,1,.61.67v4.69a.64.64,0,0,1-.61.67" transform="translate(0 0)"/></g></g></g></g></g></svg>