<svg xmlns="http://www.w3.org/2000/svg" xmlns:xlink="http://www.w3.org/1999/xlink" viewBox="0 0 12 16"><defs><style>.cls-1{fill:none;}.cls-2{clip-path:url(#clip-path);}</style><clipPath id="clip-path" transform="translate(0 0)"><rect class="cls-1" width="12" height="16"/></clipPath></defs><g id="Layer_2" data-name="Layer 2"><g id="Layer_1-2" data-name="Layer 1"><g id="lsi-edit2"><g class="cls-2"><g class="cls-2"><path d="M6.91,2.22l3.23,2.64a.44.44,0,0,1,.07.62L4,13.2a.46.46,0,0,1-.26.15L.57,14A.45.45,0,0,1,0,13.56l0-3.28A.43.43,0,0,1,.1,10L6.28,2.28a.45.45,0,0,1,.63-.06m2.23,3L6.79,3.27,1.06,10.41a.41.41,0,0,0-.09.28l0,2.23,2.16-.44a.41.41,0,0,0,.25-.15Z" transform="translate(0 0)"/><path d="M10.87,4,7.58,1.32,8.29.38l3.32,2.69L10.9,4h0" transform="translate(0 0)"/><path d="M8.36.9l2.75,2.25-.28.35L8.08,1.25,8.36.9m0-.9A.4.4,0,0,0,8,.15l-.72.9a.39.39,0,0,0,.06.56l3.29,2.7a.38.38,0,0,0,.25.09.4.4,0,0,0,.31-.15l.72-.9a.41.41,0,0,0-.06-.57L8.56.09A.38.38,0,0,0,8.31,0" transform="translate(0 0)"/><path d="M11.38,16H.62a.62.62,0,1,1,0-1.24H11.38a.62.62,0,1,1,0,1.24" transform="translate(0 0)"/></g></g></g></g></g></svg>