<svg xmlns="http://www.w3.org/2000/svg" xmlns:xlink="http://www.w3.org/1999/xlink" viewBox="0 0 15.63 15.66"><defs><style>.cls-1{fill:none;}.cls-2{clip-path:url(#clip-path);}</style><clipPath id="clip-path" transform="translate(0 0)"><rect class="cls-1" width="15.63" height="15.66"/></clipPath></defs><g id="Layer_2" data-name="Layer 2"><g id="Layer_1-2" data-name="Layer 1"><g id="lsi-export"><g class="cls-2"><g class="cls-2"><path d="M15.59.31A.51.51,0,0,0,15.32,0a.43.43,0,0,0-.19,0H10.07a.5.5,0,0,0-.5.5.5.5,0,0,0,.5.5h3.85L6.64,8.28a.5.5,0,0,0,0,.7A.51.51,0,0,0,7,9.13.5.5,0,0,0,7.35,9l7.28-7.27v4a.5.5,0,0,0,.5.5.51.51,0,0,0,.5-.5V.5a.58.58,0,0,0,0-.19" transform="translate(0 0)"/><path d="M11.89,15.66H1.53A1.54,1.54,0,0,1,0,14.13V3.6A1.5,1.5,0,0,1,1.5,2.1H7.65a.5.5,0,0,1,0,1H1.5a.5.5,0,0,0-.5.5V14.13a.53.53,0,0,0,.53.53H11.89a.53.53,0,0,0,.53-.53V7a.5.5,0,0,1,.5-.5.5.5,0,0,1,.5.5v7.09a1.54,1.54,0,0,1-1.53,1.53" transform="translate(0 0)"/></g></g></g></g></g></svg>