<svg xmlns="http://www.w3.org/2000/svg" viewBox="0 0 12 16"><defs><style>.cls-1{fill:#010101;}</style></defs><g id="Layer_2" data-name="Layer 2"><g id="Layer_1-2" data-name="Layer 1"><g id="lsi-round-flask"><path class="cls-1" d="M4,.67a.29.29,0,0,1,.26.19L5.4,4.11A.65.65,0,0,0,6,4.56a5.39,5.39,0,0,1,4.78,7.72A5.28,5.28,0,0,1,7.75,15,5,5,0,0,1,6,15.33a5.36,5.36,0,0,1-5-3.62,5.43,5.43,0,0,1,1.71-6A.69.69,0,0,0,2.88,5L1.76,1.75a.31.31,0,0,1,0-.22.32.32,0,0,1,.16-.14l2-.7L4,.67M4,0a1.06,1.06,0,0,0-.31.05l-2,.71A1,1,0,0,0,1.13,2L2.25,5.22A6.07,6.07,0,0,0,.34,11.93,6,6,0,0,0,6,16a5.92,5.92,0,0,0,2-.34A6.07,6.07,0,0,0,11.66,8,6,6,0,0,0,6,3.89L4.91.64A1,1,0,0,0,4,0Z"/><g id="Group_8929" data-name="Group 8929"><path id="Path_11950" data-name="Path 11950" class="cls-1" d="M10.56,9.54V9.7h0A4.81,4.81,0,0,1,7.82,14,4.58,4.58,0,0,1,2.2,12.35a3.88,3.88,0,0,1-.75-2.57V9.7h0a1.68,1.68,0,0,1,.25-.82,1.83,1.83,0,0,1,.75-.83c.74-.42,1.9-.5,3.47,1.32l.25.25C8.24,12.1,10.56,9,10.56,9Z"/></g><g id="Group_8930" data-name="Group 8930"><path id="Path_11951" data-name="Path 11951" class="cls-1" d="M10.45,8.51s-2.12,3.15-4.15.67l-.24-.25c1.65-2.07,2.82-2,3.52-1.57A2.13,2.13,0,0,1,10.45,8.51Z"/></g></g></g></g></svg>