<svg xmlns="http://www.w3.org/2000/svg" xmlns:xlink="http://www.w3.org/1999/xlink" viewBox="0 0 16.02 16.1"><defs><style>.cls-1{fill:none;}.cls-2{clip-path:url(#clip-path);}</style><clipPath id="clip-path" transform="translate(0 0)"><rect class="cls-1" width="16.02" height="16.1"/></clipPath></defs><g id="Layer_2" data-name="Layer 2"><g id="Layer_1-2" data-name="Layer 1"><g id="lsi-annotate"><g class="cls-2"><g class="cls-2"><path d="M16,8,11.24,0,8.7,4.22a4.3,4.3,0,0,0-.87-.1A4.14,4.14,0,0,0,3.73,7.8H0v8.3H8.29V12.37A4.15,4.15,0,0,0,12,8.27c0-.11,0-.22,0-.32ZM14.39,7H8.08l3.16-5.24ZM.92,15.18V8.73H3.73a4.14,4.14,0,0,0,3.64,3.64v2.81ZM11.06,8.27A3.23,3.23,0,1,1,7.83,5a2,2,0,0,1,.35,0L6.45,8H11c0,.1,0,.21,0,.32" transform="translate(0 0)"/></g></g></g></g></g></svg>