<svg xmlns="http://www.w3.org/2000/svg" xmlns:xlink="http://www.w3.org/1999/xlink" viewBox="0 0 16 16"><defs><style>.cls-1{fill:none;}.cls-2{clip-path:url(#clip-path);}</style><clipPath id="clip-path" transform="translate(0 0)"><rect class="cls-1" width="16" height="16"/></clipPath></defs><g id="Layer_2" data-name="Layer 2"><g id="Layer_1-2" data-name="Layer 1"><g id="lsi-search"><g class="cls-2"><g class="cls-2"><path d="M6.77,12.53a5.79,5.79,0,0,0,3.67-1.32l.42-.35.35-.42a5.77,5.77,0,1,0-4.44,2.09M15.36,16a.63.63,0,0,1-.46-.19L11.07,12a6.77,6.77,0,1,1,.91-.91l3.83,3.83a.65.65,0,0,1,0,.91.61.61,0,0,1-.45.19" transform="translate(0 0)"/></g></g></g></g></g></svg>