<svg xmlns="http://www.w3.org/2000/svg" xmlns:xlink="http://www.w3.org/1999/xlink" viewBox="0 0 16 16"><defs><style>.cls-1{fill:none;}.cls-2{clip-path:url(#clip-path);}</style><clipPath id="clip-path"><rect class="cls-1" width="16" height="16"/></clipPath></defs><g id="Layer_2" data-name="Layer 2"><g id="Layer_1-2" data-name="Layer 1"><g id="lsi-alertnotification"><g class="cls-2"><g class="cls-2"><path d="M8,1A7,7,0,1,1,1,8,7,7,0,0,1,8,1M8,0a8,8,0,1,0,8,8A8,8,0,0,0,8,0"/><path d="M8,2a6,6,0,1,0,6,6A6,6,0,0,0,8,2m.73,1.69-.14,6H7.37l-.14-6Zm-.13,8.4a.82.82,0,0,1-.6.22.82.82,0,0,1-.6-.22.73.73,0,0,1-.21-.54A.74.74,0,0,1,7.41,11a.9.9,0,0,1,1.18,0,.74.74,0,0,1,.22.55.73.73,0,0,1-.21.54"/></g></g></g></g></g></svg>