<svg xmlns="http://www.w3.org/2000/svg" xmlns:xlink="http://www.w3.org/1999/xlink" viewBox="0 0 12 16"><defs><style>.cls-1{fill:none;}.cls-2{clip-path:url(#clip-path);}</style><clipPath id="clip-path" transform="translate(0 0)"><rect class="cls-1" width="12" height="16"/></clipPath></defs><g id="Layer_2" data-name="Layer 2"><g id="Layer_1-2" data-name="Layer 1"><g id="lsi-data"><g class="cls-2"><g class="cls-2"><path d="M11.61,10.28l-.12-.11A1.48,1.48,0,0,0,12,9.11V6.91A1.43,1.43,0,0,0,11.61,6l-.14-.14A1.5,1.5,0,0,0,12,4.77V2.61a1.44,1.44,0,0,0-.37-.94C10.78.67,8.52,0,6,0,2.64,0,0,1.14,0,2.6V4.77A1.51,1.51,0,0,0,.53,5.85L.39,6a1.44,1.44,0,0,0-.39,1V9.11a1.48,1.48,0,0,0,.51,1.06l-.12.11a1.44,1.44,0,0,0-.39,1V13.4C0,14.86,2.64,16,6,16s6-1.14,6-2.6V11.2a1.43,1.43,0,0,0-.39-.92M6,8.18A10.42,10.42,0,0,0,11.2,7V9.11c0,.48-1.82,1.66-5.2,1.66S.8,9.59.8,9.11V7A10.42,10.42,0,0,0,6,8.18M.8,2.6C.8,2.12,2.62.94,6,.94c2.55,0,4.47.7,5.06,1.4a.43.43,0,0,1,.13.26V4.77c0,.19-.44.74-1.87,1.2l-.55.15-.6.13-.61.09-.17,0-.56,0H6.7c-.46,0-1,0-1.41,0H5.1l-.5,0-.21,0c-.2,0-.39,0-.58-.09a5.26,5.26,0,0,1-.66-.14C3,6.06,2.82,6,2.61,6,1.26,5.51.8,5,.8,4.77ZM11.2,13.4c0,.48-1.82,1.66-5.2,1.66S.8,13.88.8,13.4V11.29A10.42,10.42,0,0,0,6,12.47a10.42,10.42,0,0,0,5.2-1.18Z" transform="translate(0 0)"/></g></g></g></g></g></svg>