<svg xmlns="http://www.w3.org/2000/svg" viewBox="0 0 12 16"><defs><style>.cls-1{fill:#010101;}</style></defs><g id="Layer_2" data-name="Layer 2"><g id="Layer_1-2" data-name="Layer 1"><path id="lsi-plugins" class="cls-1" d="M10.79,14A1.22,1.22,0,1,1,12,12.79,1.22,1.22,0,0,1,10.79,14Zm-1.6,1.26a6.27,6.27,0,0,1-7.36-1.07A6.19,6.19,0,0,1,1.4,5.87a.48.48,0,0,1,.11-.09,3.68,3.68,0,0,1,.9-4.5L3.18.64a.67.67,0,0,1,.94.09L4.36,1l1-.85a.67.67,0,1,1,.86,1L5.21,2l1.7,2,1-.85a.67.67,0,0,1,.86,1l-1,.85L8,5.33a.67.67,0,0,1-.09.94l-.76.64a3.67,3.67,0,0,1-4.78-.08,4.88,4.88,0,0,0,6.21,7.25.67.67,0,1,1,.64,1.18ZM3,5.59a2.33,2.33,0,0,0,3.28.3l.26-.22-3-3.58-.26.22A2.32,2.32,0,0,0,3,5.59Z"/></g></g></svg>