<svg xmlns="http://www.w3.org/2000/svg" width="24" height="24" viewBox="0 0 24 24">
  <g id="Activity" transform="translate(-1288 -175)">
    <rect id="Rectangle_17586" data-name="Rectangle 17586" width="24" height="24" transform="translate(1288 175)" fill="none"/>
    <g id="lighting" transform="translate(1279.808 174.208)">
      <path id="Path_18059" data-name="Path 18059" d="M18.654,21.8a.526.526,0,0,1-.221-.049.513.513,0,0,1-.285-.592l1.726-7.12-4.165-.02a.518.518,0,0,1-.415-.825L22.045,4a.518.518,0,0,1,.921.429l-1.726,7.12,4.165.02a.518.518,0,0,1,.415.825S18.813,21.8,18.654,21.8Zm1.474-7.76h0Zm.859-2.486h0Z" transform="translate(0)" fill="#662e6b"/>
    </g>
  </g>
</svg>
