<svg xmlns="http://www.w3.org/2000/svg" viewBox="0 0 16 16"><defs><style>.cls-1{fill:#010101;}</style></defs><g id="Layer_2" data-name="Layer 2"><g id="Layer_1-2" data-name="Layer 1"><path id="lsi-grid" class="cls-1" d="M15,0H1A1,1,0,0,0,0,1V5.22H0v.5H0V15a1,1,0,0,0,1,1H15a1,1,0,0,0,1-1V1A1,1,0,0,0,15,0Zm0,5.22H10.78V1H15Zm-4.22.5H15v4.52H10.78Zm-.5,4.52H5.76V5.72h4.52Zm0-9.24V5.22H5.76V1ZM1,1H5.26V5.22H1ZM5.26,5.72v4.52H1V5.72ZM1,15V10.74H5.26V15Zm4.74-4.26h4.52V15H5.76Zm5,4.26V10.74H15V15Z"/></g></g></svg>