<svg xmlns="http://www.w3.org/2000/svg" xmlns:xlink="http://www.w3.org/1999/xlink" viewBox="0 0 14.54 12.86"><defs><style>.cls-1{fill:none;}.cls-2{clip-path:url(#clip-path);}</style><clipPath id="clip-path" transform="translate(0)"><rect class="cls-1" width="14.54" height="12.86"/></clipPath></defs><g id="Layer_2" data-name="Layer 2"><g id="Layer_1-2" data-name="Layer 1"><g id="lsi-warning"><g class="cls-2"><g class="cls-2"><path d="M7.27,1h0l6.27,10.86H1L7.27,1h0m0-1A1,1,0,0,0,6.4.5L.14,11.36A1,1,0,0,0,1,12.86H13.54a1,1,0,0,0,.86-1.5L8.14.5A1,1,0,0,0,7.27,0" transform="translate(0)"/><path d="M7.27,3,2.73,10.86h9.08Zm.51,2.1L7.69,8.71H7L6.88,5.1Zm-.44,5.16A.45.45,0,0,1,7,10.13a.41.41,0,0,1-.13-.32A.44.44,0,0,1,7,9.48a.48.48,0,0,1,.36-.13.45.45,0,0,1,.48.46.41.41,0,0,1-.13.32.45.45,0,0,1-.35.13" transform="translate(0)"/></g></g></g></g></g></svg>