<svg id="Cart" xmlns="http://www.w3.org/2000/svg" width="24" height="24" viewBox="0 0 24 24">
  <g id="invisible_box" data-name="invisible box">
    <rect id="Rectangle_17619" data-name="Rectangle 17619" width="24" height="24" fill="none"/>
  </g>
  <g id="icons_Q2" data-name="icons Q2" transform="translate(2 2)">
    <path id="Path_18068" data-name="Path 18068" d="M22.683,6.333a1.573,1.573,0,0,0-1.1-.476H7.051L6.86,4.238A1.429,1.429,0,0,0,5.431,3H3.953a.952.952,0,1,0,0,1.9H5L6.527,17.714a2.809,2.809,0,0,0-1.382,2.429A2.858,2.858,0,0,0,8,23a2.955,2.955,0,0,0,2.717-1.9h5.052A2.955,2.955,0,0,0,18.489,23a2.857,2.857,0,1,0,0-5.714,2.955,2.955,0,0,0-2.717,1.9H10.721a2.859,2.859,0,0,0-2.335-1.857l-.1-1H20.348A1.429,1.429,0,0,0,21.73,15.1l1.287-7.524a1.713,1.713,0,0,0-.334-1.238ZM19.442,20.143a.953.953,0,1,1-.953-.952A.953.953,0,0,1,19.442,20.143Zm-10.485,0A.953.953,0,1,1,8,19.19.953.953,0,0,1,8.957,20.143Zm10.961-5.714H8.052L7.289,7.762H21.015Z" transform="translate(-3 -3)" fill="#662e6b"/>
  </g>
</svg>
