<svg xmlns="http://www.w3.org/2000/svg" viewBox="0 0 16 12"><defs><style>.cls-1{fill:#010101;}</style></defs><g id="Layer_2" data-name="Layer 2"><g id="Layer_1-2" data-name="Layer 1"><g id="lsi-deliver"><path class="cls-1" d="M14.59,0H3.29A1.4,1.4,0,0,0,1.88,1.38a.47.47,0,1,0,.94,0A.47.47,0,0,1,3.29.92H8V3.17a1,1,0,0,0,1,1h3.65a1,1,0,0,0,1-1V.92h.94a.47.47,0,0,1,.47.46v9.24a.47.47,0,0,1-.46.46H3.29a.47.47,0,0,1-.47-.45.47.47,0,1,0-.94,0A1.4,1.4,0,0,0,3.29,12h11.3A1.4,1.4,0,0,0,16,10.62V1.38A1.4,1.4,0,0,0,14.59,0Z"/><path class="cls-1" d="M4.93,6a.46.46,0,0,0-.47-.46H1.31a.46.46,0,1,0,0,.92H4.46A.46.46,0,0,0,4.93,6Z"/><path class="cls-1" d="M4.93,3.62a.46.46,0,0,0-.47-.46h-4A.46.46,0,0,0,0,3.62a.47.47,0,0,0,.47.46h4A.47.47,0,0,0,4.93,3.62Z"/><path class="cls-1" d="M4.46,7.92h-2A.47.47,0,0,0,2,8.38a.46.46,0,0,0,.48.46h2a.46.46,0,0,0,.47-.46A.47.47,0,0,0,4.46,7.92Z"/></g></g></g></svg>