<svg xmlns="http://www.w3.org/2000/svg" viewBox="0 0 16 16"><defs><style>.cls-1{fill:#231f20;}</style></defs><g id="Layer_2" data-name="Layer 2"><g id="Layer_1-2" data-name="Layer 1"><path id="lsi-star-fill" class="cls-1" d="M8,0a8,8,0,1,0,8,8A8,8,0,0,0,8,0Zm2.73,9.07,1,3.82a.27.27,0,0,1-.42.3L8,11,4.68,13.19a.3.3,0,0,1-.15.05.34.34,0,0,1-.17-.05.29.29,0,0,1-.1-.3l1-3.82L2.2,6.58a.3.3,0,0,1-.09-.31.28.28,0,0,1,.26-.19l4-.22L7.74,2.18a.28.28,0,0,1,.52,0L9.68,5.87l4,.21a.29.29,0,0,1,.26.19.3.3,0,0,1-.09.31Z"/></g></g></svg>