<svg xmlns="http://www.w3.org/2000/svg" xmlns:xlink="http://www.w3.org/1999/xlink" viewBox="0 0 16 16"><defs><style>.cls-1{fill:none;}.cls-2{clip-path:url(#clip-path);}</style><clipPath id="clip-path" transform="translate(0)"><rect class="cls-1" width="16" height="16"/></clipPath></defs><g id="Layer_2" data-name="Layer 2"><g id="Layer_1-2" data-name="Layer 1"><g id="lsi-applications"><g class="cls-2"><g class="cls-2"><path d="M8,7A1,1,0,1,1,7,8,1,1,0,0,1,8,7M8,6a2,2,0,1,0,2,2A2,2,0,0,0,8,6" transform="translate(0)"/><path d="M2,7A1,1,0,1,1,1,8,1,1,0,0,1,2,7M2,6A2,2,0,1,0,4,8,2,2,0,0,0,2,6" transform="translate(0)"/><path d="M14,7a1,1,0,1,1-1,1,1,1,0,0,1,1-1m0-1a2,2,0,1,0,2,2,2,2,0,0,0-2-2" transform="translate(0)"/><path d="M8,1A1,1,0,1,1,7,2,1,1,0,0,1,8,1M8,0a2,2,0,1,0,2,2A2,2,0,0,0,8,0" transform="translate(0)"/><path d="M2,1A1,1,0,1,1,1,2,1,1,0,0,1,2,1M2,0A2,2,0,1,0,4,2,2,2,0,0,0,2,0" transform="translate(0)"/><path d="M14,1a1,1,0,1,1-1,1,1,1,0,0,1,1-1m0-1a2,2,0,1,0,2,2,2,2,0,0,0-2-2" transform="translate(0)"/><path d="M8,13a1,1,0,1,1-1,1,1,1,0,0,1,1-1m0-1a2,2,0,1,0,2,2,2,2,0,0,0-2-2" transform="translate(0)"/><path d="M2,13a1,1,0,1,1-1,1,1,1,0,0,1,1-1m0-1a2,2,0,1,0,2,2,2,2,0,0,0-2-2" transform="translate(0)"/><path d="M14,13a1,1,0,1,1-1,1,1,1,0,0,1,1-1m0-1a2,2,0,1,0,2,2,2,2,0,0,0-2-2" transform="translate(0)"/></g></g></g></g></g></svg>