<svg xmlns="http://www.w3.org/2000/svg" xmlns:xlink="http://www.w3.org/1999/xlink" viewBox="0 0 12 16.01"><defs><style>.cls-1{fill:none;}.cls-2{clip-path:url(#clip-path);}</style><clipPath id="clip-path" transform="translate(0 0)"><rect class="cls-1" width="12" height="16.01"/></clipPath></defs><g id="Layer_2" data-name="Layer 2"><g id="Layer_1-2" data-name="Layer 1"><g id="lsi-powerpoint"><g class="cls-2"><g class="cls-2"><path d="M12,4.59h0L7.4,0H.47A.46.46,0,0,0,0,.47V15.54A.47.47,0,0,0,.47,16H11.53a.47.47,0,0,0,.47-.47V4.6ZM7.5,1.52l3,3H8A.47.47,0,0,1,7.5,4ZM11,15H1V1H6.5V4A1.47,1.47,0,0,0,8,5.51h3Z" transform="translate(0 0)"/><path d="M7.44,9.88a1.87,1.87,0,0,1-1.25.37h-1V12h-1v-5H6.26a1.71,1.71,0,0,1,1.18.39,1.48,1.48,0,0,1,.44,1.19,1.52,1.52,0,0,1-.44,1.25m-.79-1.8a.85.85,0,0,0-.56-.16H5.15V9.39h.94a.8.8,0,0,0,.56-.18.74.74,0,0,0,.2-.57.72.72,0,0,0-.2-.56" transform="translate(0 0)"/></g></g></g></g></g></svg>