<svg xmlns="http://www.w3.org/2000/svg" xmlns:xlink="http://www.w3.org/1999/xlink" viewBox="0 0 16 16"><defs><style>.cls-1{fill:none;}.cls-2{clip-path:url(#clip-path);}</style><clipPath id="clip-path"><rect class="cls-1" width="16" height="16"/></clipPath></defs><g id="Layer_2" data-name="Layer 2"><g id="Layer_1-2" data-name="Layer 1"><g id="lsi-latticegrid"><g class="cls-2"><g class="cls-2"><path d="M16,7.5a7.8,7.8,0,0,0-.79-3,7,7,0,0,0-.58-1A7.84,7.84,0,0,0,12.5,1.39a7,7,0,0,0-1-.58A7.8,7.8,0,0,0,8.5,0L8,0,7.5,0a7.8,7.8,0,0,0-3,.79,7,7,0,0,0-1,.58A7.84,7.84,0,0,0,1.39,3.5a7,7,0,0,0-.58,1A7.8,7.8,0,0,0,0,7.5c0,.16,0,.33,0,.5s0,.34,0,.5a7.8,7.8,0,0,0,.79,3,7,7,0,0,0,.58,1A7.84,7.84,0,0,0,3.5,14.61a7,7,0,0,0,1,.58,7.8,7.8,0,0,0,3,.79L8,16l.5,0a7.8,7.8,0,0,0,3-.79,7,7,0,0,0,1-.58,7.84,7.84,0,0,0,2.11-2.11,7,7,0,0,0,.58-1,7.8,7.8,0,0,0,.79-3c0-.16,0-.33,0-.5s0-.34,0-.5M3.5,13.36a6.28,6.28,0,0,1-.85-.86H3.5Zm0-1.86H1.94A6.67,6.67,0,0,1,1,8.5H3.5Zm0-4H1a6.67,6.67,0,0,1,.91-3H3.5Zm0-4H2.65a5.69,5.69,0,0,1,.85-.85ZM7.5,15a6.67,6.67,0,0,1-3-.91V12.5h3Zm0-3.47h-3v-3h3Zm0-4h-3v-3h3Zm0-4h-3V1.94A6.67,6.67,0,0,1,7.5,1Zm4,10.56a6.67,6.67,0,0,1-3,.91V12.5h3Zm0-2.56h-3v-3h3Zm0-4h-3v-3h3Zm0-4h-3V1a6.67,6.67,0,0,1,3,.91Zm1-.85a6.28,6.28,0,0,1,.86.85H12.5Zm0,10.71V12.5h.86a7,7,0,0,1-.86.86m1.56-1.86H12.5v-3H15a6.67,6.67,0,0,1-.91,3m-1.56-4v-3h1.56a6.67,6.67,0,0,1,.91,3Z"/></g></g></g></g></g></svg>