<svg xmlns="http://www.w3.org/2000/svg" xmlns:xlink="http://www.w3.org/1999/xlink" viewBox="0 0 12 16"><defs><style>.cls-1{fill:none;}.cls-2{clip-path:url(#clip-path);}.cls-3{fill:#231f20;}</style><clipPath id="clip-path" transform="translate(0 0)"><rect class="cls-1" width="12" height="16"/></clipPath></defs><g id="Layer_2" data-name="Layer 2"><g id="Layer_1-2" data-name="Layer 1"><g id="lsi-microscope"><g class="cls-2"><g class="cls-2"><path class="cls-3" d="M9.45,16H1.35c0-.91,1.81-1.64,4.05-1.64s4,.73,4,1.64M.29,11a4.4,4.4,0,0,1,3-5.75A5.73,5.73,0,0,1,4,5.07L4.7,6.36a4.11,4.11,0,0,0-.93.16A3.13,3.13,0,0,0,1.6,10.58a3.61,3.61,0,0,0,4.46,2,3.29,3.29,0,0,0,1.79-1.32A.57.57,0,0,1,8.09,11l1.64-.59a4.58,4.58,0,0,1-3.18,3.39A5.13,5.13,0,0,1,5,14.08,5,5,0,0,1,.29,11M5.42,9.86,11.53,7.5l.47,1L5.89,10.86ZM3.9,1.93l1.24-.57a.49.49,0,0,1,.64.2l2.8,5a.49.49,0,0,1-.22.69l-1.25.58a.49.49,0,0,1-.64-.21l-2.8-5a.5.5,0,0,1,.23-.7" transform="translate(0 0)"/><polygon class="cls-3" points="3.17 0.56 4.2 0 5.31 1.87 4.3 2.41 3.17 0.56"/></g></g></g></g></g></svg>