<svg xmlns="http://www.w3.org/2000/svg" viewBox="0 0 16 16"><defs><style>.cls-1{fill:#010101;}</style></defs><g id="Layer_2" data-name="Layer 2"><g id="Layer_1-2" data-name="Layer 1"><path id="lsi-polygon-tool" class="cls-1" d="M13.66,11.08a1.91,1.91,0,0,1,.4,1.18A2.06,2.06,0,1,1,13,10.46l0-.05,2-2.08.73.7ZM8,12.38l1.16.22.2-1-1.5-.29a.5.5,0,0,0-.52.23l-.83,1.28.85.55ZM5.38,16a.51.51,0,0,0,.41-.23l.83-1.28-.86-.55-.44.68L4.83,14,4,14.6,5,15.8a.51.51,0,0,0,.4.2ZM4.23,13.21,2.44,10.92l-.8.62,1.79,2.3ZM1.84,10.15l-.75-1,.49-1.12L.65,7.66,0,9.06a.5.5,0,0,0,.07.51L1,10.77ZM3.66,3.3l-.94-.41L1.17,6.47l.93.4Zm.77-1.78L4.81,2l.81-.59L4.73.21A.53.53,0,0,0,4.26,0a.51.51,0,0,0-.41.31L3.24,1.7l.94.4ZM8,4.65,6.21,2.24l-.82.6L7.16,5.25ZM9.35,7.4l1.25-.88L10,5.69l-.84.59-.6-.82-.82.59.9,1.23a.49.49,0,0,0,.41.21A.52.52,0,0,0,9.35,7.4Zm4.4-3.09-.59-.83L10.8,5.14l.59.83ZM16,2.47a.51.51,0,0,0-.8-.42L14,2.93l.59.83L15,3.44V4h1ZM16,5V7.82H15V5Z"/></g></g></svg>