<svg xmlns="http://www.w3.org/2000/svg" xmlns:xlink="http://www.w3.org/1999/xlink" viewBox="0 0 16 16"><defs><style>.cls-1{fill:none;}.cls-2{clip-path:url(#clip-path);}</style><clipPath id="clip-path" transform="translate(0 0)"><rect class="cls-1" width="16" height="16"/></clipPath></defs><g id="Layer_2" data-name="Layer 2"><g id="Layer_1-2" data-name="Layer 1"><g id="lsi-sort"><g class="cls-2"><g class="cls-2"><path d="M7.65,4.79a.6.6,0,0,0,.84,0,.61.61,0,0,0,0-.86L4.74.16A.54.54,0,0,0,4,.16L.18,4A.58.58,0,0,0,0,4.39.61.61,0,0,0,.61,5,.62.62,0,0,0,1,4.82L3.65,2.21V15.32a.65.65,0,0,0,.61.68.65.65,0,0,0,.61-.68V2Z" transform="translate(0 0)"/><path d="M15.39,11a.61.61,0,0,0-.43.17L12.35,13.8V.68A.65.65,0,0,0,11.74,0a.64.64,0,0,0-.61.68V14L8.35,11.21a.61.61,0,0,0-.86.86l3.77,3.78h0a.56.56,0,0,0,.76,0l3.8-3.8a.65.65,0,0,0,.18-.44.6.6,0,0,0-.61-.6" transform="translate(0 0)"/></g></g></g></g></g></svg>