<svg xmlns="http://www.w3.org/2000/svg" width="24" height="24" viewBox="0 0 24 24">
  <g id="Group_20329" data-name="Group 20329" transform="translate(8197 22953)">
    <g id="Layer_2" data-name="Layer 2" transform="translate(-8194.002 -22950.002)">
      <g id="invisible_box" data-name="invisible box" transform="translate(-0.016 -0.016)">
        <rect id="Rectangle_17566" data-name="Rectangle 17566" width="18" height="18" transform="translate(0.018 0.018)" fill="none"/>
      </g>
      <path id="Path_18052" data-name="Path 18052" d="M-8875.39-22364.619a1,1,0,0,1-1-1v-3.346h-3.392a1,1,0,0,1-1-1,1,1,0,0,1,1-1h5.392v5.346A1,1,0,0,1-8875.39-22364.619Z" transform="translate(8891.183 22372.227)" fill="#662e6b"/>
      <path id="Path_18053" data-name="Path 18053" d="M4.689,5.733a1,1,0,0,1-1-1V1H0A1,1,0,0,1-1,0,1,1,0,0,1,0-1H5.689V4.733A1,1,0,0,1,4.689,5.733Z" transform="translate(6.969 15.758) rotate(180)" fill="#662e6b"/>
      <path id="Path_18054" data-name="Path 18054" d="M4.383,5.649a1,1,0,0,1-1-1V1H0A1,1,0,0,1-1,0,1,1,0,0,1,0-1H5.383V4.649A1,1,0,0,1,4.383,5.649Z" transform="translate(2.28 6.626) rotate(-90)" fill="#662e6b"/>
      <path id="Path_18055" data-name="Path 18055" d="M4.771,5.352a1,1,0,0,1-1-1V1H0A1,1,0,0,1-1,0,1,1,0,0,1,0-1H5.771V4.352A1,1,0,0,1,4.771,5.352Z" transform="translate(15.792 11.005) rotate(90)" fill="#662e6b"/>
    </g>
    <g id="invisible_box-2" data-name="invisible box" transform="translate(-8197 -22953)">
      <rect id="Rectangle_17563" data-name="Rectangle 17563" width="24" height="24" fill="none"/>
      <rect id="Rectangle_17564" data-name="Rectangle 17564" width="24" height="24" fill="none"/>
      <rect id="Rectangle_17565" data-name="Rectangle 17565" width="24" height="24" fill="none"/>
    </g>
  </g>
</svg>
