<svg xmlns="http://www.w3.org/2000/svg" viewBox="0 0 16 14"><defs><style>.cls-1{fill:#010101;}</style></defs><g id="Layer_2" data-name="Layer 2"><g id="Layer_1-2" data-name="Layer 1"><path id="lsi-star-case" class="cls-1" d="M15,3.74H12.5V1.54A1.52,1.52,0,0,0,11,0H5A1.52,1.52,0,0,0,3.5,1.54v2.2H1a1,1,0,0,0-1,1V13a1,1,0,0,0,1,1H15a1,1,0,0,0,1-1V4.76A1,1,0,0,0,15,3.74ZM4.5,1.54A.5.5,0,0,1,5,1h6a.5.5,0,0,1,.5.51v2.2h-7Zm7.29,6.63L9.74,10l.68,2.74a.26.26,0,0,1-.08.25.21.21,0,0,1-.25,0L7.87,11.41,5.66,13a.19.19,0,0,1-.12,0A.19.19,0,0,1,5.41,13a.23.23,0,0,1-.09-.25L6,10,4,8.17a.26.26,0,0,1-.07-.27.22.22,0,0,1,.2-.16l2.64-.15.94-2.66a.23.23,0,0,1,.42,0L9,7.59l2.63.15a.22.22,0,0,1,.2.16A.27.27,0,0,1,11.79,8.17Z"/></g></g></svg>