<svg id="Info" xmlns="http://www.w3.org/2000/svg" width="24" height="24" viewBox="0 0 24 24">
  <g id="invisible_box" data-name="invisible box">
    <rect id="Rectangle_17587" data-name="Rectangle 17587" width="24" height="24" fill="none"/>
  </g>
  <g id="Icons" transform="translate(7.989 4)">
    <g id="Group_18864" data-name="Group 18864">
      <path id="Path_18060" data-name="Path 18060" d="M21.589,25.65l-2.25.2s1.1-3.95,1.9-6.6a2.05,2.05,0,0,0-1.8-2.75,1.8,1.8,0,0,0-1.35.6l-2,1.65a.35.35,0,0,0,.3.6l2.25-.2-1.9,6.6a2.05,2.05,0,0,0,1.8,2.75,1.8,1.8,0,0,0,1.35-.6l2-1.65a.35.35,0,0,0-.3-.6Z" transform="translate(-15.979 -12.25)" fill="#662e6b"/>
      <circle id="Ellipse_1414" data-name="Ellipse 1414" cx="1.5" cy="1.5" r="1.5" transform="translate(3.511)" fill="#662e6b"/>
    </g>
  </g>
</svg>
