<svg xmlns="http://www.w3.org/2000/svg" xmlns:xlink="http://www.w3.org/1999/xlink" viewBox="0 0 16 10"><defs><style>.cls-1{fill:none;}.cls-2{clip-path:url(#clip-path);}</style><clipPath id="clip-path" transform="translate(0 0)"><rect class="cls-1" width="16" height="10"/></clipPath></defs><g id="Layer_2" data-name="Layer 2"><g id="Layer_1-2" data-name="Layer 1"><g id="lsi-nih"><g class="cls-2"><g class="cls-2"><path d="M12.94,10a1.36,1.36,0,0,0,.91-.6l.08-.19L16,5,13.93.84,13.85.65a1.36,1.36,0,0,0-.91-.6,1.7,1.7,0,0,0-.71,0h0L14.64,5,12.2,9.9h0a1,1,0,0,0,.71.06" transform="translate(0 0)"/><path d="M10.71,0H.86A.87.87,0,0,0,0,.88H0V9.12A.86.86,0,0,0,.86,10h9.85l2.7-5ZM5.05,7H4.34L2.46,4a.66.66,0,0,1-.11-.24h0a3.54,3.54,0,0,1,0,.56V7H1.71V3h.77L4.3,5.87l.15.24h0a4.89,4.89,0,0,1,0-.54V3h.64V7ZM6.71,7H6V3H6.7Zm3.48,0V5.25H8.33V7H7.67V3h.66v1.7h1.86V3h.65V7h-.65Z" transform="translate(0 0)"/></g></g></g></g></g></svg>