<svg xmlns="http://www.w3.org/2000/svg" xmlns:xlink="http://www.w3.org/1999/xlink" viewBox="0 0 16 16"><defs><style>.cls-1{fill:none;}.cls-2{clip-path:url(#clip-path);}</style><clipPath id="clip-path" transform="translate(0 0)"><rect class="cls-1" width="16" height="16"/></clipPath></defs><g id="Layer_2" data-name="Layer 2"><g id="Layer_1-2" data-name="Layer 1"><g id="lsi-brokenlink"><g class="cls-2"><g class="cls-2"><path d="M5.71,8.15s0,0,0,0l-.15,0a1.83,1.83,0,0,1-1.35-.61L1.51,4.59A2.19,2.19,0,0,1,1,3.12a2.15,2.15,0,0,1,.56-1.47A1.81,1.81,0,0,1,2.85,1a1.81,1.81,0,0,1,1.34.61L5.93,3.54A2.94,2.94,0,0,1,6.78,3L4.86.91a2.67,2.67,0,0,0-4,0,3.31,3.31,0,0,0,0,4.41L3.52,8.26a2.74,2.74,0,0,0,2,.92A2.59,2.59,0,0,0,6.48,9Z" transform="translate(0 0)"/><path d="M10.46,7.86a1.83,1.83,0,0,1,1.35.61l2.68,2.94a2.22,2.22,0,0,1,0,2.94,1.78,1.78,0,0,1-2.68,0L9.12,11.41a2.22,2.22,0,0,1,0-2.94,1.83,1.83,0,0,1,1.34-.61m0-1a2.72,2.72,0,0,0-2,.92,3.34,3.34,0,0,0,0,4.41l2.69,2.94a2.67,2.67,0,0,0,4,0,3.31,3.31,0,0,0,0-4.41L12.48,7.74a2.74,2.74,0,0,0-2-.92" transform="translate(0 0)"/><path d="M11.21,4.29a.5.5,0,0,1-.35-.85l2-2a.48.48,0,0,1,.7,0,.5.5,0,0,1,0,.71l-2,2a.5.5,0,0,1-.35.14" transform="translate(0 0)"/><path d="M8.78,3.83a.51.51,0,0,1-.5-.5V.5a.5.5,0,0,1,.5-.5.5.5,0,0,1,.5.5V3.33a.5.5,0,0,1-.5.5" transform="translate(0 0)"/><path d="M15.5,6H12.67a.51.51,0,0,1-.5-.5.5.5,0,0,1,.5-.5H15.5a.5.5,0,0,1,.5.5.5.5,0,0,1-.5.5" transform="translate(0 0)"/><path d="M1.69,14.61a.46.46,0,0,1-.35-.14.5.5,0,0,1,0-.71l2-2a.5.5,0,0,1,.7,0,.5.5,0,0,1,0,.71l-2,2a.46.46,0,0,1-.35.14" transform="translate(0 0)"/><path d="M3.33,10.19H.5a.5.5,0,0,1-.5-.5.5.5,0,0,1,.5-.5H3.33a.5.5,0,0,1,.5.5.5.5,0,0,1-.5.5" transform="translate(0 0)"/><path d="M5.43,16a.5.5,0,0,1-.5-.5V12.67a.51.51,0,0,1,.5-.5.5.5,0,0,1,.5.5V15.5a.5.5,0,0,1-.5.5" transform="translate(0 0)"/></g></g></g></g></g></svg>