<svg xmlns="http://www.w3.org/2000/svg" xmlns:xlink="http://www.w3.org/1999/xlink" viewBox="0 0 12 16"><defs><style>.cls-1{fill:none;}.cls-2{clip-path:url(#clip-path);}</style><clipPath id="clip-path" transform="translate(0)"><rect class="cls-1" width="12" height="16"/></clipPath></defs><g id="Layer_2" data-name="Layer 2"><g id="Layer_1-2" data-name="Layer 1"><g id="lsi-form3"><g class="cls-2"><g class="cls-2"><path d="M11,15H1V1H11ZM11,0H1A1,1,0,0,0,0,1V15a1,1,0,0,0,1,1H11a1,1,0,0,0,1-1V1a1,1,0,0,0-1-1" transform="translate(0)"/><path d="M3,3.61a.51.51,0,0,1,.5.5.5.5,0,0,1-.5.5.5.5,0,0,1-.5-.5.5.5,0,0,1,.5-.5m0-.5a1,1,0,1,0,1,1,1,1,0,0,0-1-1" transform="translate(0)"/><path d="M9.62,3.67H4.68a.25.25,0,0,1,0-.5H9.62a.25.25,0,0,1,0,.5" transform="translate(0)"/><path d="M7.78,4.93H4.68a.25.25,0,0,1,0-.5h3.1a.25.25,0,0,1,0,.5" transform="translate(0)"/><path d="M3,7.5a.5.5,0,0,1,0,1,.5.5,0,0,1,0-1M3,7A1,1,0,1,0,4,8,1,1,0,0,0,3,7" transform="translate(0)"/><path d="M9.62,7.56H4.68a.25.25,0,0,1,0-.5H9.62a.25.25,0,0,1,0,.5" transform="translate(0)"/><path d="M7.78,8.82H4.68a.25.25,0,0,1-.25-.25.25.25,0,0,1,.25-.25h3.1A.25.25,0,0,1,8,8.57a.25.25,0,0,1-.25.25" transform="translate(0)"/><path d="M9.51,13.38h-7v-2h7Zm0-2.52h-7a.5.5,0,0,0-.5.5v2a.5.5,0,0,0,.5.5h7a.5.5,0,0,0,.5-.5v-2a.51.51,0,0,0-.5-.5" transform="translate(0)"/></g></g></g></g></g></svg>