<svg xmlns="http://www.w3.org/2000/svg" xmlns:xlink="http://www.w3.org/1999/xlink" viewBox="0 0 12 16"><defs><style>.cls-1{fill:none;}.cls-2{clip-path:url(#clip-path);}</style><clipPath id="clip-path"><rect class="cls-1" width="12" height="16"/></clipPath></defs><g id="Layer_2" data-name="Layer 2"><g id="Layer_1-2" data-name="Layer 1"><g id="lsi-guide"><g class="cls-2"><g class="cls-2"><path d="M11,15H1V1H11ZM11,0H1A1,1,0,0,0,0,1V15a1,1,0,0,0,1,1H11a1,1,0,0,0,1-1V1a1,1,0,0,0-1-1"/><path d="M6,3.14A2.76,2.76,0,1,1,3.25,5.89,2.75,2.75,0,0,1,6,3.14m0-1A3.76,3.76,0,1,0,9.75,5.89,3.75,3.75,0,0,0,6,2.14"/><path d="M5.6,6.76a1.46,1.46,0,0,1,.1-.61,1.46,1.46,0,0,1,.37-.49,3,3,0,0,0,.35-.38.72.72,0,0,0,.11-.37A.56.56,0,0,0,6.4,4.5.53.53,0,0,0,6,4.36a.56.56,0,0,0-.39.14.47.47,0,0,0-.15.37H4.78a1,1,0,0,1,.34-.8A1.34,1.34,0,0,1,6,3.78a1.29,1.29,0,0,1,.89.29,1,1,0,0,1,.32.81,1.31,1.31,0,0,1-.43.91l-.35.34a.91.91,0,0,0-.19.63Zm0,.88a.34.34,0,0,1,.11-.27.38.38,0,0,1,.28-.11.4.4,0,0,1,.29.11.36.36,0,0,1,.1.27.35.35,0,0,1-.1.26.38.38,0,0,1-.29.1.36.36,0,0,1-.28-.1.36.36,0,0,1-.11-.26"/><path d="M8.74,12H3.13a.5.5,0,1,1,0-1H8.74a.5.5,0,1,1,0,1"/><path d="M7.9,13.77H4a.5.5,0,1,1,0-1H7.9a.5.5,0,1,1,0,1"/></g></g></g></g></g></svg>