<svg xmlns="http://www.w3.org/2000/svg" xmlns:xlink="http://www.w3.org/1999/xlink" viewBox="0 0 16 16"><defs><style>.cls-1{fill:none;}.cls-2{clip-path:url(#clip-path);}.cls-3{fill:#323232;}.cls-4{opacity:0.75;}.cls-5{clip-path:url(#clip-path-4);}</style><clipPath id="clip-path" transform="translate(0 0)"><rect class="cls-1" width="16" height="16"/></clipPath><clipPath id="clip-path-4" transform="translate(0 0)"><rect class="cls-1" x="3" width="10" height="10"/></clipPath></defs><g id="Layer_2" data-name="Layer 2"><g id="Layer_1-2" data-name="Layer 1"><g id="lsi-channel"><g class="cls-2"><g class="cls-2"><g class="cls-2"><path class="cls-3" d="M5,7a4,4,0,1,1-4,4A4,4,0,0,1,5,7M5,6a5,5,0,1,0,5,5A5,5,0,0,0,5,6" transform="translate(0 0)"/><path class="cls-3" d="M6,11a5,5,0,1,1,5,5,5,5,0,0,1-5-5" transform="translate(0 0)"/><g class="cls-4"><g class="cls-5"><path class="cls-3" d="M3,5a5,5,0,1,1,5,5A5,5,0,0,1,3,5" transform="translate(0 0)"/></g></g></g></g></g></g></g></g></svg>