<svg xmlns="http://www.w3.org/2000/svg" xmlns:xlink="http://www.w3.org/1999/xlink" viewBox="0 0 16 16"><defs><style>.cls-1{fill:none;}.cls-2{clip-path:url(#clip-path);}</style><clipPath id="clip-path" transform="translate(0 0)"><rect class="cls-1" width="16" height="16"/></clipPath></defs><g id="Layer_2" data-name="Layer 2"><g id="Layer_1-2" data-name="Layer 1"><g id="lsi-unlock"><g class="cls-2"><g class="cls-2"><path d="M7.62,9.65A1.62,1.62,0,1,0,5.28,11.1l-.9,1.8H7.62l-.9-1.8a1.61,1.61,0,0,0,.9-1.45" transform="translate(0 0)"/><path d="M11,5.36H1A1,1,0,0,0,0,6.43v8.51A1,1,0,0,0,1,16H11a1,1,0,0,0,1-1.06V6.43a1,1,0,0,0-1-1.07m0,9.58H1V6.43H11Z" transform="translate(0 0)"/><path d="M9,5.36,9,4.25a3.1,3.1,0,0,1,3-3.19,3.1,3.1,0,0,1,3,3.19V5.36h1V4.25A4.13,4.13,0,0,0,12,0,4.13,4.13,0,0,0,8,4.25V5.36" transform="translate(0 0)"/></g></g></g></g></g></svg>