<svg xmlns="http://www.w3.org/2000/svg" viewBox="0 0 16 16"><defs><style>.cls-1{fill:#010101;}</style></defs><g id="Layer_2" data-name="Layer 2"><g id="Layer_1-2" data-name="Layer 1"><g id="lsi-pin"><path class="cls-1" d="M15.83,3.81,12.19.17A.56.56,0,0,0,11.78,0a.58.58,0,0,0-.5.27,3.19,3.19,0,0,0-.45,2L7.1,4.78a5.37,5.37,0,0,0-2.64-.64,6.2,6.2,0,0,0-2.67.56.57.57,0,0,0-.13.9L5.58,9.52l-5,5-.52,1a.16.16,0,0,0,0,.07s0,0,0,0a.31.31,0,0,0,0,.11A.29.29,0,0,0,.29,16L.4,16h0l.07,0,1-.52,5-5,3.92,3.92a.58.58,0,0,0,.41.17.55.55,0,0,0,.49-.3,6.17,6.17,0,0,0-.08-5.31l2.47-3.73a2.3,2.3,0,0,0,.37,0,3.13,3.13,0,0,0,1.67-.47A.59.59,0,0,0,15.83,3.81Zm-1.77.37-.26,0-.61-.07-.35.52L10.37,8.34,10,8.86l.32.55a5.07,5.07,0,0,1,.29,3.72L2.87,5.37a5.92,5.92,0,0,1,1.59-.22,4.35,4.35,0,0,1,2.13.51L7.14,6l.52-.35,3.73-2.47.52-.35-.07-.61a2.1,2.1,0,0,1,.07-.87l2.76,2.76A2.1,2.1,0,0,1,14.06,4.18Z"/></g></g></g></svg>