<svg xmlns="http://www.w3.org/2000/svg" xmlns:xlink="http://www.w3.org/1999/xlink" viewBox="0 0 14.63 12.76"><defs><style>.cls-1{fill:none;}.cls-2{clip-path:url(#clip-path);}</style><clipPath id="clip-path" transform="translate(0 0)"><rect class="cls-1" width="14.63" height="12.76"/></clipPath></defs><g id="Layer_2" data-name="Layer 2"><g id="Layer_1-2" data-name="Layer 1"><g id="lsi-folder-upload"><g class="cls-2"><g class="cls-2"><path d="M13.34,1.7H7.94a.42.42,0,0,1-.34-.19L7,.6A1.24,1.24,0,0,0,6,0H1.29A1.28,1.28,0,0,0,0,1.28V11.49a1.28,1.28,0,0,0,1.29,1.27H13.34a1.28,1.28,0,0,0,1.29-1.27V3A1.28,1.28,0,0,0,13.34,1.7M1.29.85H6A.39.39,0,0,1,6.3,1L6.87,2a1.29,1.29,0,0,0,1.07.59h5.4a.43.43,0,0,1,.43.43v.8H.86V1.28A.43.43,0,0,1,1.29.85M13.34,11.91h-12a.42.42,0,0,1-.43-.42V4.72H13.77v6.77a.42.42,0,0,1-.43.42" transform="translate(0 0)"/><path d="M9.88,7.63,7.69,5.43a.52.52,0,0,0-.55-.11A.57.57,0,0,0,7,5.43L4.75,7.66a.5.5,0,0,0,0,.71.48.48,0,0,0,.7,0L6.83,7v3.86a.5.5,0,0,0,.5.5.5.5,0,0,0,.5-.5V7L9.18,8.33a.49.49,0,1,0,.7-.7" transform="translate(0 0)"/></g></g></g></g></g></svg>