<svg xmlns="http://www.w3.org/2000/svg" xmlns:xlink="http://www.w3.org/1999/xlink" viewBox="0 0 16 16"><defs><style>.cls-1{fill:none;}.cls-2{clip-path:url(#clip-path);}</style><clipPath id="clip-path" transform="translate(0 0)"><rect class="cls-1" width="16" height="16"/></clipPath></defs><g id="Layer_2" data-name="Layer 2"><g id="Layer_1-2" data-name="Layer 1"><g id="lsi-save"><g class="cls-2"><g class="cls-2"><path d="M14.57,16H1.43A1.43,1.43,0,0,1,0,14.57V1.43A1.43,1.43,0,0,1,1.43,0H13.16L16,3.4V14.57A1.43,1.43,0,0,1,14.57,16M1.43.94a.49.49,0,0,0-.49.49V14.57a.49.49,0,0,0,.49.49H14.57a.49.49,0,0,0,.49-.49V3.74L12.72.94Z" transform="translate(0 0)"/><path d="M10.9,5.89H4.84a1,1,0,0,1-1-1V0H11.9V4.89a1,1,0,0,1-1,1m-6.06-1H10.9V1H4.84Z" transform="translate(0 0)"/><path d="M12.85,16h-10V11.51A1.45,1.45,0,0,1,4.22,10h7.27a1.45,1.45,0,0,1,1.37,1.5ZM3.76,15H12V11.51a.49.49,0,0,0-.46-.5H4.22a.48.48,0,0,0-.45.5Z" transform="translate(0 0)"/><path d="M9,1.61H9.1a.84.84,0,0,1,.83.84v.84a.83.83,0,0,1-.83.84H9a.83.83,0,0,1-.83-.84V2.45A.84.84,0,0,1,9,1.61" transform="translate(0 0)"/></g></g></g></g></g></svg>