<svg xmlns="http://www.w3.org/2000/svg" xmlns:xlink="http://www.w3.org/1999/xlink" viewBox="0 0 16 16"><defs><style>.cls-1{fill:none;}.cls-2{clip-path:url(#clip-path);}</style><clipPath id="clip-path"><rect class="cls-1" width="16" height="16"/></clipPath></defs><g id="Layer_2" data-name="Layer 2"><g id="Layer_1-2" data-name="Layer 1"><g id="lsi-structuresDashboard"><g class="cls-2"><g class="cls-2"><path d="M5,15H1V1H5ZM5,0H1A1,1,0,0,0,0,1V15a1,1,0,0,0,1,1H5a1,1,0,0,0,1-1V1A1,1,0,0,0,5,0"/><path d="M15,4a1,1,0,0,0,1-1V1a1,1,0,0,0-1-1H9A1,1,0,0,0,8,1V14a.5.5,0,0,0,.5.5H12v.79a.71.71,0,0,0,.71.71h2.58a.71.71,0,0,0,.71-.71V12.71a.71.71,0,0,0-.71-.71H12.71a.71.71,0,0,0-.71.71v.79H9V10h6a1,1,0,0,0,1-1V7a1,1,0,0,0-1-1H9V4ZM9,1h6V3H9V1Zm6,8H9V7h6Z"/></g></g></g></g></g></svg>