<svg xmlns="http://www.w3.org/2000/svg" xmlns:xlink="http://www.w3.org/1999/xlink" viewBox="0 0 16 16"><defs><style>.cls-1{fill:none;}.cls-2{clip-path:url(#clip-path);}</style><clipPath id="clip-path"><rect class="cls-1" width="16" height="16"/></clipPath></defs><g id="Layer_2" data-name="Layer 2"><g id="Layer_1-2" data-name="Layer 1"><g id="lsi-moveto"><g class="cls-2"><g class="cls-2"><path d="M8,0H2A2,2,0,0,0,0,2v8a2,2,0,0,0,2,2H6v2a2,2,0,0,0,2,2h6a2,2,0,0,0,2-2V6a2,2,0,0,0-2-2H10V2A2,2,0,0,0,8,0M2,11a1,1,0,0,1-1-1V2A1,1,0,0,1,2,1H8A1,1,0,0,1,9,2V4H8A2,2,0,0,0,6,6V7.73H7V6A1,1,0,0,1,8,5h6a1,1,0,0,1,1,1v8a1,1,0,0,1-1,1H8a1,1,0,0,1-1-1V9.8H6V11Z"/><path d="M12,9a.25.25,0,0,0,0-.44L8.88,6.76V8.25H4.33a.5.5,0,0,0,0,1H8.88v1.49Z"/></g></g></g></g></g></svg>