<svg xmlns="http://www.w3.org/2000/svg" xmlns:xlink="http://www.w3.org/1999/xlink" viewBox="0 0 12.09 16.09"><defs><style>.cls-1{fill:none;}.cls-2{clip-path:url(#clip-path);}</style><clipPath id="clip-path" transform="translate(0 0)"><rect class="cls-1" width="12.09" height="16.09"/></clipPath></defs><g id="Layer_2" data-name="Layer 2"><g id="Layer_1-2" data-name="Layer 1"><g id="lsi-blankdoc"><g class="cls-2"><g class="cls-2"><path d="M12.07,4.68h0L7.53.05h0L.6,0A.47.47,0,0,0,.13.46L0,15.53A.47.47,0,0,0,.46,16l11.07.09a.46.46,0,0,0,.47-.46l.09-10.94ZM7.62,1.57l3,3-2.52,0a.48.48,0,0,1-.46-.48ZM11,15.09,1,15,1.12,1l5.5.05,0,3A1.48,1.48,0,0,0,8.06,5.57l3,0Z" transform="translate(0 0)"/></g></g></g></g></g></svg>