<svg xmlns="http://www.w3.org/2000/svg" width="24" height="24" viewBox="0 0 24 24">
  <g id="High_Density_Storage" data-name="High Density Storage" transform="translate(8608 22873)">
    <rect id="Rectangle_17554" data-name="Rectangle 17554" width="24" height="24" transform="translate(-8608 -22873)" fill="none"/>
    <path id="Rectangle_17555" data-name="Rectangle 17555" d="M2,1.5a.5.5,0,0,0-.5.5V18a.5.5,0,0,0,.5.5H18a.5.5,0,0,0,.5-.5V2a.5.5,0,0,0-.5-.5H2M2,0H18a2,2,0,0,1,2,2V18a2,2,0,0,1-2,2H2a2,2,0,0,1-2-2V2A2,2,0,0,1,2,0Z" transform="translate(-8606 -22871)" fill="#662e6b"/>
    <g id="Group_18795" data-name="Group 18795" transform="translate(-0.1)">
      <path id="Line_910" data-name="Line 910" d="M1.3.6H0A.6.6,0,0,1-.6,0,.6.6,0,0,1,0-.6H1.3a.6.6,0,0,1,.6.6A.6.6,0,0,1,1.3.6Z" transform="translate(-8591.601 -22868.025)" fill="#662e6b"/>
      <path id="Line_909" data-name="Line 909" d="M1.3.6H0A.6.6,0,0,1-.6,0,.6.6,0,0,1,0-.6H1.3a.6.6,0,0,1,.6.6A.6.6,0,0,1,1.3.6Z" transform="translate(-8594.9 -22868.025)" fill="#662e6b"/>
      <path id="Line_907" data-name="Line 907" d="M1.3.6H0A.6.6,0,0,1-.6,0,.6.6,0,0,1,0-.6H1.3a.6.6,0,0,1,.6.6A.6.6,0,0,1,1.3.6Z" transform="translate(-8598.2 -22868.025)" fill="#662e6b"/>
      <path id="Line_908" data-name="Line 908" d="M1.3.6H0A.6.6,0,0,1-.6,0,.6.6,0,0,1,0-.6H1.3a.6.6,0,0,1,.6.6A.6.6,0,0,1,1.3.6Z" transform="translate(-8601.5 -22868.025)" fill="#662e6b"/>
    </g>
    <path id="Rectangle_17556" data-name="Rectangle 17556" d="M2,1.5a.5.5,0,0,0-.5.5v8a.5.5,0,0,0,.5.5H12a.5.5,0,0,0,.5-.5V2a.5.5,0,0,0-.5-.5H2M2,0H12a2,2,0,0,1,2,2v8a2,2,0,0,1-2,2H2a2,2,0,0,1-2-2V2A2,2,0,0,1,2,0Z" transform="translate(-8603 -22866)" fill="#662e6b"/>
    <path id="Line_911" data-name="Line 911" d="M4.5.6H0A.6.6,0,0,1-.6,0,.6.6,0,0,1,0-.6H4.5a.6.6,0,0,1,.6.6A.6.6,0,0,1,4.5.6Z" transform="translate(-8598.25 -22862.801)" fill="#662e6b"/>
  </g>
</svg>
