<svg xmlns="http://www.w3.org/2000/svg" xmlns:xlink="http://www.w3.org/1999/xlink" viewBox="0 0 16 16"><defs><style>.cls-1{fill:none;}.cls-2{clip-path:url(#clip-path);}</style><clipPath id="clip-path" transform="translate(0)"><rect class="cls-1" width="16" height="16"/></clipPath></defs><g id="Layer_2" data-name="Layer 2"><g id="Layer_1-2" data-name="Layer 1"><g id="lsi-multipleGears"><g class="cls-2"><g class="cls-2"><path d="M6.18,8.62A2.39,2.39,0,0,1,4.46,7.9a2.41,2.41,0,1,1,1.72.72m0-4.1A1.66,1.66,0,0,0,4.51,6.18,1.7,1.7,0,0,0,5,7.36a1.67,1.67,0,0,0,2.36,0,1.69,1.69,0,0,0,.48-1.18A1.64,1.64,0,0,0,6.18,4.52" transform="translate(0)"/><path d="M6.66,0V.78L6.8,1.85l.06.5.47.15A3.72,3.72,0,0,1,8,2.76L8.41,3l.4-.31L9.66,2l.68.69-.66.84L9.37,4l.23.44A3.72,3.72,0,0,1,9.86,5L10,5.5l.5.06,1.08.14v1l-1.07.13-.5.06-.15.47A3.72,3.72,0,0,1,9.6,8l-.23.44.31.4.66.85-.69.68-.84-.66-.4-.31L8,9.6a3.72,3.72,0,0,1-.64.26L6.86,10l-.06.5-.14,1.08h-1l-.13-1.07L5.5,10,5,9.86a3.72,3.72,0,0,1-.64-.26L4,9.37l-.4.31-.85.66L2,9.65l.66-.84L3,8.41,2.76,8a3.06,3.06,0,0,1-.26-.64l-.15-.47-.5-.06L.77,6.66v-1l1.07-.13.5-.06L2.5,5a3.06,3.06,0,0,1,.26-.64L3,4l-.31-.4L2,2.7,2.71,2l.84.66L4,3l.44-.23A3.72,3.72,0,0,1,5,2.5l.47-.15.06-.5L5.7.77h1V0m0,0h-1a.78.78,0,0,0-.77.69L4.8,1.76A4.27,4.27,0,0,0,4,2.07l-.85-.66a.77.77,0,0,0-1,.06l-.68.68a.77.77,0,0,0-.06,1L2.07,4a4.27,4.27,0,0,0-.31.77L.69,4.92A.79.79,0,0,0,0,5.7v1a.79.79,0,0,0,.69.78l1.07.12a4.27,4.27,0,0,0,.31.77l-.66.85a.77.77,0,0,0,.06,1l.68.68a.77.77,0,0,0,1,.06L4,10.29a4.27,4.27,0,0,0,.77.31l.13,1.07a.78.78,0,0,0,.77.69h1a.77.77,0,0,0,.77-.69l.13-1.07a4.27,4.27,0,0,0,.77-.31l.85.66a.77.77,0,0,0,1-.06l.68-.68a.77.77,0,0,0,.06-1l-.66-.85a4.27,4.27,0,0,0,.31-.77l1.07-.12a.79.79,0,0,0,.69-.78v-1a.79.79,0,0,0-.69-.78L10.6,4.8A4.27,4.27,0,0,0,10.29,4L11,3.18a.77.77,0,0,0-.06-1l-.68-.68a.77.77,0,0,0-1-.06l-.85.66a4.27,4.27,0,0,0-.77-.31L7.43.69A.77.77,0,0,0,6.66,0" transform="translate(0)"/><path d="M12,13.59A1.17,1.17,0,0,1,13.48,12a1.17,1.17,0,0,1,.11,2.17A1.17,1.17,0,0,1,12,13.59m1.79-.85a.79.79,0,0,0-.45-.41.83.83,0,0,0-.62,0,.78.78,0,0,0-.41.46.8.8,0,0,0,.49,1,.72.72,0,0,0,.61,0,.76.76,0,0,0,.41-.45.78.78,0,0,0,0-.62" transform="translate(0)"/><path d="M15.88,12l-.34.17-.44.28-.2.13,0,.24a1.22,1.22,0,0,1,0,.33v.24l.22.11.47.23-.16.44L15,14.07,14.72,14l-.14.19a1.73,1.73,0,0,1-.23.24l-.17.17.07.23.17.5-.43.19-.28-.44-.12-.2-.24,0A1.32,1.32,0,0,1,13,15h-.24l-.11.22-.23.47L12,15.47,12.1,15l.06-.24-.2-.14a2.55,2.55,0,0,1-.24-.23l-.17-.17-.23.07-.5.17L10.63,14l.44-.28.2-.12,0-.24a2,2,0,0,1,0-.34v-.24l-.22-.1-.46-.24.16-.44.5.11.24.06.14-.2a2.55,2.55,0,0,1,.23-.24l.17-.17-.07-.23-.17-.49.43-.2.28.44.13.2.23,0a2,2,0,0,1,.34,0h.24l.11-.22.23-.46.44.16-.11.5-.05.24.19.14a1.73,1.73,0,0,1,.24.23l.17.17.23-.07.5-.17.2.42.33-.16m0,0h0l-.2-.42a.38.38,0,0,0-.46-.19l-.49.16a2.55,2.55,0,0,0-.3-.26l.12-.51a.36.36,0,0,0,0-.25.39.39,0,0,0-.21-.19l-.44-.16a.39.39,0,0,0-.47.19l-.23.47a1.79,1.79,0,0,0-.4,0l-.28-.44a.38.38,0,0,0-.48-.14l-.42.2a.38.38,0,0,0-.19.46l.16.49a2.55,2.55,0,0,0-.26.3l-.51-.12a.38.38,0,0,0-.44.25l-.16.43a.41.41,0,0,0,0,.29.33.33,0,0,0,.17.18l.47.23a1.79,1.79,0,0,0,0,.4l-.44.28a.38.38,0,0,0-.14.48l.2.42a.38.38,0,0,0,.46.19l.49-.16a2.61,2.61,0,0,0,.3.27l-.12.5a.52.52,0,0,0,0,.25.35.35,0,0,0,.22.19l.43.16a.39.39,0,0,0,.47-.19l.23-.46a2.69,2.69,0,0,0,.4,0l.28.44a.36.36,0,0,0,.48.14l.42-.2a.38.38,0,0,0,.19-.46l-.16-.49a2.61,2.61,0,0,0,.27-.3l.5.12a.38.38,0,0,0,.44-.24l.16-.44a.41.41,0,0,0,0-.29.37.37,0,0,0-.17-.18l-.47-.23a1.79,1.79,0,0,0,0-.4l.44-.28a.36.36,0,0,0,.14-.48" transform="translate(0)"/><path d="M13.25,7.93a.7.7,0,0,1,.32-.36.66.66,0,0,1,.48,0,.6.6,0,0,1,.36.32.62.62,0,0,1-.28.84.58.58,0,0,1-.48,0,.63.63,0,0,1-.37-.31.69.69,0,0,1,0-.49m1,.35a.47.47,0,0,0,0-.33.44.44,0,0,0-.58-.2.44.44,0,0,0-.2.58.4.4,0,0,0,.25.21.42.42,0,0,0,.33,0,.43.43,0,0,0,.22-.24" transform="translate(0)"/><path d="M15.32,8.77l-.19-.06-.27-.06-.13,0-.07.11-.12.13-.1.09.05.12.09.27-.23.11-.15-.24-.07-.11-.13,0a.47.47,0,0,1-.17,0H13.7l-.06.12-.12.25-.24-.08.06-.28,0-.12-.11-.08a.69.69,0,0,1-.13-.11L13,8.73l-.12,0-.27.1-.11-.23.23-.15.11-.07,0-.13a1.09,1.09,0,0,1,0-.18V8l-.12-.05-.25-.13.08-.23.27.06.13,0,.08-.1a.76.76,0,0,1,.11-.14l.1-.08,0-.13-.09-.26.23-.11.15.23.07.11.13,0H14L14.06,7l.12-.26.24.09-.06.27,0,.13.1.07.13.12.09.09.12,0,.27-.09.11.22-.23.16-.11.07,0,.12c0,.06,0,.12,0,.18v.13l.12.06.25.12-.08.24.19.06m0,0h0l.08-.24a.2.2,0,0,0-.1-.24l-.25-.12A.82.82,0,0,0,15,8l.24-.15a.2.2,0,0,0,.08-.1.29.29,0,0,0,0-.16l-.11-.22a.21.21,0,0,0-.25-.1l-.26.09-.16-.14,0-.27a.19.19,0,0,0-.13-.23l-.23-.08a.2.2,0,0,0-.25.1l-.12.25h-.21l-.16-.23a.18.18,0,0,0-.25-.07L13,6.76a.21.21,0,0,0-.1.11.33.33,0,0,0,0,.14l.09.26-.14.16-.27-.06a.2.2,0,0,0-.23.13l-.08.24a.2.2,0,0,0,.1.25l.25.12a1.49,1.49,0,0,0,0,.21l-.24.15a.28.28,0,0,0-.08.11.26.26,0,0,0,0,.15l.11.22a.2.2,0,0,0,.25.11L13,9a1,1,0,0,0,.16.14l-.05.28a.19.19,0,0,0,.13.23l.23.08a.21.21,0,0,0,.25-.1l.12-.26a.74.74,0,0,0,.21,0l.16.23a.19.19,0,0,0,.25.08l.23-.11a.23.23,0,0,0,.1-.12.29.29,0,0,0,0-.13L14.68,9c.05,0,.09-.11.14-.17l.27.06a.19.19,0,0,0,.23-.13" transform="translate(0)"/></g></g></g></g></g></svg>