<svg xmlns="http://www.w3.org/2000/svg" xmlns:xlink="http://www.w3.org/1999/xlink" viewBox="0 0 16 16"><defs><style>.cls-1{fill:none;}.cls-2{clip-path:url(#clip-path);}</style><clipPath id="clip-path"><rect class="cls-1" width="16" height="16"/></clipPath></defs><g id="Layer_2" data-name="Layer 2"><g id="Layer_1-2" data-name="Layer 1"><g id="lsi-tile-view"><g class="cls-2"><g class="cls-2"><path d="M3,3H1V1H3Zm.5-3H.5A.5.5,0,0,0,0,.5v3A.5.5,0,0,0,.5,4h3A.5.5,0,0,0,4,3.5V.5A.5.5,0,0,0,3.5,0"/><path d="M9,3H7V1H9Zm.5-3h-3A.5.5,0,0,0,6,.5v3a.5.5,0,0,0,.5.5h3a.5.5,0,0,0,.5-.5V.5A.5.5,0,0,0,9.5,0"/><path d="M15,3H13V1h2Zm.5-3h-3a.5.5,0,0,0-.5.5v3a.5.5,0,0,0,.5.5h3a.5.5,0,0,0,.5-.5V.5a.5.5,0,0,0-.5-.5"/><path d="M3,9H1V7H3Zm.5-3H.5a.5.5,0,0,0-.5.5v3a.5.5,0,0,0,.5.5h3A.5.5,0,0,0,4,9.5v-3A.5.5,0,0,0,3.5,6"/><path d="M9,9H7V7H9Zm.5-3h-3a.5.5,0,0,0-.5.5v3a.5.5,0,0,0,.5.5h3a.5.5,0,0,0,.5-.5v-3A.5.5,0,0,0,9.5,6"/><path d="M15,9H13V7h2Zm.5-3h-3a.5.5,0,0,0-.5.5v3a.5.5,0,0,0,.5.5h3a.5.5,0,0,0,.5-.5v-3a.5.5,0,0,0-.5-.5"/><path d="M3,15H1V13H3Zm.5-3H.5a.5.5,0,0,0-.5.5v3a.5.5,0,0,0,.5.5h3a.5.5,0,0,0,.5-.5v-3a.5.5,0,0,0-.5-.5"/><path d="M9,15H7V13H9Zm.5-3h-3a.5.5,0,0,0-.5.5v3a.5.5,0,0,0,.5.5h3a.5.5,0,0,0,.5-.5v-3a.5.5,0,0,0-.5-.5"/><path d="M15,15H13V13h2Zm.5-3h-3a.5.5,0,0,0-.5.5v3a.5.5,0,0,0,.5.5h3a.5.5,0,0,0,.5-.5v-3a.5.5,0,0,0-.5-.5"/></g></g></g></g></g></svg>