<svg xmlns="http://www.w3.org/2000/svg" viewBox="0 0 12 16"><defs><style>.cls-1{fill:#231f20;}</style></defs><g id="Layer_2" data-name="Layer 2"><g id="Layer_1-2" data-name="Layer 1"><g id="lsi-auth"><path class="cls-1" d="M6,5.17l4.64,2c-.31,5-3.46,6.88-4.6,7.41A8.33,8.33,0,0,1,1.36,7.21L6,5.17M6,3.76,0,6.4C0,14.1,6,16,6,16s6-1.84,6-9.6L6,3.76Z"/><path class="cls-1" d="M8,8.32A2,2,0,0,0,6,6.4,2,2,0,0,0,4,8.32a1.93,1.93,0,0,0,1.33,1.81v2a.66.66,0,0,0,1.32,0v-2A1.93,1.93,0,0,0,8,8.32Z"/><path class="cls-1" d="M10.67,4.48c0,.2,0,.4,0,.6l-1.3-.57v0A3.26,3.26,0,0,0,6,1.28a3.26,3.26,0,0,0-3.33,3.2v0l-1.3.57c0-.2,0-.4,0-.6A4.59,4.59,0,0,1,6,0,4.59,4.59,0,0,1,10.67,4.48Z"/></g></g></g></svg>