<svg xmlns="http://www.w3.org/2000/svg" viewBox="0 0 16 16"><defs><style>.cls-1{fill:#010101;}</style></defs><g id="Layer_2" data-name="Layer 2"><g id="Layer_1-2" data-name="Layer 1"><g id="lsi-notebooks"><path class="cls-1" d="M5.33,11.93a.7.7,0,0,1-.43-.15L2.23,9.51a.68.68,0,0,1,0-1L4.9,6.22a.68.68,0,0,1,.94.08.67.67,0,0,1-.07.94L3.7,9l2.07,1.76a.67.67,0,0,1,.07.94A.68.68,0,0,1,5.33,11.93Z"/><path class="cls-1" d="M10.67,11.93a.68.68,0,0,1-.51-.23.67.67,0,0,1,.07-.94L12.3,9,10.23,7.24a.67.67,0,0,1-.07-.94.68.68,0,0,1,.94-.08l2.67,2.27a.68.68,0,0,1,0,1L11.1,11.78A.7.7,0,0,1,10.67,11.93Z"/><path class="cls-1" d="M6.67,13.67a.52.52,0,0,1-.21,0A.67.67,0,0,1,6,12.79l2.67-8a.66.66,0,0,1,.84-.42.67.67,0,0,1,.43.84l-2.67,8A.66.66,0,0,1,6.67,13.67Z"/><path class="cls-1" d="M14.67,0H1.33A1.34,1.34,0,0,0,0,1.33V14.67A1.34,1.34,0,0,0,1.33,16H14.67A1.34,1.34,0,0,0,16,14.67V1.33A1.34,1.34,0,0,0,14.67,0ZM13.19,1.2a.66.66,0,0,1,.94,0,.66.66,0,1,1-.93,1A.66.66,0,0,1,13.19,1.2Zm-2.32,0a.66.66,0,1,1,0,.94A.66.66,0,0,1,10.87,1.19Zm-2.39,0a.68.68,0,0,1,.95,0,.66.66,0,0,1,0,.94.66.66,0,0,1-.94,0A.66.66,0,0,1,8.48,1.2Zm6.19,13.47H1.33V3.33H14.67Z"/></g></g></g></svg>