<svg xmlns="http://www.w3.org/2000/svg" viewBox="0 0 15.58 24"><defs><style>.cls-1{fill:#010101;}</style></defs><g id="Layer_2" data-name="Layer 2"><g id="Layer_1-2" data-name="Layer 1"><path class="cls-1" d="M9.47,7.87,6.69,6.94A4,4,0,1,1,7.93,3.28l7.64,2.55Zm6.11-.16v4.07L3.36,15.86V11.78Zm-1.16,2.87a1,1,0,0,0-1-1,1,1,0,0,0-1,1,1,1,0,0,0,1,1A1,1,0,0,0,14.42,10.58Zm1.16,5.28v4.07L3.36,24V19.93l6.11-2ZM14,19.4a1,1,0,0,0-.54-1.8,1,1,0,0,0-1,1,.88.88,0,0,0,.07.33,1,1,0,0,0,.91.66A1,1,0,0,0,14,19.4ZM8.26,17.5l6.12-2-3.73-1.24-6.11,2Z"/></g></g></svg>