<svg xmlns="http://www.w3.org/2000/svg" xmlns:xlink="http://www.w3.org/1999/xlink" viewBox="0 0 16 12.1"><defs><style>.cls-1{fill:none;}.cls-2{clip-path:url(#clip-path);}</style><clipPath id="clip-path" transform="translate(0 0)"><rect class="cls-1" width="16" height="12.1"/></clipPath></defs><g id="Layer_2" data-name="Layer 2"><g id="Layer_1-2" data-name="Layer 1"><g id="lsi-imageholder"><g class="cls-2"><g class="cls-2"><path d="M5.62,3.62A1.62,1.62,0,1,1,4,2,1.62,1.62,0,0,1,5.62,3.62" transform="translate(0 0)"/><path d="M4,2A1.62,1.62,0,1,0,5.62,3.62,1.62,1.62,0,0,0,4,2M4,2A1.62,1.62,0,1,0,5.62,3.62,1.62,1.62,0,0,0,4,2m11.91-.68a.58.58,0,0,0-.05-.14.54.54,0,0,0-.1-.18c0-.07-.1-.15-.14-.21A2,2,0,0,0,14,0H2A2,2,0,0,0,.09,1.32,1.6,1.6,0,0,0,0,1.85v8.4a1.6,1.6,0,0,0,.09.53A2,2,0,0,0,2,12.1H14a2,2,0,0,0,1.62-.79c0-.06.1-.14.14-.21a.54.54,0,0,0,.1-.18.58.58,0,0,0,.05-.14,1.6,1.6,0,0,0,.09-.53V1.85a1.6,1.6,0,0,0-.09-.53M15,10.25a.94.94,0,0,1-1,.85H2a.94.94,0,0,1-1-.85V9.82L4,7.08,6.72,9.24l4.87-4.5L15,8.13Zm0-3.53L11.62,3.36,6.67,7.92,4,5.77,1,8.47V1.85A.94.94,0,0,1,2,1H14a.94.94,0,0,1,1,.85ZM4,2A1.62,1.62,0,1,0,5.62,3.62,1.62,1.62,0,0,0,4,2M4,2A1.62,1.62,0,1,0,5.62,3.62,1.62,1.62,0,0,0,4,2" transform="translate(0 0)"/><path d="M5.62,3.62A1.62,1.62,0,1,1,4,2,1.62,1.62,0,0,1,5.62,3.62" transform="translate(0 0)"/></g></g></g></g></g></svg>