<svg xmlns="http://www.w3.org/2000/svg" viewBox="0 0 16 16"><defs><style>.cls-1{fill:#010101;}</style></defs><g id="Layer_2" data-name="Layer 2"><g id="Layer_1-2" data-name="Layer 1"><g id="lsi-reservations"><path class="cls-1" d="M14.93,1a.07.07,0,0,1,.07.07V14.93a.07.07,0,0,1-.07.07H1.07A.07.07,0,0,1,1,14.93V1.07A.07.07,0,0,1,1.07,1H14.93m0-1H1.07A1.07,1.07,0,0,0,0,1.07V14.93A1.07,1.07,0,0,0,1.07,16H14.93A1.07,1.07,0,0,0,16,14.93V1.07A1.07,1.07,0,0,0,14.93,0Z"/><path class="cls-1" d="M7,9a.83.83,0,0,1-.56-.23L4.24,6.68A.81.81,0,1,1,5.37,5.53L6.87,7l3.69-4.69a.81.81,0,0,1,1.13-.14.82.82,0,0,1,.14,1.14L7.59,8.71A.79.79,0,0,1,7,9Z"/><path class="cls-1" d="M12,11H4a.5.5,0,0,1,0-1h8a.5.5,0,0,1,0,1Z"/><path class="cls-1" d="M10,13H6a.5.5,0,0,1,0-1h4a.5.5,0,0,1,0,1Z"/></g></g></g></svg>