<svg xmlns="http://www.w3.org/2000/svg" viewBox="0 0 16 12"><defs><style>.cls-1{fill:#010101;}</style></defs><g id="Layer_2" data-name="Layer 2"><g id="Layer_1-2" data-name="Layer 1"><g id="lsi-checkout"><path class="cls-1" d="M0,0H11.64a0,0,0,0,1,0,0V0A1.34,1.34,0,0,1,10.3,1.34H1.35A1.34,1.34,0,0,1,0,0V0A0,0,0,0,1,0,0Z" transform="translate(11.65 1.34) rotate(180)"/><path class="cls-1" d="M11,8.62v1.7a1,1,0,0,1-1,1H1.71a1,1,0,0,1-1-1V3H11V5h.68V2.3H0v8A1.7,1.7,0,0,0,1.71,12H9.92a1.7,1.7,0,0,0,1.71-1.68V8.62Z"/><path class="cls-1" d="M13.11,9.93,15.88,7.1a.4.4,0,0,0,0-.57L13.09,3.68a.43.43,0,0,0-.63,0,.47.47,0,0,0-.14.32.47.47,0,0,0,.14.33l2,2H7.73a.46.46,0,0,0,0,.92h6.72l-2,2a.46.46,0,0,0,0,.65A.45.45,0,0,0,13.11,9.93Z"/></g></g></g></svg>