<svg xmlns="http://www.w3.org/2000/svg" viewBox="0 0 12 16"><defs><style>.cls-1{fill:#010101;}</style></defs><g id="Layer_2" data-name="Layer 2"><g id="Layer_1-2" data-name="Layer 1"><g id="lsi-detail-view"><path class="cls-1" d="M10.62,1V11H1.38V1h9.24m0-1H1.38A1,1,0,0,0,.46,1V11a1,1,0,0,0,.92,1h9.24a1,1,0,0,0,.92-1V1a1,1,0,0,0-.92-1Z"/><path class="cls-1" d="M11.54,14H.46a.5.5,0,0,1,0-1H11.54a.5.5,0,0,1,0,1Z"/><path class="cls-1" d="M9.69,16H2.31a.5.5,0,0,1,0-1H9.69a.5.5,0,0,1,0,1Z"/></g></g></g></svg>