<svg xmlns="http://www.w3.org/2000/svg" xmlns:xlink="http://www.w3.org/1999/xlink" viewBox="0 0 15.99 11.92"><defs><style>.cls-1{fill:none;}.cls-2{clip-path:url(#clip-path);}</style><clipPath id="clip-path" transform="translate(0 0)"><rect class="cls-1" width="15.99" height="11.92"/></clipPath></defs><g id="Layer_2" data-name="Layer 2"><g id="Layer_1-2" data-name="Layer 1"><g id="lsi-groups"><g class="cls-2"><g class="cls-2"><path d="M2.47,2.53A2.53,2.53,0,1,1,5,5.07,2.53,2.53,0,0,1,2.47,2.53" transform="translate(0 0)"/><path d="M10,11.42a.5.5,0,0,1-.5.5H.5a.5.5,0,0,1-.5-.5v-.68a4.3,4.3,0,0,1,4.3-4.3H5.7a4.3,4.3,0,0,1,4.3,4.3Z" transform="translate(0 0)"/><path d="M11,1A1.54,1.54,0,1,1,9.46,2.53,1.53,1.53,0,0,1,11,1m0-1a2.54,2.54,0,1,0,2.53,2.53A2.53,2.53,0,0,0,11,0" transform="translate(0 0)"/><path d="M11.76,6.44H10.22a4.21,4.21,0,0,0-1.46.28,4.52,4.52,0,0,1,.91.78,3.31,3.31,0,0,1,.55-.06h1.54A3.23,3.23,0,0,1,15,10.67v.25H10.92v1h4.57a.5.5,0,0,0,.5-.5v-.75a4.23,4.23,0,0,0-4.23-4.23" transform="translate(0 0)"/></g></g></g></g></g></svg>