<svg xmlns="http://www.w3.org/2000/svg" xmlns:xlink="http://www.w3.org/1999/xlink" viewBox="0 0 16 16"><defs><style>.cls-1{fill:none;}.cls-2{clip-path:url(#clip-path);}</style><clipPath id="clip-path"><rect class="cls-1" width="16" height="16"/></clipPath></defs><g id="Layer_2" data-name="Layer 2"><g id="Layer_1-2" data-name="Layer 1"><g id="lsi-share"><g class="cls-2"><g class="cls-2"><path d="M13.5,11a2.48,2.48,0,0,0-2,1L4.9,8.69A2.15,2.15,0,0,0,5,8a2.43,2.43,0,0,0-.08-.61l6.62-3.35A2.5,2.5,0,1,0,11,2.5a2.37,2.37,0,0,0,.09.65L4.48,6.49a2.46,2.46,0,0,0-2-1,2.5,2.5,0,1,0,2,4.07l6.63,3.28a2.67,2.67,0,0,0-.08.64A2.5,2.5,0,1,0,13.5,11m0-10a1.5,1.5,0,0,1,0,3,1.51,1.51,0,0,1-1-.41A1.4,1.4,0,0,1,12,2.68a.55.55,0,0,1,0-.18A1.5,1.5,0,0,1,13.5,1M4,8.24a1.42,1.42,0,0,1-.47.87,1.46,1.46,0,0,1-1,.4,1.5,1.5,0,0,1,0-3A1.44,1.44,0,0,1,3.56,7,1.45,1.45,0,0,1,4,7.87.61.61,0,0,1,4,8a1.64,1.64,0,0,1,0,.23M13.5,15A1.5,1.5,0,0,1,12,13.5a.47.47,0,0,1,0-.17,1.36,1.36,0,0,1,.44-.9,1.45,1.45,0,0,1,1-.43,1.5,1.5,0,0,1,0,3"/></g></g></g></g></g></svg>