<svg xmlns="http://www.w3.org/2000/svg" xmlns:xlink="http://www.w3.org/1999/xlink" viewBox="0 0 16 12"><defs><style>.cls-1{fill:none;}.cls-2{clip-path:url(#clip-path);}</style><clipPath id="clip-path" transform="translate(0 0)"><rect class="cls-1" width="16" height="12"/></clipPath></defs><g id="Layer_2" data-name="Layer 2"><g id="Layer_1-2" data-name="Layer 1"><g id="lsi-openfolder"><g class="cls-2"><g class="cls-2"><path d="M5.52,0H1.19A1.2,1.2,0,0,0,0,1.2v9.6A1.2,1.2,0,0,0,1.19,12H12.42a1.18,1.18,0,0,0,1-.76h0a1.45,1.45,0,0,0,.09-.22L16,5.5a.81.81,0,0,0-.71-1.1H13.52V2.8a1.19,1.19,0,0,0-1.19-1.2h-5A.37.37,0,0,1,7,1.43L6.51.56a1.17,1.17,0,0,0-1-.56M.8,8.69V1.2A.4.4,0,0,1,1.19.8H5.52A.38.38,0,0,1,5.83,1l.52.87a1.18,1.18,0,0,0,1,.56h5a.39.39,0,0,1,.4.39V4.4H3.16a.75.75,0,0,0-.68.47Zm.75,2.38a.56.56,0,0,1-.48-.29.61.61,0,0,1,0-.53L3.21,5.34H15.09L13.52,8.9l-.74,1.69v0l0,0,0,0a.53.53,0,0,1-.5.37Z" transform="translate(0 0)"/></g></g></g></g></g></svg>