<svg xmlns="http://www.w3.org/2000/svg" xmlns:xlink="http://www.w3.org/1999/xlink" viewBox="0 0 12 16"><defs><style>.cls-1{fill:none;}.cls-2{clip-path:url(#clip-path);}</style><clipPath id="clip-path" transform="translate(0 0)"><rect class="cls-1" width="12" height="16"/></clipPath></defs><g id="Layer_2" data-name="Layer 2"><g id="Layer_1-2" data-name="Layer 1"><g id="lsi-publications"><g class="cls-2"><g class="cls-2"><path d="M11,0H2A2,2,0,0,0,0,2V15a1,1,0,0,0,1,1H11a1,1,0,0,0,1-1V4.05a1,1,0,0,0-1-1H1.84L1.73,3h0l-.15-.06A1,1,0,0,1,1,2V2a1.08,1.08,0,0,1,.36-.76l.14-.1A1,1,0,0,1,1.82,1L2,1h9a.5.5,0,0,0,.5-.5A.5.5,0,0,0,11,0M2,4.05h9V15H1V3.76a1.89,1.89,0,0,0,1,.29" transform="translate(0 0)"/><path d="M10.8,2.35H2.52a.38.38,0,1,1,0-.75H10.8a.38.38,0,0,1,0,.75" transform="translate(0 0)"/><path d="M9,9H3V7H9ZM9,6H3A1,1,0,0,0,2,7V9a1,1,0,0,0,1,1H9a1,1,0,0,0,1-1V7A1,1,0,0,0,9,6" transform="translate(0 0)"/><path d="M7.6,12H4.4a.51.51,0,0,1,0-1H7.6a.51.51,0,0,1,0,1" transform="translate(0 0)"/></g></g></g></g></g></svg>