<svg xmlns="http://www.w3.org/2000/svg" viewBox="0 0 16 16"><defs><style>.cls-1{fill:#010101;}</style></defs><g id="Layer_2" data-name="Layer 2"><g id="Layer_1-2" data-name="Layer 1"><path class="cls-1" d="M13.49,5.71a.77.77,0,1,0,.78.76A.77.77,0,0,0,13.49,5.71Zm0,0a.77.77,0,1,0,.78.76A.77.77,0,0,0,13.49,5.71Zm0,0a.77.77,0,1,0,.78.76A.77.77,0,0,0,13.49,5.71Zm0,0a.77.77,0,1,0,.78.76A.77.77,0,0,0,13.49,5.71Zm0,0a.77.77,0,1,0,.78.76A.77.77,0,0,0,13.49,5.71Zm0,0a.77.77,0,1,0,.78.76A.77.77,0,0,0,13.49,5.71Zm0,0a.77.77,0,1,0,.78.76A.77.77,0,0,0,13.49,5.71Zm0,0a.77.77,0,1,0,.78.76A.77.77,0,0,0,13.49,5.71ZM14.37,4H12.71V0H3.3V4H1.64A1.64,1.64,0,0,0,0,5.61v4.8A1.64,1.64,0,0,0,1.64,12H3.3v4h9.41V12h1.66A1.63,1.63,0,0,0,16,10.41V5.61A1.63,1.63,0,0,0,14.37,4ZM4.14.83h7.72V4H4.14Zm7.72,14.33H4.14v-6h7.72Zm3.29-4.75a.78.78,0,0,1-.78.78H12.71V8.43H3.3v2.76H1.64a.78.78,0,0,1-.79-.78V5.61a.78.78,0,0,1,.79-.78H14.37a.78.78,0,0,1,.78.78Zm-1.66-4.7a.77.77,0,1,0,.78.76A.77.77,0,0,0,13.49,5.71Zm0,0a.77.77,0,1,0,.78.76A.77.77,0,0,0,13.49,5.71Zm0,0a.77.77,0,1,0,.78.76A.77.77,0,0,0,13.49,5.71Zm0,0a.77.77,0,1,0,.78.76A.77.77,0,0,0,13.49,5.71Zm0,0a.77.77,0,1,0,.78.76A.77.77,0,0,0,13.49,5.71Zm0,0a.77.77,0,1,0,.78.76A.77.77,0,0,0,13.49,5.71Zm0,0a.77.77,0,1,0,.78.76A.77.77,0,0,0,13.49,5.71Zm-3,7v.84h-5v-.84Zm0-1.92v.84h-5v-.84Z"/></g></g></svg>