<svg xmlns="http://www.w3.org/2000/svg" xmlns:xlink="http://www.w3.org/1999/xlink" viewBox="0 0 11 16"><defs><style>.cls-1{fill:none;}.cls-2{clip-path:url(#clip-path);}</style><clipPath id="clip-path" transform="translate(0 0)"><rect class="cls-1" width="11" height="16"/></clipPath></defs><g id="Layer_2" data-name="Layer 2"><g id="Layer_1-2" data-name="Layer 1"><g id="lsi-icon-logo"><g class="cls-2"><g class="cls-2"><path d="M7.45,5.16A1,1,0,1,0,6,5.47a1,1,0,0,0,1.43-.31" transform="translate(0 0)"/><path d="M9.82,1.59A1,1,0,1,0,8.09.48,1,1,0,1,0,9.82,1.59" transform="translate(0 0)"/><path d="M1.09,15.63h0a2.35,2.35,0,0,0,3.25-.72l4-6.25s0-1.74-2-1.27-2-1.27-2-1.27l-4,6.25a2.36,2.36,0,0,0,.72,3.26" transform="translate(0 0)"/><path d="M10.83,4.8A1,1,0,0,0,9.09,3.69a1,1,0,0,0,.32,1.43,1,1,0,0,0,1.42-.32" transform="translate(0 0)"/></g></g></g></g></g></svg>