<svg xmlns="http://www.w3.org/2000/svg" xmlns:xlink="http://www.w3.org/1999/xlink" viewBox="0 0 16 12.8"><defs><style>.cls-1{fill:none;}.cls-2{clip-path:url(#clip-path);}</style><clipPath id="clip-path" transform="translate(0 0)"><rect class="cls-1" width="16" height="12.8"/></clipPath></defs><g id="Layer_2" data-name="Layer 2"><g id="Layer_1-2" data-name="Layer 1"><g id="lsi-new-folder"><g class="cls-2"><g class="cls-2"><path d="M14.59,12.8H1.41A1.34,1.34,0,0,1,0,11.53V1.29A1.36,1.36,0,0,1,1.41,0H6.53A1.44,1.44,0,0,1,7.7.6l.62.92a.44.44,0,0,0,.37.19h5.9A1.36,1.36,0,0,1,16,3v8.54a1.34,1.34,0,0,1-1.41,1.27ZM1.41.86a.46.46,0,0,0-.47.42h0V11.53a.46.46,0,0,0,.47.42H14.59a.45.45,0,0,0,.47-.42h0V3a.45.45,0,0,0-.47-.43H8.69A1.41,1.41,0,0,1,7.51,2l-.62-.91A.41.41,0,0,0,6.53.86Z" transform="translate(0 0)"/><path d="M8,3.6a3.54,3.54,0,1,0,3.54,3.53A3.54,3.54,0,0,0,8,3.6m2.15,3.9H8.37V9.29H7.63V7.5H5.85V6.77H7.63V5h.74V6.77h1.78Z" transform="translate(0 0)"/></g></g></g></g></g></svg>