<svg xmlns="http://www.w3.org/2000/svg" xmlns:xlink="http://www.w3.org/1999/xlink" viewBox="0 0 15.61 13.56"><defs><style>.cls-1{fill:none;}.cls-2{clip-path:url(#clip-path);}</style><clipPath id="clip-path" transform="translate(0 0)"><rect class="cls-1" width="15.61" height="13.56"/></clipPath></defs><g id="Layer_2" data-name="Layer 2"><g id="Layer_1-2" data-name="Layer 1"><g id="lsi-add-folder"><g class="cls-2"><g class="cls-2"><path d="M12.5,7.34a3.11,3.11,0,1,0,3.11,3.11A3.11,3.11,0,0,0,12.5,7.34m1.89,3.44H12.83v1.56h-.66V10.78H10.61v-.65h1.56V8.56h.66v1.57h1.56Z" transform="translate(0 0)"/><path d="M9.28,11.91h-8a.42.42,0,0,1-.43-.42V4.72H13.77V7.14a3.45,3.45,0,0,1,.86.48V3A1.28,1.28,0,0,0,13.34,1.7H7.94a.4.4,0,0,1-.34-.19L7,.6A1.24,1.24,0,0,0,6,0H1.29A1.28,1.28,0,0,0,0,1.28V11.49a1.28,1.28,0,0,0,1.29,1.27H9.84a3.06,3.06,0,0,1-.56-.85M.86,1.28A.43.43,0,0,1,1.29.85H6A.39.39,0,0,1,6.3,1L6.87,2a1.29,1.29,0,0,0,1.07.59h5.4a.43.43,0,0,1,.43.43v.8H.86Z" transform="translate(0 0)"/></g></g></g></g></g></svg>