<svg xmlns="http://www.w3.org/2000/svg" xmlns:xlink="http://www.w3.org/1999/xlink" viewBox="0 0 16 16"><defs><style>.cls-1{fill:none;}.cls-2{clip-path:url(#clip-path);}</style><clipPath id="clip-path"><rect class="cls-1" width="16" height="16"/></clipPath></defs><g id="Layer_2" data-name="Layer 2"><g id="Layer_1-2" data-name="Layer 1"><g id="lsi-structures"><g class="cls-2"><g class="cls-2"><path d="M15,12H13a1,1,0,0,0-1,1v.5H4.5v-3H8V11a1,1,0,0,0,1,1h2a1,1,0,0,0,1-1V9a1,1,0,0,0-1-1H9A1,1,0,0,0,8,9v.5H4.5V8H7A1,1,0,0,0,8,7V1A1,1,0,0,0,7,0H1A1,1,0,0,0,0,1V7A1,1,0,0,0,1,8H3.5v6a.5.5,0,0,0,.5.5h8V15a1,1,0,0,0,1,1h2a1,1,0,0,0,1-1V13a1,1,0,0,0-1-1M9,9h2v2H9ZM1,1H7V7H1ZM15,15H13V13h2Z"/></g></g></g></g></g></svg>