<svg xmlns="http://www.w3.org/2000/svg" viewBox="0 0 16 16"><defs><style>.cls-1{fill:#010101;}</style></defs><g id="Layer_2" data-name="Layer 2"><g id="Layer_1-2" data-name="Layer 1"><g id="lsi-annotate"><path class="cls-1" d="M16,10.89a2.83,2.83,0,0,0-1.49-2.46,3.2,3.2,0,0,0-3.1-2.26A3.43,3.43,0,0,0,10,6.5,2.37,2.37,0,0,0,8.61,5.34l-.52,1a1.16,1.16,0,0,1,.85.88,2.65,2.65,0,0,0-.61,1.08A2.62,2.62,0,0,0,7.07,9a.52.52,0,0,0,0,.8.63.63,0,0,0,.85,0,1.61,1.61,0,0,1,2.1,0,.62.62,0,0,0,.43.16.66.66,0,0,0,.44-.16.55.55,0,0,0,0-.8,2.71,2.71,0,0,0-1.26-.67A1.72,1.72,0,0,1,10,7.86a2.07,2.07,0,0,1,1.41-.54,2,2,0,0,1,2,1.57.6.6,0,0,0,.35.44,1.71,1.71,0,0,1,1.06,1.56,1.79,1.79,0,0,1-1.71,1.72.64.64,0,0,0-.44.23.53.53,0,0,0-.11.45,4.77,4.77,0,0,1,.11,1.08,6.19,6.19,0,0,0-.82-.87A2.34,2.34,0,0,0,12.32,12a.61.61,0,0,0-1.22,0,1.32,1.32,0,0,1-.52,1.09s0,0-.05,0a.21.21,0,0,1-.08.06l-.09.06a0,0,0,0,1,0,0,1.5,1.5,0,0,1-.75.2,1.48,1.48,0,0,1-1.42-1A.59.59,0,0,0,7.57,12H5.23l-.58,1.14H7.14a2.73,2.73,0,0,0,2.43,1.42,2.83,2.83,0,0,0,1.34-.33A6.11,6.11,0,0,1,12,15.57a1,1,0,0,0,.82.43l.2,0a.91.91,0,0,0,.75-.75,6.65,6.65,0,0,0,0-1.59A2.92,2.92,0,0,0,16,10.89Z"/><path class="cls-1" d="M5.47,4.62l1.22.63L2.64,13l-1,.33-.27-.94,3.69-7,.37-.71M5.05,3a.32.32,0,0,0-.3.18L3.92,4.71,0,12.1a.33.33,0,0,0,0,.24l.68,2.33a.33.33,0,0,0,.32.24h.12l2.31-.8a.34.34,0,0,0,.19-.16L8.34,5a.33.33,0,0,0-.14-.45L5.2,3a.28.28,0,0,0-.15,0Z"/><path class="cls-1" d="M8.81,3.35l-3-1.54a.33.33,0,0,1-.15-.45L6.29.18A.34.34,0,0,1,6.75,0l3,1.53A.33.33,0,0,1,9.89,2L9.27,3.2A.35.35,0,0,1,8.81,3.35Z"/></g></g></g></svg>