<svg xmlns="http://www.w3.org/2000/svg" xmlns:xlink="http://www.w3.org/1999/xlink" viewBox="0 0 12 16.01"><defs><style>.cls-1{fill:none;}.cls-2{clip-path:url(#clip-path);}</style><clipPath id="clip-path" transform="translate(0 0)"><rect class="cls-1" width="12" height="16.01"/></clipPath></defs><g id="Layer_2" data-name="Layer 2"><g id="Layer_1-2" data-name="Layer 1"><g id="lsi-form"><g class="cls-2"><g class="cls-2"><path d="M12,4.59h0L7.4,0H.47A.46.46,0,0,0,0,.47V15.54A.47.47,0,0,0,.47,16H11.53a.47.47,0,0,0,.47-.47V4.6ZM7.5,1.52l3,3H8A.47.47,0,0,1,7.5,4ZM11,15H1V1H6.5V4A1.47,1.47,0,0,0,8,5.51h3Z" transform="translate(0 0)"/><path d="M9,13.16H3a.5.5,0,0,1-.5-.5.51.51,0,0,1,.5-.5H9a.51.51,0,0,1,.5.5.5.5,0,0,1-.5.5" transform="translate(0 0)"/><path d="M9,10.83H3a.5.5,0,0,1-.5-.5.51.51,0,0,1,.5-.5H9a.51.51,0,0,1,.5.5.5.5,0,0,1-.5.5" transform="translate(0 0)"/><path d="M9,8.5H3A.5.5,0,0,1,2.5,8,.51.51,0,0,1,3,7.5H9a.51.51,0,0,1,.5.5.5.5,0,0,1-.5.5" transform="translate(0 0)"/></g></g></g></g></g></svg>