<svg xmlns="http://www.w3.org/2000/svg" viewBox="0 0 16 16"><defs><style>.cls-1{fill:#010101;}</style></defs><g id="Layer_2" data-name="Layer 2"><g id="Layer_1-2" data-name="Layer 1"><path id="Group_7335" data-name="Group 7335" class="cls-1" d="M13.92,2.62c-.18-.19-.35-.36-.54-.54a8,8,0,0,0-10.76,0c-.19.18-.36.35-.54.54a8,8,0,0,0,0,10.76l.54.54a8,8,0,0,0,10.76,0l.54-.54a8,8,0,0,0,0-10.76ZM8,14.55A6.55,6.55,0,1,1,14.55,8,6.56,6.56,0,0,1,8,14.55Zm4.09-5.76-4.82.46V2.77H8.73V7.65L12,7.34Z"/></g></g></svg>