<svg xmlns="http://www.w3.org/2000/svg" viewBox="0 0 16 16"><defs><style>.cls-1{fill:#010101;}</style></defs><g id="Layer_2" data-name="Layer 2"><g id="Layer_1-2" data-name="Layer 1"><path class="cls-1" d="M15.5,0h-3a.5.5,0,0,0-.5.5v9a.17.17,0,0,0,0,.07.5.5,0,0,0,.49.39h3A.5.5,0,0,0,16,9.57a.17.17,0,0,0,0-.07V.5A.5.5,0,0,0,15.5,0ZM15,4H13V1h2Zm.5,8H.5a.51.51,0,0,0-.5.5v3a.51.51,0,0,0,.5.5h15a.51.51,0,0,0,.5-.5v-3A.51.51,0,0,0,15.5,12ZM15,15H10V13h5Zm.5-5h-3A.5.5,0,0,1,12,9.57a.48.48,0,0,0,.49.43h3A.48.48,0,0,0,16,9.57.5.5,0,0,1,15.5,10ZM5,0,0,2.91V8.73l5,2.9,5-2.9V2.91Zm4,8.15L5,10.48,1,8.15V3.49L5,1.16l4,2.33Zm-3.34.49-.49.87-3.52-2,.49-.87ZM8,4.11,7.46,5,4.19,3l.51-.86Z"/></g></g></svg>