<svg xmlns="http://www.w3.org/2000/svg" xmlns:xlink="http://www.w3.org/1999/xlink" viewBox="0 0 16 16"><defs><style>.cls-1{fill:none;}.cls-2{clip-path:url(#clip-path);}.cls-3{clip-path:url(#clip-path-2);}.cls-4{fill:#000001;}</style><clipPath id="clip-path" transform="translate(0)"><rect class="cls-1" y="3.63" width="16" height="8.75"/></clipPath><clipPath id="clip-path-2" transform="translate(0)"><rect class="cls-1" y="3.63" width="16" height="8.74"/></clipPath></defs><g id="Layer_2" data-name="Layer 2"><g id="Layer_1-2" data-name="Layer 1"><rect class="cls-1" width="16" height="16"/><g id="lsi-view"><g class="cls-2"><g class="cls-3"><path class="cls-4" d="M15.79,7.6,12.07,4.93a7,7,0,0,0-8.14,0L.21,7.6a.49.49,0,0,0,0,.8l3.72,2.67a7,7,0,0,0,8.14,0L15.79,8.4a.49.49,0,0,0,0-.8M8,11a3,3,0,1,1,3-3,3,3,0,0,1-3,3M1.37,8,4.51,5.74c.12-.09.26-.15.38-.23a3.93,3.93,0,0,0,0,5c-.12-.08-.26-.14-.38-.23Zm10.12,2.26c-.12.09-.26.15-.38.23a3.93,3.93,0,0,0,0-5c.12.08.26.14.38.23L14.63,8Z" transform="translate(0)"/><path class="cls-4" d="M8,8V6a2,2,0,1,0,2,2,2,2,0,0,0-.59-1.41Z" transform="translate(0)"/></g></g></g></g></g></svg>