<svg xmlns="http://www.w3.org/2000/svg" viewBox="0 0 16 16"><defs><style>.cls-1{fill:#010101;}</style></defs><g id="Layer_2" data-name="Layer 2"><g id="Layer_1-2" data-name="Layer 1"><g id="lsi-merge"><path class="cls-1" d="M15.5,9.5H.5a.5.5,0,0,1,0-1h15a.5.5,0,0,1,0,1Z"/><path class="cls-1" d="M5.65,12.85a.48.48,0,0,0,.7,0L7.5,11.71V15.5a.5.5,0,0,0,1,0V11.71l1.15,1.14a.49.49,0,0,0,.7-.7l-2-2a.48.48,0,0,0-.7,0l-2,2A.48.48,0,0,0,5.65,12.85Z"/><path class="cls-1" d="M.5,6.5h15a.5.5,0,0,1,0,1H.5a.5.5,0,0,1,0-1Z"/><path class="cls-1" d="M10.35,3.15a.48.48,0,0,0-.7,0L8.5,4.29V.5a.5.5,0,0,0-1,0V4.29L6.35,3.15a.49.49,0,0,0-.7.7l2,2a.48.48,0,0,0,.7,0l2-2A.48.48,0,0,0,10.35,3.15Z"/></g></g></g></svg>