<svg xmlns="http://www.w3.org/2000/svg" width="24" height="24" viewBox="0 0 24 24">
  <g id="Floor_View" data-name="Floor View" transform="translate(14881)">
    <rect id="Rectangle_17537" data-name="Rectangle 17537" width="24" height="24" transform="translate(-14881)" fill="none"/>
    <g id="plan" transform="translate(-14879 2)">
      <path id="Path_18007" data-name="Path 18007" d="M1.765,0H18.235A1.765,1.765,0,0,1,20,1.765V18.235A1.765,1.765,0,0,1,18.235,20H1.765A1.765,1.765,0,0,1,0,18.235V1.765A1.765,1.765,0,0,1,1.765,0ZM12.941,6.471H10.588a.588.588,0,0,1,0-1.176h8.235V1.765a.588.588,0,0,0-.588-.588H7.059V5.882a.588.588,0,1,1-1.176,0V1.176H1.765a.588.588,0,0,0-.588.588V10H5.882V9.412a.588.588,0,1,1,1.176,0v2.353a.588.588,0,0,1-1.176,0v-.588H1.176v7.059a.588.588,0,0,0,.588.588H5.882V15.294a.588.588,0,1,1,1.176,0v3.529h5.882V15.882H10.588a.588.588,0,1,1,0-1.176h2.353V12.941a.588.588,0,0,1,1.176,0v5.882h4.118a.588.588,0,0,0,.588-.588V6.471H14.118V9.412a.588.588,0,0,1-1.176,0Z" transform="translate(0 0)" fill="#662e6b"/>
      <path id="Path_18007_-_Outline" data-name="Path 18007 - Outline" d="M1.765-.25H18.235A2.017,2.017,0,0,1,20.25,1.765V18.235a2.017,2.017,0,0,1-2.015,2.015H1.765A2.015,2.015,0,0,1-.25,18.235V1.765A2.017,2.017,0,0,1,1.765-.25Zm16.471,20a1.516,1.516,0,0,0,1.515-1.515V1.765A1.516,1.516,0,0,0,18.235.25H1.765A1.516,1.516,0,0,0,.25,1.765V18.235A1.515,1.515,0,0,0,1.765,19.75ZM6.809.926H18.235a.839.839,0,0,1,.838.838V5.544H10.588a.338.338,0,0,0,0,.676h2.6V9.412a.338.338,0,0,0,.676,0V6.221h5.206V18.235a.839.839,0,0,1-.838.838H13.868V12.941a.338.338,0,1,0-.676,0v2.015h-2.6a.338.338,0,0,0,0,.676h2.6v3.441H6.809V15.294a.338.338,0,0,0-.676,0v3.779H1.765a.839.839,0,0,1-.838-.838V10.926H6.132v.838a.338.338,0,0,0,.676,0V9.412a.338.338,0,1,0-.676,0v.838H.926V1.765A.839.839,0,0,1,1.765.926H6.132V5.882a.338.338,0,0,0,.676,0ZM18.574,5.044V1.765a.339.339,0,0,0-.338-.338H7.309V5.882a.838.838,0,0,1-1.676,0V1.426H1.765a.339.339,0,0,0-.338.338V9.75H5.632V9.412a.838.838,0,1,1,1.676,0v2.353a.838.838,0,0,1-1.676,0v-.338H1.426v6.809a.339.339,0,0,0,.338.338H5.632V15.294a.838.838,0,0,1,1.676,0v3.279h5.382V16.132h-2.1a.838.838,0,0,1,0-1.676h2.1V12.941a.838.838,0,1,1,1.676,0v5.632h3.868a.339.339,0,0,0,.338-.338V6.721H14.368V9.412a.838.838,0,1,1-1.676,0V6.721h-2.1a.838.838,0,0,1,0-1.676Z" transform="translate(0 0)" fill="#662e6b"/>
    </g>
  </g>
</svg>
