<svg xmlns="http://www.w3.org/2000/svg" viewBox="0 0 16 16"><defs><style>.cls-1{fill:#010101;}</style></defs><g id="Layer_2" data-name="Layer 2"><g id="Layer_1-2" data-name="Layer 1"><g id="lsi-bar-chart"><path class="cls-1" d="M1,4H3A1,1,0,0,1,4,5V16a0,0,0,0,1,0,0H0a0,0,0,0,1,0,0V5A1,1,0,0,1,1,4Z"/><path class="cls-1" d="M7,0H9a1,1,0,0,1,1,1V16a0,0,0,0,1,0,0H6a0,0,0,0,1,0,0V1A1,1,0,0,1,7,0Z"/><path class="cls-1" d="M13,8h2a1,1,0,0,1,1,1v7a0,0,0,0,1,0,0H12a0,0,0,0,1,0,0V9A1,1,0,0,1,13,8Z"/></g></g></g></svg>