<svg xmlns="http://www.w3.org/2000/svg" viewBox="0 0 16 16"><defs><style>.cls-1{fill:#010101;}</style></defs><g id="Layer_2" data-name="Layer 2"><g id="Layer_1-2" data-name="Layer 1"><path id="lsi-announce-dashboard" class="cls-1" d="M15,0H1A1,1,0,0,0,0,1V15a1,1,0,0,0,1,1H15a1,1,0,0,0,1-1V1A1,1,0,0,0,15,0Zm0,15H1V3H15ZM11,6.53a.49.49,0,0,1-.35-.15.5.5,0,0,1,0-.71l.82-.82a.5.5,0,0,1,.71,0,.48.48,0,0,1,0,.7l-.82.83A.51.51,0,0,1,11,6.53Zm1.7,1.86H11.56a.5.5,0,0,1-.5-.5.51.51,0,0,1,.5-.5h1.17a.5.5,0,0,1,.5.5A.5.5,0,0,1,12.73,8.39ZM9.16,6a.51.51,0,0,1-.5-.5V4.33a.5.5,0,0,1,.5-.5.5.5,0,0,1,.5.5V5.5A.5.5,0,0,1,9.16,6ZM11,10,6.24,12.39a.49.49,0,0,1-.57-.09l-.91-.91a.49.49,0,0,1-.09-.57L7,6.1A.51.51,0,0,1,7.83,6l.94.94A1,1,0,0,1,10,7a1,1,0,0,1,.1,1.27l1,1A.5.5,0,0,1,11,10ZM5.22,13.75a.5.5,0,0,1-.36-.14L3.45,12.19a.5.5,0,0,1,0-.7.5.5,0,0,1,.71,0L5.57,12.9a.5.5,0,0,1,0,.71A.47.47,0,0,1,5.22,13.75Z"/></g></g></svg>