<svg xmlns="http://www.w3.org/2000/svg" viewBox="0 0 16 16"><g id="Layer_2" data-name="Layer 2"><g id="Layer_1-2" data-name="Layer 1"><g id="lsi-gear-fix"><g id="lsi-settings"><path d="M7.38,0H8.62V1H7.38L7.2,2.4,7.12,3l-.62.19a5,5,0,0,0-.82.34l-.57.3-.51-.4L3.5,2.61l-.89.88L3.47,4.6l.4.51-.3.57a4.12,4.12,0,0,0-.34.83L3,7.12l-.65.08L1,7.37V8.62l1.39.18L3,8.88l.19.62a4.28,4.28,0,0,0,.34.82l.3.57-.4.51-.86,1.1.88.89,1.11-.86.51-.4.57.3a5,5,0,0,0,.82.34l.62.19.08.64L7.37,15H8.62l.18-1.4L8.87,13l.07,0,.84.84-.16,1.33a1,1,0,0,1-1,.89H7.38a1,1,0,0,1-1-.89l-.16-1.39a6.14,6.14,0,0,1-1-.4l-1.09.86a1,1,0,0,1-1.34-.08l-.88-.88a1,1,0,0,1-.08-1.34l.86-1.1a6.08,6.08,0,0,1-.41-1L.89,9.63a1,1,0,0,1-.89-1V7.38a1,1,0,0,1,.89-1l1.38-.17a6.08,6.08,0,0,1,.41-1l-.86-1.1A1,1,0,0,1,1.9,2.78l.88-.88a1,1,0,0,1,1.34-.08l1.09.86a6.14,6.14,0,0,1,1-.4L6.37.89A1,1,0,0,1,7.38,0Z"/><path d="M16,7.38V8.62a1,1,0,0,1-.89,1l-1.33.15-.84-.84,0-.06.64-.08L15,8.63V7.38L13.6,7.2,13,7.12l-.19-.61a5.74,5.74,0,0,0-.34-.83l-.3-.57.4-.51.86-1.1-.88-.89-1.11.86-.51.4-.57-.3a5.15,5.15,0,0,0-.83-.34L8.87,3,8.8,2.4,8.63,1V0a1,1,0,0,1,1,.89l.17,1.39a6,6,0,0,1,1,.4l1.1-.86a1,1,0,0,1,1.33.08l.88.88a1,1,0,0,1,.09,1.34l-.87,1.1a6.08,6.08,0,0,1,.41,1l1.39.17A1,1,0,0,1,16,7.38Z"/></g><path d="M8,5a2.19,2.19,0,0,1,.36,0,2.53,2.53,0,0,1,1.42.76c1.39,1.35,1.31,2.21,1.1,3a1,1,0,0,0,.26,1l3.45,3.44-1.42,1.42L9.73,11.14A1,1,0,0,0,9,10.85a.73.73,0,0,0-.25,0A3.39,3.39,0,0,1,8,11,3.08,3.08,0,0,1,5.78,9.78,2.69,2.69,0,0,1,5,8.36C5,8.24,5,8.12,5,8L6.45,9.49a1,1,0,0,0,.71.3h0a1,1,0,0,0,.7-.29L9.46,7.92a1,1,0,0,0,0-1.41L8,5H8M8,4a4.1,4.1,0,0,0-1,.15V5.37l1.8,1.84L7.17,8.79,5.37,7H4.15A3.79,3.79,0,0,0,4,8.5a3.67,3.67,0,0,0,1,2A4,4,0,0,0,8,12a3.81,3.81,0,0,0,1-.15l3.44,3.44a1,1,0,0,0,.71.3,1,1,0,0,0,.71-.3l1.41-1.41a1,1,0,0,0,0-1.42L11.85,9c.3-1.11.3-2.33-1.37-3.95a3.64,3.64,0,0,0-2-1L8,4Z"/></g></g></g></svg>