<svg xmlns="http://www.w3.org/2000/svg" xmlns:xlink="http://www.w3.org/1999/xlink" viewBox="0 0 14 16"><defs><style>.cls-1{fill:none;}.cls-2{clip-path:url(#clip-path);}</style><clipPath id="clip-path" transform="translate(0 0)"><rect class="cls-1" width="14" height="16"/></clipPath></defs><g id="Layer_2" data-name="Layer 2"><g id="Layer_1-2" data-name="Layer 1"><g id="lsi-edit"><g class="cls-2"><g class="cls-2"><path d="M5.94,13.47l-3.77-3a.5.5,0,0,1-.08-.7L9.31.92a.5.5,0,0,1,.3-.18L13.33,0A.52.52,0,0,1,14,.5L14,4.26a.54.54,0,0,1-.11.32L6.67,13.39a.53.53,0,0,1-.73.08m-2.6-3.4,2.74,2.2L12.76,4.1a.52.52,0,0,0,.11-.32l0-2.54-2.52.49a.49.49,0,0,0-.3.18Z" transform="translate(0 0)"/><path d="M1.35,11.84l3.39,2.72-.47.58L.87,12.42l.48-.58m0-.87a.5.5,0,0,0-.37.17l-.84,1a.46.46,0,0,0,.07.65L4,15.9a.45.45,0,0,0,.29.1.48.48,0,0,0,.36-.17l.84-1a.45.45,0,0,0-.07-.64L1.6,11.08A.48.48,0,0,0,1.31,11" transform="translate(0 0)"/></g></g></g></g></g></svg>