<svg xmlns="http://www.w3.org/2000/svg" viewBox="0 0 12 16"><defs><style>.cls-1{fill:#010101;}</style></defs><g id="Layer_2" data-name="Layer 2"><g id="Layer_1-2" data-name="Layer 1"><g id="lsi-form4"><path class="cls-1" d="M8.89,5.35h-6a.5.5,0,0,1,0-1h6a.5.5,0,0,1,0,1Z"/><path class="cls-1" d="M8.89,7.6h-6a.5.5,0,0,1-.5-.5.5.5,0,0,1,.5-.5h6a.5.5,0,0,1,.5.5A.5.5,0,0,1,8.89,7.6Z"/><path class="cls-1" d="M5.2,13.58a.52.52,0,0,1-.35-.14l-1.57-1.5a.5.5,0,0,1,0-.71.5.5,0,0,1,.71,0l1.21,1.15L7.66,9.73a.5.5,0,1,1,.73.69l-2.83,3a.51.51,0,0,1-.35.15Z"/><path class="cls-1" d="M11,1.3h-.92V1a1,1,0,0,0-1-1H2.7a1,1,0,0,0-1,1v.3H1a1,1,0,0,0-1,1V15a1,1,0,0,0,1,1H11a1,1,0,0,0,1-1V2.3A1,1,0,0,0,11,1.3ZM11,15H1V2.3h.7v.83h8.37V2.3H11Z"/></g></g></g></svg>