<svg xmlns="http://www.w3.org/2000/svg" width="24" height="24" viewBox="0 0 24 24">
  <g id="Freezer" transform="translate(8686 22873)">
    <rect id="Rectangle_17550" data-name="Rectangle 17550" width="24" height="24" transform="translate(-8686 -22873)" fill="none"/>
    <path id="Rectangle_17551" data-name="Rectangle 17551" d="M3,1.5A1.5,1.5,0,0,0,1.5,3V17A1.5,1.5,0,0,0,3,18.5H15A1.5,1.5,0,0,0,16.5,17V3A1.5,1.5,0,0,0,15,1.5H3M3,0H15a3,3,0,0,1,3,3V17a3,3,0,0,1-3,3H3a3,3,0,0,1-3-3V3A3,3,0,0,1,3,0Z" transform="translate(-8683 -22871)" fill="#662e6b"/>
    <path id="Line_901" data-name="Line 901" d="M.75,18.5H-.75V0H.75Z" transform="translate(-8673.8 -22870.5)" fill="#662e6b"/>
    <path id="Line_902" data-name="Line 902" d="M0,7.26a.75.75,0,0,1-.75-.75V0A.75.75,0,0,1,0-.75.75.75,0,0,1,.75,0V6.51A.75.75,0,0,1,0,7.26Z" transform="translate(-8670.8 -22864.246)" fill="#662e6b"/>
    <path id="Line_903" data-name="Line 903" d="M0,7.26a.75.75,0,0,1-.75-.75V0A.75.75,0,0,1,0-.75.75.75,0,0,1,.75,0V6.51A.75.75,0,0,1,0,7.26Z" transform="translate(-8676.8 -22864.246)" fill="#662e6b"/>
  </g>
</svg>
