<svg xmlns="http://www.w3.org/2000/svg" viewBox="0 0 14 16"><defs><style>.cls-1{fill:#010101;}</style></defs><g id="Layer_2" data-name="Layer 2"><g id="Layer_1-2" data-name="Layer 1"><g id="lsi-trash"><path class="cls-1" d="M5.89,13.73a.52.52,0,0,1-.54.48.51.51,0,0,1-.54-.48V6.22a.51.51,0,0,1,.54-.48.52.52,0,0,1,.54.48Zm3.3,0a.51.51,0,0,1-.54.48.52.52,0,0,1-.54-.48V6.22a.52.52,0,0,1,.54-.48.51.51,0,0,1,.54.48Z"/><path class="cls-1" d="M11.31,5v9.94A.57.57,0,0,1,11,15H3a.57.57,0,0,1-.27-.06V5h8.62m1.07-1H1.62V15c0,.53.6,1,1.34,1H11c.74,0,1.34-.44,1.34-1V4Z"/><path class="cls-1" d="M13.46,2H9.69V1.5A1.56,1.56,0,0,0,8.08,0H5.92A1.56,1.56,0,0,0,4.31,1.5V2H.54A.52.52,0,0,0,0,2.5.52.52,0,0,0,.54,3H13.46A.52.52,0,0,0,14,2.5.52.52,0,0,0,13.46,2ZM5.38,1.5A.52.52,0,0,1,5.92,1H8.08a.52.52,0,0,1,.54.5V2H5.38Z"/></g></g></g></svg>