<svg xmlns="http://www.w3.org/2000/svg" xmlns:xlink="http://www.w3.org/1999/xlink" viewBox="0 0 16 16"><defs><style>.cls-1{fill:none;}.cls-2{clip-path:url(#clip-path);}</style><clipPath id="clip-path"><rect class="cls-1" width="16" height="16"/></clipPath></defs><g id="Layer_2" data-name="Layer 2"><g id="Layer_1-2" data-name="Layer 1"><g id="lsi-doublepannel"><g class="cls-2"><g class="cls-2"><path d="M5,15H1V1H5ZM5,0H1A1,1,0,0,0,0,1V15a1,1,0,0,0,1,1H5a1,1,0,0,0,1-1V1A1,1,0,0,0,5,0"/><path d="M15,15H11V1h4ZM15,0H11a1,1,0,0,0-1,1V15a1,1,0,0,0,1,1h4a1,1,0,0,0,1-1V1a1,1,0,0,0-1-1"/><path d="M8,16a.48.48,0,0,1-.5-.47V.47a.5.5,0,0,1,1,0V15.53A.48.48,0,0,1,8,16"/></g></g></g></g></g></svg>