<svg id="List_View" data-name="List View" xmlns="http://www.w3.org/2000/svg" width="24" height="24" viewBox="0 0 24 24">
  <g id="invisible_box" data-name="invisible box">
    <rect id="Rectangle_17536" data-name="Rectangle 17536" width="24" height="24" fill="none"/>
  </g>
  <g id="icons_Q2" data-name="icons Q2" transform="translate(3 4.999)">
    <path id="Path_18006" data-name="Path 18006" d="M6,17.364H6a1.052,1.052,0,0,1,1.052-1.052H8.1a1.052,1.052,0,0,1,1.052,1.052h0A1.052,1.052,0,0,1,8.1,18.416H7.052A1.052,1.052,0,0,1,6,17.364ZM7.052,12.1H8.1a1.052,1.052,0,0,0,1.052-1.052h0A1.052,1.052,0,0,0,8.1,10H7.052A1.052,1.052,0,0,0,6,11.052H6A1.052,1.052,0,0,0,7.052,12.1Zm0,12.624H8.1a1.052,1.052,0,0,0,1.052-1.052h0A1.052,1.052,0,0,0,8.1,22.624H7.052A1.052,1.052,0,0,0,6,23.676H6A1.052,1.052,0,0,0,7.052,24.728Zm5.786-6.312h10.52a1.052,1.052,0,0,0,1.052-1.052h0a1.052,1.052,0,0,0-1.052-1.052H12.838a1.052,1.052,0,0,0-1.052,1.052h0A1.052,1.052,0,0,0,12.838,18.416Zm0-6.312h10.52a1.052,1.052,0,0,0,1.052-1.052h0A1.052,1.052,0,0,0,23.358,10H12.838a1.052,1.052,0,0,0-1.052,1.052h0A1.052,1.052,0,0,0,12.838,12.1Zm0,12.624h10.52a1.052,1.052,0,0,0,1.052-1.052h0a1.052,1.052,0,0,0-1.052-1.052H12.838a1.052,1.052,0,0,0-1.052,1.052h0A1.052,1.052,0,0,0,12.838,24.728Z" transform="translate(-6 -10)" fill="#662e6b"/>
  </g>
</svg>
