<svg xmlns="http://www.w3.org/2000/svg" xmlns:xlink="http://www.w3.org/1999/xlink" viewBox="0 0 16 16"><defs><style>.cls-1{fill:none;}.cls-2{clip-path:url(#clip-path);}</style><clipPath id="clip-path" transform="translate(0 0)"><rect class="cls-1" width="16" height="16"/></clipPath></defs><g id="Layer_2" data-name="Layer 2"><g id="Layer_1-2" data-name="Layer 1"><g id="lsi-sendto"><g class="cls-2"><g class="cls-2"><path d="M8,11.33a.48.48,0,0,1-.49-.47V1.51a.49.49,0,0,1,1,0v9.35a.48.48,0,0,1-.49.47" transform="translate(0 0)"/><path d="M5,3.9a.52.52,0,0,1-.35-.14.46.46,0,0,1,0-.67L7.7.12a.45.45,0,0,1,.61,0l3,2.95a.45.45,0,0,1,0,.67.51.51,0,0,1-.69,0L8,1.17,5.32,3.76A.54.54,0,0,1,5,3.9" transform="translate(0 0)"/><path d="M13.06,5.2H10.48v1h2.58A1.92,1.92,0,0,1,15,8v5.13a1.91,1.91,0,0,1-1.95,1.88H2.94A1.91,1.91,0,0,1,1,13.17V8a1.92,1.92,0,0,1,2-1.89H5.51v-1H2.94A2.9,2.9,0,0,0,0,8v5.13A2.89,2.89,0,0,0,2.94,16H13.06A2.89,2.89,0,0,0,16,13.17V8A2.9,2.9,0,0,0,13.06,5.2" transform="translate(0 0)"/></g></g></g></g></g></svg>