<svg xmlns="http://www.w3.org/2000/svg" xmlns:xlink="http://www.w3.org/1999/xlink" viewBox="0 0 16 16"><defs><style>.cls-1{fill:none;}.cls-2{clip-path:url(#clip-path);}</style><clipPath id="clip-path" transform="translate(0 0)"><rect class="cls-1" width="16" height="16"/></clipPath></defs><g id="Layer_2" data-name="Layer 2"><g id="Layer_1-2" data-name="Layer 1"><g id="lsi-curves"><g class="cls-2"><g class="cls-2"><path d="M15,0H1A1,1,0,0,0,0,1V15a1,1,0,0,0,.59.9v0l.07,0A.93.93,0,0,0,1,16H15a1,1,0,0,0,1-1V1a1,1,0,0,0-1-1M13.27,1a14.21,14.21,0,0,0-2.55,1.69V1Zm-3,0V3.14l-.1.09a9,9,0,0,0-1.4,2h-3V1ZM5.73,10.24V5.76H8.46C8.1,6.48,7.75,7.27,7.41,8s-.67,1.51-1,2.2Zm.41.5c-.13.25-.27.49-.41.71v-.71Zm2.19-2.3c.4-.93.82-1.86,1.25-2.68h.64v4.48H7.51c.28-.58.55-1.19.82-1.8M9.86,5.26q.18-.3.36-.57v.57ZM1,1H5.23V5.26H1ZM1,5.76H5.23v4.48H1Zm4.23,5v1.43a3.87,3.87,0,0,1-.32.37A9.84,9.84,0,0,1,1,14.8V10.74ZM3.16,15a10.07,10.07,0,0,0,2.07-1.4V15Zm2.57,0V13.11a9.79,9.79,0,0,0,1.53-2.37h3V15ZM15,15H10.72V10.74H15Zm0-4.76H10.72V5.76H15Zm-4.28-5V4.06l.11-.12A13.52,13.52,0,0,1,15,1.3v4Z" transform="translate(0 0)"/></g></g></g></g></g></svg>