<svg xmlns="http://www.w3.org/2000/svg" xmlns:xlink="http://www.w3.org/1999/xlink" viewBox="0 0 16 12"><defs><style>.cls-1{fill:none;}.cls-2{clip-path:url(#clip-path);}.cls-3{fill:#323232;}</style><clipPath id="clip-path" transform="translate(0 0)"><rect class="cls-1" width="16" height="12"/></clipPath></defs><g id="Layer_2" data-name="Layer 2"><g id="Layer_1-2" data-name="Layer 1"><g id="lsi-FOV"><g class="cls-2"><g class="cls-2"><path class="cls-3" d="M13.06,3.64V8.36a1,1,0,0,1-1,.93H3.94a1,1,0,0,1-1-.93V3.64a1,1,0,0,1,1-.93h8.12a1,1,0,0,1,1,.93" transform="translate(0 0)"/><path d="M14.59,12H1.41A1.4,1.4,0,0,1,0,10.61V1.38A1.4,1.4,0,0,1,1.41,0H14.59A1.4,1.4,0,0,1,16,1.38v9.23A1.4,1.4,0,0,1,14.59,12M1.41.92a.47.47,0,0,0-.47.46v9.23a.47.47,0,0,0,.47.47H14.59a.47.47,0,0,0,.47-.47V1.38a.47.47,0,0,0-.47-.46Z" transform="translate(0 0)"/></g></g></g></g></g></svg>