<svg xmlns="http://www.w3.org/2000/svg" xmlns:xlink="http://www.w3.org/1999/xlink" viewBox="0 0 15 17"><defs><style>.cls-1{fill:none;}.cls-2{clip-path:url(#clip-path);}</style><clipPath id="clip-path" transform="translate(0 0)"><rect class="cls-1" width="15" height="17"/></clipPath></defs><g id="Layer_2" data-name="Layer 2"><g id="Layer_1-2" data-name="Layer 1"><g id="lsi-add-drive"><g class="cls-2"><g class="cls-2"><path d="M1.07,14.37v.26l.09-.69a1.57,1.57,0,0,0-.09.43" transform="translate(0 0)"/><path d="M0,14.37v.24l.11-.92a2,2,0,0,0-.11.68" transform="translate(0 0)"/><path d="M15,14.19l0-.28L13.39.8A1,1,0,0,0,12.34,0H2.7A1,1,0,0,0,1.65.8L.11,13.7,0,14.61v.12A2.31,2.31,0,0,0,2.34,17H12.66A2.31,2.31,0,0,0,15,14.73v-.36a1.09,1.09,0,0,0,0-.18M2.71,1.06h9.63l1.34,11.27a2.25,2.25,0,0,0-1-.24H2.34a2.37,2.37,0,0,0-1,.22Zm11.2,13.67a1.23,1.23,0,0,1-1.25,1.21H2.34a1.23,1.23,0,0,1-1.25-1.21h0v-.36a1.07,1.07,0,0,1,.09-.43,1.21,1.21,0,0,1,1.16-.78H12.66a1.24,1.24,0,0,1,1.23,1,2.11,2.11,0,0,1,0,.25Z" transform="translate(0 0)"/><path d="M11.5,13.92a.62.62,0,0,0-.62.62.61.61,0,0,0,.62.61.61.61,0,0,0,.61-.61.61.61,0,0,0-.61-.62" transform="translate(0 0)"/><path d="M7.52,2.53A3.84,3.84,0,0,0,3.63,6.3a3.84,3.84,0,0,0,3.89,3.77A3.82,3.82,0,0,0,11.41,6.3,3.83,3.83,0,0,0,7.52,2.53M9.89,6.69H7.94v1.9H7.11V6.69H5.17V5.91H7.11V4h.81v1.9h2Z" transform="translate(0 0)"/></g></g></g></g></g></svg>