<svg xmlns="http://www.w3.org/2000/svg" xmlns:xlink="http://www.w3.org/1999/xlink" viewBox="0 0 16 12"><defs><style>.cls-1{fill:none;}.cls-2{clip-path:url(#clip-path);}</style><clipPath id="clip-path" transform="translate(0 0)"><rect class="cls-1" width="16" height="12"/></clipPath></defs><g id="Layer_2" data-name="Layer 2"><g id="Layer_1-2" data-name="Layer 1"><g id="lsi-menu"><g class="cls-2"><g class="cls-2"><path d="M15.26,1.5H5.85a.75.75,0,0,1,0-1.5h9.41A.75.75,0,0,1,16,.75a.74.74,0,0,1-.74.75" transform="translate(0 0)"/><path d="M15.28,12H6.51a.75.75,0,0,1,0-1.5h8.77a.75.75,0,0,1,0,1.5" transform="translate(0 0)"/><path d="M15.26,6.42H10.13a.75.75,0,0,1,0-1.5h5.13a.75.75,0,0,1,0,1.5" transform="translate(0 0)"/><path d="M8,6.63a1.67,1.67,0,0,0-2.18-.8,9.28,9.28,0,0,0-.8-2.17C3.8,1.26,1.21-.32.55.05S-.25,3.56,1,6a8.84,8.84,0,0,0,1.3,1.89,1.83,1.83,0,0,0-.56,2.36L2.66,12,3.5,8.9a1.78,1.78,0,0,0,1.77.26A1.94,1.94,0,0,0,6,7.47L9,8.42ZM2.92,4.46A1.12,1.12,0,0,1,1.37,4a1.25,1.25,0,0,1,.45-1.64,1.13,1.13,0,0,1,1.55.51,1.22,1.22,0,0,1-.45,1.63" transform="translate(0 0)"/></g></g></g></g></g></svg>