<svg xmlns="http://www.w3.org/2000/svg" xmlns:xlink="http://www.w3.org/1999/xlink" viewBox="0 0 16.01 16"><defs><style>.cls-1{fill:none;}.cls-2{clip-path:url(#clip-path);}</style><clipPath id="clip-path" transform="translate(0 0)"><rect class="cls-1" width="16.01" height="16"/></clipPath></defs><g id="Layer_2" data-name="Layer 2"><g id="Layer_1-2" data-name="Layer 1"><g id="lsi-filter"><g class="cls-2"><g class="cls-2"><path d="M9.83,16h0a.53.53,0,0,1-.51-.55V6.94a1.13,1.13,0,0,1,.29-.77L14.25,1.1H1.75L6.64,6.44a1.1,1.1,0,0,1,.29.77v4.7l1.38,1.5a.58.58,0,0,1,0,.78.47.47,0,0,1-.67.05l0-.05L6.07,12.52a.49.49,0,0,1-.14-.38V7.59A1,1,0,0,0,5.69,7L.15.91a.53.53,0,0,1,0-.76A.51.51,0,0,1,.5,0h15a.55.55,0,0,1,.5.59.6.6,0,0,1-.15.32L10.57,6.68a.91.91,0,0,0-.23.63v8.14a.53.53,0,0,1-.51.55Z" transform="translate(0 0)"/></g></g></g></g></g></svg>