<svg xmlns="http://www.w3.org/2000/svg" xmlns:xlink="http://www.w3.org/1999/xlink" viewBox="0 0 15.2 16"><defs><style>.cls-1{fill:none;}.cls-2{clip-path:url(#clip-path);}</style><clipPath id="clip-path" transform="translate(0 0)"><rect class="cls-1" width="15.2" height="16"/></clipPath></defs><g id="Layer_2" data-name="Layer 2"><g id="Layer_1-2" data-name="Layer 1"><g id="lsi-instrumentation"><g class="cls-2"><g class="cls-2"><path d="M2,8.54a.76.76,0,0,0,.08.11l0,0a.35.35,0,0,1,0-.08" transform="translate(0 0)"/><path d="M3,9a1,1,0,0,1-.49,0s0,0,0,0A1,1,0,0,0,3,9" transform="translate(0 0)"/><path d="M5.53,6.63a2.84,2.84,0,0,0-1.7-1.45A3.15,3.15,0,0,0,2.92,5,2.92,2.92,0,0,0,2,10.72a3.07,3.07,0,0,0,.9.14,2.92,2.92,0,0,0,2.78-2,2.86,2.86,0,0,0-.16-2.22M3.86,8.27s0,0,0,.06a.56.56,0,0,1-.09.17A1,1,0,0,1,3,9a1,1,0,0,1-.54-.06,1.07,1.07,0,0,1-.41-.28A.76.76,0,0,1,2,8.54a1,1,0,0,1-.08-.14.58.58,0,0,1,0-.14.83.83,0,0,1,0-.15,1,1,0,0,1,0-.17,1.1,1.1,0,0,1,0-.18.61.61,0,0,1,0-.13.14.14,0,0,1,0-.06A.54.54,0,0,1,2,7.39.85.85,0,0,1,2.41,7a.85.85,0,0,1,.28-.1,1,1,0,0,1,.5,0,1.06,1.06,0,0,1,.33.18,1,1,0,0,1,.28.38A1,1,0,0,1,3.9,8a1.06,1.06,0,0,1,0,.31" transform="translate(0 0)"/><path d="M5.2,5.18a3.48,3.48,0,0,1,1,1.18A3.27,3.27,0,0,1,6.52,7.5l2.2-1.79.4.49a.62.62,0,0,0,.88.09.63.63,0,0,0,.09-.89l-.54-.65L11,4.91a.6.6,0,0,0,.69-.47v0a.77.77,0,0,0,.07-.27l.16-1.76A.49.49,0,1,0,11,2a.57.57,0,0,0,0,.29l-.13,1.51-2.2-.2-.33-.4L8.53,1,10,1.18a.59.59,0,0,0,.69-.4c0-.25-.24-.5-.58-.54L8.37,0a.72.72,0,0,0-.29,0h0A.6.6,0,0,0,7.47.6L7.34,2l-.45-.56a.63.63,0,1,0-1,.8h0l.4.49L4.1,4.57h0a5,5,0,0,1,1.08.61" transform="translate(0 0)"/><path d="M15.08,15.54,12.51,12.3a1.13,1.13,0,0,0-.73-.43H9.16L6.37,9.17a3.59,3.59,0,0,1-2.9,2.25l-.27,0L5,13.26,3.18,15.51c-.18.22-.12.31-.09.38s.15.11.44.11H14.74c.29,0,.4,0,.43-.11s.09-.13-.09-.35" transform="translate(0 0)"/></g></g></g></g></g></svg>