<svg xmlns="http://www.w3.org/2000/svg" viewBox="0 0 16 16"><defs><style>.cls-1{fill:#010101;}</style></defs><g id="Layer_2" data-name="Layer 2"><g id="Layer_1-2" data-name="Layer 1"><g id="lsi-deep-zoom"><path class="cls-1" d="M9,0A7,7,0,0,0,2,7a6.87,6.87,0,0,0,1.72,4.58L.15,15.15a.48.48,0,0,0,0,.7A.49.49,0,0,0,.5,16a.47.47,0,0,0,.35-.15l3.57-3.57A6.87,6.87,0,0,0,9,14,7,7,0,0,0,9,0ZM9,13a6,6,0,1,1,6-6A6,6,0,0,1,9,13Z"/><rect class="cls-1" x="4.97" y="3" width="2" height="2"/><rect class="cls-1" x="7.97" y="3" width="2" height="2"/><rect class="cls-1" x="10.97" y="3" width="2" height="2"/><rect class="cls-1" x="4.97" y="6.03" width="2" height="2"/><rect class="cls-1" x="7.97" y="6.03" width="2" height="2"/><rect class="cls-1" x="10.97" y="6.03" width="2" height="2"/><rect class="cls-1" x="4.97" y="9.06" width="2" height="2"/><rect class="cls-1" x="7.97" y="9.06" width="2" height="2"/><rect class="cls-1" x="10.97" y="9.06" width="2" height="2"/></g></g></g></svg>