<svg xmlns="http://www.w3.org/2000/svg" viewBox="0 0 16 16"><defs><style>.cls-1{fill:#010101;}</style></defs><g id="Layer_2" data-name="Layer 2"><g id="Layer_1-2" data-name="Layer 1"><g id="lsi-skip-forward"><path class="cls-1" d="M3,1V15H1V1H3M3,0H1A1,1,0,0,0,0,1V15a1,1,0,0,0,1,1H3a1,1,0,0,0,1-1V1A1,1,0,0,0,3,0Z"/><path class="cls-1" d="M7.07,1.16h0m0,0L14.94,8,7.06,14.84V1.16M7.07,0A1.11,1.11,0,0,0,6,1.16V14.84A1.11,1.11,0,0,0,7.07,16a1,1,0,0,0,.66-.26L15.6,8.9a1.22,1.22,0,0,0,0-1.8L7.73.26A1,1,0,0,0,7.07,0Z"/></g></g></g></svg>