<svg xmlns="http://www.w3.org/2000/svg" viewBox="0 0 16 16"><defs><style>.cls-1{fill:#231f20;}</style></defs><g id="Layer_2" data-name="Layer 2"><g id="Layer_1-2" data-name="Layer 1"><g id="lsi-help"><path class="cls-1" d="M8,1A7,7,0,1,1,1,8,7,7,0,0,1,8,1M8,0a8,8,0,1,0,8,8A8,8,0,0,0,8,0Z"/><path class="cls-1" d="M7.08,10a3.86,3.86,0,0,1,.21-1.4,3.78,3.78,0,0,1,.86-1.14A6.33,6.33,0,0,0,9,6.58a1.53,1.53,0,0,0,.26-.87,1.33,1.33,0,0,0-.3-.94A1.19,1.19,0,0,0,8,4.44a1.28,1.28,0,0,0-.92.32,1.11,1.11,0,0,0-.34.86H5.16A2.38,2.38,0,0,1,6,3.77,3.05,3.05,0,0,1,8,3.09a2.94,2.94,0,0,1,2.06.68,2.39,2.39,0,0,1,.75,1.88,3.09,3.09,0,0,1-1,2.12L9,8.57A2.17,2.17,0,0,0,8.57,10ZM7,12.06a.86.86,0,0,1,.25-.63.89.89,0,0,1,.66-.24.86.86,0,0,1,.66.25.88.88,0,0,1,0,1.22.87.87,0,0,1-.67.25.87.87,0,0,1-.67-.25A.81.81,0,0,1,7,12.06Z"/></g></g></g></svg>