<svg xmlns="http://www.w3.org/2000/svg" xmlns:xlink="http://www.w3.org/1999/xlink" viewBox="0 0 16 16"><defs><style>.cls-1{fill:none;}.cls-2{clip-path:url(#clip-path);}</style><clipPath id="clip-path" transform="translate(0 0)"><rect class="cls-1" width="16" height="16"/></clipPath></defs><g id="Layer_2" data-name="Layer 2"><g id="Layer_1-2" data-name="Layer 1"><g id="lsi-bell"><g class="cls-2"><g class="cls-2"><path d="M15.12,11.68a5.17,5.17,0,0,1-2-4.11V6.18a4.65,4.65,0,0,0-1.42-3.34A5.1,5.1,0,0,0,10.56,2,2.28,2.28,0,0,0,6,2,4.71,4.71,0,0,0,3.4,6.18V7.41c0,1-1,2.58-2.73,4.29a1.59,1.59,0,0,0-.58,1.7c.35.82,1.32.83,2.1.84H4.71a4.09,4.09,0,0,0,6.72,0H13.9c.72,0,1.75,0,2-.88s-.52-1.45-.82-1.68M4.4,7.41V6.18A3.78,3.78,0,0,1,7.09,2.6.92.92,0,0,1,7,2.22a1.28,1.28,0,0,1,2.55,0,1.16,1.16,0,0,1-.08.42,3.92,3.92,0,0,1,1.45.89,3.67,3.67,0,0,1,1.13,2.65V7.57A6.08,6.08,0,0,0,13.15,11H2.62A6.61,6.61,0,0,0,4.4,7.41m9.52,5.86H10.84a3.07,3.07,0,0,1-5.54,0H2.2c-1.11,0-1.6-.11-.82-.89.13-.12.27-.27.41-.42H13.94a6.68,6.68,0,0,0,.57.49c.87.66.52.8-.59.82" transform="translate(0 0)"/></g></g></g></g></g></svg>