<svg xmlns="http://www.w3.org/2000/svg" viewBox="0 0 16 16"><defs><style>.cls-1{fill:#010101;}</style></defs><g id="Layer_2" data-name="Layer 2"><g id="Layer_1-2" data-name="Layer 1"><path id="lsi-catalog" class="cls-1" d="M6.44,12.36H3.67a.67.67,0,1,1,0-1.33H6.44a.67.67,0,0,1,0,1.33ZM9.09,10.7a1,1,0,1,0,1,1A1,1,0,0,0,9.09,10.7Zm3.19,0a1,1,0,1,0,1,1A1,1,0,0,0,12.28,10.7ZM16,8v6.16A1.84,1.84,0,0,1,14.15,16H1.84A1.84,1.84,0,0,1,0,14.16V8s0,0,0-.08,0,0,0-.07L1.86.47A.62.62,0,0,1,2.46,0H13.53a.62.62,0,0,1,.6.47L16,7.85v.07S16,8,16,8ZM1.4,7.39H11.79V6H4.21V7.38H2.87v-2a.67.67,0,0,1,.67-.67h.29V2.8a.66.66,0,0,1,.66-.67h7a.67.67,0,0,1,.67.67V4.69h.28a.67.67,0,0,1,.67.67v2h1.47L13.05,1.23H2.94ZM5.16,3.47V4.69h5.67V3.47Zm9.61,5.15H1.23v5.54a.61.61,0,0,0,.61.61H14.15a.61.61,0,0,0,.62-.61Z"/></g></g></svg>