<svg xmlns="http://www.w3.org/2000/svg" xmlns:xlink="http://www.w3.org/1999/xlink" viewBox="0 0 12 16.01"><defs><style>.cls-1{fill:none;}.cls-2{clip-path:url(#clip-path);}</style><clipPath id="clip-path" transform="translate(0 0)"><rect class="cls-1" width="12" height="16.01"/></clipPath></defs><g id="Layer_2" data-name="Layer 2"><g id="Layer_1-2" data-name="Layer 1"><g id="lsi-pdf"><g class="cls-2"><g class="cls-2"><path d="M12,4.59h0L7.4,0H.47A.47.47,0,0,0,0,.47V15.54A.47.47,0,0,0,.47,16H11.53a.47.47,0,0,0,.47-.47V4.6ZM7.5,1.52l3,3H8A.47.47,0,0,1,7.5,4ZM11,15H1V1H6.5V4A1.47,1.47,0,0,0,8,5.51h3Z" transform="translate(0 0)"/><path d="M3.11,12.78H3a.4.4,0,0,1-.34-.33c-.08-.38.28-.89,1-1.35a5.34,5.34,0,0,1,.48-.26c.35-.95.82-2.37,1.15-3.49a3.09,3.09,0,0,1-.43-2q.15-.86.57-.84c.37,0,.58.59.62,1.11a7,7,0,0,1-.36,1.66,6.29,6.29,0,0,0,.9,1.15A10.12,10.12,0,0,0,8.1,9.75a5.87,5.87,0,0,1,1.38,0,.89.89,0,0,1,.79.55.45.45,0,0,1-.14.47c-.23.2-.65.19-1.15,0a8.34,8.34,0,0,1-1-.57,12.83,12.83,0,0,0-1.86.34,9.52,9.52,0,0,0-1.74.63,7.59,7.59,0,0,1-.39,1,1.29,1.29,0,0,1-.9.72m.8-1.41-.08.05c-.73.48-.83.85-.81,1s0,0,0,0,.38-.11.64-.54a3.2,3.2,0,0,0,.22-.49m4.71-1.28c.19.11.37.21.52.28.44.2.68.15.75.09a.09.09,0,0,0,0-.08c0-.08-.15-.23-.49-.28a4,4,0,0,0-.8,0M5.52,7.78c-.28.94-.64,2-.94,2.84A10.3,10.3,0,0,1,6,10.11a13.83,13.83,0,0,1,1.51-.29,9.58,9.58,0,0,1-2-2M5.38,4.9a1,1,0,0,0-.18.52A2.53,2.53,0,0,0,5.41,6.8a5.53,5.53,0,0,0,.24-1.14,1.1,1.1,0,0,0-.27-.76" transform="translate(0 0)"/></g></g></g></g></g></svg>