<svg xmlns="http://www.w3.org/2000/svg" viewBox="0 0 16 12"><defs><style>.cls-1{fill:#010101;}</style></defs><g id="Layer_2" data-name="Layer 2"><g id="Layer_1-2" data-name="Layer 1"><path id="lsi-user-list" class="cls-1" d="M11,1.34A1.21,1.21,0,1,1,9.8,2.55,1.21,1.21,0,0,1,11,1.34M11,0a2.55,2.55,0,1,0,2.53,2.55A2.55,2.55,0,0,0,11,0Zm.77,6.48H10.23a4.17,4.17,0,0,0-1.46.28,4.52,4.52,0,0,1,.9.79,2.6,2.6,0,0,1,.56-.06h1.54A3.25,3.25,0,0,1,15,10.74V11H9.27a.5.5,0,0,0-.5.51h0a.5.5,0,0,0,.5.5H15.5a.5.5,0,0,0,.5-.5v-.76A4.25,4.25,0,0,0,11.77,6.48ZM8,11.07H8a.67.67,0,0,0-.67-.67H.67a.67.67,0,0,0-.67.67H0a.67.67,0,0,0,.67.67H7.33A.67.67,0,0,0,8,11.07ZM8,1H8A.66.66,0,0,0,7.33.34H.67A.66.66,0,0,0,0,1H0a.67.67,0,0,0,.67.67H7.33A.67.67,0,0,0,8,1ZM8,4.36H8a.67.67,0,0,0-.67-.67H.67A.67.67,0,0,0,0,4.36H0A.67.67,0,0,0,.67,5H7.33A.67.67,0,0,0,8,4.36ZM8,7.71H8A.67.67,0,0,0,7.33,7H.67A.67.67,0,0,0,0,7.71H0a.67.67,0,0,0,.67.67H7.33A.67.67,0,0,0,8,7.71Z"/></g></g></svg>