<svg xmlns="http://www.w3.org/2000/svg" width="24" height="24" viewBox="0 0 24 24">
  <g id="Tray" transform="translate(22874 -8662) rotate(-90)">
    <rect id="Rectangle_17550" data-name="Rectangle 17550" width="24" height="24" transform="translate(-8686 -22874)" fill="none"/>
    <path id="Rectangle_17551" data-name="Rectangle 17551" d="M3,1.5A1.5,1.5,0,0,0,1.5,3V21A1.5,1.5,0,0,0,3,22.5H15A1.5,1.5,0,0,0,16.5,21V3A1.5,1.5,0,0,0,15,1.5H3M3,0H15a3,3,0,0,1,3,3V21a3,3,0,0,1-3,3H3a3,3,0,0,1-3-3V3A3,3,0,0,1,3,0Z" transform="translate(-8683 -22874)" fill="#662e6b"/>
    <path id="Path_18069" data-name="Path 18069" d="M0,0H16" transform="translate(-8682 -22867.5)" fill="#58676e"/>
    <path id="Path_18069_-_Outline" data-name="Path 18069 - Outline" d="M16,.75H0V-.75H16Z" transform="translate(-8682 -22867.5)" fill="#662e6b"/>
    <path id="Line_919" data-name="Line 919" d="M16,.75H0V-.75H16Z" transform="translate(-8682 -22862)" fill="#662e6b"/>
    <path id="Line_925" data-name="Line 925" d="M16,.75H0V-.75H16Z" transform="translate(-8682 -22856.5)" fill="#662e6b"/>
  </g>
</svg>
