<svg xmlns="http://www.w3.org/2000/svg" xmlns:xlink="http://www.w3.org/1999/xlink" viewBox="0 0 13.9 16"><defs><style>.cls-1{fill:none;}.cls-2{clip-path:url(#clip-path);}</style><clipPath id="clip-path" transform="translate(0 0)"><rect class="cls-1" width="13.9" height="16"/></clipPath></defs><g id="Layer_2" data-name="Layer 2"><g id="Layer_1-2" data-name="Layer 1"><g id="lsi-driver"><g class="cls-2"><g class="cls-2"><path d="M1,13.52v.25l.08-.65a1.06,1.06,0,0,0-.08.4" transform="translate(0 0)"/><path d="M0,13.52v.23l.1-.86a1.89,1.89,0,0,0-.1.63" transform="translate(0 0)"/><path d="M13.89,13.35a2.06,2.06,0,0,0,0-.26L12.41.75a1,1,0,0,0-1-.75H2.5a1,1,0,0,0-1,.75L.1,12.89l-.1.86v.11A2.16,2.16,0,0,0,2.17,16h9.56a2.16,2.16,0,0,0,2.17-2.14v-.34a1,1,0,0,0,0-.17M2.51,1h8.92l1.25,10.6a2.14,2.14,0,0,0-.95-.22H2.17a2.08,2.08,0,0,0-.9.2ZM12.89,13.86A1.15,1.15,0,0,1,11.73,15H2.17A1.15,1.15,0,0,1,1,13.86v-.34a1.06,1.06,0,0,1,.08-.4,1.15,1.15,0,0,1,1.08-.74h9.56a1.16,1.16,0,0,1,1.14.91,1.64,1.64,0,0,1,0,.23Z" transform="translate(0 0)"/><path d="M10.65,13.1a.59.59,0,0,0-.59.59.59.59,0,0,0,1.17,0,.59.59,0,0,0-.58-.59" transform="translate(0 0)"/></g></g></g></g></g></svg>