<svg xmlns="http://www.w3.org/2000/svg" viewBox="0 0 12 16"><defs><style>.cls-1{fill:#010101;}</style></defs><g id="Layer_2" data-name="Layer 2"><g id="Layer_1-2" data-name="Layer 1"><g id="lsi-location"><path class="cls-1" d="M5.27,0A5.94,5.94,0,0,0,.07,4.9,5.57,5.57,0,0,0,1.59,9.67a15.69,15.69,0,0,1,3.73,5.66l.09.26a.63.63,0,0,0,1.18,0,17.22,17.22,0,0,1,3.88-6A5.6,5.6,0,0,0,12,5.77,5.92,5.92,0,0,0,5.27,0ZM6,8.65A2.94,2.94,0,0,1,3,5.77,2.94,2.94,0,0,1,6,2.88,2.94,2.94,0,0,1,9,5.77,2.94,2.94,0,0,1,6,8.65Z"/></g></g></g></svg>