<svg xmlns="http://www.w3.org/2000/svg" width="24" height="24" viewBox="0 0 24 24">
  <g id="Last_Page" data-name="Last Page" transform="translate(8909 21382)">
    <g id="Right" transform="translate(28 52)">
      <rect id="Rectangle_16228" data-name="Rectangle 16228" width="24" height="24" rx="4" transform="translate(-8937 -21434)" fill="none"/>
    </g>
    <g id="Group_20323" data-name="Group 20323" transform="translate(-3.096 0.001)">
      <g id="Group_20323-2" data-name="Group 20323" transform="translate(-8890.25 -21377)">
        <path id="Path_12194" data-name="Path 12194" d="M.867,14.021A.829.829,0,0,1,0,13.242V.78A.829.829,0,0,1,.867,0a.829.829,0,0,1,.867.78V13.242A.829.829,0,0,1,.867,14.021Z" fill="#662e6b"/>
      </g>
      <g id="icons_Q2" data-name="icons Q2" transform="translate(-8899.904 -21376.975)">
        <path id="Path_12549" data-name="Path 12549" d="M5.6,6.975.319,12.256a.947.947,0,0,0,.1,1.495,1.046,1.046,0,0,0,1.345-.1L7.693,7.673a.947.947,0,0,0,0-1.4L1.764.3A1.046,1.046,0,0,0,.419.2a.947.947,0,0,0-.1,1.495Z" transform="translate(0)" fill="#662e6b"/>
      </g>
    </g>
  </g>
</svg>
