<svg xmlns="http://www.w3.org/2000/svg" xmlns:xlink="http://www.w3.org/1999/xlink" viewBox="0 0 16 16"><defs><style>.cls-1{fill:none;}.cls-2{clip-path:url(#clip-path);}</style><clipPath id="clip-path" transform="translate(0 0)"><rect class="cls-1" width="16" height="16"/></clipPath></defs><g id="Layer_2" data-name="Layer 2"><g id="Layer_1-2" data-name="Layer 1"><g id="lsi-list-view"><g class="cls-2"><g class="cls-2"><path d="M15.47,16H.53a.54.54,0,0,1,0-1.07H15.47a.54.54,0,0,1,0,1.07" transform="translate(0 0)"/><path d="M15.47,1.07H.53A.54.54,0,0,1,.53,0H15.47a.54.54,0,0,1,0,1.07" transform="translate(0 0)"/><path d="M11.47,12.27H.53a.54.54,0,0,1,0-1.07H11.47a.54.54,0,0,1,0,1.07" transform="translate(0 0)"/><path d="M11.47,4.8H.53a.54.54,0,0,1,0-1.07H11.47a.54.54,0,0,1,0,1.07" transform="translate(0 0)"/><path d="M13.47,8.53H.53a.53.53,0,0,1,0-1.06H13.47a.53.53,0,0,1,0,1.06" transform="translate(0 0)"/></g></g></g></g></g></svg>