<svg xmlns="http://www.w3.org/2000/svg" xmlns:xlink="http://www.w3.org/1999/xlink" viewBox="0 0 16 16"><defs><style>.cls-1{fill:none;}.cls-2{clip-path:url(#clip-path);}</style><clipPath id="clip-path" transform="translate(0)"><rect class="cls-1" width="16" height="16"/></clipPath></defs><g id="Layer_2" data-name="Layer 2"><g id="Layer_1-2" data-name="Layer 1"><g id="lsi-list-filter"><g class="cls-2"><path d="M3.91,1h0Z" transform="translate(0)"/><g class="cls-2"><path d="M15.5,1.5H4.19a.5.5,0,0,1,0-1H15.5a.5.5,0,0,1,0,1" transform="translate(0)"/><path d="M1,0A1,1,0,1,1,0,1,1,1,0,0,1,1,0" transform="translate(0)"/><line x1="3.91" y1="5.67" x2="15.39" y2="5.67"/><path d="M15.5,6.15H3.92a.5.5,0,0,1-.5-.5.51.51,0,0,1,.5-.5H15.5a.51.51,0,0,1,.5.5.5.5,0,0,1-.5.5" transform="translate(0)"/><path d="M1,4.67a1,1,0,1,1-1,1,1,1,0,0,1,1-1" transform="translate(0)"/><line x1="3.91" y1="10.33" x2="7.38" y2="10.33"/><path d="M7.37,10.83H3.91a.5.5,0,0,1-.5-.5.5.5,0,0,1,.5-.5H7.37a.5.5,0,0,1,.5.5.5.5,0,0,1-.5.5" transform="translate(0)"/><path d="M1,9.33a1,1,0,1,1-1,1,1,1,0,0,1,1-1" transform="translate(0)"/><path d="M1,14a1,1,0,1,1-1,1,1,1,0,0,1,1-1" transform="translate(0)"/><path d="M8.43,15.5H3.91a.5.5,0,0,1,0-1H8.43a.5.5,0,0,1,0,1" transform="translate(0)"/><path d="M14.35,9l-2.08,2.23-.27.28v0l-.27-.28L9.65,9h4.7M15.5,8h-7a.51.51,0,0,0-.39.82L11,11.93V15.5a.5.5,0,0,0,.5.5h1a.5.5,0,0,0,.5-.5V11.93l2.89-3.09A.51.51,0,0,0,15.5,8" transform="translate(0)"/></g></g></g></g></g></svg>