<svg xmlns="http://www.w3.org/2000/svg" viewBox="0 0 16 16"><defs><style>.cls-1{fill:#010101;}</style></defs><g id="Layer_2" data-name="Layer 2"><g id="Layer_1-2" data-name="Layer 1"><g id="lsi-tools"><path class="cls-1" d="M8.12,9.66,6.3,7.84,3.22,10.93A2.55,2.55,0,0,0,.09,14.06l1.83-1.83,1.81,1.82L1.9,15.88A2.55,2.55,0,0,0,5,12.75Z"/><path class="cls-1" d="M13.76.37a2.54,2.54,0,0,0-3.13,3.14L7.77,6.37,9.55,8.23l2.9-2.91a2.55,2.55,0,0,0,3.12-3.14L14,3.76,12.19,2"/><path class="cls-1" d="M15.11,14l-1-.5L6.7,6l.63-.63a.36.36,0,0,0,0-.51h0a.35.35,0,0,0-.51,0L6.71,5,2.12.36A1.26,1.26,0,0,0,.36.36a1.26,1.26,0,0,0,0,1.76L5,6.72l-.11.11a.36.36,0,0,0,.51.51L6,6.7l7.5,7.51.52.9,1.62.89.37-.37Z"/></g></g></g></svg>