<svg xmlns="http://www.w3.org/2000/svg" viewBox="0 0 16 16"><defs><style>.cls-1{fill:#231f20;}</style></defs><g id="Layer_2" data-name="Layer 2"><g id="Layer_1-2" data-name="Layer 1"><path id="lsi-explore" class="cls-1" d="M8,16A8,8,0,0,1,1.46,3.39a.61.61,0,0,1,.86-.15.62.62,0,0,1,.15.86A6.7,6.7,0,0,0,1.23,8,6.77,6.77,0,1,0,8,1.23,6.71,6.71,0,0,0,3.89,2.62a.61.61,0,1,1-.74-1A7.93,7.93,0,0,1,8,0,8,8,0,0,1,8,16ZM11.2,4,6.13,5.75a.58.58,0,0,0-.37.38L4,11.19a.62.62,0,0,0,.79.78l5.05-1.72a.65.65,0,0,0,.39-.39L12,4.8A.61.61,0,0,0,11.2,4ZM8,3a.61.61,0,0,0,.62-.61.62.62,0,1,0-1.24,0A.61.61,0,0,0,8,3Zm5.57,5.6a.62.62,0,1,0,0-1.24.62.62,0,0,0,0,1.24ZM8,14.14a.62.62,0,0,0,.62-.62.62.62,0,0,0-1.24,0A.62.62,0,0,0,8,14.14ZM2.48,8.62a.62.62,0,1,0,0-1.24.62.62,0,0,0,0,1.24Z"/></g></g></svg>