<svg xmlns="http://www.w3.org/2000/svg" viewBox="0 0 20.02 18.01"><defs><style>.cls-1{fill:#010101;}</style></defs><g id="Layer_2" data-name="Layer 2"><g id="Layer_1-2" data-name="Layer 1"><g id="lsi-storage"><g id="Group_9560" data-name="Group 9560"><path id="Path_11849" data-name="Path 11849" class="cls-1" d="M9,9.8a.61.61,0,0,1,.51.25l.41.6a.62.62,0,0,0,.52.26h3.93a.58.58,0,0,1,.62.55V17a.58.58,0,0,1-.62.55H5.61A.58.58,0,0,1,5,17V10.35a.59.59,0,0,1,.62-.55H9m0-.5H5.61a1.08,1.08,0,0,0-1.12,1V17A1.09,1.09,0,0,0,5.61,18h8.78A1.09,1.09,0,0,0,15.51,17v-5.5a1.08,1.08,0,0,0-1.12-1.05H10.46a.21.21,0,0,1-.11,0l-.41-.6A1.06,1.06,0,0,0,9,9.3Z"/><path id="Path_11850" data-name="Path 11850" class="cls-1" d="M3.71,14.71H3.6A5.1,5.1,0,0,1,0,9.85,5,5,0,0,1,3.64,5a6.39,6.39,0,0,1,12.6.79,4.6,4.6,0,0,1,.6,8.9.38.38,0,0,1-.48-.24h0a.4.4,0,0,1,.25-.49,3.83,3.83,0,0,0-.76-7.44.39.39,0,0,1-.34-.37A5.64,5.64,0,0,0,4.34,5.37a.38.38,0,0,1-.28.3A4.29,4.29,0,0,0,3.82,14a.38.38,0,0,1-.11.75"/><path id="Path_11851" data-name="Path 11851" class="cls-1" d="M11.5,3.34A1.46,1.46,0,1,1,10,1.88,1.46,1.46,0,0,1,11.5,3.34"/><path id="Path_11852" data-name="Path 11852" class="cls-1" d="M9.93,6.37A1,1,0,0,1,8,6.38a1,1,0,0,1,1-1H9a1,1,0,0,1,1,1"/><path id="Path_11853" data-name="Path 11853" class="cls-1" d="M11,8.22a.56.56,0,1,1-.56-.56h0a.57.57,0,0,1,.56.56"/><path id="Path_11854" data-name="Path 11854" class="cls-1" d="M14.39,11.36H10.46a1.07,1.07,0,0,1-.9-.45l-.41-.59A.16.16,0,0,0,9,10.26H5.62c-.1,0-.17.06-.17.09V17s.07.09.17.09h8.77c.11,0,.17-.06.17-.09V11.45A.17.17,0,0,0,14.39,11.36ZM13,16.18a.56.56,0,1,1,.56-.56h0a.56.56,0,0,1-.56.56Z"/></g></g></g></g></svg>