<svg xmlns="http://www.w3.org/2000/svg" viewBox="0 0 16 16"><defs><style>.cls-1{fill:#231f20;}</style></defs><g id="Layer_2" data-name="Layer 2"><g id="Layer_1-2" data-name="Layer 1"><g id="lsi-filter-panel"><path class="cls-1" d="M15,8v2H9.09V8H15m.06-1H9a.94.94,0,0,0-.93.94v2.12A.94.94,0,0,0,9,11h6a.94.94,0,0,0,.93-.94V7.94A.94.94,0,0,0,15.07,7Z"/><path class="cls-1" d="M15,13v2H9.09V13H15m.06-1H9a.94.94,0,0,0-.93.94v2.12A.94.94,0,0,0,9,16h6a.94.94,0,0,0,.93-.94V12.94a.94.94,0,0,0-.93-.94Z"/><path class="cls-1" d="M14.81,3V5h-3V3h3m.25-1H11.59a.74.74,0,0,0-.73.75v2.5a.74.74,0,0,0,.73.75h3.47a.73.73,0,0,0,.73-.75V2.75A.73.73,0,0,0,15.06,2Z"/><path class="cls-1" d="M10,0h-9A.88.88,0,0,0,.36,1.59L4,6.13v7.93a.61.61,0,0,0,.22.46l1.48,1.29a.75.75,0,0,0,1.26-.46V6.13L10.5,1.59A.88.88,0,0,0,10,0Z"/></g></g></g></svg>