<svg xmlns="http://www.w3.org/2000/svg" viewBox="0 0 16 16"><defs><style>.cls-1{fill:#010101;}</style></defs><g id="Layer_2" data-name="Layer 2"><g id="Layer_1-2" data-name="Layer 1"><path id="lsi-project-dashboard" class="cls-1" d="M5.86,4.71,3.38,7.19l-.45-.45a.64.64,0,0,1-.18-.44.62.62,0,0,1,.18-.44l1.6-1.6a.63.63,0,0,1,.88,0l0,0,0,.05ZM16,1V15a1,1,0,0,1-1,1H1a1,1,0,0,1-1-1V1A1,1,0,0,1,1,0H15A1,1,0,0,1,16,1ZM15,3H1V15H15ZM13,7.15,10.66,9.5,12.18,11l.55,2.53a.42.42,0,0,1-.51.51l-2.53-.55L8.17,12,6.41,13.75a.84.84,0,0,1-.59.24.82.82,0,0,1-.59-.24L3.67,12.19a.82.82,0,0,1,0-1.18L5.43,9.25,3.85,7.67l.92-.92L6.35,8.33l.71-.7L5.48,6.05l.86-.87L7.92,6.76l2.35-2.35a.86.86,0,0,1,1.18,0L13,6A.85.85,0,0,1,13,7.15ZM9.8,10.37l-.71.7,1.48,1.49.71-.71Zm2.38-3.81L10.86,5.24l-.71.7L11.21,7l-.71.71L9.44,6.65l-.7.71.55.55L9.18,8l-.6.6L8,8.07l-.27.26-.44.44L8.38,9.83l-.27.27-.44.44-1-1.06-.71.71.55.55-.71.71-.55-.56-.71.71,1.33,1.32,2.56-2.56.71-.7L10,8.79Z"/></g></g></svg>