<svg xmlns="http://www.w3.org/2000/svg" viewBox="0 0 16 16"><defs><style>.cls-1{fill:#010101;}</style></defs><g id="Layer_2" data-name="Layer 2"><g id="Layer_1-2" data-name="Layer 1"><g id="lsi-skip-back"><path class="cls-1" d="M13,15V1h2V15H13m0,1h2a1,1,0,0,0,1-1V1a1,1,0,0,0-1-1H13a1,1,0,0,0-1,1V15a1,1,0,0,0,1,1Z"/><path class="cls-1" d="M8.93,14.84h0m0,0L1.06,8,8.94,1.16V14.84m0,1.16A1.11,1.11,0,0,0,10,14.84V1.16A1.11,1.11,0,0,0,8.93,0a1,1,0,0,0-.66.26L.4,7.1a1.22,1.22,0,0,0,0,1.8l7.87,6.84a1,1,0,0,0,.66.26Z"/></g></g></g></svg>