<svg xmlns="http://www.w3.org/2000/svg" viewBox="0 0 16 16"><defs><style>.cls-1{fill:#010101;}</style></defs><g id="Layer_2" data-name="Layer 2"><g id="Layer_1-2" data-name="Layer 1"><path class="cls-1" d="M16,10l-4.4,1.62L10,16,8.54,12.21l-.37-.94-.43-1.09L6.12,6l5.18,2.1.93.38ZM6.31,0a6.31,6.31,0,1,0,0,12.62,5.88,5.88,0,0,0,1.27-.13l-.38-1A5.28,5.28,0,0,1,1,6.32a5.31,5.31,0,1,1,10.62,0,4.47,4.47,0,0,1-.07.82l.95.39a6.06,6.06,0,0,0,.12-1.21A6.32,6.32,0,0,0,6.31,0Zm4.1,6.68c0-.12,0-.24,0-.36a4.12,4.12,0,1,0-4.12,4.12l.45,0-1.57-4L4.34,4.22l2.15.87Z"/></g></g></svg>