<svg xmlns="http://www.w3.org/2000/svg" viewBox="0 0 16 16"><defs><style>.cls-1{fill:#010101;}</style></defs><g id="Layer_2" data-name="Layer 2"><g id="Layer_1-2" data-name="Layer 1"><g id="lsi-cart"><path class="cls-1" d="M4.33,13.07A1.47,1.47,0,1,1,2.9,14.54,1.45,1.45,0,0,1,4.33,13.07Zm7.14,1.47a1.43,1.43,0,1,0,1.42-1.47A1.45,1.45,0,0,0,11.47,14.54Zm-7.8-3.78a.5.5,0,0,0,0,.5.49.49,0,0,0,.42.25H14.24a.5.5,0,0,1,0,1H4.09a1.45,1.45,0,0,1-1.27-.75,1.51,1.51,0,0,1,0-1.5L3.52,9,1.85,3.39l0,0L1.08,1H.49A.5.5,0,0,1,0,.5.49.49,0,0,1,.49,0h.94A.49.49,0,0,1,1.9.35l.33,1H15a1,1,0,0,1,.88,1.44l-2.8,6a1,1,0,0,1-.88.58H4.4ZM2.57,2.38l1.8,6h7.85l2.8-6H2.57Z"/></g></g></g></svg>