<svg xmlns="http://www.w3.org/2000/svg" viewBox="0 0 16 16"><defs><style>.cls-1{fill:#010101;}</style></defs><g id="Layer_2" data-name="Layer 2"><g id="Layer_1-2" data-name="Layer 1"><path id="lsi-backwards" class="cls-1" d="M.14,8.33l7.53,7.53a.44.44,0,0,0,.51.1.46.46,0,0,0,.29-.43V9.14l6.73,6.72a.44.44,0,0,0,.51.1.46.46,0,0,0,.29-.43V.47A.46.46,0,0,0,15.71,0a.39.39,0,0,0-.18,0,.47.47,0,0,0-.33.14L8.47,6.86V.47A.46.46,0,0,0,8.18,0,.39.39,0,0,0,8,0a.47.47,0,0,0-.33.14L.14,7.67A.45.45,0,0,0,.14,8.33ZM15.06,1.61V14.39L8.67,8Zm-7.53,0V14.39L1.14,8Z"/></g></g></svg>