<svg xmlns="http://www.w3.org/2000/svg" viewBox="0 0 16 12"><defs><style>.cls-1{fill:#010101;}</style></defs><g id="Layer_2" data-name="Layer 2"><g id="Layer_1-2" data-name="Layer 1"><g id="lsi-chekin"><path class="cls-1" d="M0,0H12.64a0,0,0,0,1,0,0V0A1.34,1.34,0,0,1,11.3,1.34H1.35A1.34,1.34,0,0,1,0,0V0A0,0,0,0,1,0,0Z" transform="translate(12.65 1.34) rotate(180)"/><path class="cls-1" d="M11.88,8.62v1.7a1.06,1.06,0,0,1-1.11,1H1.86a1.07,1.07,0,0,1-1.12-1V3H11.88V5h.75V2.3H0v8A1.77,1.77,0,0,0,1.86,12h8.91a1.78,1.78,0,0,0,1.86-1.68V8.62Z"/><path class="cls-1" d="M9.67,3.68l-3,2.83a.38.38,0,0,0,0,.57l3,2.85a.52.52,0,0,0,.68,0,.44.44,0,0,0,.15-.33.44.44,0,0,0-.15-.32l-2.16-2h7.29a.46.46,0,1,0,0-.91H8.22l2.14-2a.44.44,0,0,0,0-.65A.51.51,0,0,0,9.67,3.68Z"/></g></g></g></svg>