<svg xmlns="http://www.w3.org/2000/svg" viewBox="0 0 12 16"><defs><style>.cls-1{fill:#010101;}</style></defs><g id="Layer_2" data-name="Layer 2"><g id="Layer_1-2" data-name="Layer 1"><g id="lsi-form5"><path class="cls-1" d="M4.51,3.61A1.49,1.49,0,1,1,6,5.08,1.49,1.49,0,0,1,4.51,3.61ZM6,5.53A2.89,2.89,0,0,0,3.36,7.24a3.45,3.45,0,0,0,5.28,0A2.89,2.89,0,0,0,6,5.53Zm3.5,7.16c0-.27-.14-.49-.32-.49H5.37c-.18,0-.32.22-.32.49s.14.5.32.5H9.18C9.36,13.19,9.5,13,9.5,12.69ZM9.5,10c0-.28-.14-.5-.32-.5H5.37c-.18,0-.32.22-.32.5s.14.49.32.49H9.18C9.36,10.44,9.5,10.22,9.5,10ZM11,1H1V15H11V1h0m0-1a1,1,0,0,1,1,1V15a1,1,0,0,1-1,1H1a1,1,0,0,1-1-1V1A1,1,0,0,1,1,0ZM3,10.94a.22.22,0,0,0,.15-.08L4.31,9.37A.27.27,0,0,0,4.3,9,.18.18,0,0,0,4,9L3,10.34l-.5-.57a.18.18,0,0,0-.29,0,.27.27,0,0,0,0,.34l.66.75a.19.19,0,0,0,.14.07ZM3,13.6a.19.19,0,0,0,.15-.08L4.31,12a.27.27,0,0,0,0-.35.18.18,0,0,0-.29,0L3,13l-.5-.57a.18.18,0,0,0-.29,0,.29.29,0,0,0,0,.35l.66.74A.16.16,0,0,0,3,13.6Z"/></g></g></g></svg>