<svg xmlns="http://www.w3.org/2000/svg" xmlns:xlink="http://www.w3.org/1999/xlink" viewBox="0 0 10 16"><defs><style>.cls-1{fill:none;}.cls-2{clip-path:url(#clip-path);}.cls-3{fill:#323232;}</style><clipPath id="clip-path" transform="translate(0)"><rect class="cls-1" width="10" height="16"/></clipPath></defs><g id="Layer_2" data-name="Layer 2"><g id="Layer_1-2" data-name="Layer 1"><g id="lsi-experiment"><g class="cls-2"><g class="cls-2"><path class="cls-3" d="M5,15a2.48,2.48,0,0,0,2.4-2.56V1.67H8.75a.33.33,0,0,0,.31-.34A.32.32,0,0,0,8.75,1H1.25a.32.32,0,0,0-.31.33.33.33,0,0,0,.31.34H2.6V12.44A2.48,2.48,0,0,0,5,15m0,1a3.45,3.45,0,0,1-3.33-3.56V2.67H1.25A1.3,1.3,0,0,1,0,1.33,1.29,1.29,0,0,1,1.25,0h7.5A1.29,1.29,0,0,1,10,1.33,1.3,1.3,0,0,1,8.75,2.67H8.33v9.77A3.45,3.45,0,0,1,5,16" transform="translate(0)"/><path class="cls-3" d="M3.37,9.63l3.33-.9v3.65A1.72,1.72,0,0,1,5,14.15a1.71,1.71,0,0,1-1.66-1.77Z" transform="translate(0)"/><path class="cls-3" d="M4.11,7.39a.45.45,0,1,1-.42.45.44.44,0,0,1,.42-.45" transform="translate(0)"/><path class="cls-3" d="M4.53,2a.86.86,0,0,1,.83.89.86.86,0,0,1-.83.89.87.87,0,0,1-.84-.89A.87.87,0,0,1,4.53,2" transform="translate(0)"/><path class="cls-3" d="M5.12,4.73A1.29,1.29,0,0,1,6.37,6.06,1.3,1.3,0,0,1,5.12,7.4,1.3,1.3,0,0,1,3.87,6.06,1.29,1.29,0,0,1,5.12,4.73" transform="translate(0)"/></g></g></g></g></g></svg>