<svg xmlns="http://www.w3.org/2000/svg" xmlns:xlink="http://www.w3.org/1999/xlink" viewBox="0 0 17 15"><defs><style>.cls-1{fill:none;}.cls-2{clip-path:url(#clip-path);}</style><clipPath id="clip-path"><rect class="cls-1" width="17" height="15"/></clipPath></defs><g id="Layer_2" data-name="Layer 2"><g id="Layer_1-2" data-name="Layer 1"><g id="lsi-folder"><g class="cls-2"><g class="cls-2"><path d="M15.5,2H9.23a.47.47,0,0,1-.39-.22L8.18.7A1.46,1.46,0,0,0,6.93,0H1.5A1.5,1.5,0,0,0,0,1.5v12A1.5,1.5,0,0,0,1.5,15h14A1.5,1.5,0,0,0,17,13.5V3.5A1.5,1.5,0,0,0,15.5,2M1.5,1H6.93a.44.44,0,0,1,.39.22L8,2.3A1.48,1.48,0,0,0,9.23,3H15.5a.5.5,0,0,1,.5.5v.94H1V1.5A.5.5,0,0,1,1.5,1m14,13H1.5a.5.5,0,0,1-.5-.5V5.55H16v8a.5.5,0,0,1-.5.5"/></g></g></g></g></g></svg>