<svg xmlns="http://www.w3.org/2000/svg" xmlns:xlink="http://www.w3.org/1999/xlink" viewBox="0 0 16 14"><defs><style>.cls-1{fill:none;}.cls-2{clip-path:url(#clip-path);}</style><clipPath id="clip-path" transform="translate(0 0)"><rect class="cls-1" width="16" height="14"/></clipPath></defs><g id="Layer_2" data-name="Layer 2"><g id="Layer_1-2" data-name="Layer 1"><g id="lsi-presentation"><g class="cls-2"><g class="cls-2"><path d="M14.75,2.87V9.25a1.15,1.15,0,0,1-1.2,1.09h-5v.91l4.19,1.82a.47.47,0,0,1,.26.66.61.61,0,0,1-.51.27.7.7,0,0,1-.25-.05L8,12.11,3.75,14A.62.62,0,0,1,3,13.73a.47.47,0,0,1,.26-.66l4.19-1.82v-.91h-5a1.15,1.15,0,0,1-1.2-1.09V2.87H2.37V9.25a.08.08,0,0,0,.08.07h11.1a.08.08,0,0,0,.08-.07V2.87Z" transform="translate(0 0)"/><path d="M16,.9v.81a.28.28,0,0,1-.27.3H.27A.28.28,0,0,1,0,1.71V.9A.27.27,0,0,1,.27.61H5.75v0A.57.57,0,0,1,6.31,0H9.69a.57.57,0,0,1,.56.58v0h5.48A.27.27,0,0,1,16,.9" transform="translate(0 0)"/><path d="M6,4.59V7.41a.6.6,0,0,0,.86.53L9.67,6.53a.59.59,0,0,0,0-1.06L6.86,4.06A.6.6,0,0,0,6,4.59" transform="translate(0 0)"/></g></g></g></g></g></svg>