<svg id="Track" xmlns="http://www.w3.org/2000/svg" width="24" height="24" viewBox="0 0 24 24">
  <g id="invisible_box" data-name="invisible box">
    <rect id="Rectangle_17588" data-name="Rectangle 17588" width="24" height="24" fill="none"/>
  </g>
  <g id="icons_Q2" data-name="icons Q2" transform="translate(1 3.501)">
    <path id="Path_18061" data-name="Path 18061" d="M24,15.5a6,6,0,0,0-6-6c-2.6,0-4.75,2.05-5.95,5.7-.9,2.75-2.4,4.3-4.05,4.3a4,4,0,0,1,0-8h.6l-.8.8a.95.95,0,0,0,.1,1.5,1.05,1.05,0,0,0,1.35-.1l2.45-2.5a.95.95,0,0,0,0-1.4L9.25,7.3A1.05,1.05,0,0,0,7.9,7.2a.95.95,0,0,0-.1,1.5l.8.8H8a6,6,0,0,0,0,12c2.6,0,4.75-2.05,5.95-5.7.9-2.75,2.4-4.3,4.05-4.3a4,4,0,0,1,0,8h-.6l.8-.8a.95.95,0,0,0-.1-1.5,1.05,1.05,0,0,0-1.35.1L14.3,19.8a.95.95,0,0,0,0,1.4l2.45,2.5a1.05,1.05,0,0,0,1.35.1.95.95,0,0,0,.1-1.5l-.8-.8H18A6,6,0,0,0,24,15.5Z" transform="translate(-2 -7.001)" fill="#662e6b"/>
  </g>
</svg>
