<svg xmlns="http://www.w3.org/2000/svg" xmlns:xlink="http://www.w3.org/1999/xlink" viewBox="0 0 16 16"><defs><style>.cls-1{fill:none;}.cls-2{clip-path:url(#clip-path);}</style><clipPath id="clip-path" transform="translate(0 0)"><rect class="cls-1" width="16" height="16"/></clipPath></defs><g id="Layer_2" data-name="Layer 2"><g id="Layer_1-2" data-name="Layer 1"><g id="lsi-list-search"><g class="cls-2"><g class="cls-2"><path d="M11.58,9.33A2.3,2.3,0,0,0,12.85,9l.22-.13.18-.19a2.38,2.38,0,1,0-1.67.69M15.66,12a.33.33,0,0,1-.24-.1L13.27,9.71a3.15,3.15,0,0,1-1.69.49A3.25,3.25,0,1,1,14.77,7a3.3,3.3,0,0,1-1,2.33l2.09,2.13a.36.36,0,0,1,0,.49.33.33,0,0,1-.24.1" transform="translate(0 0)"/><path d="M13.47,16H.53a.54.54,0,0,1,0-1.07H13.47a.54.54,0,0,1,0,1.07" transform="translate(0 0)"/><path d="M13.47,1.07H.53A.54.54,0,0,1,.53,0H13.47a.54.54,0,0,1,0,1.07" transform="translate(0 0)"/><path d="M9.47,12.27H.53a.54.54,0,0,1,0-1.07H9.47a.54.54,0,0,1,0,1.07" transform="translate(0 0)"/><path d="M7.47,4.8H.53a.54.54,0,0,1,0-1.07H7.47a.54.54,0,0,1,0,1.07" transform="translate(0 0)"/><path d="M5.47,8.53H.53a.53.53,0,0,1,0-1.06H5.47a.53.53,0,0,1,0,1.06" transform="translate(0 0)"/></g></g></g></g></g></svg>