<svg xmlns="http://www.w3.org/2000/svg" xmlns:xlink="http://www.w3.org/1999/xlink" viewBox="0 0 12 16"><defs><style>.cls-1{fill:none;}.cls-2{clip-path:url(#clip-path);}</style><clipPath id="clip-path"><rect class="cls-1" width="12" height="16"/></clipPath></defs><g id="Layer_2" data-name="Layer 2"><g id="Layer_1-2" data-name="Layer 1"><g id="lsi-form6"><g class="cls-2"><g class="cls-2"><path d="M9,5.8H3a.5.5,0,1,1,0-1H9a.5.5,0,1,1,0,1"/><path d="M9,3.49H3A.5.5,0,0,1,2.5,3a.51.51,0,0,1,.5-.5H9a.51.51,0,0,1,.5.5.5.5,0,0,1-.5.5"/><path d="M11,1h0V15H1V1H11m0-1H1A1,1,0,0,0,0,1V15a1,1,0,0,0,1,1H11a1,1,0,0,0,1-1V1a1,1,0,0,0-1-1"/><path d="M8.4,9.59,6.2,7.41A.57.57,0,0,0,6,7.3a.53.53,0,0,0-.39,0,.57.57,0,0,0-.16.11L3.26,9.63a.48.48,0,0,0,0,.7.52.52,0,0,0,.35.14A.5.5,0,0,0,4,10.33L5.34,9v3.83a.5.5,0,0,0,.5.5.5.5,0,0,0,.5-.5V9l1.35,1.33a.5.5,0,0,0,.71,0,.5.5,0,0,0,0-.7"/></g></g></g></g></g></svg>