<svg xmlns="http://www.w3.org/2000/svg" width="24" height="24" viewBox="0 0 24 24">
  <g id="Rack" transform="translate(8686 22873)">
    <rect id="Rectangle_17550" data-name="Rectangle 17550" width="24" height="24" transform="translate(-8686 -22873)" fill="none"/>
    <path id="Rectangle_17551" data-name="Rectangle 17551" d="M3,1.5A1.5,1.5,0,0,0,1.5,3V15A1.5,1.5,0,0,0,3,16.5H17A1.5,1.5,0,0,0,18.5,15V3A1.5,1.5,0,0,0,17,1.5H3M3,0H17a3,3,0,0,1,3,3V15a3,3,0,0,1-3,3H3a3,3,0,0,1-3-3V3A3,3,0,0,1,3,0Z" transform="translate(-8684 -22870)" fill="#662e6b"/>
    <path id="Line_901" data-name="Line 901" d="M.75,16H-.75V0H.75Z" transform="translate(-8677.1 -22869.5)" fill="#662e6b"/>
    <path id="Line_920" data-name="Line 920" d="M.75,16H-.75V0H.75Z" transform="translate(-8671 -22869.5)" fill="#662e6b"/>
    <path id="Line_919" data-name="Line 919" d="M17.4.75H0V-.75H17.4Z" transform="translate(-8682.5 -22858.5)" fill="#662e6b"/>
    <path id="Line_921" data-name="Line 921" d="M17.4.75H0V-.75H17.4Z" transform="translate(-8682.5 -22863.5)" fill="#662e6b"/>
  </g>
</svg>
