<svg xmlns="http://www.w3.org/2000/svg" viewBox="0 0 16 16"><defs><style>.cls-1{fill:#010101;}</style></defs><g id="Layer_2" data-name="Layer 2"><g id="Layer_1-2" data-name="Layer 1"><path id="lsi-building" class="cls-1" d="M15.53,15H14V2.94a1.05,1.05,0,0,0-1.09-1H11.27V0H10.18V1.94H8.55a1.05,1.05,0,0,0-1.1,1V5.45H3.09A1.05,1.05,0,0,0,2,6.46V15H.47a.49.49,0,0,0,0,1H15.53a.49.49,0,0,0,0-1Zm-7-12.09h4.36V15h-1.3V12.91H9.84V15H8.55V2.94ZM3.09,6.46H7.45V15H6.18V12.91H4.36V15H3.09Zm7.09.63H9.09v-1h1.09Zm2.18,0H11.27v-1h1.09Zm-2.18-2H9.09v-1h1.09Zm2.18,0H11.27v-1h1.09Zm-2.18,4H9.09v-1h1.09Zm2.18,0H11.27v-1h1.09ZM4.73,8.6H3.64v-1H4.73Zm2.18,0H5.82v-1H6.91Zm-2.18,2H3.64v-1H4.73Zm2.18,0H5.82v-1H6.91Zm3.27.49H9.09v-1h1.09Zm2.18,0H11.27v-1h1.09Z"/></g></g></svg>