<svg xmlns="http://www.w3.org/2000/svg" viewBox="0 0 16 16"><g id="Layer_2" data-name="Layer 2"><g id="Layer_1-2" data-name="Layer 1"><g id="lsi-view-team"><path d="M15.69,0A.51.51,0,0,1,16,.31.41.41,0,0,1,16,.5V5.56a.5.5,0,0,1-1,0V1.71L7.72,9A.48.48,0,0,1,7,9a.48.48,0,0,1,0-.7L14.29,1h-4a.5.5,0,0,1,0-1h5.2a.41.41,0,0,1,.19,0"/><path d="M1.41,16H14.59A1.41,1.41,0,0,0,16,14.59V8a.47.47,0,1,0-.94,0v6.59a.47.47,0,0,1-.47.47H1.41a.47.47,0,0,1-.47-.47V1.41A.47.47,0,0,1,1.41.94H8A.47.47,0,0,0,8,0H1.41A1.41,1.41,0,0,0,0,1.41V14.59A1.41,1.41,0,0,0,1.41,16"/><path d="M5.75,10H2.25a.25.25,0,0,0-.25.25v3.5a.25.25,0,0,0,.25.25h3.5A.25.25,0,0,0,6,13.75v-3.5A.25.25,0,0,0,5.75,10"/></g></g></g></svg>