<svg xmlns="http://www.w3.org/2000/svg" viewBox="0 0 16 16"><defs><style>.cls-1{fill:#231f20;}</style></defs><g id="Layer_2" data-name="Layer 2"><g id="Layer_1-2" data-name="Layer 1"><path id="lsi-guide" class="cls-1" d="M15.53,8.47a.47.47,0,0,0,0-.94H12.24V4.71h3.29A.47.47,0,0,0,16,4.24a.48.48,0,0,0-.47-.48H12.24V.47A.48.48,0,0,0,11.76,0a.47.47,0,0,0-.47.47V3.76H8.47V.47a.47.47,0,1,0-.94,0V3.76H4.71V.47A.47.47,0,0,0,4.24,0a.48.48,0,0,0-.48.47V3.76H.47A.48.48,0,0,0,0,4.24a.47.47,0,0,0,.47.47H3.76V7.53H.47a.47.47,0,1,0,0,.94H3.76v2.82H.47a.47.47,0,0,0-.47.47.48.48,0,0,0,.47.48H3.76v3.29a.48.48,0,0,0,.48.47.47.47,0,0,0,.47-.47V12.24H7.53v3.29a.47.47,0,1,0,.94,0V12.24h2.82v3.29a.47.47,0,0,0,.47.47.48.48,0,0,0,.48-.47V12.24h3.29a.48.48,0,0,0,.47-.48.47.47,0,0,0-.47-.47H12.24V8.47ZM11.29,4.71V7.53H8.47V4.71Zm-6.58,0H7.53V7.53H4.71Zm0,6.58V8.47H7.53v2.82Zm6.58,0H8.47V8.47h2.82Z"/></g></g></svg>