<svg xmlns="http://www.w3.org/2000/svg" viewBox="0 0 16 16"><defs><style>.cls-1{fill:#010101;}</style></defs><g id="Layer_2" data-name="Layer 2"><g id="Layer_1-2" data-name="Layer 1"><g id="lsi-wand"><path class="cls-1" d="M7.25,11.89A5.63,5.63,0,0,1,6.09,12a7,7,0,0,1-1-.08l.17-1a5.29,5.29,0,0,0,1.82,0Z"/><path class="cls-1" d="M3.53,10.33,3,11.18a5.87,5.87,0,0,1-1.66-1.4l.78-.62A5.22,5.22,0,0,0,3.53,10.33Z"/><path class="cls-1" d="M1.27,7.58l-1,.32A6.15,6.15,0,0,1,0,6V5.77l1,0V6A4.72,4.72,0,0,0,1.27,7.58Z"/><path class="cls-1" d="M1.78,3.34A4.77,4.77,0,0,0,1.11,5l-1-.19a5.72,5.72,0,0,1,.8-2Z"/><path class="cls-1" d="M4.62,1.19A5.16,5.16,0,0,0,3,2l-.61-.79a6.12,6.12,0,0,1,1.94-1Z"/><path class="cls-1" d="M8.61.53l-.41.9a4.86,4.86,0,0,0-1.12-.35A4.84,4.84,0,0,0,6.43,1L6.5,0a6.93,6.93,0,0,1,.78.1A6.08,6.08,0,0,1,8.61.53Z"/><path class="cls-1" d="M11.64,3.53l-.92.41a4.92,4.92,0,0,0-1-1.48l.71-.7A5.9,5.9,0,0,1,11.64,3.53Z"/><path class="cls-1" d="M12.18,6a6.65,6.65,0,0,1-.12,1.18l-.15.58-1-.28c.05-.16.09-.33.13-.49a4.75,4.75,0,0,0,.1-1c0-.1,0-.21,0-.31l1-.06C12.17,5.74,12.18,5.87,12.18,6Z"/><path class="cls-1" d="M15.62,13.16,7.19,4.83a1.3,1.3,0,0,0-1.83,0l-.67.66a1.27,1.27,0,0,0,0,1.81l8.43,8.33A1.35,1.35,0,0,0,14,16a1.36,1.36,0,0,0,.92-.37l.66-.66a1.27,1.27,0,0,0,.38-.9A1.24,1.24,0,0,0,15.62,13.16ZM8,9.15,5.4,6.6a.32.32,0,0,1-.08-.21.3.3,0,0,1,.08-.2l.67-.65a.27.27,0,0,1,.2-.09.29.29,0,0,1,.21.09L9.06,8.09Z"/></g></g></g></svg>