<svg xmlns="http://www.w3.org/2000/svg" xmlns:xlink="http://www.w3.org/1999/xlink" viewBox="0 0 16 14"><defs><style>.cls-1{fill:none;}.cls-2{clip-path:url(#clip-path);}</style><clipPath id="clip-path" transform="translate(0)"><rect class="cls-1" width="16" height="14"/></clipPath></defs><g id="Layer_2" data-name="Layer 2"><g id="Layer_1-2" data-name="Layer 1"><g id="lsi-message"><g class="cls-2"><g class="cls-2"><path d="M.7,4h9.79a.7.7,0,0,1,.7.7V11a.7.7,0,0,1-.7.7H4.2L2,13.9a.35.35,0,0,1-.59-.25v-2H.7A.7.7,0,0,1,0,11V4.7A.7.7,0,0,1,.7,4" transform="translate(0)"/><path d="M15.3,0H5.51a.7.7,0,0,0-.7.7V3.53h1V1H15V6.69H13.6V8.08L12.51,7l-.29-.3h-.31V7.8L14,9.9a.33.33,0,0,0,.24.1.35.35,0,0,0,.35-.35v-2h.7A.7.7,0,0,0,16,7V.7a.7.7,0,0,0-.7-.7" transform="translate(0)"/></g></g></g></g></g></svg>