<svg xmlns="http://www.w3.org/2000/svg" xmlns:xlink="http://www.w3.org/1999/xlink" viewBox="0 0 16 14"><defs><style>.cls-1{fill:none;}.cls-2{clip-path:url(#clip-path);}</style><clipPath id="clip-path" transform="translate(0 0)"><rect class="cls-1" width="16" height="14"/></clipPath></defs><g id="Layer_2" data-name="Layer 2"><g id="Layer_1-2" data-name="Layer 1"><g id="lsi-pages"><g class="cls-2"><g class="cls-2"><path d="M5.78,11.93H2.4a.25.25,0,0,1-.25-.25V5a.25.25,0,0,1,.25-.25H5.78A.25.25,0,0,1,6,5v6.64a.25.25,0,0,1-.25.25" transform="translate(0 0)"/><path d="M13.85,6h-6a.5.5,0,0,1,0-1h6a.5.5,0,1,1,0,1" transform="translate(0 0)"/><path d="M13.1,9H7.83a.51.51,0,0,1-.5-.5.5.5,0,0,1,.5-.5H13.1a.5.5,0,0,1,.5.5.5.5,0,0,1-.5.5" transform="translate(0 0)"/><path d="M10.66,11.93H7.83a.5.5,0,0,1-.5-.5.51.51,0,0,1,.5-.5h2.83a.5.5,0,0,1,.5.5.5.5,0,0,1-.5.5" transform="translate(0 0)"/><path d="M15,0H1.05A1,1,0,0,0,0,1.05v11.8A1.16,1.16,0,0,0,1.15,14h13.7A1.16,1.16,0,0,0,16,12.85V1.05A1,1,0,0,0,15,0M4,1.4H14.31v1H4ZM2.1,1.05a.85.85,0,1,1-.85.85.86.86,0,0,1,.85-.85M15,12.85a.15.15,0,0,1-.15.15H1.15A.15.15,0,0,1,1,12.85V3.63H15Z" transform="translate(0 0)"/></g></g></g></g></g></svg>