<svg xmlns="http://www.w3.org/2000/svg" viewBox="0 0 12 16"><defs><style>.cls-1{fill:#010101;}</style></defs><g id="Layer_2" data-name="Layer 2"><g id="Layer_1-2" data-name="Layer 1"><path class="cls-1" d="M12,4.59h0L7.4,0H.47A.47.47,0,0,0,0,.47V15.53A.47.47,0,0,0,.47,16H11.53a.47.47,0,0,0,.47-.47V4.6ZM7.5,1.52l3,3H8A.47.47,0,0,1,7.5,4ZM11,15H1V1H6.5V4A1.47,1.47,0,0,0,8,5.51h3ZM3.94,7,4.59,9.9l.15.79.14-.78L5.45,7h1.1L7.14,9.9l.15.79.15-.76L8.11,7H9.17l-1.4,5h-1l-.6-2.92L6,8.15l-.18,1L5.21,12h-1L2.83,7Z"/></g></g></svg>