<svg xmlns="http://www.w3.org/2000/svg" viewBox="0 0 17 16"><defs><style>.cls-1{fill:#010101;}</style></defs><g id="Layer_2" data-name="Layer 2"><g id="Layer_1-2" data-name="Layer 1"><path id="lsi-shelf2" class="cls-1" d="M16,0V3.5H1V0H0V16H1V10.19H16V16h1V0ZM1,9.19V4.5H16V9.19ZM6.08,0V3h-4V0h1V2h2V0ZM10.5,0V3h-4V0h1V2h2V0Zm4.42,0V3h-4V0h1V2h2V0ZM6.08,5.34v3h-4v-3h1v2h2v-2Zm4.42,0v3h-4v-3h1v2h2v-2Zm4.42,0v3h-4v-3h1v2h2v-2ZM2.08,11.26v1.42H3v1.9H2.08V16H14.92V11.26Zm12,3.92H10.75v-1h3.32Zm0-1.55H10.75v-1h3.32Z"/></g></g></svg>