<svg xmlns="http://www.w3.org/2000/svg" viewBox="0 0 16 16"><defs><style>.cls-1{fill:#010101;}</style></defs><g id="Layer_2" data-name="Layer 2"><g id="Layer_1-2" data-name="Layer 1"><g id="lsi-pin-selection"><g id="Ellipse_884" data-name="Ellipse 884"><path class="cls-1" d="M8,16H8a8.13,8.13,0,0,1-2-.26l.25-1A7.12,7.12,0,0,0,8,15Zm2.06-.28-.26-1a6.73,6.73,0,0,0,1.68-.71l.51.86A7.6,7.6,0,0,1,10.1,15.72ZM4,15a7.58,7.58,0,0,1-1.66-1.26l.7-.71a6.76,6.76,0,0,0,1.45,1.1Zm9.64-1.31L13,12.93a7.15,7.15,0,0,0,1.11-1.45l.86.5A8.45,8.45,0,0,1,13.68,13.64ZM1.1,12.05a8.18,8.18,0,0,1-.82-1.93l1-.26A6.9,6.9,0,0,0,2,11.54Zm14.64-2-1-.26A7.14,7.14,0,0,0,15,8l1,0V8A8.29,8.29,0,0,1,15.74,10.05ZM0,8.05V8A8.45,8.45,0,0,1,.25,6l1,.25A7.38,7.38,0,0,0,1,8ZM14.76,6.17a7,7,0,0,0-.7-1.68l.86-.5a7.88,7.88,0,0,1,.8,1.92ZM1.91,4.55,1,4.05A8.08,8.08,0,0,1,2.3,2.39l.71.7A7.08,7.08,0,0,0,1.91,4.55ZM12.94,3A7.37,7.37,0,0,0,11.5,1.93l.5-.86a8.07,8.07,0,0,1,1.65,1.27ZM4.45,2l-.51-.86A7.94,7.94,0,0,1,5.86.29l.27,1A7.16,7.16,0,0,0,4.45,2Zm5.36-.73A6.92,6.92,0,0,0,8,1L8,.31,8,0H8a8,8,0,0,1,2.08.27Z"/></g><path class="cls-1" d="M7.51,2A4,4,0,0,0,5.06,8.71a10.8,10.8,0,0,1,2.48,3.92l.06.18a.42.42,0,0,0,.8,0A11.82,11.82,0,0,1,11,8.66,4,4,0,0,0,7.51,2ZM8,8a2,2,0,1,1,2-2A2,2,0,0,1,8,8Z"/></g></g></g></svg>