<svg xmlns="http://www.w3.org/2000/svg" xmlns:xlink="http://www.w3.org/1999/xlink" viewBox="0 0 16.08 16"><defs><style>.cls-1{fill:none;}.cls-2{clip-path:url(#clip-path);}</style><clipPath id="clip-path" transform="translate(0 0)"><rect class="cls-1" width="16.08" height="16"/></clipPath></defs><g id="Layer_2" data-name="Layer 2"><g id="Layer_1-2" data-name="Layer 1"><g id="lsi-quality-check"><g class="cls-2"><g class="cls-2"><path d="M14.08,1a1,1,0,0,1,1,1V14a1,1,0,0,1-1,1H2a1,1,0,0,1-1-1V2A1,1,0,0,1,2,1H14.08m0-1H2A2,2,0,0,0,0,2V14a2,2,0,0,0,2,2H14.08a2,2,0,0,0,2-2V2a2,2,0,0,0-2-2" transform="translate(0 0)"/><path d="M3.85,12.5a.5.5,0,0,1-.35-.85l8-8a.5.5,0,0,1,.71,0,.51.51,0,0,1,0,.71l-8,8a.46.46,0,0,1-.35.14" transform="translate(0 0)"/><path d="M4.88,7.69a.51.51,0,0,1-.72,0L2.73,6.27a.75.75,0,0,1,0-1.06.77.77,0,0,1,1.07,0l.69.69,2.83-3a.76.76,0,0,1,1.07,0,.75.75,0,0,1,0,1.06Z" transform="translate(0 0)"/><path d="M13.35,9.18h0a.75.75,0,0,0-1.06,0l-1.11,1.1-1.1-1.1A.75.75,0,0,0,9,10.25l1.1,1.09L9,12.43a.75.75,0,0,0,1.06,1.07l1.1-1.1,1.11,1.1a.75.75,0,1,0,1.06-1.07l-1.1-1.09,1.1-1.09a.75.75,0,0,0,0-1.07" transform="translate(0 0)"/></g></g></g></g></g></svg>