<svg xmlns="http://www.w3.org/2000/svg" viewBox="0 0 12 16"><defs><style>.cls-1{fill:#010101;}</style></defs><g id="Layer_2" data-name="Layer 2"><g id="Layer_1-2" data-name="Layer 1"><g id="lsi-coma"><path class="cls-1" d="M11.05,0H1A.94.94,0,0,0,0,.94H0v14.1A.94.94,0,0,0,1,16h10.1a1,1,0,0,0,.95-.95V1A.94.94,0,0,0,11.05,0ZM11,15H1V12H11Zm0-4H1V1H11Z"/><path class="cls-1" d="M9.75,13.46a.5.5,0,0,1-.5.5H2.75a.5.5,0,0,1-.5-.5.5.5,0,0,1,.5-.5h6.5A.5.5,0,0,1,9.75,13.46Z"/><path class="cls-1" d="M9.75,5.83A.17.17,0,0,1,9.59,6H8.22l.6.6a.18.18,0,0,1,0,.22.18.18,0,0,1-.24,0L7.75,6H6.45L7.89,7.43H8.7a.17.17,0,1,1,0,.34H8v.72a.16.16,0,0,1-.16.16.17.17,0,0,1-.17-.16V7.67L6.21,6.23v1.3l.84.84h0a.17.17,0,1,1-.25.22L6.21,8V9.37a.16.16,0,0,1-.16.16.16.16,0,0,1-.17-.16V8l-.6.6,0,0A.17.17,0,0,1,5,8.37l.84-.84V6.23L4.44,7.67v.82a.16.16,0,0,1-.16.16.17.17,0,0,1-.17-.16V7.77H3.39a.17.17,0,0,1-.16-.17.16.16,0,0,1,.16-.16h.82L5.65,6H4.35l-.84.83a.16.16,0,0,1-.22,0,.16.16,0,0,1,0-.23l.6-.6H2.51a.17.17,0,0,1,0-.34H3.88l-.6-.6a.16.16,0,0,1,0-.22.16.16,0,0,1,.23,0l.84.84H5.64L4.2,4.23H3.39a.18.18,0,0,1-.17-.17.17.17,0,0,1,.17-.16h.72V3.18A.16.16,0,0,1,4.27,3a.17.17,0,0,1,.17.17V4L5.88,5.43V4.13L5,3.3a.18.18,0,0,1,0-.22.17.17,0,0,1,.24,0l.6.6V2.29A.16.16,0,0,1,6,2.13a.16.16,0,0,1,.17.16V3.66l.6-.6a.18.18,0,0,1,.22,0,.17.17,0,0,1,0,.24l-.84.83v1.3L7.65,4V3.17A.16.16,0,0,1,7.82,3,.16.16,0,0,1,8,3.17v.72H8.7a.17.17,0,0,1,0,.34H7.89L6.45,5.66h1.3l.83-.83a.16.16,0,0,1,.22,0,.16.16,0,0,1,0,.23l-.6.6H9.59A.17.17,0,0,1,9.75,5.83Z"/></g></g></g></svg>