<svg xmlns="http://www.w3.org/2000/svg" viewBox="0 0 16 16"><defs><style>.cls-1{fill:#010101;}</style></defs><g id="Layer_2" data-name="Layer 2"><g id="Layer_1-2" data-name="Layer 1"><path class="cls-1" d="M10.9,0H1.09A1.18,1.18,0,0,0,0,1.25v13.5A1.18,1.18,0,0,0,1.09,16H6.81l-.57-1.14H1.09A.1.1,0,0,1,1,14.75V1.25a.1.1,0,0,1,.09-.11H10.9a.1.1,0,0,1,.1.11V9.83l1-1V1.25A1.18,1.18,0,0,0,10.9,0ZM8,12.35H7a.38.38,0,0,0-.38.38A.37.37,0,0,0,7,13.1H8a.37.37,0,0,0,.37-.37A.38.38,0,0,0,8,12.35Zm1.34-1.5H7a.38.38,0,0,0-.38.38A.37.37,0,0,0,7,11.6H9.38a.36.36,0,0,0,.37-.37A.37.37,0,0,0,9.38,10.85Zm-3.73,0H2.35A.35.35,0,0,0,2,11.2v1.56a.35.35,0,0,0,.35.34h3.3A.35.35,0,0,0,6,12.76V11.2A.35.35,0,0,0,5.65,10.85ZM5.5,12.61h-3V11.35h3ZM8.77,8.38H7a.37.37,0,0,0-.38.37A.38.38,0,0,0,7,9.13H8.77a.38.38,0,0,0,.38-.38A.37.37,0,0,0,8.77,8.38Zm.91-1.5H7a.37.37,0,0,0-.38.37A.38.38,0,0,0,7,7.63H9.68a.38.38,0,0,0,.37-.38A.37.37,0,0,0,9.68,6.88Zm-4,0H2.35A.35.35,0,0,0,2,7.22V8.78a.35.35,0,0,0,.35.35h3.3A.35.35,0,0,0,6,8.78V7.22A.35.35,0,0,0,5.65,6.88ZM5.5,8.63h-3V7.37h3ZM8.77,4.28H7A.38.38,0,1,0,7,5H8.77a.38.38,0,1,0,0-.75Zm.91-1.5H7a.38.38,0,1,0,0,.75H9.68a.38.38,0,0,0,0-.75Zm2,11.23H14V11.65Zm2.65-6.3L7.71,14.29a1,1,0,0,0-.3.7,1,1,0,0,0,1,1H15a1,1,0,0,0,1-1V8.41A1,1,0,0,0,14.29,7.71ZM15,15H8.41l.94-.94.66.65.7-.7-.65-.66,1.29-1.29.66.65.7-.7-.65-.66,1.29-1.29.66.65.7-.7-.65-.66L15,8.41Zm-1-1V11.65L11.64,14Zm-2.37,0H14V11.65Zm-6-11.23H2.35A.35.35,0,0,0,2,3.13V4.68A.35.35,0,0,0,2.35,5h3.3A.35.35,0,0,0,6,4.68V3.13A.35.35,0,0,0,5.65,2.78ZM5.5,4.54h-3V3.27h3Z"/></g></g></svg>