<svg xmlns="http://www.w3.org/2000/svg" viewBox="0 0 16 16"><defs><style>.cls-1{fill:#010101;}</style></defs><g id="Layer_2" data-name="Layer 2"><g id="Layer_1-2" data-name="Layer 1"><path class="cls-1" d="M12.5,5a.68.68,0,0,1-.94,0L8.67,2.19V11a.66.66,0,0,1-1.32,0V2.2L4.43,5A.59.59,0,0,1,4,5.18.59.59,0,0,1,3.51,5a.59.59,0,0,1,0-.89L7.6.17a.59.59,0,0,1,.83,0L12.5,4.08A.62.62,0,0,1,12.5,5Z"/><path class="cls-1" d="M15.39,16H.61A.64.64,0,0,1,0,15.34V10.63A.64.64,0,0,1,.61,10a.65.65,0,0,1,.62.66v4H14.77v-4a.65.65,0,0,1,.62-.66.64.64,0,0,1,.61.66v4.71A.64.64,0,0,1,15.39,16Z"/></g></g></svg>