<svg xmlns="http://www.w3.org/2000/svg" viewBox="0 0 16 16"><defs><style>.cls-1{fill:#010101;}</style></defs><g id="Layer_2" data-name="Layer 2"><g id="Layer_1-2" data-name="Layer 1"><path id="lsi-plots" class="cls-1" d="M5.43,12A1.43,1.43,0,1,1,4,10.57,1.43,1.43,0,0,1,5.43,12ZM6,4.69a2,2,0,1,0,2,2A2,2,0,0,0,6,4.69Zm5.35,2.43a2.31,2.31,0,1,0,2.3,2.31A2.3,2.3,0,0,0,11.35,7.12Zm0-4.37a1.16,1.16,0,1,0,1.16,1.16A1.16,1.16,0,0,0,11.35,2.75Zm4.05,12H14.19V13.58a.61.61,0,0,0-1.21,0v1.21H8.75V13.58a.6.6,0,0,0-1.2,0v1.21H1.21V8.45H2.42a.6.6,0,1,0,0-1.2H1.21V3H2.42a.61.61,0,0,0,0-1.21H1.21V.6A.61.61,0,0,0,0,.6V15.4a.6.6,0,0,0,.6.6H15.4a.61.61,0,0,0,0-1.21Z"/></g></g></svg>