<svg xmlns="http://www.w3.org/2000/svg" xmlns:xlink="http://www.w3.org/1999/xlink" viewBox="0 0 16 15.24"><defs><style>.cls-1{fill:none;}.cls-2{clip-path:url(#clip-path);}</style><clipPath id="clip-path" transform="translate(0 0)"><rect class="cls-1" width="16" height="15.24"/></clipPath></defs><g id="Layer_2" data-name="Layer 2"><g id="Layer_1-2" data-name="Layer 1"><g id="lsi-star"><g class="cls-2"><g class="cls-2"><path d="M3.29,15.24a.41.41,0,0,1-.22-.07.39.39,0,0,1-.15-.41L4.3,9.58.14,6.21A.39.39,0,0,1,0,5.79a.38.38,0,0,1,.34-.26l5.36-.29,1.92-5A.4.4,0,0,1,8,0a.37.37,0,0,1,.35.24l1.93,5,5.36.29A.39.39,0,0,1,16,5.8a.38.38,0,0,1-.12.41L11.7,9.59l1.38,5.17a.38.38,0,0,1-.58.42L8,12.26,3.5,15.18a.42.42,0,0,1-.21.06m-1.9-9L5,9.15a.37.37,0,0,1,.13.39L3.91,14l3.88-2.51a.4.4,0,0,1,.42,0L12.09,14,10.9,9.55a.38.38,0,0,1,.13-.4l3.58-2.91L10,6a.39.39,0,0,1-.34-.24L8,1.44,6.34,5.74A.41.41,0,0,1,6,6Z" transform="translate(0 0)"/></g></g></g></g></g></svg>