<svg xmlns="http://www.w3.org/2000/svg" viewBox="0 0 16 16"><defs><style>.cls-1{fill:#010101;}</style></defs><g id="Layer_2" data-name="Layer 2"><g id="Layer_1-2" data-name="Layer 1"><path id="lsi-add-account" class="cls-1" d="M8,16a8,8,0,1,1,8-8,7.85,7.85,0,0,1-.55,2.92.61.61,0,1,1-1.14-.45A6.94,6.94,0,0,0,14.77,8,6.77,6.77,0,1,0,8,14.77a6.88,6.88,0,0,0,2.69-.55.61.61,0,0,1,.81.32.62.62,0,0,1-.32.81A8.08,8.08,0,0,1,8,16ZM8,8.06A2.08,2.08,0,1,0,5.92,6,2.08,2.08,0,0,0,8,8.06Zm0,.63a4,4,0,0,0-3.69,2.4,4.78,4.78,0,0,0,7.38,0A4,4,0,0,0,8,8.69Zm5.6,2H12.49v1.8h-1.8v1h1.8v1.91H13.6V13.47h1.78v-1H13.6Z"/></g></g></svg>