<svg xmlns="http://www.w3.org/2000/svg" viewBox="0 0 16 16"><defs><style>.cls-1{fill:#010101;}</style></defs><g id="Layer_2" data-name="Layer 2"><g id="Layer_1-2" data-name="Layer 1"><g id="lsi-select-all"><path class="cls-1" d="M5.72,12.56a.66.66,0,0,1-.94,0L2.91,10.72a1,1,0,0,1,0-1.39h0a1,1,0,0,1,1.4,0l.9.9L8.91,6.3a1,1,0,0,1,1.4,0h0a1,1,0,0,1,0,1.38Z"/><path class="cls-1" d="M12.24,3.76V15H1V3.76H12.24m0-1H1a1,1,0,0,0-1,1V15a1,1,0,0,0,1,1H12.24a1,1,0,0,0,1-1V3.76a1,1,0,0,0-1-1Z"/><path class="cls-1" d="M15.45,14.34a.54.54,0,0,1-.55-.55V2.16A1.07,1.07,0,0,0,13.84,1.1H2.21A.54.54,0,0,1,1.66.55.55.55,0,0,1,2.21,0H13.84A2.16,2.16,0,0,1,16,2.16V13.79A.55.55,0,0,1,15.45,14.34Z"/></g></g></g></svg>