<svg xmlns="http://www.w3.org/2000/svg" xmlns:xlink="http://www.w3.org/1999/xlink" viewBox="0 0 16 16"><defs><style>.cls-1{fill:none;}.cls-2{clip-path:url(#clip-path);}</style><clipPath id="clip-path" transform="translate(0)"><rect class="cls-1" width="16" height="16"/></clipPath></defs><g id="Layer_2" data-name="Layer 2"><g id="Layer_1-2" data-name="Layer 1"><g id="lsi-NodeTree"><g class="cls-2"><g class="cls-2"><path d="M6.67,0H1.33A1.34,1.34,0,0,0,0,1.33V6.67A1.34,1.34,0,0,0,1.33,8H3.5v4a.5.5,0,0,0,.5.5H8V15a1,1,0,0,0,1,1h6a1,1,0,0,0,1-1V9a1,1,0,0,0-1-1H9A1,1,0,0,0,8,9v2.5H4.5V8H6.67A1.34,1.34,0,0,0,8,6.67V1.33A1.34,1.34,0,0,0,6.67,0m5,11.55v-2h.85v2h2.05v.9H12.51v2h-.85v-2H9.44v-.9ZM6.67,1A.33.33,0,0,1,7,1.33V6.67A.33.33,0,0,1,6.67,7H1.33A.33.33,0,0,1,1,6.67V1.33A.33.33,0,0,1,1.33,1Z" transform="translate(0)"/></g></g></g></g></g></svg>