<svg xmlns="http://www.w3.org/2000/svg" viewBox="0 0 16 16"><defs><style>.cls-1{fill:#010101;}</style></defs><g id="Layer_2" data-name="Layer 2"><g id="Layer_1-2" data-name="Layer 1"><g id="lsi-split"><path class="cls-1" d="M10.35,13.15a.48.48,0,0,0-.7,0L8.5,14.29V10.5a.5.5,0,0,0-1,0v3.79L6.35,13.15a.49.49,0,0,0-.7.7l2,2a.48.48,0,0,0,.7,0l2-2A.48.48,0,0,0,10.35,13.15Z"/><path class="cls-1" d="M.5,7.5h15a.5.5,0,0,1,0,1H.5a.5.5,0,0,1,0-1Z"/><path class="cls-1" d="M5.65,2.85a.48.48,0,0,0,.7,0L7.5,1.71V5.5a.5.5,0,0,0,1,0V1.71L9.65,2.85a.49.49,0,1,0,.7-.7l-2-2a.48.48,0,0,0-.7,0l-2,2A.48.48,0,0,0,5.65,2.85Z"/></g></g></g></svg>