<svg xmlns="http://www.w3.org/2000/svg" xmlns:xlink="http://www.w3.org/1999/xlink" viewBox="0 0 16 16"><defs><style>.cls-1{fill:none;}.cls-2{clip-path:url(#clip-path);}.cls-3{fill:#231f20;}</style><clipPath id="clip-path" transform="translate(0 0)"><rect class="cls-1" width="16" height="16"/></clipPath></defs><g id="Layer_2" data-name="Layer 2"><g id="Layer_1-2" data-name="Layer 1"><g id="lsi-undo"><g class="cls-2"><g class="cls-2"><path class="cls-3" d="M9.88,3.76H1.61l3-3a.47.47,0,0,0,0-.66.47.47,0,0,0-.67,0L.14,3.9a.39.39,0,0,0-.1.16.43.43,0,0,0,0,.35.39.39,0,0,0,.1.16L3.9,8.33a.48.48,0,0,0,.34.14.47.47,0,0,0,.33-.8l-3-3H9.88a5.18,5.18,0,1,1,0,10.35H4.24a.47.47,0,1,0,0,.94H9.88a6.12,6.12,0,0,0,0-12.24" transform="translate(0 0)"/></g></g></g></g></g></svg>