<svg xmlns="http://www.w3.org/2000/svg" viewBox="0 0 16 14"><defs><style>.cls-1{fill:#010101;}</style></defs><g id="Layer_2" data-name="Layer 2"><g id="Layer_1-2" data-name="Layer 1"><g id="lsi-frames"><path class="cls-1" d="M15.26,0H8.74A.74.74,0,0,0,8,.74V4H4.74A.74.74,0,0,0,4,4.74V8H.74A.74.74,0,0,0,0,8.74v4.52A.74.74,0,0,0,.74,14H7.26A.74.74,0,0,0,8,13.26V10h3.26A.74.74,0,0,0,12,9.26V6h3.26A.74.74,0,0,0,16,5.26V.74A.74.74,0,0,0,15.26,0ZM7,13H1V9H7Zm4-4H8V8.74A.74.74,0,0,0,7.26,8H5V5h6Zm4-4H12V4.74A.74.74,0,0,0,11.26,4H9V1h6Z"/></g></g></g></svg>