<svg xmlns="http://www.w3.org/2000/svg" xmlns:xlink="http://www.w3.org/1999/xlink" viewBox="0 0 16 16"><defs><style>.cls-1{fill:none;}.cls-2{clip-path:url(#clip-path);}</style><clipPath id="clip-path"><rect class="cls-1" width="16" height="16"/></clipPath></defs><g id="Layer_2" data-name="Layer 2"><g id="Layer_1-2" data-name="Layer 1"><g id="lsi-hierarchy"><g class="cls-2"><g class="cls-2"><path d="M15.5,8h-1V6a.5.5,0,0,0-.5-.5H8.5V4h3a.5.5,0,0,0,.5-.5V.5a.5.5,0,0,0-.5-.5h-7A.5.5,0,0,0,4,.5v3a.5.5,0,0,0,.5.5h3V5.5H2a.5.5,0,0,0-.5.5V8H.5a.5.5,0,0,0-.5.5v3a.5.5,0,0,0,.5.5h3a.5.5,0,0,0,.5-.5v-3A.5.5,0,0,0,3.5,8h-1V6.5h5V12h-1a.5.5,0,0,0-.5.5v3a.5.5,0,0,0,.5.5h3a.5.5,0,0,0,.5-.5v-3a.5.5,0,0,0-.5-.5h-1V6.5h5V8h-1a.5.5,0,0,0-.5.5v3a.5.5,0,0,0,.5.5h3a.5.5,0,0,0,.5-.5v-3a.5.5,0,0,0-.5-.5M3,11H1V9H3Zm6,4H7V13H9ZM5,1h6V3H5ZM15,11H13V9h2Z"/></g></g></g></g></g></svg>