<svg xmlns="http://www.w3.org/2000/svg" viewBox="0 0 16 16"><defs><style>.cls-1{fill:#010101;}</style></defs><g id="Layer_2" data-name="Layer 2"><g id="Layer_1-2" data-name="Layer 1"><g id="lsi-reservation-dashboard"><path class="cls-1" d="M15,0H1A1,1,0,0,0,0,1V15a1,1,0,0,0,1,1H15a1,1,0,0,0,1-1V1A1,1,0,0,0,15,0Zm0,15H1V3H15Z"/><path class="cls-1" d="M7.57,9.76a.51.51,0,0,1-.34-.13l-1-.92A.5.5,0,0,1,6.91,8l.61.56L9.29,6.39a.5.5,0,1,1,.77.63L8,9.58a.47.47,0,0,1-.35.18Z"/><path class="cls-1" d="M10.67,5a.33.33,0,0,1,.33.33v5.34a.33.33,0,0,1-.33.33H5.33A.33.33,0,0,1,5,10.67V5.33A.33.33,0,0,1,5.33,5h5.34m0-1H5.33A1.34,1.34,0,0,0,4,5.33v5.34A1.34,1.34,0,0,0,5.33,12h5.34A1.34,1.34,0,0,0,12,10.67V5.33A1.34,1.34,0,0,0,10.67,4Z"/><path class="cls-1" d="M12,13.84H4a.5.5,0,0,1-.5-.5.5.5,0,0,1,.5-.5h8a.5.5,0,0,1,.5.5A.5.5,0,0,1,12,13.84Z"/></g></g></g></svg>