<svg xmlns="http://www.w3.org/2000/svg" viewBox="0 0 16 14"><defs><style>.cls-1{fill:#010101;}</style></defs><g id="Layer_2" data-name="Layer 2"><g id="Layer_1-2" data-name="Layer 1"><path id="lsi-video" class="cls-1" d="M15.69,5.18a.48.48,0,0,0-.54.11L12,8.39V6.62a1,1,0,0,0-1-1H9.76A2.93,2.93,0,0,0,11.5,3,3,3,0,0,0,6,1.32,3,3,0,0,0,3.5,0a3,3,0,0,0-3,3A2.93,2.93,0,0,0,2.24,5.63H1a1,1,0,0,0-1,1v5.9a1,1,0,0,0,1,1H11a1,1,0,0,0,1-1V10.75l3.15,3.1a.47.47,0,0,0,.35.15.43.43,0,0,0,.19,0,.5.5,0,0,0,.31-.45V5.63A.49.49,0,0,0,15.69,5.18ZM8.5,1a2,2,0,0,1,2,2,2,2,0,0,1-4,0A2,2,0,0,1,8.5,1Zm-7,2a2,2,0,0,1,4,0,2,2,0,0,1-4,0ZM6,4.59a2.86,2.86,0,0,0,1.24,1H4.76A2.86,2.86,0,0,0,6,4.59Zm5,7.93H1V6.62H11Zm4-.2L12.21,9.57,15,6.82Z"/></g></g></svg>