<svg xmlns="http://www.w3.org/2000/svg" xmlns:xlink="http://www.w3.org/1999/xlink" viewBox="0 0 16 16"><defs><style>.cls-1{fill:none;}.cls-2{clip-path:url(#clip-path);}</style><clipPath id="clip-path" transform="translate(0 0)"><rect class="cls-1" width="16" height="16"/></clipPath></defs><g id="Layer_2" data-name="Layer 2"><g id="Layer_1-2" data-name="Layer 1"><g id="lsi-settings"><g class="cls-2"><g class="cls-2"><path d="M8,11.15A3.15,3.15,0,0,1,5.77,5.77a3.16,3.16,0,0,1,4.46,0A3.15,3.15,0,0,1,8,11.15m0-5.3a2.14,2.14,0,0,0-1.52.63,2.12,2.12,0,0,0,0,3,2.15,2.15,0,0,0,3,0,2.15,2.15,0,0,0,0-3A2.14,2.14,0,0,0,8,5.85" transform="translate(0 0)"/><path d="M8.62,0V1L8.8,2.4,8.88,3l.61.19a4.8,4.8,0,0,1,.83.34l.57.3.51-.4,1.11-.86.88.89-.86,1.1-.4.51.3.57a4.8,4.8,0,0,1,.34.83l.19.61.64.08,1.4.18V8.63L13.6,8.8,13,8.88l-.19.61a4.8,4.8,0,0,1-.34.83l-.3.57.4.51.86,1.11-.89.88-1.1-.86-.51-.4-.57.3a4.8,4.8,0,0,1-.83.34L8.88,13l-.08.64L8.62,15H7.37L7.2,13.6,7.12,13l-.61-.19a4.8,4.8,0,0,1-.83-.34l-.57-.3-.51.4-1.11.86-.88-.89.86-1.1.4-.51-.3-.57a5,5,0,0,1-.34-.82L3,8.88,2.4,8.8,1,8.62V7.37L2.4,7.2,3,7.12l.19-.61a4.8,4.8,0,0,1,.34-.83l.3-.57-.4-.51L2.61,3.49l.89-.88,1.1.86.51.4.57-.3a4.8,4.8,0,0,1,.83-.34L7.12,3,7.2,2.4,7.38,1H8.62V0m0,0H7.38a1,1,0,0,0-1,.89L6.21,2.28a6,6,0,0,0-1,.4l-1.1-.86a1,1,0,0,0-.62-.21,1,1,0,0,0-.72.29l-.88.88a1,1,0,0,0-.08,1.34l.86,1.1a6,6,0,0,0-.4,1L.89,6.38a1,1,0,0,0-.89,1V8.62a1,1,0,0,0,.89,1l1.39.16a6,6,0,0,0,.4,1l-.86,1.1a1,1,0,0,0,.08,1.34l.88.88a1,1,0,0,0,.72.29,1,1,0,0,0,.62-.21l1.1-.86a6,6,0,0,0,1,.4l.17,1.39a1,1,0,0,0,1,.89H8.62a1,1,0,0,0,1-.89l.16-1.39a6,6,0,0,0,1-.4l1.1.86a1,1,0,0,0,.62.21,1,1,0,0,0,.72-.29l.88-.88a1,1,0,0,0,.08-1.34l-.86-1.1a6,6,0,0,0,.4-1l1.39-.16a1,1,0,0,0,.89-1V7.38a1,1,0,0,0-.89-1l-1.39-.17a6,6,0,0,0-.4-1l.86-1.1a1,1,0,0,0-.08-1.34l-.88-.88a1,1,0,0,0-.72-.29,1,1,0,0,0-.62.21l-1.1.86a6,6,0,0,0-1-.4L9.63.89a1,1,0,0,0-1-.89" transform="translate(0 0)"/></g></g></g></g></g></svg>