<svg xmlns="http://www.w3.org/2000/svg" xmlns:xlink="http://www.w3.org/1999/xlink" viewBox="0 0 48.5 7.66"><defs><style>.cls-1{fill:none;}.cls-2{clip-path:url(#clip-path);}</style><clipPath id="clip-path" transform="translate(0 0)"><rect class="cls-1" width="48.5" height="7.66"/></clipPath></defs><g id="Layer_2" data-name="Layer 2"><g id="Layer_1-2" data-name="Layer 1"><g id="lsi-logo"><g class="cls-2"><g class="cls-2"><path d="M6,6.6a3.51,3.51,0,0,1-2.5,1A3.34,3.34,0,0,1,0,4.15,3.37,3.37,0,0,1,3.54.59a3.52,3.52,0,0,1,2.5,1l-.36.31a3,3,0,0,0-2.14-.87,2.86,2.86,0,0,0-3,3.06,2.87,2.87,0,0,0,3,3,3.09,3.09,0,0,0,2.15-.88Z" transform="translate(0 0)"/><path d="M10.84,7.55V6.68a1.92,1.92,0,0,1-1.73,1A2,2,0,0,1,6.92,5.49V2.69H7.4V5.48A1.56,1.56,0,0,0,9.13,7.16a1.69,1.69,0,0,0,1.7-1.77V2.69h.48V7.55Z" transform="translate(0 0)"/><path d="M13,2.7v.86a1.72,1.72,0,0,1,1.62-.91,2,2,0,0,1,1,.28l-.22.4a1.52,1.52,0,0,0-.82-.23A1.62,1.62,0,0,0,13,4.72V7.55h-.48V2.7Z" transform="translate(0 0)"/><path d="M16.12,5.12a2.44,2.44,0,0,1,2.47-2.5A2.27,2.27,0,0,1,21,5.35H16.61a1.91,1.91,0,0,0,2,1.8,2.3,2.3,0,0,0,1.75-.74l.34.28a2.66,2.66,0,0,1-2.09.93,2.38,2.38,0,0,1-2.47-2.5m4.43-.19a1.78,1.78,0,0,0-2-1.87,1.94,1.94,0,0,0-2,1.87Z" transform="translate(0 0)"/><path d="M26.78,2a2.21,2.21,0,0,0-2.08-.93c-.81,0-2.08.29-2.08,1.39,0,.88.94,1.08,2.1,1.3,1.33.25,2.7.49,2.7,2S25.85,7.66,24.7,7.66a3.09,3.09,0,0,1-2.82-1.49l.47-.24A2.7,2.7,0,0,0,24.7,7.18c.85,0,2.19-.24,2.19-1.46,0-1-1.13-1.25-2.26-1.47s-2.54-.5-2.54-1.77C22.06,1,23.57.57,24.7.57a2.66,2.66,0,0,1,2.52,1.17Z" transform="translate(0 0)"/><path d="M29,.67V3.6a1.93,1.93,0,0,1,1.75-1,1.91,1.91,0,0,1,2,2.14V7.55h-.47V4.77c0-1-.47-1.68-1.56-1.68A1.71,1.71,0,0,0,29,4.89V7.55h-.49V.67Z" transform="translate(0 0)"/><path d="M38.73,2.7V7.55h-.48v-1a2.28,2.28,0,0,1-2,1.11,2.43,2.43,0,0,1-2.47-2.51,2.41,2.41,0,0,1,2.47-2.48,2.21,2.21,0,0,1,2,1.12V2.7ZM34.28,5.12a2,2,0,0,0,2,2,2,2,0,0,0,0-4.06,1.94,1.94,0,0,0-2,2" transform="translate(0 0)"/><path d="M40.49,2.7l0,.86a1.69,1.69,0,0,1,1.61-.91,1.94,1.94,0,0,1,1,.28l-.22.4a1.52,1.52,0,0,0-.82-.23,1.61,1.61,0,0,0-1.6,1.62V7.55H40V2.7Z" transform="translate(0 0)"/><path d="M43.61,5.12a2.44,2.44,0,0,1,2.47-2.5,2.27,2.27,0,0,1,2.4,2.73H44.1a1.92,1.92,0,0,0,2,1.8,2.29,2.29,0,0,0,1.75-.74l.34.28a2.65,2.65,0,0,1-2.09.93,2.38,2.38,0,0,1-2.47-2.5m4.44-.19a1.79,1.79,0,0,0-2-1.87,2,2,0,0,0-2,1.87Z" transform="translate(0 0)"/><path d="M9,1.9a.37.37,0,0,0-.74,0A.37.37,0,1,0,9,1.9" transform="translate(0 0)"/><path d="M9,.37a.37.37,0,1,0-.73,0A.37.37,0,1,0,9,.37" transform="translate(0 0)"/><path d="M9.11,6.27h0A.84.84,0,0,0,10,5.43V2.78s-.34-.52-.84,0a.5.5,0,0,1-.84,0V5.43a.85.85,0,0,0,.84.84" transform="translate(0 0)"/><path d="M10,1.14a.37.37,0,1,0-.37.37A.38.38,0,0,0,10,1.14" transform="translate(0 0)"/></g></g></g></g></g></svg>