<svg xmlns="http://www.w3.org/2000/svg" viewBox="0 0 12 16"><defs><style>.cls-1{fill:#231f20;}</style></defs><g id="Layer_2" data-name="Layer 2"><g id="Layer_1-2" data-name="Layer 1"><g id="lsi-workflow"><path class="cls-1" d="M10.17,11.15A4.3,4.3,0,0,0,8.68,8.38,4.19,4.19,0,0,1,7.45,9,3.06,3.06,0,0,1,9,11.17,2.45,2.45,0,0,0,7.2,13.54a2.4,2.4,0,1,0,3-2.39ZM9.6,14.77a1.23,1.23,0,1,1,1.2-1.23A1.22,1.22,0,0,1,9.6,14.77Z"/><path class="cls-1" d="M3.05,4.83A2.45,2.45,0,0,0,4.8,2.46,2.43,2.43,0,0,0,2.4,0,2.43,2.43,0,0,0,0,2.46,2.45,2.45,0,0,0,1.83,4.85,4.3,4.3,0,0,0,3.32,7.62,4.19,4.19,0,0,1,4.55,7,3.06,3.06,0,0,1,3.05,4.83ZM1.2,2.46A1.22,1.22,0,0,1,2.4,1.23,1.22,1.22,0,0,1,3.6,2.46,1.22,1.22,0,0,1,2.4,3.69,1.22,1.22,0,0,1,1.2,2.46Z"/><path class="cls-1" d="M11.4,2.46A1.83,1.83,0,0,1,10.2,4.2v.11c0,.15,0,.29,0,.43h0c0,.12,0,.25-.06.36a.8.8,0,0,1,0,.15,1.22,1.22,0,0,1-.06.26l0,.17a3.49,3.49,0,0,1-.22.53c0,.08-.08.15-.11.22l-.18.3A2.92,2.92,0,0,1,9.26,7a2.52,2.52,0,0,1-.27.3.71.71,0,0,1-.12.13l-.22.19a1.56,1.56,0,0,1-.2.16l-.07,0L8.2,8l0,0L8,8.11a3.59,3.59,0,0,1-.34.17,1.85,1.85,0,0,1-.33.12,2.73,2.73,0,0,1-.56.15l-.27,0a.11.11,0,0,1-.08,0L6,8.62a3,3,0,0,0-3,3.07v.11a1.83,1.83,0,0,1,1.2,1.74,1.81,1.81,0,0,1-1.8,1.84A1.81,1.81,0,0,1,.6,13.54,1.83,1.83,0,0,1,1.8,11.8v-.11c0-.15,0-.29,0-.43h0c0-.12,0-.25.06-.36a.8.8,0,0,1,0-.15A1.22,1.22,0,0,1,2,10.48L2,10.31a3.49,3.49,0,0,1,.22-.53c0-.08.08-.15.11-.22l.18-.3A2.92,2.92,0,0,1,2.74,9,2.52,2.52,0,0,1,3,8.68a.71.71,0,0,1,.12-.13l.22-.19a1.56,1.56,0,0,1,.2-.16l.07,0L3.8,8l0,0L4,7.89l.34-.17A1.85,1.85,0,0,1,4.7,7.6a2.73,2.73,0,0,1,.56-.15,1.24,1.24,0,0,1,.27,0,.11.11,0,0,1,.08,0,2.56,2.56,0,0,1,.39,0A3,3,0,0,0,9,4.31V4.2A1.83,1.83,0,0,1,7.8,2.46a1.8,1.8,0,1,1,3.6,0Z"/></g></g></g></svg>