<svg xmlns="http://www.w3.org/2000/svg" xmlns:xlink="http://www.w3.org/1999/xlink" viewBox="0 0 16 16"><defs><style>.cls-1{fill:none;}.cls-2{clip-path:url(#clip-path);}</style><clipPath id="clip-path"><rect class="cls-1" width="16" height="16"/></clipPath></defs><g id="Layer_2" data-name="Layer 2"><g id="Layer_1-2" data-name="Layer 1"><g id="lsi-levels"><g class="cls-2"><g class="cls-2"><path d="M15,7H10.29A2.5,2.5,0,0,0,5.71,7H1A1,1,0,0,0,1,9H5.71a2.5,2.5,0,0,0,4.58,0H15a1,1,0,0,0,0-2M8,9.5A1.5,1.5,0,1,1,9.5,8,1.5,1.5,0,0,1,8,9.5"/><path d="M15,1.5H4.79A2.5,2.5,0,1,0,2.5,5,2.51,2.51,0,0,0,4.79,3.5H15a1,1,0,0,0,0-2M2.5,4A1.5,1.5,0,1,1,4,2.5,1.5,1.5,0,0,1,2.5,4"/><path d="M13.5,11a2.51,2.51,0,0,0-2.29,1.5H1.06a1,1,0,0,0,0,2H11.21A2.5,2.5,0,1,0,13.5,11m0,4A1.5,1.5,0,1,1,15,13.5,1.5,1.5,0,0,1,13.5,15"/></g></g></g></g></g></svg>