<svg xmlns="http://www.w3.org/2000/svg" viewBox="0 0 16 16"><defs><style>.cls-1{fill:#010101;}</style></defs><g id="Layer_2" data-name="Layer 2"><g id="Layer_1-2" data-name="Layer 1"><path id="lsi-bug" class="cls-1" d="M12.24,9.21h3.29A.47.47,0,0,0,16,8.73a.48.48,0,0,0-.47-.49H12.24v-2A4.3,4.3,0,0,0,16,1.94a.47.47,0,1,0-.94,0,3.35,3.35,0,0,1-2.82,3.34V3.88a.49.49,0,0,0-.48-.49V2.74A2.7,2.7,0,0,0,9.1,0H6.9A2.7,2.7,0,0,0,4.24,2.74v.65a.49.49,0,0,0-.48.49v1.4A3.35,3.35,0,0,1,.94,1.94a.48.48,0,0,0-.47-.49A.48.48,0,0,0,0,1.94,4.3,4.3,0,0,0,3.76,6.25v2H.47A.48.48,0,0,0,0,8.73a.47.47,0,0,0,.47.48H3.76V9.7A4.46,4.46,0,0,0,4,11.17a4.31,4.31,0,0,0-4,4.35A.48.48,0,0,0,.47,16a.48.48,0,0,0,.47-.48,3.35,3.35,0,0,1,3.3-3.4.42.42,0,0,0,.21-.06,4.15,4.15,0,0,0,7.1,0,.42.42,0,0,0,.21.06,3.35,3.35,0,0,1,3.3,3.4.47.47,0,1,0,.94,0,4.31,4.31,0,0,0-4-4.35,4.46,4.46,0,0,0,.27-1.47ZM4.71,9.7V4.36H7.53v8.7A3.37,3.37,0,0,1,4.71,9.7Zm3.76,3.36V4.36h2.82V9.7A3.37,3.37,0,0,1,8.47,13.06Z"/></g></g></svg>